<?xml version="1.0" standalone="no"?>
<!DOCTYPE svg PUBLIC "-//W3C//DTD SVG 1.1//EN" "http://www.w3.org/Graphics/SVG/1.1/DTD/svg11.dtd" >
<svg xmlns="http://www.w3.org/2000/svg" xmlns:xlink="http://www.w3.org/1999/xlink" version="1.1">
<metadata>
Created by FontForge 20161003 at Tue Jul 10 19:24:29 2018
 By www-data
Copyright 2016 The Jura Font Project Authors
</metadata>
<defs>
<font id="JuraBold" horiz-adv-x="634" >
  <font-face 
    font-family="JuraBold"
    font-weight="700"
    font-stretch="normal"
    units-per-em="1000"
    panose-1="0 0 8 0 0 0 0 0 0 0"
    ascent="800"
    descent="-200"
    x-height="507"
    cap-height="642"
    bbox="-763 -228 1316.62 1088"
    underline-thickness="50"
    underline-position="-150"
    unicode-range="U+000D-FB02"
  />
<missing-glyph horiz-adv-x="452" 
d="M371 704v-904h-287v904h287zM301 643h-149v-29h59v-34h-60v-30h150v30h-60v34h60v29zM241 527h-90v-94h150v31h-60v63zM211 496v-32h-30v32h30zM301 408h-150v-29h60v-34h-60v-30h90v64h60v29zM301 354h-30v-60h-120v-30h150v90zM301 244h-90v-51h30v21h30v-42h-90v72
h-30v-102h150v102zM301 87h-150v-102h150v102zM271 58v-43h-90v43h90zM301 -35h-150v-30h63l-63 -43v-30h150v30h-92l63 43h29v30z" />
    <glyph glyph-name="fi" unicode="fi" horiz-adv-x="631" 
d="M545 659v-31q0 -24 -12 -37t-35 -13h-29q-13 0 -26 5l-127 37q-42 0 -65.5 -10t-33.5 -33t-10 -66v-4h279q20 0 31 -11t11 -31q0 -8 -1 -11v-412q0 -20 -11 -31t-31 -11t-31 11t-11 31v381h-236v-381q0 -20 -11 -31t-31 -11t-31 11t-11 31v381h-37q-20 0 -31 11t-11 31
t11 31t31 11h37v4q0 98 47.5 145.5t145.5 47.5h135q12 2 18 2h29q47 0 47 -47z" />
    <glyph glyph-name="fl" unicode="fl" horiz-adv-x="690" 
d="M634 75q11 -9 11 -33q0 -20 -10.5 -31t-30.5 -11q-82 -1 -121.5 38t-39.5 122v460h-127q-43 0 -66.5 -9.5t-33 -33t-9.5 -66.5v-4h102q20 0 31 -11t11 -31t-11 -31t-31 -11h-102v-381q0 -20 -11 -31t-31 -11t-31 11t-11 31v381h-37q-20 0 -31 11t-11 31t11 31t31 11h37v4
q0 98 47.5 145.5t145.5 47.5h169q20 0 31 -11t11 -31v-502q0 -32 6 -48t20.5 -22t43.5 -6q26 0 37 -9z" />
    <glyph glyph-name="f_f" unicode="ff" horiz-adv-x="706" 
d="M672 465q0 -20 -11 -31t-31 -11h-103v-381q0 -20 -11 -31t-31 -11t-31 11t-11 31v381h-236v-381q0 -20 -11 -31t-31 -11t-31 11t-11 31v381h-37q-20 0 -31 11t-11 31t11 31t31 11h37v4q0 98 47.5 145.5t145.5 47.5q17 0 26.5 -10.5t9.5 -31.5q0 -20 -9.5 -31t-26.5 -11
q-43 0 -66 -9.5t-33 -33t-10 -66.5v-4h236v4q0 98 47.5 145.5t145.5 47.5q36 0 36 -42q0 -20 -9.5 -31t-26.5 -11q-43 0 -66 -9.5t-33 -33t-10 -66.5v-4h103q42 0 42 -42z" />
    <glyph glyph-name=".notdef" horiz-adv-x="452" 
d="M371 704v-904h-287v904h287zM301 643h-149v-29h59v-34h-60v-30h150v30h-60v34h60v29zM241 527h-90v-94h150v31h-60v63zM211 496v-32h-30v32h30zM301 408h-150v-29h60v-34h-60v-30h90v64h60v29zM301 354h-30v-60h-120v-30h150v90zM301 244h-90v-51h30v21h30v-42h-90v72
h-30v-102h150v102zM301 87h-150v-102h150v102zM271 58v-43h-90v43h90zM301 -35h-150v-30h63l-63 -43v-30h150v30h-92l63 43h29v30z" />
    <glyph glyph-name=".null" horiz-adv-x="0" 
 />
    <glyph glyph-name="nonmarkingreturn" unicode="&#xd;" horiz-adv-x="314" 
 />
    <glyph glyph-name="NULL" horiz-adv-x="0" 
 />
    <glyph glyph-name="NULL" horiz-adv-x="0" 
 />
    <glyph glyph-name="space" unicode=" " horiz-adv-x="314" 
 />
    <glyph glyph-name="exclam" unicode="!" horiz-adv-x="270" 
d="M94 168v495q0 42 42 42t42 -42v-495q0 -42 -42 -42t-42 42zM94.5 10.5q-10.5 10.5 -10.5 29.5v25q0 19 10.5 29t29.5 10h24q38 0 38 -39v-25q0 -19 -9.5 -29.5t-28.5 -10.5h-24q-19 0 -29.5 10.5z" />
    <glyph glyph-name="quotedbl" unicode="&#x22;" horiz-adv-x="398" 
d="M94.5 459.5q-10.5 10.5 -10.5 24.5v204q0 14 10.5 24.5t24.5 10.5t24.5 -10.5t10.5 -24.5v-204q0 -14 -10.5 -24.5t-24.5 -10.5t-24.5 10.5zM254.5 459.5q-10.5 10.5 -10.5 24.5v204q0 14 10.5 24.5t24.5 10.5t24.5 -10.5t10.5 -24.5v-204q0 -14 -10.5 -24.5t-24.5 -10.5
t-24.5 10.5z" />
    <glyph glyph-name="numbersign" unicode="#" horiz-adv-x="621" 
d="M105.5 -2.5q-10.5 10.5 -10.5 24.5q0 7 1 10l47 166h-64q-14 0 -24.5 10.5t-10.5 24.5t10.5 24.5t24.5 10.5h83l37 130h-64q-14 0 -24.5 10.5t-10.5 24.5t10.5 24.5t24.5 10.5h83l48 174q2 11 12 18.5t22 7.5q14 0 24.5 -10.5t10.5 -24.5q0 -7 -1 -10l-44 -155h108
l48 174q2 11 12 18.5t22 7.5q14 0 24.5 -10.5t10.5 -24.5q0 -7 -1 -10l-44 -155h92q14 0 24.5 -10.5t10.5 -24.5t-10.5 -24.5t-24.5 -10.5h-111l-35 -130h90q14 0 24.5 -10.5t10.5 -24.5t-10.5 -24.5t-24.5 -10.5h-111l-51 -185q-2 -11 -12 -18.5t-22 -7.5q-14 0 -24.5 10.5
t-10.5 24.5q0 7 1 10l47 166h-108l-51 -185q-2 -11 -12 -18.5t-22 -7.5q-14 0 -24.5 10.5zM236 268h106l37 130h-108z" />
    <glyph glyph-name="dollar" unicode="$" horiz-adv-x="672" 
d="M546 328q46 -46 46 -141q0 -94 -46 -140.5t-141 -46.5h-34v-55q0 -35 -35 -35q-17 0 -26 9t-9 26v55h-34q-96 0 -141.5 46t-45.5 141q0 17 13 29.5t29 12.5q17 0 29.5 -12.5t12.5 -29.5q0 -41 9.5 -63t31 -31t62.5 -9h34v206h-19q-91 0 -135 42t-44 132q0 91 44 134.5
t134 43.5h26v68q0 17 9 26t26 9t26 -9t9 -26v-68h25q90 0 134 -43.5t44 -133.5q0 -16 -12.5 -29t-29.5 -13q-16 0 -29 13t-13 29q0 37 -8 57t-28 28t-58 8h-25v-184h28q95 0 141 -46zM195 408q8 -19 28 -26.5t59 -7.5h25v184h-26q-38 0 -58 -8t-28 -28t-8 -58q0 -37 8 -56z
M467.5 93q21.5 9 31 31t9.5 63t-9.5 63t-31 31t-62.5 9h-34v-206h34q41 0 62.5 9z" />
    <glyph glyph-name="percent" unicode="%" horiz-adv-x="878" 
d="M64 460v75q0 143 143 143h16q143 0 143 -143v-74q0 -145 -143 -145h-16q-143 0 -143 144zM177.5 -7.5q-12.5 12.5 -12.5 29.5q0 15 8 26l461 610q14 17 34 17q17 0 29.5 -12.5t12.5 -29.5q0 -15 -8 -26l-461 -610q-14 -17 -34 -17q-17 0 -29.5 12.5zM223 395q39 0 52 13
t13 53v74q0 39 -13 51.5t-52 12.5h-16q-39 0 -52 -12.5t-13 -51.5v-75q0 -40 13 -52.5t52 -12.5h16zM512 143v75q0 73 35.5 108t107.5 35h16q143 0 143 -143v-74q0 -73 -35.5 -108.5t-107.5 -35.5h-16q-143 0 -143 143zM671 78q39 0 52 13t13 53v74q0 39 -13 52t-52 13h-16
q-39 0 -52 -12.5t-13 -52.5v-75q0 -39 13 -52t52 -13h16z" />
    <glyph glyph-name="ampersand" unicode="&#x26;" horiz-adv-x="650" 
d="M631 52q0 -13 -14 -29q-13 -16 -30 -16q-15 0 -29 13l-50 45q-52 -86 -193 -86h-32q-115 0 -169 54t-54 169q0 75 22.5 123t68.5 73q-12 20 -16.5 41.5t-4.5 48.5q0 84 40.5 125t124.5 41h25q72 0 112 -29.5t51 -91.5q2 -21 -9 -32.5t-32 -11.5q-19 0 -29 10t-16 31
q-6 23 -23 31.5t-54 8.5h-25q-48 0 -64.5 -16.5t-16.5 -65.5q0 -31 11.5 -50.5t51.5 -55.5l177 -157v12q0 20 11 31t31 11t31 -11t11 -31v-35q0 -26 -3 -49l79 -70q17 -15 17 -31zM400 76.5q30 13.5 43 45.5l-222 198q-3 3 -7 6.5t-8 7.5q-5 -4 -17 -10q-25 -14 -35 -42.5
t-10 -79.5q0 -55 12.5 -84.5t42 -42t84.5 -12.5h32q55 0 85 13.5z" />
    <glyph glyph-name="quotesingle" unicode="'" horiz-adv-x="238" 
d="M94.5 459.5q-10.5 10.5 -10.5 24.5v204q0 14 10.5 24.5t24.5 10.5t24.5 -10.5t10.5 -24.5v-204q0 -14 -10.5 -24.5t-24.5 -10.5t-24.5 10.5z" />
    <glyph glyph-name="parenleft" unicode="(" horiz-adv-x="298" 
d="M109.5 -119.5q-45.5 55.5 -45.5 173.5v385q0 123 45.5 181t143.5 58q14 0 24.5 -10.5t10.5 -24.5t-10.5 -24.5t-24.5 -10.5q-45 0 -71 -15.5t-37 -52t-11 -101.5v-385q0 -61 11 -95.5t37 -49t71 -14.5q14 0 24.5 -10.5t10.5 -24.5t-10.5 -24.5t-24.5 -10.5
q-98 0 -143.5 55.5z" />
    <glyph glyph-name="parenright" unicode=")" horiz-adv-x="298" 
d="M20.5 -164.5q-10.5 10.5 -10.5 24.5t10.5 24.5t24.5 10.5q45 0 71 14.5t37 49t11 95.5v385q0 65 -11 101.5t-37 52t-71 15.5q-14 0 -24.5 10.5t-10.5 24.5t10.5 24.5t24.5 10.5q98 0 143.5 -58t45.5 -181v-385q0 -118 -45.5 -173.5t-143.5 -55.5q-14 0 -24.5 10.5z" />
    <glyph glyph-name="asterisk" unicode="*" horiz-adv-x="402" 
d="M330 443q0 -11 -7 -21q-11 -19 -27 -19q-10 0 -20 6l-41 24v-47q0 -35 -35 -35q-17 0 -26 9t-9 26v46l-39 -23q-10 -6 -20 -6q-16 0 -29 19q-6 11 -6 19q0 17 20 28l41 24l-41 23q-20 12 -20 29q0 9 6 19q12 18 28 18q11 0 21 -6l39 -23v47q0 17 9.5 26t25.5 9
q35 0 35 -35v-48l41 24q12 6 21 6q16 0 26 -18q7 -10 7 -21q0 -17 -19 -27l-41 -23l41 -24q19 -10 19 -26z" />
    <glyph glyph-name="plus" unicode="+" horiz-adv-x="609" 
d="M516 353q9 -9 9 -26t-9 -26t-26 -9h-141v-145q0 -17 -9 -26t-26 -9t-26 9t-9 26v145h-160q-16 0 -25.5 9.5t-9.5 25.5q0 17 9.5 26t25.5 9h160v156q0 17 9.5 26t25.5 9q17 0 26 -9t9 -26v-156h141q17 0 26 -9z" />
    <glyph glyph-name="comma" unicode="," horiz-adv-x="258" 
d="M174 40q0 -11 -3 -19l-59 -126q-12 -22 -33 -22q-16 0 -27 8.5t-8 26.5l28 160q1 18 11.5 27t28.5 9h24q38 0 38 -39v-25z" />
    <glyph glyph-name="hyphen" unicode="-" horiz-adv-x="514" 
d="M94.5 245.5q-10.5 10.5 -10.5 24.5t10.5 24.5t24.5 10.5h276q14 0 24.5 -10.5t10.5 -24.5t-10.5 -24.5t-24.5 -10.5h-276q-14 0 -24.5 10.5z" />
    <glyph glyph-name="period" unicode="." horiz-adv-x="270" 
d="M94.5 10.5q-10.5 10.5 -10.5 29.5v25q0 19 10.5 29t29.5 10h24q38 0 38 -39v-25q0 -19 -9.5 -29.5t-28.5 -10.5h-24q-19 0 -29.5 10.5z" />
    <glyph glyph-name="slash" unicode="/" horiz-adv-x="322" 
d="M47.5 -142.5q-11.5 10.5 -11.5 28.5q0 5 2 15l205 796q5 17 15 25t26 8q20 0 31.5 -10.5t11.5 -27.5q0 -7 -3 -16l-204 -796q-9 -33 -41 -33q-20 0 -31.5 10.5z" />
    <glyph glyph-name="zero" unicode="0" horiz-adv-x="684" 
d="M142.5 55.5q-54.5 54.5 -54.5 169.5v231q0 116 54.5 170t169.5 53h60q115 0 169.5 -54.5t54.5 -169.5v-230q0 -115 -54.5 -169.5t-169.5 -54.5h-60q-115 0 -169.5 54.5zM372 85q54 0 84 13t43 43t13 84v230q0 55 -13 84.5t-42.5 42.5t-84.5 13h-60q-54 1 -84 -11.5
t-43 -42.5t-13 -85v-231q0 -54 13 -84t43 -43t84 -13h60zM294.5 301.5q-10.5 10.5 -10.5 29.5v25q0 19 10.5 29t29.5 10h24q38 0 38 -39v-25q0 -19 -9.5 -29.5t-28.5 -10.5h-24q-19 0 -29.5 10.5z" />
    <glyph glyph-name="one" unicode="1" horiz-adv-x="389" 
d="M279.5 667q9.5 -11 9.5 -31v-594q0 -20 -11 -31t-31 -11q-42 0 -42 42v510l-87 -81q-14 -14 -30 -14q-13 0 -24 11q-12 12 -12 26q0 16 15 31l134 132q11 11 23 16t29 5t26.5 -11z" />
    <glyph glyph-name="two" unicode="2" horiz-adv-x="575" 
d="M97 0q-21 0 -32 10.5t-11 31.5q0 82 33 137.5t73 84.5t110 69q73 41 102.5 60.5t47 43t17.5 56.5q0 40 -9 61.5t-30.5 30.5t-61.5 9h-107q-48 0 -70 -13t-28 -46q-4 -21 -14 -31t-30 -10q-21 0 -32 11.5t-9 32.5q11 71 56 105.5t127 34.5h107q94 0 139.5 -45.5
t45.5 -139.5q0 -56 -27.5 -96.5t-66.5 -66.5t-116 -70q-58 -33 -86.5 -52.5t-52.5 -50t-31 -73.5h330q20 0 31 -11t11 -31t-11 -31t-31 -11h-374z" />
    <glyph glyph-name="three" unicode="3" horiz-adv-x="654" 
d="M121.5 37q-47.5 37 -57.5 113q-2 21 9 32.5t32 11.5q38 0 43 -42q7 -39 31 -53.5t78 -14.5h114q44 0 67.5 10t33.5 33.5t10 66.5t-10 66.5t-33.5 33.5t-67.5 10h-77q-42 0 -42 42q0 20 11 31t31 11h115q30 0 43.5 27t13.5 78q0 40 -9 61.5t-30.5 30.5t-61.5 9h-97
q-48 0 -70 -13t-28 -46q-6 -41 -44 -41q-21 0 -32 11.5t-8 32.5q19 140 182 140h97q94 0 139.5 -45.5t45.5 -139.5q0 -92 -52 -131q68 -44 68 -168q0 -99 -47.5 -146.5t-147.5 -47.5h-114q-88 0 -135.5 37z" />
    <glyph glyph-name="four" unicode="4" horiz-adv-x="623" 
d="M568 214.5q11 -11.5 11 -30.5q0 -20 -11 -31t-31 -11h-58v-100q0 -42 -42 -42q-20 0 -31 11t-11 31v100h-309q-20 0 -31 11t-11 31t17 44l314 424q12 16 25 21t34 5q46 0 46 -42l-1 -410h58q20 0 31 -11.5zM149 224l246 1l1 334z" />
    <glyph glyph-name="five" unicode="5" horiz-adv-x="668" 
d="M145.5 37q-47.5 37 -57.5 113q-2 21 9 32.5t32 11.5q38 0 43 -41q7 -39 31 -54t78 -15h104q44 0 67.5 10t33.5 34t10 67v69q0 44 -10 67.5t-34 33.5t-67 10h-74q-74 0 -107 -18q-10 -7 -20.5 -11.5t-19.5 -4.5q-7 0 -16 3l-10 3q-35 10 -35 47v242q0 20 11 31t31 11h393
q20 0 31 -11t11 -31t-11 -31t-31 -11h-351v-153q51 18 124 18h74q99 0 147 -48t48 -147v-69q0 -99 -48 -147t-147 -48h-104q-88 0 -135.5 37z" />
    <glyph glyph-name="six" unicode="6" horiz-adv-x="670" 
d="M135.5 47.5q-47.5 47.5 -47.5 146.5v299q0 94 45.5 139.5t139.5 45.5h124q163 0 182 -140q3 -21 -8 -32.5t-32 -11.5q-38 0 -44 41q-6 33 -28 46t-70 13h-124q-40 0 -61.5 -9t-30.5 -30.5t-9 -61.5v-83q39 47 111 47h104q99 0 147 -48t48 -147v-67q0 -100 -48 -147.5
t-147 -47.5h-104q-100 0 -147.5 47.5zM387 84q44 0 67.5 10t33.5 34t10 67v67q0 44 -10 67.5t-34 33.5t-67 10h-104q-44 0 -67.5 -10t-33.5 -33.5t-10 -66.5v-69q0 -43 10 -66.5t33.5 -33.5t67.5 -10h104z" />
    <glyph glyph-name="seven" unicode="7" horiz-adv-x="531" 
d="M165 11q-11 11 -10 33q2 103 17 166t46 105t88 82q46 36 69 82.5t27 114.5h-316q-20 0 -31 11t-11 31t11 31t31 11h359q20 0 31 -11t11 -31q0 -107 -31.5 -181t-100.5 -126q-46 -32 -69.5 -65t-34 -83.5t-12.5 -136.5q-2 -44 -43 -44q-20 0 -31 11z" />
    <glyph glyph-name="eight" unicode="8" horiz-adv-x="680" 
d="M592 194q0 -99 -47.5 -146.5t-147.5 -47.5h-114q-100 0 -147.5 47.5t-47.5 146.5q0 114 87 160q-66 50 -66 142t45.5 137t139.5 45h97q94 0 139.5 -45t45.5 -137q0 -97 -68 -144q84 -47 84 -158zM232.5 585q-21.5 -9 -30.5 -30t-9 -59q0 -62 19 -85t66 -23l114 -1
q42 0 63.5 12t29 35.5t7.5 61.5t-9 59t-30.5 30t-61.5 9h-97q-40 0 -61.5 -9zM464.5 94q23.5 10 33.5 33.5t10 66.5t-10 66.5t-33.5 33.5t-67.5 10h-114q-44 0 -67.5 -10t-33.5 -33.5t-10 -66.5t10 -66.5t33.5 -33.5t67.5 -10h114q44 0 67.5 10z" />
    <glyph glyph-name="nine" unicode="9" horiz-adv-x="670" 
d="M534.5 630.5q47.5 -47.5 47.5 -146.5v-299q0 -94 -45.5 -139.5t-139.5 -45.5h-124q-163 0 -182 140q-3 21 8 32.5t32 11.5q38 0 44 -41q6 -33 28 -46t70 -13h124q40 0 61.5 9t30.5 30.5t9 61.5v83q-39 -47 -111 -47h-104q-99 0 -147 48t-48 147v67q0 100 48 147.5
t147 47.5h104q100 0 147.5 -47.5zM283 594q-44 0 -67.5 -10t-33.5 -34t-10 -67v-67q0 -44 10 -67.5t34 -33.5t67 -10h104q44 0 67.5 10t33.5 33.5t10 66.5v69q0 43 -10 66.5t-33.5 33.5t-67.5 10h-104z" />
    <glyph glyph-name="colon" unicode=":" horiz-adv-x="270" 
d="M94.5 10.5q-10.5 10.5 -10.5 29.5v25q0 19 10.5 29t29.5 10h24q38 0 38 -39v-25q0 -19 -9.5 -29.5t-28.5 -10.5h-24q-19 0 -29.5 10.5zM94.5 340.5q-10.5 10.5 -10.5 29.5v25q0 19 10.5 29t29.5 10h24q38 0 38 -39v-25q0 -19 -9.5 -29.5t-28.5 -10.5h-24
q-19 0 -29.5 10.5z" />
    <glyph glyph-name="semicolon" unicode=";" horiz-adv-x="258" 
d="M174 40q0 -11 -3 -19l-59 -126q-12 -22 -33 -22q-16 0 -27 8.5t-8 26.5l28 160q1 18 11.5 27t28.5 9h24q38 0 38 -39v-25zM82.5 340.5q-10.5 10.5 -10.5 29.5v25q0 19 10.5 29t29.5 10h24q38 0 38 -39v-25q0 -19 -9.5 -29.5t-28.5 -10.5h-24q-19 0 -29.5 10.5z" />
    <glyph glyph-name="less" unicode="&#x3c;" horiz-adv-x="609" 
d="M487 163q0 -9 -6 -20q-12 -20 -29 -20q-9 0 -21 6l-282 158q-25 15 -25 43q0 23 25 38l282 157q11 6 20 6q18 0 30 -20q6 -10 6 -20q0 -18 -21 -30l-241 -133l242 -136q20 -12 20 -29z" />
    <glyph glyph-name="equal" unicode="=" horiz-adv-x="609" 
d="M93.5 363.5q-9.5 9.5 -9.5 25.5q0 17 9.5 26t25.5 9h371q17 0 26 -9t9 -26t-9 -26t-26 -9h-371q-16 0 -25.5 9.5zM93.5 235.5q-9.5 9.5 -9.5 25.5q0 17 9.5 26t25.5 9h371q17 0 26 -9t9 -26t-9 -26t-26 -9h-371q-16 0 -25.5 9.5z" />
    <glyph glyph-name="greater" unicode="&#x3e;" horiz-adv-x="609" 
d="M484 330q0 -28 -25 -43l-282 -158q-12 -6 -21 -6q-17 0 -29 20q-6 11 -6 20q0 17 20 29l242 136l-241 133q-21 12 -21 30q0 10 6 20q12 20 30 20q9 0 20 -6l282 -157q25 -15 25 -38z" />
    <glyph glyph-name="question" unicode="?" horiz-adv-x="511" 
d="M196 208q0 49 17 81.5t38.5 49.5t53.5 35q28 16 40.5 26t20 26t7.5 43q0 40 -9 61.5t-30.5 30.5t-61.5 9h-67q-40 0 -61.5 -9t-30.5 -30.5t-9 -61.5q0 -42 -42 -42t-42 42q0 185 185 185h67q94 0 139.5 -45.5t45.5 -139.5q0 -49 -17 -81.5t-38.5 -49.5t-53.5 -35
q-28 -16 -40.5 -26t-20 -26t-7.5 -43q0 -42 -42 -42t-42 42zM196.5 10.5q-10.5 10.5 -10.5 29.5v25q0 19 10.5 29t29.5 10h24q38 0 38 -39v-25q0 -19 -9.5 -29.5t-28.5 -10.5h-24q-19 0 -29.5 10.5z" />
    <glyph glyph-name="at" unicode="@" horiz-adv-x="741" 
d="M240 -14q-83 -1 -121.5 38.5t-38.5 125.5v253q0 86 38.5 125.5t121.5 38.5h260q85 0 123 -39.5t38 -125.5v-185q0 -50 -26 -73.5t-80 -23.5q-32 0 -52.5 10.5t-32.5 38.5q-20 -29 -49.5 -40t-69.5 -11h-7q-70 0 -103.5 33.5t-33.5 102.5v23q0 72 33.5 105.5t102.5 33.5
h41q25 0 42 -6.5t31 -25.5q5 19 12 25.5t16 6.5q14 0 24.5 -10.5t10.5 -24.5v-164q0 -14 2 -19t8.5 -6.5t24.5 -1.5t25 2t9 7t2 18v185q0 40 -7.5 59.5t-26.5 27.5t-57 8h-260q-37 1 -56 -7t-26.5 -27.5t-7.5 -59.5v-253q0 -40 7.5 -59.5t26.5 -27.5t56 -7h275q27 0 44.5 6
t36.5 21q8 8 22 8t24.5 -10.5t10.5 -24.5q0 -16 -12 -27q-27 -22 -57.5 -32.5t-68.5 -10.5h-275zM351 188q52 0 75.5 16t23.5 50v22q0 31 -5 45t-18.5 19.5t-42.5 5.5h-41q-28 0 -41.5 -5.5t-19 -19.5t-5.5 -44v-23q0 -40 13 -53t54 -13h7z" />
    <glyph glyph-name="A" unicode="A" horiz-adv-x="666" 
d="M625 39q0 -24 -27 -35q-9 -4 -20 -4q-24 0 -35 27l-54 131h-311l-52 -131q-11 -27 -35 -27q-10 0 -19 4q-28 10 -28 35q0 11 4 20l238 586q15 33 47 33h2q33 -2 44 -33l242 -586q4 -9 4 -20zM211 242h244l-125 303z" />
    <glyph glyph-name="B" unicode="B" horiz-adv-x="673" 
d="M609 222v-34q0 -92 -48.5 -140t-140.5 -48h-274q-20 0 -31 11t-11 31v594q0 20 11 31t31 11h261q79 0 122 -42t43 -120v-27q0 -32 -11 -59t-31 -45q79 -46 79 -163zM188 409h232h18q26 3 38 24.5t12 55.5v27q0 43 -18 60.5t-63 17.5h-219v-185zM525 222q0 56 -24 79.5
t-81 23.5h-232v-241h232q56 0 80.5 24t24.5 80v34z" />
    <glyph glyph-name="C" unicode="C" horiz-adv-x="696" 
d="M134.5 54.5q-54.5 54.5 -54.5 169.5v230q0 115 54.5 170t168.5 54h121q94 0 143.5 -39t57.5 -122q3 -21 -8 -32t-32 -11q-20 0 -30.5 10.5t-13.5 31.5q-5 45 -31 61.5t-86 16.5h-121q-54 1 -84 -12t-42.5 -43t-12.5 -85v-230q0 -55 13 -84.5t42.5 -42.5t84.5 -13h120
q60 0 86 16.5t31 61.5q3 21 13.5 31.5t30.5 10.5q21 0 32 -11t8 -32q-8 -83 -57.5 -122t-143.5 -39h-120q-115 0 -169.5 54.5z" />
    <glyph glyph-name="D" unicode="D" horiz-adv-x="721" 
d="M115 11q-11 11 -11 31v594q0 20 11 31t31 11h241q131 0 192.5 -61.5t61.5 -192.5v-170q0 -131 -61.5 -192.5t-192.5 -61.5h-241q-20 0 -31 11zM387 84q65 0 101.5 16t52.5 52.5t16 101.5v170q0 65 -16 101.5t-52.5 52.5t-101.5 16h-199v-510h199z" />
    <glyph glyph-name="E" unicode="E" horiz-adv-x="603" 
d="M536 73q11 -11 11 -31t-11 -31t-31 -11h-359q-20 0 -31 11t-11 31v594q0 20 11 31t31 11h359q20 0 31 -11t11 -31t-11 -31t-31 -11h-317v-210h199q20 0 31 -11t11 -31t-11 -31t-31 -11h-199v-216h317q20 0 31 -11z" />
    <glyph glyph-name="F" unicode="F" horiz-adv-x="556" 
d="M115 11q-11 11 -11 31v594q0 20 11 31t31 11h368q20 0 31 -11t11 -31t-11 -31t-31 -11h-326v-210h201q20 0 31 -11t11 -31t-11 -31t-31 -11h-201v-258q0 -20 -11 -31t-31 -11t-31 11z" />
    <glyph glyph-name="G" unicode="G" horiz-adv-x="698" 
d="M134.5 54.5q-54.5 54.5 -54.5 169.5v230q0 115 54.5 170t168.5 54h121q94 0 143.5 -39t57.5 -122q3 -21 -8 -32t-32 -11q-20 0 -30.5 10.5t-13.5 31.5q-5 45 -31 61.5t-86 16.5h-121q-54 1 -84 -12t-42.5 -43t-12.5 -85v-230q0 -55 13 -84.5t42.5 -42.5t84.5 -13h120
q48 0 73.5 10.5t36 36t10.5 73.5v47l-78 1q-42 0 -42 42q0 20 11 31t31 11l120 -1q20 0 31 -11t11 -31v-89q0 -106 -49.5 -155t-154.5 -49h-120q-115 0 -169.5 54.5z" />
    <glyph glyph-name="H" unicode="H" horiz-adv-x="784" 
d="M117 13q-13 13 -13 29v594q0 17 13 29.5t29 12.5q17 0 29.5 -12.5t12.5 -29.5v-251h408v251q0 17 12.5 29.5t29.5 12.5t29.5 -12.5t12.5 -29.5v-594q0 -16 -12.5 -29t-29.5 -13t-29.5 12.5t-12.5 29.5v259h-408v-259q0 -16 -12.5 -29t-29.5 -13q-16 0 -29 13z" />
    <glyph glyph-name="I" unicode="I" horiz-adv-x="292" 
d="M114 10q-10 10 -10 32v593q0 22 10 32t32 10t32 -10t10 -32v-593q0 -22 -10 -32t-32 -10t-32 10z" />
    <glyph glyph-name="J" unicode="J" horiz-adv-x="617" 
d="M92.5 39q-49.5 39 -58.5 121q-2 21 9 32.5t32 11.5q39 0 43 -42q6 -45 32 -61.5t86 -16.5h83q48 0 73.5 10.5t36 36t10.5 73.5v432q0 42 42 42q20 0 31 -11t11 -31v-432q0 -106 -49.5 -155t-154.5 -49h-83q-94 0 -143.5 39z" />
    <glyph glyph-name="K" unicode="K" horiz-adv-x="587" 
d="M552 45q0 -18 -17 -31q-12 -11 -28 -11q-18 0 -31 17l-245 303l-43 -45v-236q0 -20 -11 -31t-31 -11t-31 11t-11 31v594q0 20 11 31t31 11t31 -11t11 -31v-238l255 264q15 15 30 15t29 -14q15 -15 15 -30t-14 -29l-212 -220l250 -311q11 -14 11 -28z" />
    <glyph glyph-name="L" unicode="L" horiz-adv-x="541" 
d="M104 42v594q0 42 42 42t42 -42v-552h277q42 0 42 -42t-42 -42h-319q-42 0 -42 42z" />
    <glyph glyph-name="M" unicode="M" horiz-adv-x="837" 
d="M733 636v-594q0 -20 -11 -31t-31 -11t-31 11t-11 31v463l-184 -271q-10 -14 -22 -20.5t-29 -6.5q-12 0 -21.5 6.5t-19.5 20.5l-185 272v-464q0 -20 -11 -31t-31 -11t-31 11t-11 31v594q0 20 11 31t31 11q28 0 46 -27l228 -343l228 343q17 27 51 27t34 -42z" />
    <glyph glyph-name="N" unicode="N" horiz-adv-x="757" 
d="M642 667q11 -11 11 -31v-594q0 -20 -11 -31t-31 -11q-12 0 -22 6t-20 19l-381 491v-474q0 -20 -11 -31t-31 -11t-31 11t-11 31v594q0 20 11 31t31 11q12 0 21.5 -6t20.5 -19l381 -491v474q0 20 11 31t31 11t31 -11z" />
    <glyph glyph-name="O" unicode="O" horiz-adv-x="728" 
d="M134.5 54.5q-54.5 54.5 -54.5 169.5v231q0 115 55 169.5t169 53.5h120q115 0 169.5 -54.5t54.5 -169.5v-230q0 -115 -54.5 -169.5t-169.5 -54.5h-120q-115 0 -169.5 54.5zM424 84q55 0 84.5 13t42.5 42.5t13 84.5v230q0 54 -13 84t-43 43t-84 13h-120q-54 1 -84 -12
t-43 -43t-13 -84v-231q0 -55 13 -84.5t42.5 -42.5t84.5 -13h120z" />
    <glyph glyph-name="P" unicode="P" horiz-adv-x="613" 
d="M520.5 629.5q48.5 -48.5 48.5 -140.5v-30q0 -91 -48.5 -140t-140.5 -49h-192v-228q0 -20 -11 -31t-31 -11t-31 11t-11 31v594q0 20 11 31t31 11h234q92 0 140.5 -48.5zM485 489q0 56 -24 80.5t-81 24.5h-192v-240h192q57 0 81 24t24 81v30z" />
    <glyph glyph-name="Q" unicode="Q" horiz-adv-x="733" 
d="M653 -45q0 -14 -13 -26q-13 -11 -24 -11q-12 0 -26 12l-76 81q-36 -11 -90 -11h-120q-115 0 -169.5 54.5t-54.5 169.5v231q0 115 55 169.5t169 53.5h120q115 0 169.5 -54.5t54.5 -169.5v-230q0 -126 -67 -181l62 -65q10 -10 10 -23zM444 84l-26 28q-11 11 -11 24t12 25
t25 12q11 0 26 -13l53 -55q22 15 31.5 43.5t9.5 75.5v230q0 54 -13 84t-43 43t-84 13h-120q-54 1 -84 -12t-43 -43t-13 -84v-231q0 -55 13 -84.5t42.5 -42.5t84.5 -13h120h20z" />
    <glyph glyph-name="R" unicode="R" horiz-adv-x="625" 
d="M532 332q-37 -48 -107 -59l131 -218q6 -10 6 -22q0 -22 -22 -35q-13 -8 -23 -8q-20 0 -34 22l-152 253l-3 5h-140v-228q0 -20 -11 -31t-31 -11t-31 11t-11 31v594q0 20 11 31t31 11h234q92 0 140.5 -48.5t48.5 -140.5v-30q0 -79 -37 -127zM485 489q0 56 -24 80.5
t-81 24.5h-192v-240h192q57 0 81 24t24 81v30z" />
    <glyph glyph-name="S" unicode="S" horiz-adv-x="692" 
d="M139.5 34.5q-47.5 34.5 -59.5 106.5q-2 21 9 32.5t32 11.5q20 0 30 -9.5t14 -31.5q7 -34 31.5 -47t76.5 -13h144q44 0 67.5 10t33.5 33.5t10 66.5q0 64 -24 88t-87 24h-124q-94 0 -140 46t-46 141q0 94 45.5 139.5t139.5 45.5h119q158 0 182 -132q3 -21 -8 -32.5
t-33 -11.5q-20 0 -30 10t-13 31q-8 29 -30 40t-68 11h-119q-41 0 -62.5 -9t-30 -30.5t-8.5 -61.5q0 -41 9 -62.5t30.5 -31t62.5 -9.5h124q99 0 147 -48t48 -148q0 -99 -48 -146.5t-147 -47.5h-144q-86 0 -133.5 34.5z" />
    <glyph glyph-name="T" unicode="T" horiz-adv-x="614" 
d="M265 42v551h-194q-42 0 -42 42t42 42h472q42 0 42 -42t-42 -42h-194v-551q0 -20 -11 -31t-31 -11q-42 0 -42 42z" />
    <glyph glyph-name="U" unicode="U" horiz-adv-x="756" 
d="M148.5 54.5q-54.5 54.5 -54.5 169.5v412q0 42 42 42t42 -42v-412q0 -55 13 -84.5t42.5 -42.5t84.5 -13h120q55 0 84.5 13t42.5 42.5t13 84.5v412q0 42 42 42t42 -42v-412q0 -115 -54.5 -169.5t-169.5 -54.5h-120q-115 0 -169.5 54.5z" />
    <glyph glyph-name="V" unicode="V" horiz-adv-x="643" 
d="M276 33l-247 585q-5 13 -5 22q0 21 24 32q12 6 24 6q24 0 34 -27l219 -518l213 518q11 27 34 27q11 0 24 -6q23 -11 23 -34q0 -11 -4 -20l-249 -585q-16 -33 -45 -33h-4q-26 0 -41 33z" />
    <glyph glyph-name="W" unicode="W" horiz-adv-x="898" 
d="M874 639q0 -8 -3 -17l-185 -586q-7 -18 -17 -27t-27 -9h-2q-32 0 -44 36l-154 497l1 -20l-148 -477q-7 -19 -16.5 -27.5t-27.5 -8.5q-15 0 -24 8.5t-15 27.5l-185 586q-3 11 -3 18q0 11 6.5 19t20.5 15q12 5 20 5q24 0 35 -32l152 -483l144 478q6 18 17.5 27t30.5 9
q35 -1 46 -36l144 -478l152 483q10 31 35 31q6 0 20 -4q27 -13 27 -35z" />
    <glyph glyph-name="X" unicode="X" horiz-adv-x="626" 
d="M67 41q0 14 9 27l183 270l-193 272q-9 14 -9 25q0 19 20 34q14 9 26 9q18 0 32 -20l179 -251l180 251q15 20 32 20q12 0 26 -11q20 -14 20 -32q0 -13 -10 -26l-197 -274l189 -266q9 -13 9 -26q0 -20 -20 -34q-13 -9 -26 -9q-18 0 -32 20l-174 245l-166 -246
q-13 -19 -32 -19q-12 0 -27 9q-19 13 -19 32z" />
    <glyph glyph-name="Y" unicode="Y" horiz-adv-x="615" 
d="M592 635q0 -12 -9 -24l-238 -365v-204q0 -20 -11 -31t-31 -11t-31 11t-11 31v204l-229 365q-8 14 -8 25q0 21 21 34q14 8 25 8q19 0 33 -21l200 -321l210 321q12 20 32 20q12 0 25 -9q22 -14 22 -33z" />
    <glyph glyph-name="Z" unicode="Z" horiz-adv-x="689" 
d="M626.5 152.5q11.5 -11.5 8.5 -32.5q-12 -59 -53 -89.5t-109 -30.5h-369q-20 0 -30.5 11t-10.5 31q0 13 16 36l394 516h-259q-32 0 -50 -9.5t-25 -31.5q-5 -20 -15 -29.5t-29 -9.5t-30.5 9.5t-11.5 25.5q0 6 1 9q12 58 52.5 89t107.5 31h334q21 0 31.5 -11t10.5 -31
q0 -17 -16 -38l-394 -514h293q34 0 52 9.5t24 31.5q6 20 16 29.5t29 9.5q21 0 32.5 -11.5z" />
    <glyph glyph-name="bracketleft" unicode="[" horiz-adv-x="228" 
d="M73.5 -166q-9.5 9 -9.5 26v783q0 17 9.5 26t25.5 9h84q14 0 24.5 -10.5t10.5 -24.5t-10.5 -24.5t-24.5 -10.5h-49v-713h49q14 0 24.5 -10.5t10.5 -24.5t-10.5 -24.5t-24.5 -10.5h-84q-16 0 -25.5 9z" />
    <glyph glyph-name="backslash" unicode="\" horiz-adv-x="322" 
d="M202 -120l-204 796q-3 9 -3 16q0 17 11.5 27.5t31.5 10.5q16 0 26 -8t15 -25l205 -796q2 -10 2 -15q0 -18 -11.5 -28.5t-31.5 -10.5q-32 0 -41 33z" />
    <glyph glyph-name="bracketright" unicode="]" horiz-adv-x="228" 
d="M45 -175q-14 0 -24.5 10.5t-10.5 24.5t10.5 24.5t24.5 10.5h49v713h-49q-14 0 -24.5 10.5t-10.5 24.5t10.5 24.5t24.5 10.5h84q17 0 26 -9t9 -26v-783q0 -17 -9 -26t-26 -9h-84z" />
    <glyph glyph-name="asciicircum" unicode="^" horiz-adv-x="428" 
d="M94.5 414.5q-10.5 10.5 -10.5 24.5q0 4 2 14l79 203q12 27 41 27h16q29 0 41 -27l79 -203q2 -10 2 -14q0 -14 -10.5 -24.5t-24.5 -10.5q-11 0 -20 6.5t-13 15.5l-62 161l-62 -161q-4 -9 -13 -15.5t-20 -6.5q-14 0 -24.5 10.5z" />
    <glyph glyph-name="underscore" unicode="_" horiz-adv-x="467" 
d="M50 -42q0 42 42 42h253q42 0 42 -42t-42 -42h-253q-42 0 -42 42z" />
    <glyph glyph-name="grave" unicode="`" horiz-adv-x="250" 
d="M160 513q-15 0 -26 14l-73 88q-10 11 -10 25q0 15 14 26q11 10 25 10q15 0 26 -14l73 -88q10 -11 10 -25q0 -15 -14 -26q-13 -10 -25 -10z" />
    <glyph glyph-name="a" unicode="a" horiz-adv-x="640" 
d="M498 459q48 -48 48 -148v-269q0 -20 -11 -31t-31 -11t-31 11t-11 31v23q-53 -65 -156 -65h-56q-84 0 -125 41t-41 125t40.5 125t125.5 41h211q-3 52 -27 71.5t-84 19.5h-58q-50 0 -74.5 -7t-34.5 -24q-9 -21 -19 -29t-28 -8t-29.5 9t-11.5 24q0 6 1 10q15 56 62.5 82.5
t133.5 26.5h58q100 0 148 -48zM459 159.5q1 3.5 3 7.5v81h-212q-34 0 -51 -7t-24 -24t-7 -51t7 -51t24 -24t51 -7h56q127 0 151 69q1 3 2 6.5z" />
    <glyph glyph-name="b" unicode="b" horiz-adv-x="658" 
d="M530 459q48 -48 48 -148v-115q0 -100 -48 -148t-148 -48h-38q-103 0 -156 53v-11q0 -20 -11 -31t-31 -11t-31 11t-11 31v620q0 20 11 31t31 11t31 -11t11 -31v-208q53 53 156 53h38q100 0 148 -48zM494 311q0 44 -10 68t-34 34t-68 10h-38q-69 0 -112.5 -17.5
t-43.5 -51.5v-201q0 -34 43.5 -51.5t112.5 -17.5h38q44 0 68 10t34 34t10 68v115z" />
    <glyph glyph-name="c" unicode="c" horiz-adv-x="591" 
d="M128 48q-48 48 -48 148v116q0 100 48 148t148 47h82q148 0 172 -102q1 -4 1 -10q0 -16 -11.5 -25t-30.5 -9q-18 0 -27.5 9t-17.5 29q-7 13 -27 18.5t-59 5.5h-82q-44 1 -68 -9t-34 -34t-10 -68v-116q0 -44 10 -68t34 -34t68 -10h82q39 0 59 5.5t27 18.5q8 21 17.5 29.5
t28.5 8.5q18 0 29.5 -9t11.5 -25q0 -6 -1 -10q-24 -102 -172 -102h-82q-100 0 -148 48z" />
    <glyph glyph-name="d" unicode="d" horiz-adv-x="648" 
d="M543 693q11 -11 11 -31v-620q0 -20 -11 -31t-31 -11t-31 11t-11 31v7q-25 -25 -62.5 -37t-93.5 -12h-38q-100 0 -148 48t-48 148v115q0 100 48 148t148 48h194v155q0 20 11 31t31 11t31 -11zM426.5 101.5q43.5 17.5 43.5 51.5v270h-194q-44 0 -68 -10t-34 -34t-10 -68
v-115q0 -44 10 -68t34 -34t68 -10h38q69 0 112.5 17.5z" />
    <glyph glyph-name="e" unicode="e" 
d="M164 219v-24q0 -44 10 -67.5t34 -33.5t68 -10h82q51 0 75.5 9.5t32.5 33.5q6 20 16 29.5t29 9.5t29.5 -8.5t10.5 -24.5q0 -7 -1 -10q-22 -123 -192 -123h-82q-100 0 -148 48t-48 147v116q0 101 48 149t148 47h82q100 0 148 -48t48 -148v-50q0 -20 -11 -31t-31 -11h-348z
M164 303h306v8q0 44 -10 68t-34 34t-68 10h-82q-44 1 -68 -9t-34 -34t-10 -69v-8z" />
    <glyph glyph-name="f" unicode="f" horiz-adv-x="386" 
d="M352 465q0 -20 -11 -31t-31 -11h-103v-381q0 -20 -11 -31t-31 -11t-31 11t-11 31v381h-37q-20 0 -31 11t-11 31q0 42 42 42h37v4q0 98 47.5 145.5t145.5 47.5q36 0 36 -42q0 -20 -9.5 -31t-26.5 -11q-43 0 -66 -9.5t-33 -33t-10 -66.5v-4h103q42 0 42 -42z" />
    <glyph glyph-name="g" unicode="g" horiz-adv-x="648" 
d="M554 465v-521q0 -74 -35 -109t-109 -35h-186q-121 0 -140 99q-1 3 -1 10q0 16 11 25.5t31 9.5q18 0 27 -9.5t16 -31.5q6 -11 18.5 -15t37.5 -4h186q37 0 48.5 11.5t11.5 48.5v116q-27 -29 -67 -44.5t-89 -15.5h-38q-100 0 -148 48t-48 147v116q0 101 48 149t148 47h82
q72 0 112 -42q0 42 42 42t42 -42zM427 101.5q43 17.5 43 51.5v200q0 39 -28 54.5t-84 15.5h-82q-44 1 -68 -9t-34 -34t-10 -69v-116q0 -44 10 -67.5t34 -33.5t68 -10h38q70 0 113 17.5z" />
    <glyph glyph-name="h" unicode="h" horiz-adv-x="667" 
d="M525 459q48 -48 48 -148v-269q0 -20 -11 -31t-31 -11t-31 11t-11 31v269q0 44 -10 68t-34 34t-68 10h-28q-66 0 -103 -17t-48 -52q-1 -5 -5 -15v-297q0 -20 -11 -31t-31 -11t-31 11t-11 31v290q-5 8 -5 17q0 6 1 9q2 10 4 16v288q0 20 11 31t31 11t31 -11t11 -31v-187
q61 32 156 32h28q100 0 148 -48z" />
    <glyph glyph-name="i" unicode="i" horiz-adv-x="292" 
d="M115 11q-11 11 -11 31v423q0 20 11 31t31 11t31 -11t11 -31v-423q0 -20 -11 -31t-31 -11t-31 11zM96.5 602q-12.5 13 -12.5 35v30q0 23 12.5 34.5t35.5 11.5h29q45 0 45 -46v-30q0 -23 -11.5 -35.5t-33.5 -12.5h-29q-23 0 -35.5 13z" />
    <glyph glyph-name="j" unicode="j" horiz-adv-x="292" 
d="M36 -116q41 0 54.5 13.5t13.5 54.5v513q0 20 11 31t31 11t31 -11t11 -31v-513q0 -77 -37.5 -114.5t-114.5 -37.5q-41 0 -41 42t41 42zM97.5 602q-12.5 13 -12.5 35v30q0 23 12.5 34.5t35.5 11.5h29q45 0 45 -46v-30q0 -23 -11.5 -35.5t-33.5 -12.5h-29q-23 0 -35.5 13z
" />
    <glyph glyph-name="k" unicode="k" horiz-adv-x="508" 
d="M473 72q13 -14 13 -28q0 -16 -16 -31q-15 -12 -29 -12q-16 0 -31 16l-175 198l-47 -40v-133q0 -20 -11 -31t-31 -11t-31 11t-11 31v620q0 20 11 31t31 11t31 -11t11 -31v-376l238 205q14 13 28 13q16 0 31 -17q12 -15 12 -29q0 -17 -16 -30l-183 -158z" />
    <glyph glyph-name="l" unicode="l" horiz-adv-x="343" 
d="M141.5 37.5q-37.5 37.5 -37.5 114.5v510q0 20 11 31t31 11t31 -11t11 -31v-510q0 -41 13.5 -54.5t53.5 -13.5q43 0 43 -42q1 -20 -10 -31t-33 -11q-76 0 -113.5 37.5z" />
    <glyph glyph-name="m" unicode="m" horiz-adv-x="930" 
d="M795 462.5q41 -44.5 41 -147.5v-273q0 -42 -42 -42t-42 42v273q0 57 -22 82.5t-71 25.5h-41q-57 0 -81.5 -25.5t-24.5 -82.5v-273q0 -42 -42 -42t-42 42v273q0 57 -22 82.5t-71 25.5h-41q-57 0 -81.5 -25.5t-24.5 -82.5v-273q0 -42 -42 -42t-42 42v423q0 42 42 42t42 -42
v-23q26 34 58 49.5t76 15.5h13q62 0 97.5 -17t53.5 -56q27 40 56.5 56.5t75.5 16.5h41q95 0 136 -44.5z" />
    <glyph glyph-name="n" unicode="n" horiz-adv-x="662" 
d="M520 459q48 -48 48 -148v-269q0 -20 -11 -31t-31 -11t-31 11t-11 31v269q0 44 -10 68t-34 34t-68 10h-28q-63 0 -106.5 -14.5t-49.5 -42.5v-324q0 -20 -11 -31t-31 -11t-31 11t-11 31v423q0 42 42 42t42 -42v-17q53 59 156 59h28q100 0 148 -48z" />
    <glyph glyph-name="o" unicode="o" 
d="M128 48q-48 48 -48 147v116q0 100 48 148t148 48h82q100 0 148 -48t48 -148v-115q0 -100 -48 -148t-148 -48h-82q-100 0 -148 48zM358 84q44 0 68 10t34 34t10 68v115q0 44 -10 68t-34 34t-68 10h-82q-45 0 -68.5 -10t-33.5 -33.5t-10 -68.5v-116q0 -44 10 -67.5
t34 -33.5t68 -10h82z" />
    <glyph glyph-name="p" unicode="p" horiz-adv-x="658" 
d="M530 459q48 -48 48 -148v-115q0 -100 -48 -148t-148 -48h-194v-158q0 -20 -11 -31t-31 -11t-31 11t-11 31v623q0 20 11 31t31 11t31 -11t11 -31v-13q55 55 156 55h38q100 0 148 -48zM494 311q0 44 -10 68t-34 34t-68 10h-38q-66 0 -109.5 -16t-46.5 -47v-276h194
q44 0 68 10t34 34t10 68v115z" />
    <glyph glyph-name="q" unicode="q" horiz-adv-x="648" 
d="M543 496q11 -11 11 -31v-623q0 -20 -11 -31t-31 -11t-31 11t-11 31v158h-194q-100 0 -148 48t-48 148v115q0 100 48 148t148 48h38q108 0 156 -56v14q0 20 11 31t31 11t31 -11zM470 84v269q0 35 -43 52.5t-113 17.5h-38q-44 0 -68 -10t-34 -34t-10 -68v-115q0 -44 10 -68
t34 -34t68 -10h194z" />
    <glyph glyph-name="r" unicode="r" horiz-adv-x="427" 
d="M399 496q11 -11 11 -31t-11 -31t-31 -11q-85 0 -131.5 -31.5t-48.5 -85.5v-264q0 -20 -11 -31t-31 -11t-31 11t-11 31v423q0 42 42 42t42 -42v-39q61 81 180 81q20 0 31 -11z" />
    <glyph glyph-name="s" unicode="s" horiz-adv-x="611" 
d="M75 105q-1 3 -1 9q0 17 11.5 26.5t30.5 9.5t29 -9.5t16 -31.5q6 -15 19.5 -20t42.5 -5h164q39 0 52.5 13t13.5 53t-13.5 53t-52.5 13h-161q-145 0 -145 145q0 74 36 110t109 36h156q118 0 139 -99q1 -3 1 -9q0 -16 -11.5 -25.5t-30.5 -9.5t-28.5 9.5t-15.5 29.5
q-6 12 -18 16t-36 4h-156q-26 0 -39 -4.5t-17.5 -17.5t-4.5 -40q0 -36 12 -48.5t49 -12.5h161q150 0 150 -150t-150 -150h-164q-127 0 -148 105z" />
    <glyph glyph-name="t" unicode="t" horiz-adv-x="419" 
d="M360 42q0 -20 -11 -31t-31 -11q-99 0 -146 47t-47 145v231h-49q-20 0 -31 11t-11 31q0 42 42 42h49v73q0 20 11 31t31 11t31 -11t11 -31v-73h115q42 0 42 -42q0 -20 -11 -31t-31 -11h-115v-231q0 -43 10 -66t33 -32.5t66 -9.5q42 0 42 -42z" />
    <glyph glyph-name="u" unicode="u" horiz-adv-x="662" 
d="M547 496q11 -11 11 -31v-423q0 -42 -42 -42t-42 42v17q-53 -59 -156 -59h-28q-100 0 -148 48t-48 148v269q0 20 11 31t31 11t31 -11t11 -31v-269q0 -44 10 -68t34 -34t68 -10h28q63 0 106.5 14.5t49.5 42.5v324q0 20 11 31t31 11t31 -11z" />
    <glyph glyph-name="v" unicode="v" horiz-adv-x="526" 
d="M491 468q0 -9 -5 -22l-184 -415q-13 -31 -48 -31q-31 0 -45 33l-170 414q-5 13 -5 21q0 24 27 34q12 5 20 5q23 0 35 -27l140 -342l154 344q13 25 36 25q8 0 20 -5q25 -12 25 -34z" />
    <glyph glyph-name="w" unicode="w" horiz-adv-x="752" 
d="M717 469q0 -10 -4 -19l-152 -416q-12 -34 -47 -34q-37 0 -46 35l-98 327l-106 -328q-5 -16 -16.5 -25t-27.5 -9q-32 0 -44 34l-139 418q-3 9 -3 17q0 26 30 35q10 3 18 3q24 0 35 -30l110 -327l103 327q10 33 48 33q35 0 45 -35l98 -325l113 328q11 30 35 30q5 0 19 -4
q29 -11 29 -35z" />
    <glyph glyph-name="x" unicode="x" horiz-adv-x="533" 
d="M487 42q0 -16 -18 -31q-14 -11 -27 -11q-19 0 -32 19l-145 189l-133 -188q-14 -20 -33 -20q-13 0 -26 10q-19 15 -19 32q0 14 10 27l148 209l-123 160q-11 14 -11 27q0 18 19 31q14 11 27 11q17 0 31 -18l116 -151l114 151q13 19 32 19q13 0 27 -11q18 -13 18 -32
q0 -14 -10 -27l-129 -169l153 -199q11 -16 11 -28z" />
    <glyph glyph-name="y" unicode="y" horiz-adv-x="680" 
d="M94 -55q0 42 42 42t42 -42q0 -38 11.5 -49.5t48.5 -11.5h194q37 0 48.5 12t11.5 49v127q-28 -42 -65.5 -57t-90.5 -15h-49q-99 0 -146 47t-47 145v273q0 42 42 42t42 -42v-273q0 -43 9.5 -66t33 -32.5t66.5 -9.5h49q81 0 118.5 26.5t37.5 81.5v273q0 42 42 42t42 -42
v-520q0 -145 -144 -145h-194q-144 0 -144 145z" />
    <glyph glyph-name="z" unicode="z" horiz-adv-x="545" 
d="M497.5 135q11.5 -9 11.5 -25q0 -6 -1 -10q-11 -49 -46.5 -74.5t-93.5 -25.5h-259q-20 0 -31 11t-11 31q0 19 18 41l272 340h-171q-26 0 -38 -4t-18 -16q-6 -21 -15 -30.5t-28 -9.5q-20 0 -31 9t-11 26q0 6 1 9q19 100 140 100h245q42 0 42 -42q0 -20 -18 -42l-270 -338
l183 -1q24 0 36.5 4.5t18.5 16.5q7 21 16.5 30t27.5 9q19 0 30.5 -9z" />
    <glyph glyph-name="braceleft" unicode="{" horiz-adv-x="358" 
d="M182.5 -134q-38.5 41 -38.5 138v167l-53 20q-27 12 -27 41v28q0 29 27 41l53 21v167q0 69 16.5 110.5t53 60t99.5 18.5q14 0 24.5 -10.5t10.5 -24.5t-10.5 -24.5t-24.5 -10.5q-42 0 -62.5 -9.5t-28.5 -34t-8 -75.5v-185q0 -32 -27 -41l-49 -17l49 -16q27 -7 27 -41v-185
q0 -47 7.5 -69.5t28 -31t63.5 -8.5q14 0 24.5 -10.5t10.5 -24.5t-10.5 -24.5t-24.5 -10.5q-92 0 -130.5 41z" />
    <glyph glyph-name="bar" unicode="|" horiz-adv-x="244" 
d="M91 -151q-11 11 -11 31v794q0 42 42 42t42 -42v-794q0 -20 -11 -31t-31 -11t-31 11z" />
    <glyph glyph-name="braceright" unicode="}" horiz-adv-x="358" 
d="M20.5 -164.5q-10.5 10.5 -10.5 24.5t10.5 24.5t24.5 10.5q43 0 63.5 8.5t28 31t7.5 69.5v185q0 34 27 41l49 16l-49 17q-27 9 -27 41v185q0 51 -8 75.5t-28.5 34t-62.5 9.5q-14 0 -24.5 10.5t-10.5 24.5t10.5 24.5t24.5 10.5q63 0 99.5 -18.5t53 -60t16.5 -110.5v-167
l53 -21q27 -12 27 -41v-28q0 -29 -27 -41l-53 -20v-167q0 -97 -38.5 -138t-130.5 -41q-14 0 -24.5 10.5z" />
    <glyph glyph-name="asciitilde" unicode="~" horiz-adv-x="609" 
d="M98 273.5q-9 10.5 -9 23.5q0 14 8 22q43 43 65 56t54 13q31 0 55.5 -9t51.5 -26q20 -12 34.5 -18t30.5 -6q18 0 32.5 9.5t42.5 39.5q12 10 25 10t22.5 -10t9.5 -23q0 -11 -8 -21q-35 -38 -63.5 -54.5t-60.5 -16.5q-29 0 -50 8.5t-45 23.5q-24 14 -40 20.5t-37 6.5
q-12 0 -19.5 -2.5t-18.5 -12.5t-34 -34q-4 -4 -10.5 -7t-12.5 -3q-14 0 -23 10.5z" />
    <glyph glyph-name="uni00A0" unicode="&#xa0;" horiz-adv-x="314" 
 />
    <glyph glyph-name="exclamdown" unicode="&#xa1;" horiz-adv-x="270" 
d="M175.5 510.5q10.5 -10.5 10.5 -29.5v-25q0 -19 -10.5 -29t-29.5 -10h-24q-38 0 -38 39v25q0 19 9.5 29.5t28.5 10.5h24q19 0 29.5 -10.5zM176 353v-495q0 -42 -42 -42t-42 42v495q0 42 42 42t42 -42z" />
    <glyph glyph-name="cent" unicode="&#xa2;" horiz-adv-x="502" 
d="M449.5 214.5q12.5 -12.5 12.5 -29.5q0 -68 -39 -101t-118 -35v-49q0 -35 -35 -35t-35 35v49q-89 2 -132 46t-43 134v83q0 91 43 135.5t132 45.5v48q0 35 35 35t35 -35v-48q79 -2 118 -35t39 -101q0 -17 -12.5 -29.5t-29.5 -12.5t-29.5 12.5t-12.5 29.5q0 30 -14.5 40.5
t-58.5 11.5v-276q44 1 58.5 11.5t14.5 40.5q0 17 12.5 29.5t29.5 12.5t29.5 -12.5zM163 154q19 -20 72 -21v276q-53 0 -72 -20.5t-19 -76.5v-83q0 -55 19 -75z" />
    <glyph glyph-name="sterling" unicode="&#xa3;" horiz-adv-x="592" 
d="M554 42q0 -42 -42 -42h-468v84q18 0 26.5 5t12 18.5t3.5 42.5v58h-53q-17 0 -26 9t-9 26t9.5 26t25.5 9h53v152q0 115 54.5 169.5t168.5 54.5h21q105 0 154.5 -49t49.5 -155q0 -42 -42 -42t-42 42q0 49 -10.5 74t-36 35.5t-73.5 10.5h-21q-54 0 -83.5 -12.5t-42.5 -42.5
t-13 -85v-152h188q17 0 26 -9t9 -26t-9 -26t-26 -9h-188v-58q0 -39 -8 -66h350q42 0 42 -42z" />
    <glyph glyph-name="currency" unicode="&#xa4;" horiz-adv-x="636" 
d="M118.5 133.5q-12.5 12.5 -12.5 29.5q0 16 12 30l45 44q-33 50 -33 110q0 59 33 109l-43 44q-13 13 -13 30t12.5 29.5t29.5 12.5q19 0 30 -13l43 -43q51 32 109 32q59 0 110 -32l45 45q12 12 29 12t29.5 -12.5t12.5 -29.5t-12 -29l-45 -45q33 -50 33 -110q0 -61 -32 -110
l44 -45q12 -12 12 -29t-12.5 -29.5t-29.5 -12.5t-30 13l-43 44q-50 -33 -111 -33q-58 0 -109 32l-44 -44q-14 -12 -30 -12q-17 0 -29.5 12.5zM414.5 263.5q34.5 34.5 34.5 83.5q0 48 -34.5 82.5t-83.5 34.5q-31 0 -58 -16t-43 -43t-16 -58q0 -32 16 -59t43 -43t58 -16
q49 0 83.5 34.5z" />
    <glyph glyph-name="yen" unicode="&#xa5;" horiz-adv-x="616" 
d="M592 636q0 -12 -7 -25l-224 -352h83q28 0 28 -28t-28 -28h-93v-36h93q28 0 28 -28t-28 -28h-93v-69q0 -20 -11 -31t-31 -11q-42 0 -42 42v69h-95q-28 0 -28 28t28 28h95v36h-95q-28 0 -28 28t28 28h85l-224 351q-9 14 -9 25q0 19 22 33q13 9 25 9q19 0 32 -22l206 -329
l204 331q14 22 33 22q12 0 26 -9q20 -14 20 -34z" />
    <glyph glyph-name="brokenbar" unicode="&#xa6;" horiz-adv-x="244" 
d="M92.5 359.5q-12.5 12.5 -12.5 29.5v285q0 17 12.5 29.5t29.5 12.5t29.5 -12.5t12.5 -29.5v-285q0 -17 -12.5 -29.5t-29.5 -12.5t-29.5 12.5zM92.5 -149.5q-12.5 12.5 -12.5 29.5v287q0 17 12.5 29.5t29.5 12.5t29.5 -12.5t12.5 -29.5v-287q0 -17 -12.5 -29.5t-29.5 -12.5
t-29.5 12.5z" />
    <glyph glyph-name="section" unicode="&#xa7;" horiz-adv-x="572" 
d="M478 126.5q14 -26.5 14 -69.5q0 -74 -36.5 -110.5t-110.5 -36.5h-114q-74 0 -110.5 36.5t-36.5 110.5q0 16 11.5 27.5t27.5 11.5t27.5 -11.5t11.5 -27.5q0 -41 14 -55t55 -14h114q41 0 55 14t14 55q0 20 -5 30.5t-21.5 19.5t-53.5 21l-124 40q-71 23 -100.5 59.5
t-29.5 100.5q0 91 73 118q-39 39 -39 100q0 56 34 85.5t98 29.5h98q130 0 130 -131q0 -16 -11.5 -27.5t-27.5 -11.5t-27.5 11.5t-11.5 27.5q0 32 -10 42.5t-42 10.5h-98q-32 0 -43 -8t-11 -29q0 -28 14.5 -43t52.5 -29l99 -35q66 -23 95 -60t29 -97q0 -78 -52 -110
q34 -19 48 -45.5zM164 287q6 -15 21.5 -25t47.5 -20l111 -36q33 1 46.5 17.5t13.5 58.5q0 34 -14.5 51t-56.5 32l-99 35l-6 2q-41 -1 -55.5 -16t-14.5 -58q0 -26 6 -41z" />
    <glyph glyph-name="dieresis" unicode="&#xa8;" horiz-adv-x="369" 
d="M52.5 591.5q-10.5 10.5 -10.5 29.5v25q0 19 10.5 29t29.5 10h24q38 0 38 -39v-25q0 -19 -9.5 -29.5t-28.5 -10.5h-24q-19 0 -29.5 10.5zM219.5 591.5q-10.5 10.5 -10.5 29.5v25q0 19 10.5 29t29.5 10h24q38 0 38 -39v-25q0 -19 -9.5 -29.5t-28.5 -10.5h-24
q-19 0 -29.5 10.5z" />
    <glyph glyph-name="copyright" unicode="&#xa9;" horiz-adv-x="818" 
d="M240 49q-75 42 -117.5 117t-42.5 169t42.5 169t117.5 117.5t169 42.5t169 -42.5t117.5 -117.5t42.5 -169t-42.5 -169t-117.5 -117t-169 -42t-169 42zM543.5 109.5q58.5 32.5 91.5 91t33 134.5t-33 134.5t-91.5 91.5t-134.5 33t-134.5 -33t-91.5 -91.5t-33 -134.5
t33 -134.5t91.5 -91t134.5 -32.5t134.5 32.5zM274.5 182q-36.5 36 -36.5 110v83q0 75 36.5 111t110.5 36h49q108 0 129 -65q2 -8 2 -11q0 -12 -9.5 -19t-27.5 -7q-12 0 -17.5 4t-11 12t-9.5 13q-16 3 -56 3h-49q-45 0 -61 -15.5t-16 -61.5v-83q0 -45 15.5 -60.5t61.5 -15.5
h49q26 0 56 3q3 4 9 13.5t12.5 13t16.5 3.5q17 0 27 -7t10 -20q0 -3 -2 -11q-26 -65 -129 -65h-49q-74 0 -110.5 36z" />
    <glyph glyph-name="ordfeminine" unicode="&#xaa;" horiz-adv-x="474" 
d="M375 633q35 -35 35 -106v-193q0 -17 -9.5 -26.5t-27.5 -9.5q-17 0 -26.5 9.5t-9.5 26.5v12q-30 -48 -98 -48h-55q-120 0 -120 120q0 121 120 121h153q-1 33 -15.5 44.5t-52.5 11.5h-56q-49 0 -63 -10q-16 -21 -22 -25t-19 -4q-16 0 -25.5 7.5t-9.5 21.5q0 6 1 10
q11 37 45 55t93 18h56q71 0 106 -35zM337 404v62h-153q-29 0 -38 -9t-9 -39q0 -29 9 -38t38 -9h55q98 0 98 33z" />
    <glyph glyph-name="guillemotleft" unicode="&#xab;" horiz-adv-x="681" 
d="M530 115l-186 154q-15 12 -15 25t15 25l186 154q8 8 22 8t24.5 -10.5t10.5 -24.5q0 -15 -14 -27l-151 -125l151 -125q14 -12 14 -27q0 -14 -10.5 -24.5t-24.5 -10.5t-22 8zM295 115l-186 154q-15 12 -15 25t15 25l186 154q8 8 22 8t24.5 -10.5t10.5 -24.5q0 -15 -14 -27
l-151 -125l151 -125q14 -12 14 -27q0 -14 -10.5 -24.5t-24.5 -10.5t-22 8z" />
    <glyph glyph-name="logicalnot" unicode="&#xac;" horiz-adv-x="609" 
d="M465.5 213.5q-9.5 9.5 -9.5 22.5v83h-336q-13 0 -22.5 9.5t-9.5 22.5t9.5 22.5t22.5 9.5h368q33 0 33 -32v-115q0 -13 -10 -22.5t-23 -9.5t-22.5 9.5z" />
    <glyph glyph-name="uni00AD" unicode="&#xad;" horiz-adv-x="514" 
d="M94.5 245.5q-10.5 10.5 -10.5 24.5t10.5 24.5t24.5 10.5h276q14 0 24.5 -10.5t10.5 -24.5t-10.5 -24.5t-24.5 -10.5h-276q-14 0 -24.5 10.5z" />
    <glyph glyph-name="registered" unicode="&#xae;" horiz-adv-x="818" 
d="M240 49.5q-75 42.5 -117.5 117.5t-42.5 169t42.5 169t117.5 117.5t169 42.5t169 -42.5t117.5 -117.5t42.5 -169t-42.5 -169t-117.5 -117.5t-169 -42.5t-169 42.5zM543.5 110q58.5 33 91.5 91.5t33 134.5t-33 134.5t-91.5 91.5t-134.5 33t-134.5 -33t-91.5 -91.5
t-33 -134.5t33 -134.5t91.5 -91.5t134.5 -33t134.5 33zM296 169q-9 9 -9 26v293q0 17 9 26t26 9h89q52 0 80.5 -28.5t28.5 -80.5v-15q0 -72 -51 -98l51 -88q5 -9 5 -20q0 -17 -20 -28q-10 -5 -18 -5q-18 0 -30 20l-61 109h-39v-94q0 -16 -9 -25.5t-26 -9.5t-26 9zM411 359
q22 0 30.5 8.5t8.5 31.5v15q0 22 -8.5 30.5t-30.5 8.5h-54v-94h54z" />
    <glyph glyph-name="macron" unicode="&#xaf;" horiz-adv-x="437" 
d="M50 605q0 42 42 42h253q42 0 42 -42t-42 -42h-253q-42 0 -42 42z" />
    <glyph glyph-name="degree" unicode="&#xb0;" horiz-adv-x="289" 
d="M71.5 460.5q-21.5 21.5 -21.5 61.5v72q0 40 21.5 61.5t61.5 21.5h23q40 0 61.5 -21.5t21.5 -61.5v-72q0 -40 -21.5 -61.5t-61.5 -21.5h-23q-40 0 -61.5 21.5zM156 495q16 0 21.5 5.5t5.5 21.5v72q0 16 -5.5 21.5t-21.5 5.5h-23q-16 0 -21.5 -5.5t-5.5 -21.5v-72
q0 -16 5.5 -21.5t21.5 -5.5h23z" />
    <glyph glyph-name="plusminus" unicode="&#xb1;" horiz-adv-x="609" 
d="M93.5 327.5q-9.5 9.5 -9.5 25.5q0 17 9.5 26t25.5 9h160v97q0 35 35 35t35 -35v-97h141q17 0 26 -9t9 -26t-9 -26t-26 -9h-141v-105q0 -35 -35 -35t-35 35v105h-160q-16 0 -25.5 9.5zM516 144q9 -9 9 -26t-9 -26t-26 -9h-371q-16 0 -25.5 9.5t-9.5 25.5q0 17 9.5 26
t25.5 9h371q17 0 26 -9z" />
    <glyph glyph-name="uni00B2" unicode="&#xb2;" horiz-adv-x="374" 
d="M97 298q-18 0 -29 10t-11 29q0 46 16 77t38 49t58 40q42 27 53.5 37t11.5 27q0 19 -4 23t-23 4h-50q-24 0 -29 -3q-17 -22 -24 -27.5t-20 -5.5q-17 0 -27.5 8.5t-10.5 23.5q0 6 1 10q20 72 110 72h50q52 0 78.5 -26.5t26.5 -78.5q0 -33 -14 -56.5t-32 -37t-55 -36.5
q-33 -20 -47.5 -32.5t-22.5 -28.5h139q40 0 40 -39q0 -19 -10.5 -29t-29.5 -10h-183z" />
    <glyph glyph-name="uni00B3" unicode="&#xb3;" horiz-adv-x="396" 
d="M348 416q0 -57 -29.5 -86t-86.5 -29h-56q-93 0 -111 73q-1 4 -1 10q0 15 10.5 23.5t27.5 8.5q14 0 19.5 -4t12.5 -14t11 -16q6 -3 31 -3h56q25 0 31.5 6.5t6.5 30.5q0 25 -6.5 31t-31.5 6h-21q-19 0 -29 10.5t-10 29.5t10 29t29 10h18q34 0 34 31q0 23 -6 28.5t-27 5.5
h-52q-15 0 -25 -2q-6 -7 -13 -15.5t-13 -12.5t-16 -4q-20 0 -30.5 8t-10.5 22q0 7 1 11q9 35 36.5 53t70.5 18h52q54 0 82.5 -26.5t28.5 -71.5q0 -42 -33 -65q40 -28 40 -96z" />
    <glyph glyph-name="acute" unicode="&#xb4;" horiz-adv-x="247" 
d="M48 549q0 14 10 25l73 88q11 14 26 14q14 0 25 -10q14 -11 14 -26q0 -14 -10 -25l-73 -88q-11 -14 -26 -14q-12 0 -25 10q-14 11 -14 26z" />
    <glyph glyph-name="uni00B5" unicode="&#xb5;" horiz-adv-x="703" 
d="M648 75q10 -10 10 -33q0 -42 -46 -42q-73 0 -119 60q-28 -29 -72.5 -45.5t-102.5 -16.5h-28q-71 0 -112 55v-89q0 -26 -11 -41t-31 -15t-31 11t-11 31v515q0 20 11 31t31 11t31 -11t11 -31v-271q0 -44 10 -68t34 -34t68 -10h28q71 0 113.5 17t42.5 53v313q0 20 11 31
t31 11t31 -11t11 -31v-332q0 -23 4.5 -33.5t16 -13.5t36.5 -2q23 1 33 -9z" />
    <glyph glyph-name="paragraph" unicode="&#xb6;" horiz-adv-x="576" 
d="M282.5 -187.5q-10.5 10.5 -10.5 24.5v439h-51q-86 0 -131.5 45t-45.5 131v29q0 86 45.5 131.5t131.5 45.5h216q17 0 26 -9t9 -26v-786q0 -14 -10.5 -24.5t-24.5 -10.5t-24.5 10.5t-10.5 24.5v751h-60v-751q0 -14 -10.5 -24.5t-24.5 -10.5t-24.5 10.5z" />
    <glyph glyph-name="periodcentered" unicode="&#xb7;" horiz-adv-x="270" 
d="M94.5 260.5q-10.5 10.5 -10.5 29.5v25q0 19 10.5 29t29.5 10h24q38 0 38 -39v-25q0 -19 -9.5 -29.5t-28.5 -10.5h-24q-19 0 -29.5 10.5z" />
    <glyph glyph-name="cedilla" unicode="&#xb8;" horiz-adv-x="314" 
d="M75 -189q-25 25 -25 72q0 35 35 35t35 -35q0 -18 4.5 -22.5t22.5 -4.5q29 0 38 8.5t9 38.5q0 7 -3.5 11.5t-16.5 13.5q-53 32 -53 87q0 35 35 35t35 -35q0 -9 3.5 -14.5t18.5 -15.5q22 -15 36.5 -33t14.5 -49q0 -117 -117 -117q-47 0 -72 25z" />
    <glyph glyph-name="uni00B9" unicode="&#xb9;" horiz-adv-x="287" 
d="M227 650v-310q0 -42 -42 -42t-42 42v197l-18 -17q-14 -14 -29 -14t-30 15q-14 16 -14 30q0 16 15 29l78 77q14 13 24.5 17t27.5 4q30 0 30 -28z" />
    <glyph glyph-name="ordmasculine" unicode="&#xba;" horiz-adv-x="430" 
d="M36 444v60q0 144 146 146h66q146 0 146 -146v-59q0 -147 -146 -147h-66q-146 0 -146 146zM248 382q38 0 50 12t12 51v59q0 38 -12 50t-50 12h-66q-38 -1 -50 -12.5t-12 -49.5v-60q0 -38 12 -50t50 -12h66z" />
    <glyph glyph-name="guillemotright" unicode="&#xbb;" horiz-adv-x="678" 
d="M336.5 117.5q-10.5 10.5 -10.5 24.5q0 15 14 27l151 125l-151 125q-14 12 -14 27q0 14 10.5 24.5t24.5 10.5t22 -8l186 -154q15 -12 15 -25t-15 -25l-186 -154q-8 -8 -22 -8t-24.5 10.5zM104.5 117.5q-10.5 10.5 -10.5 24.5q0 15 14 27l151 125l-151 125q-14 12 -14 27
q0 14 10.5 24.5t24.5 10.5t22 -8l186 -154q15 -12 15 -25t-15 -25l-186 -154q-8 -8 -22 -8t-24.5 10.5z" />
    <glyph glyph-name="onequarter" unicode="&#xbc;" horiz-adv-x="819" 
d="M227 650v-310q0 -42 -42 -42t-42 42v197l-18 -17q-14 -14 -29 -14t-30 15q-14 16 -14 30q0 16 15 29l78 77q14 13 24.5 17t27.5 4q30 0 30 -28zM125.5 -7.5q-12.5 12.5 -12.5 29.5q0 15 8 26l461 610q14 17 34 17q17 0 29.5 -12.5t12.5 -29.5q0 -15 -8 -26l-461 -610
q-14 -17 -34 -17q-17 0 -29.5 12.5zM795 110q0 -19 -10 -29t-29 -10h-35v-30q0 -19 -10 -29t-29 -10t-29 10t-10 29v30h-150q-19 0 -29 10t-10 29q0 17 16 39l172 209q21 24 47 24q34 0 34 -39l-1 -193h34q39 0 39 -40zM557 150h87l1 103z" />
    <glyph glyph-name="onehalf" unicode="&#xbd;" horiz-adv-x="837" 
d="M227 650v-310q0 -42 -42 -42t-42 42v197l-18 -17q-14 -14 -29 -14t-30 15q-14 16 -14 30q0 16 15 29l78 77q14 13 24.5 17t27.5 4q30 0 30 -28zM125.5 -7.5q-12.5 12.5 -12.5 29.5q0 15 8 26l461 610q14 17 34 17q17 0 29.5 -12.5t12.5 -29.5q0 -15 -8 -26l-461 -610
q-14 -17 -34 -17q-17 0 -29.5 12.5zM554 0q-18 0 -29 10t-11 29q0 46 16 77t38 49t58 40q42 27 53.5 37t11.5 27q0 19 -4 23t-23 4h-50q-24 0 -29 -3q-17 -22 -24 -27.5t-20 -5.5q-17 0 -27.5 8.5t-10.5 23.5q0 6 1 10q20 72 110 72h50q52 0 78.5 -26.5t26.5 -78.5
q0 -33 -14 -56.5t-32 -37t-55 -36.5q-33 -20 -47.5 -32.5t-22.5 -28.5h139q40 0 40 -39q0 -19 -10.5 -29t-29.5 -10h-183z" />
    <glyph glyph-name="threequarters" unicode="&#xbe;" horiz-adv-x="929" 
d="M348 416q0 -57 -29.5 -86t-86.5 -29h-56q-93 0 -111 73q-1 4 -1 10q0 15 10.5 23.5t27.5 8.5q14 0 19.5 -4t12.5 -14t11 -16q6 -3 31 -3h56q25 0 31.5 6.5t6.5 30.5q0 25 -6.5 31t-31.5 6h-21q-19 0 -29 10.5t-10 29.5t10 29t29 10h18q34 0 34 31q0 23 -6 28.5t-27 5.5
h-52q-15 0 -25 -2q-6 -7 -13 -15.5t-13 -12.5t-16 -4q-20 0 -30.5 8t-10.5 22q0 7 1 11q9 35 36.5 53t70.5 18h52q54 0 82.5 -26.5t28.5 -71.5q0 -42 -33 -65q40 -28 40 -96zM234.5 -7.5q-12.5 12.5 -12.5 29.5q0 15 8 26l461 610q14 17 34 17q17 0 29.5 -12.5t12.5 -29.5
q0 -15 -8 -26l-461 -610q-14 -17 -34 -17q-17 0 -29.5 12.5zM905 110q0 -19 -10 -29t-29 -10h-35v-30q0 -19 -10 -29t-29 -10t-29 10t-10 29v30h-150q-19 0 -29 10t-10 29q0 17 16 39l172 209q21 24 47 24q34 0 34 -39l-1 -193h34q39 0 39 -40zM667 150h87l1 103z" />
    <glyph glyph-name="questiondown" unicode="&#xbf;" horiz-adv-x="514" 
d="M320.5 499.5q10.5 -10.5 10.5 -29.5v-25q0 -19 -10.5 -29t-29.5 -10h-24q-38 0 -38 39v25q0 19 9.5 29.5t28.5 10.5h24q19 0 29.5 -10.5zM321 302q0 -49 -17 -81.5t-38.5 -49.5t-53.5 -35q-28 -16 -40.5 -26t-20 -26t-7.5 -43q0 -40 9 -61.5t30.5 -30.5t61.5 -9h67
q40 0 61.5 9t30.5 30.5t9 61.5q0 42 42 42t42 -42q0 -185 -185 -185h-67q-94 0 -139.5 45.5t-45.5 139.5q0 49 17 81.5t38.5 49.5t53.5 35q28 16 40.5 26t20 26t7.5 43q0 42 42 42t42 -42z" />
    <glyph glyph-name="Agrave" unicode="&#xc0;" horiz-adv-x="666" 
d="M625 39q0 -24 -27 -35q-9 -4 -20 -4q-24 0 -35 27l-54 131h-311l-52 -131q-11 -27 -35 -27q-10 0 -19 4q-28 10 -28 35q0 11 4 20l238 586q15 33 47 33h2q33 -2 44 -33l242 -586q4 -9 4 -20zM211 242h244l-125 303zM353 712q-15 0 -26 14l-73 88q-10 11 -10 25
q0 15 14 26q11 10 25 10q15 0 26 -14l73 -88q10 -11 10 -25q0 -15 -14 -26q-13 -10 -25 -10z" />
    <glyph glyph-name="Aacute" unicode="&#xc1;" horiz-adv-x="666" 
d="M625 39q0 -24 -27 -35q-9 -4 -20 -4q-24 0 -35 27l-54 131h-311l-52 -131q-11 -27 -35 -27q-10 0 -19 4q-28 10 -28 35q0 11 4 20l238 586q15 33 47 33h2q33 -2 44 -33l242 -586q4 -9 4 -20zM211 242h244l-125 303zM314 748q0 14 10 25l73 88q11 14 26 14q14 0 25 -10
q14 -11 14 -26q0 -14 -10 -25l-73 -88q-11 -14 -26 -14q-12 0 -25 10q-14 11 -14 26z" />
    <glyph glyph-name="Acircumflex" unicode="&#xc2;" horiz-adv-x="666" 
d="M625 39q0 -24 -27 -35q-9 -4 -20 -4q-24 0 -35 27l-54 131h-311l-52 -131q-11 -27 -35 -27q-10 0 -19 4q-28 10 -28 35q0 11 4 20l238 586q15 33 47 33h2q33 -2 44 -33l242 -586q4 -9 4 -20zM211 242h244l-125 303zM186 730q-11 11 -11 27q0 9 5 18.5t13 14.5l92 76
q21 18 47 18h3q14 0 25 -4t22 -14l93 -76q8 -5 13 -14.5t5 -18.5q0 -16 -11.5 -27t-26.5 -11q-16 0 -28 12l-93 77h-1l-92 -77q-12 -12 -28 -12t-27 11z" />
    <glyph glyph-name="Atilde" unicode="&#xc3;" horiz-adv-x="666" 
d="M625 39q0 -24 -27 -35q-9 -4 -20 -4q-24 0 -35 27l-54 131h-311l-52 -131q-11 -27 -35 -27q-10 0 -19 4q-28 10 -28 35q0 11 4 20l238 586q15 33 47 33h2q33 -2 44 -33l242 -586q4 -9 4 -20zM211 242h244l-125 303zM359.5 745q-17.5 11 -36.5 30q-13 14 -20.5 18t-16.5 4
q-26 0 -39 -31q-11 -26 -30 -26q-7 0 -16 3q-22 8 -22 25q0 9 4 17q17 41 41.5 60t61.5 19q29 0 47.5 -11.5t37.5 -30.5q13 -13 19 -16.5t16 -3.5t16.5 5t12.5 20q11 28 31 28q3 0 13 -2q24 -6 24 -26q0 -6 -3 -15q-14 -40 -37 -59t-57 -19q-29 0 -46.5 11z" />
    <glyph glyph-name="Adieresis" unicode="&#xc4;" horiz-adv-x="666" 
d="M625 39q0 -24 -27 -35q-9 -4 -20 -4q-24 0 -35 27l-54 131h-311l-52 -131q-11 -27 -35 -27q-10 0 -19 4q-28 10 -28 35q0 11 4 20l238 586q15 33 47 33h2q33 -2 44 -33l242 -586q4 -9 4 -20zM211 242h244l-125 303zM210.5 762.5q-10.5 10.5 -10.5 29.5v25q0 19 10.5 29
t29.5 10h24q38 0 38 -39v-25q0 -19 -9.5 -29.5t-28.5 -10.5h-24q-19 0 -29.5 10.5zM377.5 762.5q-10.5 10.5 -10.5 29.5v25q0 19 10.5 29t29.5 10h24q38 0 38 -39v-25q0 -19 -9.5 -29.5t-28.5 -10.5h-24q-19 0 -29.5 10.5z" />
    <glyph glyph-name="Aring" unicode="&#xc5;" horiz-adv-x="666" 
d="M625 39q0 -24 -27 -35q-9 -4 -20 -4q-24 0 -35 27l-54 131h-311l-52 -131q-11 -27 -35 -27q-10 0 -19 4q-28 10 -28 35q0 11 4 20l238 586q15 33 47 33h2q33 -2 44 -33l242 -586q4 -9 4 -20zM211 242h244l-125 303zM280 749.5q-21 20.5 -21 56.5t21 56.5t56 20.5
q36 0 57 -20.5t21 -56.5t-21 -56.5t-57 -20.5q-35 0 -56 20.5zM351.5 787.5q4.5 1.5 4.5 8.5v16q0 10 -1.5 12t-9.5 2h-7q-16 0 -19 -2t-3 -11v-7q0 -14 2 -17t10 -3q19 0 23.5 1.5z" />
    <glyph glyph-name="AE" unicode="&#xc6;" horiz-adv-x="860" 
d="M429 42v116h-228l-77 -134q-13 -24 -34 -24q-12 0 -23 7q-23 14 -23 34q0 12 7 23l332 585q18 29 51 29h328q20 0 31 -11t11 -31t-11 -31t-31 -11h-249v-210h131q20 0 31 -11t11 -31t-11 -31t-31 -11h-131v-216h249q20 0 31 -11t11 -31t-11 -31t-31 -11h-291
q-42 0 -42 42zM249 242h180v327z" />
    <glyph glyph-name="Ccedilla" unicode="&#xc7;" horiz-adv-x="696" 
d="M617 193q11 -11 8 -32q-8 -80 -54 -119t-134 -42q4 -5 18 -15q22 -15 36.5 -33t14.5 -49q0 -117 -117 -117q-47 0 -72 25t-25 72q0 35 35 35t35 -35q0 -18 4.5 -22.5t22.5 -4.5q29 0 38 8.5t9 38.5q0 7 -3.5 11.5t-16.5 13.5q-19 12 -33.5 28.5t-18.5 43.5h-60
q-115 0 -169.5 54.5t-54.5 169.5v230q0 115 54.5 170t168.5 54h121q94 0 143.5 -39t57.5 -122q3 -21 -8 -32t-32 -11q-20 0 -30.5 10.5t-13.5 31.5q-5 45 -31 61.5t-86 16.5h-121q-54 1 -84 -12t-42.5 -43t-12.5 -85v-230q0 -55 13 -84.5t42.5 -42.5t84.5 -13h120
q60 0 86 16.5t31 61.5q3 21 13.5 31.5t30.5 10.5q21 0 32 -11z" />
    <glyph glyph-name="Egrave" unicode="&#xc8;" horiz-adv-x="603" 
d="M536 73q11 -11 11 -31t-11 -31t-31 -11h-359q-20 0 -31 11t-11 31v594q0 20 11 31t31 11h359q20 0 31 -11t11 -31t-11 -31t-31 -11h-317v-210h199q20 0 31 -11t11 -31t-11 -31t-31 -11h-199v-216h317q20 0 31 -11zM359 712q-15 0 -26 14l-73 88q-10 11 -10 25q0 15 14 26
q11 10 25 10q15 0 26 -14l73 -88q10 -11 10 -25q0 -15 -14 -26q-13 -10 -25 -10z" />
    <glyph glyph-name="Eacute" unicode="&#xc9;" horiz-adv-x="603" 
d="M536 73q11 -11 11 -31t-11 -31t-31 -11h-359q-20 0 -31 11t-11 31v594q0 20 11 31t31 11h359q20 0 31 -11t11 -31t-11 -31t-31 -11h-317v-210h199q20 0 31 -11t11 -31t-11 -31t-31 -11h-199v-216h317q20 0 31 -11zM304 766q0 14 10 25l73 88q11 14 26 14q14 0 25 -10
q14 -11 14 -26q0 -14 -10 -25l-73 -88q-11 -14 -26 -14q-12 0 -25 10q-14 11 -14 26z" />
    <glyph glyph-name="Ecircumflex" unicode="&#xca;" horiz-adv-x="603" 
d="M536 73q11 -11 11 -31t-11 -31t-31 -11h-359q-20 0 -31 11t-11 31v594q0 20 11 31t31 11h359q20 0 31 -11t11 -31t-11 -31t-31 -11h-317v-210h199q20 0 31 -11t11 -31t-11 -31t-31 -11h-199v-216h317q20 0 31 -11zM192 730q-11 11 -11 27q0 9 5 18.5t13 14.5l92 76
q21 18 47 18h3q14 0 25 -4t22 -14l93 -76q8 -5 13 -14.5t5 -18.5q0 -16 -11.5 -27t-26.5 -11q-16 0 -28 12l-93 77h-1l-92 -77q-12 -12 -28 -12t-27 11z" />
    <glyph glyph-name="Edieresis" unicode="&#xcb;" horiz-adv-x="603" 
d="M536 73q11 -11 11 -31t-11 -31t-31 -11h-359q-20 0 -31 11t-11 31v594q0 20 11 31t31 11h359q20 0 31 -11t11 -31t-11 -31t-31 -11h-317v-210h199q20 0 31 -11t11 -31t-11 -31t-31 -11h-199v-216h317q20 0 31 -11zM216.5 762.5q-10.5 10.5 -10.5 29.5v25q0 19 10.5 29
t29.5 10h24q38 0 38 -39v-25q0 -19 -9.5 -29.5t-28.5 -10.5h-24q-19 0 -29.5 10.5zM383.5 762.5q-10.5 10.5 -10.5 29.5v25q0 19 10.5 29t29.5 10h24q38 0 38 -39v-25q0 -19 -9.5 -29.5t-28.5 -10.5h-24q-19 0 -29.5 10.5z" />
    <glyph glyph-name="Igrave" unicode="&#xcc;" horiz-adv-x="292" 
d="M114 10q-10 10 -10 32v593q0 22 10 32t32 10t32 -10t10 -32v-593q0 -22 -10 -32t-32 -10t-32 10zM165 712q-15 0 -26 14l-73 88q-10 11 -10 25q0 15 14 26q11 10 25 10q15 0 26 -14l73 -88q10 -11 10 -25q0 -15 -14 -26q-13 -10 -25 -10z" />
    <glyph glyph-name="Iacute" unicode="&#xcd;" horiz-adv-x="292" 
d="M114 10q-10 10 -10 32v593q0 22 10 32t32 10t32 -10t10 -32v-593q0 -22 -10 -32t-32 -10t-32 10zM110 766q0 14 10 25l73 88q11 14 26 14q14 0 25 -10q14 -11 14 -26q0 -14 -10 -25l-73 -88q-11 -14 -26 -14q-12 0 -25 10q-14 11 -14 26z" />
    <glyph glyph-name="Icircumflex" unicode="&#xce;" horiz-adv-x="292" 
d="M114 10q-10 10 -10 32v593q0 22 10 32t32 10t32 -10t10 -32v-593q0 -22 -10 -32t-32 -10t-32 10zM27.5 741.5q-10.5 10.5 -10.5 24.5t10 24l73 73q18 19 44 19h6q26 0 44 -19l73 -73q10 -10 10 -24t-10.5 -24.5t-24.5 -10.5q-16 0 -25 10l-64 71h-12l-64 -71
q-10 -10 -25 -10q-14 0 -24.5 10.5z" />
    <glyph glyph-name="Idieresis" unicode="&#xcf;" horiz-adv-x="292" 
d="M114 10q-10 10 -10 32v593q0 22 10 32t32 10t32 -10t10 -32v-593q0 -22 -10 -32t-32 -10t-32 10zM22.5 762.5q-10.5 10.5 -10.5 29.5v25q0 19 10.5 29t29.5 10h24q38 0 38 -39v-25q0 -19 -9.5 -29.5t-28.5 -10.5h-24q-19 0 -29.5 10.5zM189.5 762.5
q-10.5 10.5 -10.5 29.5v25q0 19 10.5 29t29.5 10h24q38 0 38 -39v-25q0 -19 -9.5 -29.5t-28.5 -10.5h-24q-19 0 -29.5 10.5z" />
    <glyph glyph-name="Eth" unicode="&#xd0;" horiz-adv-x="721" 
d="M579.5 616.5q61.5 -61.5 61.5 -192.5v-170q0 -131 -61.5 -192.5t-192.5 -61.5h-241q-20 0 -31 11t-11 31v261h-42q-16 0 -25.5 9.5t-9.5 25.5q0 17 9.5 26t25.5 9h42v263q0 20 11 31t31 11h241q131 0 192.5 -61.5zM557 424q0 65 -16 101.5t-52.5 52.5t-101.5 16h-199
v-221h136q17 0 26 -9t9 -26t-9 -26t-26 -9h-136v-219h199q65 0 101.5 16t52.5 52.5t16 101.5v170z" />
    <glyph glyph-name="Ntilde" unicode="&#xd1;" horiz-adv-x="757" 
d="M642 667q11 -11 11 -31v-594q0 -20 -11 -31t-31 -11q-12 0 -22 6t-20 19l-381 491v-474q0 -20 -11 -31t-31 -11t-31 11t-11 31v594q0 20 11 31t31 11q12 0 21.5 -6t20.5 -19l381 -491v474q0 20 11 31t31 11t31 -11zM400.5 745q-17.5 11 -36.5 30q-13 14 -20.5 18t-16.5 4
q-26 0 -39 -31q-11 -26 -30 -26q-7 0 -16 3q-22 8 -22 25q0 9 4 17q17 41 41.5 60t61.5 19q29 0 47.5 -11.5t37.5 -30.5q13 -13 19 -16.5t16 -3.5t16.5 5t12.5 20q11 28 31 28q3 0 13 -2q24 -6 24 -26q0 -6 -3 -15q-14 -40 -37 -59t-57 -19q-29 0 -46.5 11z" />
    <glyph glyph-name="Ograve" unicode="&#xd2;" horiz-adv-x="728" 
d="M134.5 54.5q-54.5 54.5 -54.5 169.5v231q0 115 55 169.5t169 53.5h120q115 0 169.5 -54.5t54.5 -169.5v-230q0 -115 -54.5 -169.5t-169.5 -54.5h-120q-115 0 -169.5 54.5zM424 84q55 0 84.5 13t42.5 42.5t13 84.5v230q0 54 -13 84t-43 43t-84 13h-120q-54 1 -84 -12
t-43 -43t-13 -84v-231q0 -55 13 -84.5t42.5 -42.5t84.5 -13h120zM383 712q-15 0 -26 14l-73 88q-10 11 -10 25q0 15 14 26q11 10 25 10q15 0 26 -14l73 -88q10 -11 10 -25q0 -15 -14 -26q-13 -10 -25 -10z" />
    <glyph glyph-name="Oacute" unicode="&#xd3;" horiz-adv-x="728" 
d="M134.5 54.5q-54.5 54.5 -54.5 169.5v231q0 115 55 169.5t169 53.5h120q115 0 169.5 -54.5t54.5 -169.5v-230q0 -115 -54.5 -169.5t-169.5 -54.5h-120q-115 0 -169.5 54.5zM424 84q55 0 84.5 13t42.5 42.5t13 84.5v230q0 54 -13 84t-43 43t-84 13h-120q-54 1 -84 -12
t-43 -43t-13 -84v-231q0 -55 13 -84.5t42.5 -42.5t84.5 -13h120zM328 766q0 14 10 25l73 88q11 14 26 14q14 0 25 -10q14 -11 14 -26q0 -14 -10 -25l-73 -88q-11 -14 -26 -14q-12 0 -25 10q-14 11 -14 26z" />
    <glyph glyph-name="Ocircumflex" unicode="&#xd4;" horiz-adv-x="728" 
d="M134.5 54.5q-54.5 54.5 -54.5 169.5v231q0 115 55 169.5t169 53.5h120q115 0 169.5 -54.5t54.5 -169.5v-230q0 -115 -54.5 -169.5t-169.5 -54.5h-120q-115 0 -169.5 54.5zM424 84q55 0 84.5 13t42.5 42.5t13 84.5v230q0 54 -13 84t-43 43t-84 13h-120q-54 1 -84 -12
t-43 -43t-13 -84v-231q0 -55 13 -84.5t42.5 -42.5t84.5 -13h120zM216 730q-11 11 -11 27q0 9 5 18.5t13 14.5l92 76q21 18 47 18h3q14 0 25 -4t22 -14l93 -76q8 -5 13 -14.5t5 -18.5q0 -16 -11.5 -27t-26.5 -11q-16 0 -28 12l-93 77h-1l-92 -77q-12 -12 -28 -12t-27 11z" />
    <glyph glyph-name="Otilde" unicode="&#xd5;" horiz-adv-x="728" 
d="M134.5 54.5q-54.5 54.5 -54.5 169.5v231q0 115 55 169.5t169 53.5h120q115 0 169.5 -54.5t54.5 -169.5v-230q0 -115 -54.5 -169.5t-169.5 -54.5h-120q-115 0 -169.5 54.5zM424 84q55 0 84.5 13t42.5 42.5t13 84.5v230q0 54 -13 84t-43 43t-84 13h-120q-54 1 -84 -12
t-43 -43t-13 -84v-231q0 -55 13 -84.5t42.5 -42.5t84.5 -13h120zM389.5 745q-17.5 11 -36.5 30q-13 14 -20.5 18t-16.5 4q-26 0 -39 -31q-11 -26 -30 -26q-7 0 -16 3q-22 8 -22 25q0 9 4 17q17 41 41.5 60t61.5 19q29 0 47.5 -11.5t37.5 -30.5q13 -13 19 -16.5t16 -3.5
t16.5 5t12.5 20q11 28 31 28q3 0 13 -2q24 -6 24 -26q0 -6 -3 -15q-14 -40 -37 -59t-57 -19q-29 0 -46.5 11z" />
    <glyph glyph-name="Odieresis" unicode="&#xd6;" horiz-adv-x="728" 
d="M134.5 54.5q-54.5 54.5 -54.5 169.5v231q0 115 55 169.5t169 53.5h120q115 0 169.5 -54.5t54.5 -169.5v-230q0 -115 -54.5 -169.5t-169.5 -54.5h-120q-115 0 -169.5 54.5zM424 84q55 0 84.5 13t42.5 42.5t13 84.5v230q0 54 -13 84t-43 43t-84 13h-120q-54 1 -84 -12
t-43 -43t-13 -84v-231q0 -55 13 -84.5t42.5 -42.5t84.5 -13h120zM240.5 762.5q-10.5 10.5 -10.5 29.5v25q0 19 10.5 29t29.5 10h24q38 0 38 -39v-25q0 -19 -9.5 -29.5t-28.5 -10.5h-24q-19 0 -29.5 10.5zM407.5 762.5q-10.5 10.5 -10.5 29.5v25q0 19 10.5 29t29.5 10h24
q38 0 38 -39v-25q0 -19 -9.5 -29.5t-28.5 -10.5h-24q-19 0 -29.5 10.5z" />
    <glyph glyph-name="multiply" unicode="&#xd7;" horiz-adv-x="609" 
d="M456 226q12 -12 12 -25t-12 -25t-25 -12t-25 12l-99 100l-103 -103q-12 -12 -25 -12t-25 12t-12 25t12 25l103 103l-113 113q-12 12 -12 25q0 14 12 24q12 12 25 12t25 -12l113 -113l110 110q12 12 25 12q14 0 24 -12q12 -12 12 -25t-12 -25l-109 -109z" />
    <glyph glyph-name="Oslash" unicode="&#xd8;" horiz-adv-x="728" 
d="M648 454v-230q0 -115 -54.5 -169.5t-169.5 -54.5h-120q-64 0 -106 16l-16 -26q-13 -21 -31 -21q-10 0 -23 8q-21 13 -21 32q0 11 7 22l17 28q-51 54 -51 165v231q0 115 55 169.5t169 53.5h120q43 0 81 -8l14 23q14 21 31 21q10 0 23 -8q20 -14 20 -30q0 -10 -8 -24
l-9 -14q72 -53 72 -184zM178 136l280 457q-11 1 -34 1h-120q-54 1 -84 -12t-43 -43t-13 -84v-231q0 -59 14 -88zM564 454q0 41 -7.5 68.5t-24.5 42.5l-289 -476q28 -5 61 -5h120q55 0 84.5 13t42.5 42.5t13 84.5v230z" />
    <glyph glyph-name="Ugrave" unicode="&#xd9;" horiz-adv-x="756" 
d="M148.5 54.5q-54.5 54.5 -54.5 169.5v412q0 42 42 42t42 -42v-412q0 -55 13 -84.5t42.5 -42.5t84.5 -13h120q55 0 84.5 13t42.5 42.5t13 84.5v412q0 42 42 42t42 -42v-412q0 -115 -54.5 -169.5t-169.5 -54.5h-120q-115 0 -169.5 54.5zM397 712q-15 0 -26 14l-73 88
q-10 11 -10 25q0 15 14 26q11 10 25 10q15 0 26 -14l73 -88q10 -11 10 -25q0 -15 -14 -26q-13 -10 -25 -10z" />
    <glyph glyph-name="Uacute" unicode="&#xda;" horiz-adv-x="756" 
d="M148.5 54.5q-54.5 54.5 -54.5 169.5v412q0 42 42 42t42 -42v-412q0 -55 13 -84.5t42.5 -42.5t84.5 -13h120q55 0 84.5 13t42.5 42.5t13 84.5v412q0 42 42 42t42 -42v-412q0 -115 -54.5 -169.5t-169.5 -54.5h-120q-115 0 -169.5 54.5zM342 766q0 14 10 25l73 88
q11 14 26 14q14 0 25 -10q14 -11 14 -26q0 -14 -10 -25l-73 -88q-11 -14 -26 -14q-12 0 -25 10q-14 11 -14 26z" />
    <glyph glyph-name="Ucircumflex" unicode="&#xdb;" horiz-adv-x="756" 
d="M148.5 54.5q-54.5 54.5 -54.5 169.5v412q0 42 42 42t42 -42v-412q0 -55 13 -84.5t42.5 -42.5t84.5 -13h120q55 0 84.5 13t42.5 42.5t13 84.5v412q0 42 42 42t42 -42v-412q0 -115 -54.5 -169.5t-169.5 -54.5h-120q-115 0 -169.5 54.5zM230 730q-11 11 -11 27q0 9 5 18.5
t13 14.5l92 76q21 18 47 18h3q14 0 25 -4t22 -14l93 -76q8 -5 13 -14.5t5 -18.5q0 -16 -11.5 -27t-26.5 -11q-16 0 -28 12l-93 77h-1l-92 -77q-12 -12 -28 -12t-27 11z" />
    <glyph glyph-name="Udieresis" unicode="&#xdc;" horiz-adv-x="756" 
d="M148.5 54.5q-54.5 54.5 -54.5 169.5v412q0 42 42 42t42 -42v-412q0 -55 13 -84.5t42.5 -42.5t84.5 -13h120q55 0 84.5 13t42.5 42.5t13 84.5v412q0 42 42 42t42 -42v-412q0 -115 -54.5 -169.5t-169.5 -54.5h-120q-115 0 -169.5 54.5zM254.5 762.5q-10.5 10.5 -10.5 29.5
v25q0 19 10.5 29t29.5 10h24q38 0 38 -39v-25q0 -19 -9.5 -29.5t-28.5 -10.5h-24q-19 0 -29.5 10.5zM421.5 762.5q-10.5 10.5 -10.5 29.5v25q0 19 10.5 29t29.5 10h24q38 0 38 -39v-25q0 -19 -9.5 -29.5t-28.5 -10.5h-24q-19 0 -29.5 10.5z" />
    <glyph glyph-name="Yacute" unicode="&#xdd;" horiz-adv-x="615" 
d="M592 635q0 -12 -9 -24l-238 -365v-204q0 -20 -11 -31t-31 -11t-31 11t-11 31v204l-229 365q-8 14 -8 25q0 21 21 34q14 8 25 8q19 0 33 -21l200 -321l210 321q12 20 32 20q12 0 25 -9q22 -14 22 -33zM271 766q0 14 10 25l73 88q11 14 26 14q14 0 25 -10q14 -11 14 -26
q0 -14 -10 -25l-73 -88q-11 -14 -26 -14q-12 0 -25 10q-14 11 -14 26z" />
    <glyph glyph-name="Thorn" unicode="&#xde;" horiz-adv-x="565" 
d="M472.5 526.5q48.5 -48.5 48.5 -140.5v-30q0 -91 -48.5 -140t-140.5 -49h-144v-125q0 -20 -11 -31t-31 -11t-31 11t-11 31v594q0 20 11 31t31 11t31 -11t11 -31v-61h144q92 0 140.5 -48.5zM437 386q0 57 -24 81t-81 24h-144v-240h144q57 0 81 24t24 81v30z" />
    <glyph glyph-name="germandbls" unicode="&#xdf;" horiz-adv-x="587" 
d="M104 42v477q0 94 45.5 139.5t139.5 45.5q93 0 138.5 -45.5t45.5 -138.5q0 -41 -17 -72.5t-58 -52.5q73 -17 104 -58.5t31 -110.5v-32q0 -100 -47.5 -147t-146.5 -47h-61q-42 0 -42 42t42 42h61q44 0 67.5 9.5t33 33t9.5 67.5v32q0 44 -9.5 67.5t-33 33t-67.5 9.5h-8
q-42 0 -42 43q0 39 41 43q34 6 46.5 28t12.5 70q0 40 -9 61t-30 30t-61 9t-61.5 -9t-30.5 -30.5t-9 -61.5v-477q0 -42 -42 -42t-42 42z" />
    <glyph glyph-name="agrave" unicode="&#xe0;" horiz-adv-x="640" 
d="M498 459q48 -48 48 -148v-269q0 -20 -11 -31t-31 -11t-31 11t-11 31v23q-53 -65 -156 -65h-56q-84 0 -125 41t-41 125t40.5 125t125.5 41h211q-3 52 -27 71.5t-84 19.5h-58q-50 0 -74.5 -7t-34.5 -24q-9 -21 -19 -29t-28 -8t-29.5 9t-11.5 24q0 6 1 10q15 56 62.5 82.5
t133.5 26.5h58q100 0 148 -48zM459 159.5q1 3.5 3 7.5v81h-212q-34 0 -51 -7t-24 -24t-7 -51t7 -51t24 -24t51 -7h56q127 0 151 69q1 3 2 6.5zM330 541q-15 0 -26 14l-73 88q-10 11 -10 25q0 15 14 26q11 10 25 10q15 0 26 -14l73 -88q10 -11 10 -25q0 -15 -14 -26
q-13 -10 -25 -10z" />
    <glyph glyph-name="aacute" unicode="&#xe1;" horiz-adv-x="640" 
d="M498 459q48 -48 48 -148v-269q0 -20 -11 -31t-31 -11t-31 11t-11 31v23q-53 -65 -156 -65h-56q-84 0 -125 41t-41 125t40.5 125t125.5 41h211q-3 52 -27 71.5t-84 19.5h-58q-50 0 -74.5 -7t-34.5 -24q-9 -21 -19 -29t-28 -8t-29.5 9t-11.5 24q0 6 1 10q15 56 62.5 82.5
t133.5 26.5h58q100 0 148 -48zM459 159.5q1 3.5 3 7.5v81h-212q-34 0 -51 -7t-24 -24t-7 -51t7 -51t24 -24t51 -7h56q127 0 151 69q1 3 2 6.5zM275 595q0 14 10 25l73 88q11 14 26 14q14 0 25 -10q14 -11 14 -26q0 -14 -10 -25l-73 -88q-11 -14 -26 -14q-12 0 -25 10
q-14 11 -14 26z" />
    <glyph glyph-name="acircumflex" unicode="&#xe2;" horiz-adv-x="640" 
d="M498 459q48 -48 48 -148v-269q0 -20 -11 -31t-31 -11t-31 11t-11 31v23q-53 -65 -156 -65h-56q-84 0 -125 41t-41 125t40.5 125t125.5 41h211q-3 52 -27 71.5t-84 19.5h-58q-50 0 -74.5 -7t-34.5 -24q-9 -21 -19 -29t-28 -8t-29.5 9t-11.5 24q0 6 1 10q15 56 62.5 82.5
t133.5 26.5h58q100 0 148 -48zM459 159.5q1 3.5 3 7.5v81h-212q-34 0 -51 -7t-24 -24t-7 -51t7 -51t24 -24t51 -7h56q127 0 151 69q1 3 2 6.5zM192.5 570.5q-10.5 10.5 -10.5 24.5t10 24l73 73q18 19 44 19h6q26 0 44 -19l73 -73q10 -10 10 -24t-10.5 -24.5t-24.5 -10.5
q-16 0 -25 10l-64 71h-12l-64 -71q-10 -10 -25 -10q-14 0 -24.5 10.5z" />
    <glyph glyph-name="atilde" unicode="&#xe3;" horiz-adv-x="640" 
d="M498 459q48 -48 48 -148v-269q0 -20 -11 -31t-31 -11t-31 11t-11 31v23q-53 -65 -156 -65h-56q-84 0 -125 41t-41 125t40.5 125t125.5 41h211q-3 52 -27 71.5t-84 19.5h-58q-50 0 -74.5 -7t-34.5 -24q-9 -21 -19 -29t-28 -8t-29.5 9t-11.5 24q0 6 1 10q15 56 62.5 82.5
t133.5 26.5h58q100 0 148 -48zM459 159.5q1 3.5 3 7.5v81h-212q-34 0 -51 -7t-24 -24t-7 -51t7 -51t24 -24t51 -7h56q127 0 151 69q1 3 2 6.5zM336.5 574q-17.5 11 -36.5 30q-13 14 -20.5 18t-16.5 4q-26 0 -39 -31q-11 -26 -30 -26q-7 0 -16 3q-22 8 -22 25q0 9 4 17
q17 41 41.5 60t61.5 19q29 0 47.5 -11.5t37.5 -30.5q13 -13 19 -16.5t16 -3.5t16.5 5t12.5 20q11 28 31 28q3 0 13 -2q24 -6 24 -26q0 -6 -3 -15q-14 -40 -37 -59t-57 -19q-29 0 -46.5 11z" />
    <glyph glyph-name="adieresis" unicode="&#xe4;" horiz-adv-x="640" 
d="M498 459q48 -48 48 -148v-269q0 -20 -11 -31t-31 -11t-31 11t-11 31v23q-53 -65 -156 -65h-56q-84 0 -125 41t-41 125t40.5 125t125.5 41h211q-3 52 -27 71.5t-84 19.5h-58q-50 0 -74.5 -7t-34.5 -24q-9 -21 -19 -29t-28 -8t-29.5 9t-11.5 24q0 6 1 10q15 56 62.5 82.5
t133.5 26.5h58q100 0 148 -48zM459 159.5q1 3.5 3 7.5v81h-212q-34 0 -51 -7t-24 -24t-7 -51t7 -51t24 -24t51 -7h56q127 0 151 69q1 3 2 6.5zM187.5 591.5q-10.5 10.5 -10.5 29.5v25q0 19 10.5 29t29.5 10h24q38 0 38 -39v-25q0 -19 -9.5 -29.5t-28.5 -10.5h-24
q-19 0 -29.5 10.5zM354.5 591.5q-10.5 10.5 -10.5 29.5v25q0 19 10.5 29t29.5 10h24q38 0 38 -39v-25q0 -19 -9.5 -29.5t-28.5 -10.5h-24q-19 0 -29.5 10.5z" />
    <glyph glyph-name="aring" unicode="&#xe5;" horiz-adv-x="640" 
d="M498 459q48 -48 48 -148v-269q0 -20 -11 -31t-31 -11t-31 11t-11 31v23q-53 -65 -156 -65h-56q-84 0 -125 41t-41 125t40.5 125t125.5 41h211q-3 52 -27 71.5t-84 19.5h-58q-50 0 -74.5 -7t-34.5 -24q-9 -21 -19 -29t-28 -8t-29.5 9t-11.5 24q0 6 1 10q15 56 62.5 82.5
t133.5 26.5h58q100 0 148 -48zM459 159.5q1 3.5 3 7.5v81h-212q-34 0 -51 -7t-24 -24t-7 -51t7 -51t24 -24t51 -7h56q127 0 151 69q1 3 2 6.5zM257 578.5q-21 20.5 -21 56.5t21 56.5t56 20.5q36 0 57 -20.5t21 -56.5t-21 -56.5t-57 -20.5q-35 0 -56 20.5zM328.5 616.5
q4.5 1.5 4.5 8.5v16q0 10 -1.5 12t-9.5 2h-7q-16 0 -19 -2t-3 -11v-7q0 -14 2 -17t10 -3q19 0 23.5 1.5z" />
    <glyph glyph-name="ae" unicode="&#xe6;" horiz-adv-x="966" 
d="M476 64q-31 -41 -79 -62.5t-111 -21.5h-36q-84 0 -125 41t-41 125t41 125t125 41h192q-5 50 -29.5 68.5t-82.5 18.5h-38q-47 0 -71.5 -6.5t-34.5 -21t-10 -40.5q0 -17 -12.5 -29.5t-29.5 -12.5t-29.5 12.5t-12.5 29.5q0 78 49 115t151 37h38q105 0 154 -77q48 77 150 76
h60q98 0 145 -52t47 -160q0 -20 -11 -31t-32 -11h-317v-52q0 -45 10 -69.5t32.5 -34.5t64.5 -10h61q43 0 66.5 7t32.5 22.5t9 43.5q0 17 12.5 29.5t29.5 12.5t29.5 -12.5t12.5 -29.5q0 -81 -47.5 -119t-144.5 -38h-61q-108 0 -157 86zM799 312q-6 48 -29.5 67t-75.5 19h-60
q-56 1 -79.5 -17.5t-27.5 -68.5h272zM286 64q81 0 118.5 26.5t37.5 81.5v56h-192q-34 0 -51 -7t-24 -24t-7 -51t7 -51t24 -24t51 -7h36z" />
    <glyph glyph-name="ccedilla" unicode="&#xe7;" horiz-adv-x="591" 
d="M519.5 137q11.5 -9 11.5 -25q0 -6 -1 -10q-21 -90 -140 -101q4 -6 19 -16q22 -15 36.5 -33t14.5 -49q0 -117 -117 -117q-47 0 -72 25t-25 72q0 35 35 35t35 -35q0 -18 4.5 -22.5t22.5 -4.5q29 0 38 8.5t9 38.5q0 7 -3.5 11.5t-16.5 13.5q-19 12 -33.5 28.5t-18.5 43.5
h-42q-100 0 -148 48t-48 148v116q0 100 48 148t148 47h82q148 0 172 -102q1 -4 1 -10q0 -16 -11.5 -25t-30.5 -9q-18 0 -27.5 9t-17.5 29q-7 13 -27 18.5t-59 5.5h-82q-44 1 -68 -9t-34 -34t-10 -68v-116q0 -44 10 -68t34 -34t68 -10h82q39 0 59 5.5t27 18.5q8 21 17.5 29.5
t28.5 8.5q18 0 29.5 -9z" />
    <glyph glyph-name="egrave" unicode="&#xe8;" 
d="M164 219v-24q0 -44 10 -67.5t34 -33.5t68 -10h82q51 0 75.5 9.5t32.5 33.5q6 20 16 29.5t29 9.5t29.5 -8.5t10.5 -24.5q0 -7 -1 -10q-22 -123 -192 -123h-82q-100 0 -148 48t-48 147v116q0 101 48 149t148 47h82q100 0 148 -48t48 -148v-50q0 -20 -11 -31t-31 -11h-348z
M164 303h306v8q0 44 -10 68t-34 34t-68 10h-82q-44 1 -68 -9t-34 -34t-10 -69v-8zM337 541q-15 0 -26 14l-73 88q-10 11 -10 25q0 15 14 26q11 10 25 10q15 0 26 -14l73 -88q10 -11 10 -25q0 -15 -14 -26q-13 -10 -25 -10z" />
    <glyph glyph-name="eacute" unicode="&#xe9;" 
d="M164 219v-24q0 -44 10 -67.5t34 -33.5t68 -10h82q51 0 75.5 9.5t32.5 33.5q6 20 16 29.5t29 9.5t29.5 -8.5t10.5 -24.5q0 -7 -1 -10q-22 -123 -192 -123h-82q-100 0 -148 48t-48 147v116q0 101 48 149t148 47h82q100 0 148 -48t48 -148v-50q0 -20 -11 -31t-31 -11h-348z
M164 303h306v8q0 44 -10 68t-34 34t-68 10h-82q-44 1 -68 -9t-34 -34t-10 -69v-8zM282 595q0 14 10 25l73 88q11 14 26 14q14 0 25 -10q14 -11 14 -26q0 -14 -10 -25l-73 -88q-11 -14 -26 -14q-12 0 -25 10q-14 11 -14 26z" />
    <glyph glyph-name="ecircumflex" unicode="&#xea;" 
d="M164 219v-24q0 -44 10 -67.5t34 -33.5t68 -10h82q51 0 75.5 9.5t32.5 33.5q6 20 16 29.5t29 9.5t29.5 -8.5t10.5 -24.5q0 -7 -1 -10q-22 -123 -192 -123h-82q-100 0 -148 48t-48 147v116q0 101 48 149t148 47h82q100 0 148 -48t48 -148v-50q0 -20 -11 -31t-31 -11h-348z
M164 303h306v8q0 44 -10 68t-34 34t-68 10h-82q-44 1 -68 -9t-34 -34t-10 -69v-8zM199.5 570.5q-10.5 10.5 -10.5 24.5t10 24l73 73q18 19 44 19h6q26 0 44 -19l73 -73q10 -10 10 -24t-10.5 -24.5t-24.5 -10.5q-16 0 -25 10l-64 71h-12l-64 -71q-10 -10 -25 -10
q-14 0 -24.5 10.5z" />
    <glyph glyph-name="edieresis" unicode="&#xeb;" 
d="M164 219v-24q0 -44 10 -67.5t34 -33.5t68 -10h82q51 0 75.5 9.5t32.5 33.5q6 20 16 29.5t29 9.5t29.5 -8.5t10.5 -24.5q0 -7 -1 -10q-22 -123 -192 -123h-82q-100 0 -148 48t-48 147v116q0 101 48 149t148 47h82q100 0 148 -48t48 -148v-50q0 -20 -11 -31t-31 -11h-348z
M164 303h306v8q0 44 -10 68t-34 34t-68 10h-82q-44 1 -68 -9t-34 -34t-10 -69v-8zM194.5 591.5q-10.5 10.5 -10.5 29.5v25q0 19 10.5 29t29.5 10h24q38 0 38 -39v-25q0 -19 -9.5 -29.5t-28.5 -10.5h-24q-19 0 -29.5 10.5zM361.5 591.5q-10.5 10.5 -10.5 29.5v25
q0 19 10.5 29t29.5 10h24q38 0 38 -39v-25q0 -19 -9.5 -29.5t-28.5 -10.5h-24q-19 0 -29.5 10.5z" />
    <glyph glyph-name="igrave" unicode="&#xec;" horiz-adv-x="292" 
d="M115 11q-11 11 -11 31v423q0 20 11 31t31 11t31 -11t11 -31v-423q0 -20 -11 -31t-31 -11t-31 11zM164 541q-15 0 -26 14l-73 88q-10 11 -10 25q0 15 14 26q11 10 25 10q15 0 26 -14l73 -88q10 -11 10 -25q0 -15 -14 -26q-13 -10 -25 -10z" />
    <glyph glyph-name="iacute" unicode="&#xed;" horiz-adv-x="292" 
d="M115 11q-11 11 -11 31v423q0 20 11 31t31 11t31 -11t11 -31v-423q0 -20 -11 -31t-31 -11t-31 11zM109 595q0 14 10 25l73 88q11 14 26 14q14 0 25 -10q14 -11 14 -26q0 -14 -10 -25l-73 -88q-11 -14 -26 -14q-12 0 -25 10q-14 11 -14 26z" />
    <glyph glyph-name="icircumflex" unicode="&#xee;" horiz-adv-x="292" 
d="M115 11q-11 11 -11 31v423q0 20 11 31t31 11t31 -11t11 -31v-423q0 -20 -11 -31t-31 -11t-31 11zM26.5 570.5q-10.5 10.5 -10.5 24.5t10 24l73 73q18 19 44 19h6q26 0 44 -19l73 -73q10 -10 10 -24t-10.5 -24.5t-24.5 -10.5q-16 0 -25 10l-64 71h-12l-64 -71
q-10 -10 -25 -10q-14 0 -24.5 10.5z" />
    <glyph glyph-name="idieresis" unicode="&#xef;" horiz-adv-x="292" 
d="M115 11q-11 11 -11 31v423q0 20 11 31t31 11t31 -11t11 -31v-423q0 -20 -11 -31t-31 -11t-31 11zM21.5 591.5q-10.5 10.5 -10.5 29.5v25q0 19 10.5 29t29.5 10h24q38 0 38 -39v-25q0 -19 -9.5 -29.5t-28.5 -10.5h-24q-19 0 -29.5 10.5zM188.5 591.5
q-10.5 10.5 -10.5 29.5v25q0 19 10.5 29t29.5 10h24q38 0 38 -39v-25q0 -19 -9.5 -29.5t-28.5 -10.5h-24q-19 0 -29.5 10.5z" />
    <glyph glyph-name="eth" unicode="&#xf0;" 
d="M516.5 578.5q33.5 -78.5 37.5 -239.5v-143q0 -100 -48 -148t-148 -48h-82q-100 0 -148 47.5t-48 147.5v116q0 100 48 147.5t148 48.5h82q60 0 104 -44q-8 69 -25.5 95.5t-48.5 33.5l-73 18l-55 -52q-12 -12 -25 -12q-14 0 -26 13q-12 12 -12 26q0 13 13 25l23 21l-78 20
q-33 9 -33 37q0 5 2 15q9 32 36 32q5 0 15 -2l130 -33l52 49q12 12 25 12q14 0 26 -13q12 -12 12 -25q0 -14 -13 -26l-19 -18l22 -5q73 -17 106.5 -95.5zM470 301q0 49 -8.5 74.5t-32.5 36.5t-71 11h-82q-45 -1 -68.5 -10.5t-33.5 -33t-10 -68.5v-116q0 -44 10 -67.5
t34 -33.5t68 -10h82q44 0 68 10t34 34t10 68v105z" />
    <glyph glyph-name="ntilde" unicode="&#xf1;" horiz-adv-x="662" 
d="M520 459q48 -48 48 -148v-269q0 -20 -11 -31t-31 -11t-31 11t-11 31v269q0 44 -10 68t-34 34t-68 10h-28q-63 0 -106.5 -14.5t-49.5 -42.5v-324q0 -20 -11 -31t-31 -11t-31 11t-11 31v423q0 42 42 42t42 -42v-17q53 59 156 59h28q100 0 148 -48zM382.5 574
q-17.5 11 -36.5 30q-13 14 -20.5 18t-16.5 4q-26 0 -39 -31q-11 -26 -30 -26q-7 0 -16 3q-22 8 -22 25q0 9 4 17q17 41 41.5 60t61.5 19q29 0 47.5 -11.5t37.5 -30.5q13 -13 19 -16.5t16 -3.5t16.5 5t12.5 20q11 28 31 28q3 0 13 -2q24 -6 24 -26q0 -6 -3 -15
q-14 -40 -37 -59t-57 -19q-29 0 -46.5 11z" />
    <glyph glyph-name="ograve" unicode="&#xf2;" 
d="M128 48q-48 48 -48 147v116q0 100 48 148t148 48h82q100 0 148 -48t48 -148v-115q0 -100 -48 -148t-148 -48h-82q-100 0 -148 48zM358 84q44 0 68 10t34 34t10 68v115q0 44 -10 68t-34 34t-68 10h-82q-45 0 -68.5 -10t-33.5 -33.5t-10 -68.5v-116q0 -44 10 -67.5
t34 -33.5t68 -10h82zM336 541q-15 0 -26 14l-73 88q-10 11 -10 25q0 15 14 26q11 10 25 10q15 0 26 -14l73 -88q10 -11 10 -25q0 -15 -14 -26q-13 -10 -25 -10z" />
    <glyph glyph-name="oacute" unicode="&#xf3;" 
d="M128 48q-48 48 -48 147v116q0 100 48 148t148 48h82q100 0 148 -48t48 -148v-115q0 -100 -48 -148t-148 -48h-82q-100 0 -148 48zM358 84q44 0 68 10t34 34t10 68v115q0 44 -10 68t-34 34t-68 10h-82q-45 0 -68.5 -10t-33.5 -33.5t-10 -68.5v-116q0 -44 10 -67.5
t34 -33.5t68 -10h82zM281 595q0 14 10 25l73 88q11 14 26 14q14 0 25 -10q14 -11 14 -26q0 -14 -10 -25l-73 -88q-11 -14 -26 -14q-12 0 -25 10q-14 11 -14 26z" />
    <glyph glyph-name="ocircumflex" unicode="&#xf4;" 
d="M128 48q-48 48 -48 147v116q0 100 48 148t148 48h82q100 0 148 -48t48 -148v-115q0 -100 -48 -148t-148 -48h-82q-100 0 -148 48zM358 84q44 0 68 10t34 34t10 68v115q0 44 -10 68t-34 34t-68 10h-82q-45 0 -68.5 -10t-33.5 -33.5t-10 -68.5v-116q0 -44 10 -67.5
t34 -33.5t68 -10h82zM198.5 570.5q-10.5 10.5 -10.5 24.5t10 24l73 73q18 19 44 19h6q26 0 44 -19l73 -73q10 -10 10 -24t-10.5 -24.5t-24.5 -10.5q-16 0 -25 10l-64 71h-12l-64 -71q-10 -10 -25 -10q-14 0 -24.5 10.5z" />
    <glyph glyph-name="otilde" unicode="&#xf5;" 
d="M128 48q-48 48 -48 147v116q0 100 48 148t148 48h82q100 0 148 -48t48 -148v-115q0 -100 -48 -148t-148 -48h-82q-100 0 -148 48zM358 84q44 0 68 10t34 34t10 68v115q0 44 -10 68t-34 34t-68 10h-82q-45 0 -68.5 -10t-33.5 -33.5t-10 -68.5v-116q0 -44 10 -67.5
t34 -33.5t68 -10h82zM342.5 574q-17.5 11 -36.5 30q-13 14 -20.5 18t-16.5 4q-26 0 -39 -31q-11 -26 -30 -26q-7 0 -16 3q-22 8 -22 25q0 9 4 17q17 41 41.5 60t61.5 19q29 0 47.5 -11.5t37.5 -30.5q13 -13 19 -16.5t16 -3.5t16.5 5t12.5 20q11 28 31 28q3 0 13 -2
q24 -6 24 -26q0 -6 -3 -15q-14 -40 -37 -59t-57 -19q-29 0 -46.5 11z" />
    <glyph glyph-name="odieresis" unicode="&#xf6;" 
d="M128 48q-48 48 -48 147v116q0 100 48 148t148 48h82q100 0 148 -48t48 -148v-115q0 -100 -48 -148t-148 -48h-82q-100 0 -148 48zM358 84q44 0 68 10t34 34t10 68v115q0 44 -10 68t-34 34t-68 10h-82q-45 0 -68.5 -10t-33.5 -33.5t-10 -68.5v-116q0 -44 10 -67.5
t34 -33.5t68 -10h82zM193.5 591.5q-10.5 10.5 -10.5 29.5v25q0 19 10.5 29t29.5 10h24q38 0 38 -39v-25q0 -19 -9.5 -29.5t-28.5 -10.5h-24q-19 0 -29.5 10.5zM360.5 591.5q-10.5 10.5 -10.5 29.5v25q0 19 10.5 29t29.5 10h24q38 0 38 -39v-25q0 -19 -9.5 -29.5t-28.5 -10.5
h-24q-19 0 -29.5 10.5z" />
    <glyph glyph-name="divide" unicode="&#xf7;" horiz-adv-x="609" 
d="M93.5 301.5q-9.5 9.5 -9.5 25.5q0 17 9.5 26t25.5 9h371q17 0 26 -9t9 -26t-9 -26t-26 -9h-371q-16 0 -25.5 9.5zM262.5 159.5q-10.5 10.5 -10.5 29.5v25q0 19 10.5 29t29.5 10h24q38 0 38 -39v-25q0 -19 -9.5 -29.5t-28.5 -10.5h-24q-19 0 -29.5 10.5zM262.5 489.5
q-10.5 10.5 -10.5 29.5v25q0 19 10.5 29t29.5 10h24q38 0 38 -39v-25q0 -19 -9.5 -29.5t-28.5 -10.5h-24q-19 0 -29.5 10.5z" />
    <glyph glyph-name="oslash" unicode="&#xf8;" 
d="M554 311v-115q0 -100 -48 -148t-148 -48h-82q-38 0 -72 8l-35 -57q-12 -20 -29 -20q-10 0 -23 8q-18 13 -18 28q0 10 7 21l32 51q-58 48 -58 156v116q0 100 48 148t148 48h82q37 0 71 -8l20 32q13 19 29 19q10 0 23 -8q16 -12 16 -28q0 -10 -7 -21l-15 -24
q59 -47 59 -158zM164 195q0 -33 5.5 -54t17.5 -33l198 314q-8 1 -27 1h-82q-45 0 -68.5 -10t-33.5 -33.5t-10 -68.5v-116zM470 311q0 33 -5.5 54.5t-17.5 33.5l-197 -314q8 -1 26 -1h82q44 0 68 10t34 34t10 68v115z" />
    <glyph glyph-name="ugrave" unicode="&#xf9;" horiz-adv-x="662" 
d="M547 496q11 -11 11 -31v-423q0 -42 -42 -42t-42 42v17q-53 -59 -156 -59h-28q-100 0 -148 48t-48 148v269q0 20 11 31t31 11t31 -11t11 -31v-269q0 -44 10 -68t34 -34t68 -10h28q63 0 106.5 14.5t49.5 42.5v324q0 20 11 31t31 11t31 -11zM347 541q-15 0 -26 14l-73 88
q-10 11 -10 25q0 15 14 26q11 10 25 10q15 0 26 -14l73 -88q10 -11 10 -25q0 -15 -14 -26q-13 -10 -25 -10z" />
    <glyph glyph-name="uacute" unicode="&#xfa;" horiz-adv-x="662" 
d="M547 496q11 -11 11 -31v-423q0 -42 -42 -42t-42 42v17q-53 -59 -156 -59h-28q-100 0 -148 48t-48 148v269q0 20 11 31t31 11t31 -11t11 -31v-269q0 -44 10 -68t34 -34t68 -10h28q63 0 106.5 14.5t49.5 42.5v324q0 20 11 31t31 11t31 -11zM292 595q0 14 10 25l73 88
q11 14 26 14q14 0 25 -10q14 -11 14 -26q0 -14 -10 -25l-73 -88q-11 -14 -26 -14q-12 0 -25 10q-14 11 -14 26z" />
    <glyph glyph-name="ucircumflex" unicode="&#xfb;" horiz-adv-x="662" 
d="M547 496q11 -11 11 -31v-423q0 -42 -42 -42t-42 42v17q-53 -59 -156 -59h-28q-100 0 -148 48t-48 148v269q0 20 11 31t31 11t31 -11t11 -31v-269q0 -44 10 -68t34 -34t68 -10h28q63 0 106.5 14.5t49.5 42.5v324q0 20 11 31t31 11t31 -11zM209.5 570.5
q-10.5 10.5 -10.5 24.5t10 24l73 73q18 19 44 19h6q26 0 44 -19l73 -73q10 -10 10 -24t-10.5 -24.5t-24.5 -10.5q-16 0 -25 10l-64 71h-12l-64 -71q-10 -10 -25 -10q-14 0 -24.5 10.5z" />
    <glyph glyph-name="udieresis" unicode="&#xfc;" horiz-adv-x="662" 
d="M547 496q11 -11 11 -31v-423q0 -42 -42 -42t-42 42v17q-53 -59 -156 -59h-28q-100 0 -148 48t-48 148v269q0 20 11 31t31 11t31 -11t11 -31v-269q0 -44 10 -68t34 -34t68 -10h28q63 0 106.5 14.5t49.5 42.5v324q0 20 11 31t31 11t31 -11zM204.5 591.5
q-10.5 10.5 -10.5 29.5v25q0 19 10.5 29t29.5 10h24q38 0 38 -39v-25q0 -19 -9.5 -29.5t-28.5 -10.5h-24q-19 0 -29.5 10.5zM371.5 591.5q-10.5 10.5 -10.5 29.5v25q0 19 10.5 29t29.5 10h24q38 0 38 -39v-25q0 -19 -9.5 -29.5t-28.5 -10.5h-24q-19 0 -29.5 10.5z" />
    <glyph glyph-name="yacute" unicode="&#xfd;" horiz-adv-x="680" 
d="M94 -55q0 42 42 42t42 -42q0 -38 11.5 -49.5t48.5 -11.5h194q37 0 48.5 12t11.5 49v127q-28 -42 -65.5 -57t-90.5 -15h-49q-99 0 -146 47t-47 145v273q0 42 42 42t42 -42v-273q0 -43 9.5 -66t33 -32.5t66.5 -9.5h49q81 0 118.5 26.5t37.5 81.5v273q0 42 42 42t42 -42
v-520q0 -145 -144 -145h-194q-144 0 -144 145zM299 595q0 14 10 25l73 88q11 14 26 14q14 0 25 -10q14 -11 14 -26q0 -14 -10 -25l-73 -88q-11 -14 -26 -14q-12 0 -25 10q-14 11 -14 26z" />
    <glyph glyph-name="thorn" unicode="&#xfe;" horiz-adv-x="658" 
d="M113.5 -190.5q-9.5 9.5 -9.5 32.5v802q0 23 9.5 32.5t32.5 9.5t32.5 -9.5t9.5 -32.5v-208q60 68 156 68h38q100 0 148 -48t48 -148v-111q0 -100 -48 -148t-148 -48h-194v-159q0 -23 -9.5 -32.5t-32.5 -9.5t-32.5 9.5zM382 85q44 0 68 10t34 34t10 68v111q0 44 -10 68
t-34 34t-68 10h-38q-81 0 -118.5 -26.5t-37.5 -81.5v-227h194z" />
    <glyph glyph-name="ydieresis" unicode="&#xff;" horiz-adv-x="680" 
d="M94 -55q0 42 42 42t42 -42q0 -38 11.5 -49.5t48.5 -11.5h194q37 0 48.5 12t11.5 49v127q-28 -42 -65.5 -57t-90.5 -15h-49q-99 0 -146 47t-47 145v273q0 42 42 42t42 -42v-273q0 -43 9.5 -66t33 -32.5t66.5 -9.5h49q81 0 118.5 26.5t37.5 81.5v273q0 42 42 42t42 -42
v-520q0 -145 -144 -145h-194q-144 0 -144 145zM211.5 591.5q-10.5 10.5 -10.5 29.5v25q0 19 10.5 29t29.5 10h24q38 0 38 -39v-25q0 -19 -9.5 -29.5t-28.5 -10.5h-24q-19 0 -29.5 10.5zM378.5 591.5q-10.5 10.5 -10.5 29.5v25q0 19 10.5 29t29.5 10h24q38 0 38 -39v-25
q0 -19 -9.5 -29.5t-28.5 -10.5h-24q-19 0 -29.5 10.5z" />
    <glyph glyph-name="Amacron" unicode="&#x100;" horiz-adv-x="666" 
d="M625 39q0 -24 -27 -35q-9 -4 -20 -4q-24 0 -35 27l-54 131h-311l-52 -131q-11 -27 -35 -27q-10 0 -19 4q-28 10 -28 35q0 11 4 20l238 586q15 33 47 33h2q33 -2 44 -33l242 -586q4 -9 4 -20zM211 242h244l-125 303zM160 804q0 42 42 42h253q42 0 42 -42t-42 -42h-253
q-42 0 -42 42z" />
    <glyph glyph-name="amacron" unicode="&#x101;" horiz-adv-x="640" 
d="M498 459q48 -48 48 -148v-269q0 -20 -11 -31t-31 -11t-31 11t-11 31v23q-53 -65 -156 -65h-56q-84 0 -125 41t-41 125t40.5 125t125.5 41h211q-3 52 -27 71.5t-84 19.5h-58q-50 0 -74.5 -7t-34.5 -24q-9 -21 -19 -29t-28 -8t-29.5 9t-11.5 24q0 6 1 10q15 56 62.5 82.5
t133.5 26.5h58q100 0 148 -48zM459 159.5q1 3.5 3 7.5v81h-212q-34 0 -51 -7t-24 -24t-7 -51t7 -51t24 -24t51 -7h56q127 0 151 69q1 3 2 6.5zM137 633q0 42 42 42h253q42 0 42 -42t-42 -42h-253q-42 0 -42 42z" />
    <glyph glyph-name="Abreve" unicode="&#x102;" horiz-adv-x="666" 
d="M625 39q0 -24 -27 -35q-9 -4 -20 -4q-24 0 -35 27l-54 131h-311l-52 -131q-11 -27 -35 -27q-10 0 -19 4q-28 10 -28 35q0 11 4 20l238 586q15 33 47 33h2q33 -2 44 -33l242 -586q4 -9 4 -20zM211 242h244l-125 303zM247.5 750q-35.5 25 -35.5 71v21q0 18 9.5 27.5
t26.5 9.5q37 0 37 -37v-21q0 -16 14.5 -22t56.5 -6q33 0 45.5 6.5t12.5 21.5v33q0 12 9.5 18.5t26.5 6.5q37 0 37 -37v-21q0 -46 -36 -71t-102 -25t-101.5 25z" />
    <glyph glyph-name="abreve" unicode="&#x103;" horiz-adv-x="640" 
d="M498 459q48 -48 48 -148v-269q0 -20 -11 -31t-31 -11t-31 11t-11 31v23q-53 -65 -156 -65h-56q-84 0 -125 41t-41 125t40.5 125t125.5 41h211q-3 52 -27 71.5t-84 19.5h-58q-50 0 -74.5 -7t-34.5 -24q-9 -21 -19 -29t-28 -8t-29.5 9t-11.5 24q0 6 1 10q15 56 62.5 82.5
t133.5 26.5h58q100 0 148 -48zM459 159.5q1 3.5 3 7.5v81h-212q-34 0 -51 -7t-24 -24t-7 -51t7 -51t24 -24t51 -7h56q127 0 151 69q1 3 2 6.5zM224.5 579q-35.5 25 -35.5 71v21q0 18 9.5 27.5t26.5 9.5q37 0 37 -37v-21q0 -16 14.5 -22t56.5 -6q33 0 45.5 6.5t12.5 21.5v33
q0 12 9.5 18.5t26.5 6.5q37 0 37 -37v-21q0 -46 -36 -71t-102 -25t-101.5 25z" />
    <glyph glyph-name="Aogonek" unicode="&#x104;" horiz-adv-x="666" 
d="M686.5 -98.5q10.5 -10.5 10.5 -25.5q0 -16 -10 -26q-22 -21 -48 -33t-53 -12q-44 0 -73.5 27.5t-29.5 67.5q0 34 25 67l37 54q0 2 -2 6l-54 131h-311l-52 -131q-11 -27 -35 -27q-10 0 -19 4q-28 10 -28 35q0 11 4 20l238 586q15 33 47 33h2q33 -2 44 -33l242 -586
q6 -13 4 -24q2 -8 2 -13q0 -14 -7 -21l-53 -77q-11 -12 -11 -24q0 -10 8.5 -16t21.5 -6q26 0 48 24q14 10 26 10q16 0 26.5 -10.5zM211 242h244l-125 303z" />
    <glyph glyph-name="aogonek" unicode="&#x105;" horiz-adv-x="640" 
d="M600.5 -91.5q10.5 -10.5 10.5 -25.5q0 -16 -10 -26q-22 -21 -48 -33t-53 -12q-44 0 -73.5 27.5t-29.5 67.5q0 34 25 67l41 59q-1 3 -1 9v23q-53 -65 -156 -65h-56q-84 0 -125 41t-41 125t40.5 125t125.5 41h211q-3 52 -27 71.5t-84 19.5h-58q-50 0 -74.5 -7t-34.5 -24
q-9 -21 -19 -29t-28 -8t-29.5 9t-11.5 24q0 6 1 10q15 56 62.5 82.5t133.5 26.5h58q100 0 148 -48t48 -148v-269q0 -17 -8 -28q-2 -4 -4 -6l-53 -77q-11 -12 -11 -24q0 -10 8.5 -16t21.5 -6q26 0 48 24q14 10 26 10q16 0 26.5 -10.5zM459 159.5q1 3.5 3 7.5v81h-212
q-34 0 -51 -7t-24 -24t-7 -51t7 -51t24 -24t51 -7h56q127 0 151 69q1 3 2 6.5z" />
    <glyph glyph-name="Cacute" unicode="&#x106;" horiz-adv-x="696" 
d="M134.5 54.5q-54.5 54.5 -54.5 169.5v230q0 115 54.5 170t168.5 54h121q94 0 143.5 -39t57.5 -122q3 -21 -8 -32t-32 -11q-20 0 -30.5 10.5t-13.5 31.5q-5 45 -31 61.5t-86 16.5h-121q-54 1 -84 -12t-42.5 -43t-12.5 -85v-230q0 -55 13 -84.5t42.5 -42.5t84.5 -13h120
q60 0 86 16.5t31 61.5q3 21 13.5 31.5t30.5 10.5q21 0 32 -11t8 -32q-8 -83 -57.5 -122t-143.5 -39h-120q-115 0 -169.5 54.5zM336 766q0 14 10 25l73 88q11 14 26 14q14 0 25 -10q14 -11 14 -26q0 -14 -10 -25l-73 -88q-11 -14 -26 -14q-12 0 -25 10q-14 11 -14 26z" />
    <glyph glyph-name="cacute" unicode="&#x107;" horiz-adv-x="591" 
d="M128 48q-48 48 -48 148v116q0 100 48 148t148 47h82q148 0 172 -102q1 -4 1 -10q0 -16 -11.5 -25t-30.5 -9q-18 0 -27.5 9t-17.5 29q-7 13 -27 18.5t-59 5.5h-82q-44 1 -68 -9t-34 -34t-10 -68v-116q0 -44 10 -68t34 -34t68 -10h82q39 0 59 5.5t27 18.5q8 21 17.5 29.5
t28.5 8.5q18 0 29.5 -9t11.5 -25q0 -6 -1 -10q-24 -102 -172 -102h-82q-100 0 -148 48zM280 595q0 14 10 25l73 88q11 14 26 14q14 0 25 -10q14 -11 14 -26q0 -14 -10 -25l-73 -88q-11 -14 -26 -14q-12 0 -25 10q-14 11 -14 26z" />
    <glyph glyph-name="Ccircumflex" unicode="&#x108;" horiz-adv-x="696" 
d="M134.5 54.5q-54.5 54.5 -54.5 169.5v230q0 115 54.5 170t168.5 54h121q94 0 143.5 -39t57.5 -122q3 -21 -8 -32t-32 -11q-20 0 -30.5 10.5t-13.5 31.5q-5 45 -31 61.5t-86 16.5h-121q-54 1 -84 -12t-42.5 -43t-12.5 -85v-230q0 -55 13 -84.5t42.5 -42.5t84.5 -13h120
q60 0 86 16.5t31 61.5q3 21 13.5 31.5t30.5 10.5q21 0 32 -11t8 -32q-8 -83 -57.5 -122t-143.5 -39h-120q-115 0 -169.5 54.5zM253.5 741.5q-10.5 10.5 -10.5 24.5t10 24l73 73q18 19 44 19h6q26 0 44 -19l73 -73q10 -10 10 -24t-10.5 -24.5t-24.5 -10.5q-16 0 -25 10
l-64 71h-12l-64 -71q-10 -10 -25 -10q-14 0 -24.5 10.5z" />
    <glyph glyph-name="ccircumflex" unicode="&#x109;" horiz-adv-x="591" 
d="M128 48q-48 48 -48 148v116q0 100 48 148t148 47h82q148 0 172 -102q1 -4 1 -10q0 -16 -11.5 -25t-30.5 -9q-18 0 -27.5 9t-17.5 29q-7 13 -27 18.5t-59 5.5h-82q-44 1 -68 -9t-34 -34t-10 -68v-116q0 -44 10 -68t34 -34t68 -10h82q39 0 59 5.5t27 18.5q8 21 17.5 29.5
t28.5 8.5q18 0 29.5 -9t11.5 -25q0 -6 -1 -10q-24 -102 -172 -102h-82q-100 0 -148 48zM197.5 570.5q-10.5 10.5 -10.5 24.5t10 24l73 73q18 19 44 19h6q26 0 44 -19l73 -73q10 -10 10 -24t-10.5 -24.5t-24.5 -10.5q-16 0 -25 10l-64 71h-12l-64 -71q-10 -10 -25 -10
q-14 0 -24.5 10.5z" />
    <glyph glyph-name="Cdotaccent" unicode="&#x10a;" horiz-adv-x="696" 
d="M134.5 54.5q-54.5 54.5 -54.5 169.5v230q0 115 54.5 170t168.5 54h121q94 0 143.5 -39t57.5 -122q3 -21 -8 -32t-32 -11q-20 0 -30.5 10.5t-13.5 31.5q-5 45 -31 61.5t-86 16.5h-121q-54 1 -84 -12t-42.5 -43t-12.5 -85v-230q0 -55 13 -84.5t42.5 -42.5t84.5 -13h120
q60 0 86 16.5t31 61.5q3 21 13.5 31.5t30.5 10.5q21 0 32 -11t8 -32q-8 -83 -57.5 -122t-143.5 -39h-120q-115 0 -169.5 54.5zM323.5 773q-12.5 13 -12.5 35v30q0 23 12.5 34.5t35.5 11.5h29q45 0 45 -46v-30q0 -23 -11.5 -35.5t-33.5 -12.5h-29q-23 0 -35.5 13z" />
    <glyph glyph-name="cdotaccent" unicode="&#x10b;" horiz-adv-x="591" 
d="M128 48q-48 48 -48 148v116q0 100 48 148t148 47h82q148 0 172 -102q1 -4 1 -10q0 -16 -11.5 -25t-30.5 -9q-18 0 -27.5 9t-17.5 29q-7 13 -27 18.5t-59 5.5h-82q-44 1 -68 -9t-34 -34t-10 -68v-116q0 -44 10 -68t34 -34t68 -10h82q39 0 59 5.5t27 18.5q8 21 17.5 29.5
t28.5 8.5q18 0 29.5 -9t11.5 -25q0 -6 -1 -10q-24 -102 -172 -102h-82q-100 0 -148 48zM267.5 602q-12.5 13 -12.5 35v30q0 23 12.5 34.5t35.5 11.5h29q45 0 45 -46v-30q0 -23 -11.5 -35.5t-33.5 -12.5h-29q-23 0 -35.5 13z" />
    <glyph glyph-name="Ccaron" unicode="&#x10c;" horiz-adv-x="696" 
d="M134.5 54.5q-54.5 54.5 -54.5 169.5v230q0 115 54.5 170t168.5 54h121q94 0 143.5 -39t57.5 -122q3 -21 -8 -32t-32 -11q-20 0 -30.5 10.5t-13.5 31.5q-5 45 -31 61.5t-86 16.5h-121q-54 1 -84 -12t-42.5 -43t-12.5 -85v-230q0 -55 13 -84.5t42.5 -42.5t84.5 -13h120
q60 0 86 16.5t31 61.5q3 21 13.5 31.5t30.5 10.5q21 0 32 -11t8 -32q-8 -83 -57.5 -122t-143.5 -39h-120q-115 0 -169.5 54.5zM269 867l92 -77h1l93 77q12 12 28 12q15 0 26.5 -11t11.5 -27q0 -9 -5 -18.5t-13 -14.5l-93 -76q-11 -10 -22 -14t-25 -4h-3q-26 0 -47 18l-92 76
q-8 5 -13 14.5t-5 18.5q0 16 11 27t27 11t28 -12z" />
    <glyph glyph-name="ccaron" unicode="&#x10d;" horiz-adv-x="591" 
d="M128 48q-48 48 -48 148v116q0 100 48 148t148 47h82q148 0 172 -102q1 -4 1 -10q0 -16 -11.5 -25t-30.5 -9q-18 0 -27.5 9t-17.5 29q-7 13 -27 18.5t-59 5.5h-82q-44 1 -68 -9t-34 -34t-10 -68v-116q0 -44 10 -68t34 -34t68 -10h82q39 0 59 5.5t27 18.5q8 21 17.5 29.5
t28.5 8.5q18 0 29.5 -9t11.5 -25q0 -6 -1 -10q-24 -102 -172 -102h-82q-100 0 -148 48zM245 701l64 -71h12l64 71q9 10 25 10q14 0 24.5 -10.5t10.5 -24.5t-10 -24l-73 -73q-18 -19 -44 -19h-6q-26 0 -44 19l-73 73q-10 10 -10 24t10.5 24.5t24.5 10.5q15 0 25 -10z" />
    <glyph glyph-name="Dcaron" unicode="&#x10e;" horiz-adv-x="721" 
d="M115 11q-11 11 -11 31v594q0 20 11 31t31 11h241q131 0 192.5 -61.5t61.5 -192.5v-170q0 -131 -61.5 -192.5t-192.5 -61.5h-241q-20 0 -31 11zM387 84q65 0 101.5 16t52.5 52.5t16 101.5v170q0 65 -16 101.5t-52.5 52.5t-101.5 16h-199v-510h199zM250 867l92 -77h1l93 77
q12 12 28 12q15 0 26.5 -11t11.5 -27q0 -9 -5 -18.5t-13 -14.5l-93 -76q-11 -10 -22 -14t-25 -4h-3q-26 0 -47 18l-92 76q-8 5 -13 14.5t-5 18.5q0 16 11 27t27 11t28 -12z" />
    <glyph glyph-name="dcaron" unicode="&#x10f;" horiz-adv-x="694" 
d="M543 693q11 -11 11 -31v-620q0 -20 -11 -31t-31 -11t-31 11t-11 31v7q-25 -25 -62.5 -37t-93.5 -12h-38q-100 0 -148 48t-48 148v115q0 100 48 148t148 48h194v155q0 20 11 31t31 11t31 -11zM426.5 101.5q43.5 17.5 43.5 51.5v270h-194q-44 0 -68 -10t-34 -34t-10 -68
v-115q0 -44 10 -68t34 -34t68 -10h38q69 0 112.5 17.5zM746 666q0 -6 -2 -14l1 -1l-46 -94q-10 -17 -27 -17q-13 0 -21 6.5t-6 20.5l21 116v1q0 29 31 29h19q30 0 30 -29v-18z" />
    <glyph glyph-name="Dcroat" unicode="&#x110;" horiz-adv-x="721" 
d="M579.5 616.5q61.5 -61.5 61.5 -192.5v-170q0 -131 -61.5 -192.5t-192.5 -61.5h-241q-20 0 -31 11t-11 31v261h-42q-16 0 -25.5 9.5t-9.5 25.5q0 17 9.5 26t25.5 9h42v263q0 20 11 31t31 11h241q131 0 192.5 -61.5zM557 424q0 65 -16 101.5t-52.5 52.5t-101.5 16h-199
v-221h136q17 0 26 -9t9 -26t-9 -26t-26 -9h-136v-219h199q65 0 101.5 16t52.5 52.5t16 101.5v170z" />
    <glyph glyph-name="dcroat" unicode="&#x111;" horiz-adv-x="648" 
d="M626 621q9 -9 9 -26t-9 -26t-26 -9h-46v-518q0 -20 -11 -31t-31 -11t-31 11t-11 31v7q-25 -25 -62.5 -37t-93.5 -12h-38q-100 0 -148 48t-48 148v115q0 100 48 148t148 48h194v53h-132q-16 0 -25.5 9.5t-9.5 25.5q0 17 9.5 26t25.5 9h132v32q0 20 11 31t31 11t31 -11
t11 -31v-32h46q17 0 26 -9zM426.5 101.5q43.5 17.5 43.5 51.5v270h-194q-44 0 -68 -10t-34 -34t-10 -68v-115q0 -44 10 -68t34 -34t68 -10h38q69 0 112.5 17.5z" />
    <glyph glyph-name="Emacron" unicode="&#x112;" horiz-adv-x="603" 
d="M536 73q11 -11 11 -31t-11 -31t-31 -11h-359q-20 0 -31 11t-11 31v594q0 20 11 31t31 11h359q20 0 31 -11t11 -31t-11 -31t-31 -11h-317v-210h199q20 0 31 -11t11 -31t-11 -31t-31 -11h-199v-216h317q20 0 31 -11zM166 804q0 42 42 42h253q42 0 42 -42t-42 -42h-253
q-42 0 -42 42z" />
    <glyph glyph-name="emacron" unicode="&#x113;" 
d="M164 219v-24q0 -44 10 -67.5t34 -33.5t68 -10h82q51 0 75.5 9.5t32.5 33.5q6 20 16 29.5t29 9.5t29.5 -8.5t10.5 -24.5q0 -7 -1 -10q-22 -123 -192 -123h-82q-100 0 -148 48t-48 147v116q0 101 48 149t148 47h82q100 0 148 -48t48 -148v-50q0 -20 -11 -31t-31 -11h-348z
M164 303h306v8q0 44 -10 68t-34 34t-68 10h-82q-44 1 -68 -9t-34 -34t-10 -69v-8zM144 633q0 42 42 42h253q42 0 42 -42t-42 -42h-253q-42 0 -42 42z" />
    <glyph glyph-name="Ebreve" unicode="&#x114;" horiz-adv-x="603" 
d="M536 73q11 -11 11 -31t-11 -31t-31 -11h-359q-20 0 -31 11t-11 31v594q0 20 11 31t31 11h359q20 0 31 -11t11 -31t-11 -31t-31 -11h-317v-210h199q20 0 31 -11t11 -31t-11 -31t-31 -11h-199v-216h317q20 0 31 -11zM253.5 750q-35.5 25 -35.5 71v21q0 18 9.5 27.5
t26.5 9.5q37 0 37 -37v-21q0 -16 14.5 -22t56.5 -6q33 0 45.5 6.5t12.5 21.5v33q0 12 9.5 18.5t26.5 6.5q37 0 37 -37v-21q0 -46 -36 -71t-102 -25t-101.5 25z" />
    <glyph glyph-name="ebreve" unicode="&#x115;" 
d="M164 219v-24q0 -44 10 -67.5t34 -33.5t68 -10h82q51 0 75.5 9.5t32.5 33.5q6 20 16 29.5t29 9.5t29.5 -8.5t10.5 -24.5q0 -7 -1 -10q-22 -123 -192 -123h-82q-100 0 -148 48t-48 147v116q0 101 48 149t148 47h82q100 0 148 -48t48 -148v-50q0 -20 -11 -31t-31 -11h-348z
M164 303h306v8q0 44 -10 68t-34 34t-68 10h-82q-44 1 -68 -9t-34 -34t-10 -69v-8zM231.5 579q-35.5 25 -35.5 71v21q0 18 9.5 27.5t26.5 9.5q37 0 37 -37v-21q0 -16 14.5 -22t56.5 -6q33 0 45.5 6.5t12.5 21.5v33q0 12 9.5 18.5t26.5 6.5q37 0 37 -37v-21q0 -46 -36 -71
t-102 -25t-101.5 25z" />
    <glyph glyph-name="Edotaccent" unicode="&#x116;" horiz-adv-x="603" 
d="M536 73q11 -11 11 -31t-11 -31t-31 -11h-359q-20 0 -31 11t-11 31v594q0 20 11 31t31 11h359q20 0 31 -11t11 -31t-11 -31t-31 -11h-317v-210h199q20 0 31 -11t11 -31t-11 -31t-31 -11h-199v-216h317q20 0 31 -11zM291.5 773q-12.5 13 -12.5 35v30q0 23 12.5 34.5
t35.5 11.5h29q45 0 45 -46v-30q0 -23 -11.5 -35.5t-33.5 -12.5h-29q-23 0 -35.5 13z" />
    <glyph glyph-name="edotaccent" unicode="&#x117;" 
d="M164 219v-24q0 -44 10 -67.5t34 -33.5t68 -10h82q51 0 75.5 9.5t32.5 33.5q6 20 16 29.5t29 9.5t29.5 -8.5t10.5 -24.5q0 -7 -1 -10q-22 -123 -192 -123h-82q-100 0 -148 48t-48 147v116q0 101 48 149t148 47h82q100 0 148 -48t48 -148v-50q0 -20 -11 -31t-31 -11h-348z
M164 303h306v8q0 44 -10 68t-34 34t-68 10h-82q-44 1 -68 -9t-34 -34t-10 -69v-8zM269.5 602q-12.5 13 -12.5 35v30q0 23 12.5 34.5t35.5 11.5h29q45 0 45 -46v-30q0 -23 -11.5 -35.5t-33.5 -12.5h-29q-23 0 -35.5 13z" />
    <glyph glyph-name="Eogonek" unicode="&#x118;" horiz-adv-x="603" 
d="M630.5 -57.5q10.5 -10.5 10.5 -25.5q0 -16 -10 -26q-22 -21 -48 -33t-53 -12q-44 0 -73.5 27.5t-29.5 67.5q0 29 19 59h-300q-20 0 -31 11t-11 31v594q0 20 11 31t31 11h359q20 0 31 -11t11 -31t-11 -31t-31 -11h-317v-210h199q20 0 31 -11t11 -31t-11 -31t-31 -11h-199
v-216h316l1 1q12 15 30 15q15 0 25.5 -10.5t10.5 -26.5q0 -14 -7 -21l-53 -77q-11 -12 -11 -24q0 -10 8.5 -16t21.5 -6q26 0 48 24q14 10 26 10q16 0 26.5 -10.5z" />
    <glyph glyph-name="eogonek" unicode="&#x119;" 
d="M164 219v-24q0 -44 10 -67.5t34 -33.5t68 -10h82q51 0 75.5 9.5t32.5 33.5q6 20 16 29.5t29 9.5t29.5 -8.5t10.5 -24.5q0 -7 -1 -10q-4 -23 -15 -45q-1 -4 -8 -13q-4 -6 -7 -9l-70 -93q-11 -13 -11 -25q0 -9 8.5 -15t21.5 -6q7 0 16 2.5t13 1.5q10 2 13 2q20 0 29 -11
t9 -28q0 -15 -17 -25q-32 -15 -63 -15q-44 0 -73.5 27t-29.5 67q0 31 21 63q-9 -1 -29 -1h-82q-100 0 -148 48t-48 147v116q0 101 48 149t148 47h82q100 0 148 -48t48 -148v-50q0 -20 -11 -31t-31 -11h-348zM164 303h306v8q0 44 -10 68t-34 34t-68 10h-82q-44 1 -68 -9
t-34 -34t-10 -69v-8z" />
    <glyph glyph-name="Ecaron" unicode="&#x11a;" horiz-adv-x="603" 
d="M536 73q11 -11 11 -31t-11 -31t-31 -11h-359q-20 0 -31 11t-11 31v594q0 20 11 31t31 11h359q20 0 31 -11t11 -31t-11 -31t-31 -11h-317v-210h199q20 0 31 -11t11 -31t-11 -31t-31 -11h-199v-216h317q20 0 31 -11zM237 867l92 -77h1l93 77q12 12 28 12q15 0 26.5 -11
t11.5 -27q0 -9 -5 -18.5t-13 -14.5l-93 -76q-11 -10 -22 -14t-25 -4h-3q-26 0 -47 18l-92 76q-8 5 -13 14.5t-5 18.5q0 16 11 27t27 11t28 -12z" />
    <glyph glyph-name="ecaron" unicode="&#x11b;" 
d="M164 219v-24q0 -44 10 -67.5t34 -33.5t68 -10h82q51 0 75.5 9.5t32.5 33.5q6 20 16 29.5t29 9.5t29.5 -8.5t10.5 -24.5q0 -7 -1 -10q-22 -123 -192 -123h-82q-100 0 -148 48t-48 147v116q0 101 48 149t148 47h82q100 0 148 -48t48 -148v-50q0 -20 -11 -31t-31 -11h-348z
M164 303h306v8q0 44 -10 68t-34 34t-68 10h-82q-44 1 -68 -9t-34 -34t-10 -69v-8zM247 701l64 -71h12l64 71q9 10 25 10q14 0 24.5 -10.5t10.5 -24.5t-10 -24l-73 -73q-18 -19 -44 -19h-6q-26 0 -44 19l-73 73q-10 10 -10 24t10.5 24.5t24.5 10.5q15 0 25 -10z" />
    <glyph glyph-name="Gcircumflex" unicode="&#x11c;" horiz-adv-x="698" 
d="M134.5 54.5q-54.5 54.5 -54.5 169.5v230q0 115 54.5 170t168.5 54h121q94 0 143.5 -39t57.5 -122q3 -21 -8 -32t-32 -11q-20 0 -30.5 10.5t-13.5 31.5q-5 45 -31 61.5t-86 16.5h-121q-54 1 -84 -12t-42.5 -43t-12.5 -85v-230q0 -55 13 -84.5t42.5 -42.5t84.5 -13h120
q48 0 73.5 10.5t36 36t10.5 73.5v47l-78 1q-42 0 -42 42q0 20 11 31t31 11l120 -1q20 0 31 -11t11 -31v-89q0 -106 -49.5 -155t-154.5 -49h-120q-115 0 -169.5 54.5zM246.5 741.5q-10.5 10.5 -10.5 24.5t10 24l73 73q18 19 44 19h6q26 0 44 -19l73 -73q10 -10 10 -24
t-10.5 -24.5t-24.5 -10.5q-16 0 -25 10l-64 71h-12l-64 -71q-10 -10 -25 -10q-14 0 -24.5 10.5z" />
    <glyph glyph-name="gcircumflex" unicode="&#x11d;" horiz-adv-x="648" 
d="M554 465v-521q0 -74 -35 -109t-109 -35h-186q-121 0 -140 99q-1 3 -1 10q0 16 11 25.5t31 9.5q18 0 27 -9.5t16 -31.5q6 -11 18.5 -15t37.5 -4h186q37 0 48.5 11.5t11.5 48.5v116q-27 -29 -67 -44.5t-89 -15.5h-38q-100 0 -148 48t-48 147v116q0 101 48 149t148 47h82
q72 0 112 -42q0 42 42 42t42 -42zM427 101.5q43 17.5 43 51.5v200q0 39 -28 54.5t-84 15.5h-82q-44 1 -68 -9t-34 -34t-10 -69v-116q0 -44 10 -67.5t34 -33.5t68 -10h38q70 0 113 17.5zM193.5 570.5q-10.5 10.5 -10.5 24.5t10 24l73 73q18 19 44 19h6q26 0 44 -19l73 -73
q10 -10 10 -24t-10.5 -24.5t-24.5 -10.5q-16 0 -25 10l-64 71h-12l-64 -71q-10 -10 -25 -10q-14 0 -24.5 10.5z" />
    <glyph glyph-name="Gbreve" unicode="&#x11e;" horiz-adv-x="698" 
d="M134.5 54.5q-54.5 54.5 -54.5 169.5v230q0 115 54.5 170t168.5 54h121q94 0 143.5 -39t57.5 -122q3 -21 -8 -32t-32 -11q-20 0 -30.5 10.5t-13.5 31.5q-5 45 -31 61.5t-86 16.5h-121q-54 1 -84 -12t-42.5 -43t-12.5 -85v-230q0 -55 13 -84.5t42.5 -42.5t84.5 -13h120
q48 0 73.5 10.5t36 36t10.5 73.5v47l-78 1q-42 0 -42 42q0 20 11 31t31 11l120 -1q20 0 31 -11t11 -31v-89q0 -106 -49.5 -155t-154.5 -49h-120q-115 0 -169.5 54.5zM278.5 750q-35.5 25 -35.5 71v21q0 18 9.5 27.5t26.5 9.5q37 0 37 -37v-21q0 -16 14.5 -22t56.5 -6
q33 0 45.5 6.5t12.5 21.5v33q0 12 9.5 18.5t26.5 6.5q37 0 37 -37v-21q0 -46 -36 -71t-102 -25t-101.5 25z" />
    <glyph glyph-name="gbreve" unicode="&#x11f;" horiz-adv-x="648" 
d="M554 465v-521q0 -74 -35 -109t-109 -35h-186q-121 0 -140 99q-1 3 -1 10q0 16 11 25.5t31 9.5q18 0 27 -9.5t16 -31.5q6 -11 18.5 -15t37.5 -4h186q37 0 48.5 11.5t11.5 48.5v116q-27 -29 -67 -44.5t-89 -15.5h-38q-100 0 -148 48t-48 147v116q0 101 48 149t148 47h82
q72 0 112 -42q0 42 42 42t42 -42zM427 101.5q43 17.5 43 51.5v200q0 39 -28 54.5t-84 15.5h-82q-44 1 -68 -9t-34 -34t-10 -69v-116q0 -44 10 -67.5t34 -33.5t68 -10h38q70 0 113 17.5zM225.5 579q-35.5 25 -35.5 71v21q0 18 9.5 27.5t26.5 9.5q37 0 37 -37v-21
q0 -16 14.5 -22t56.5 -6q33 0 45.5 6.5t12.5 21.5v33q0 12 9.5 18.5t26.5 6.5q37 0 37 -37v-21q0 -46 -36 -71t-102 -25t-101.5 25z" />
    <glyph glyph-name="Gdotaccent" unicode="&#x120;" horiz-adv-x="698" 
d="M134.5 54.5q-54.5 54.5 -54.5 169.5v230q0 115 54.5 170t168.5 54h121q94 0 143.5 -39t57.5 -122q3 -21 -8 -32t-32 -11q-20 0 -30.5 10.5t-13.5 31.5q-5 45 -31 61.5t-86 16.5h-121q-54 1 -84 -12t-42.5 -43t-12.5 -85v-230q0 -55 13 -84.5t42.5 -42.5t84.5 -13h120
q48 0 73.5 10.5t36 36t10.5 73.5v47l-78 1q-42 0 -42 42q0 20 11 31t31 11l120 -1q20 0 31 -11t11 -31v-89q0 -106 -49.5 -155t-154.5 -49h-120q-115 0 -169.5 54.5zM316.5 773q-12.5 13 -12.5 35v30q0 23 12.5 34.5t35.5 11.5h29q45 0 45 -46v-30q0 -23 -11.5 -35.5
t-33.5 -12.5h-29q-23 0 -35.5 13z" />
    <glyph glyph-name="gdotaccent" unicode="&#x121;" horiz-adv-x="648" 
d="M554 465v-521q0 -74 -35 -109t-109 -35h-186q-121 0 -140 99q-1 3 -1 10q0 16 11 25.5t31 9.5q18 0 27 -9.5t16 -31.5q6 -11 18.5 -15t37.5 -4h186q37 0 48.5 11.5t11.5 48.5v116q-27 -29 -67 -44.5t-89 -15.5h-38q-100 0 -148 48t-48 147v116q0 101 48 149t148 47h82
q72 0 112 -42q0 42 42 42t42 -42zM427 101.5q43 17.5 43 51.5v200q0 39 -28 54.5t-84 15.5h-82q-44 1 -68 -9t-34 -34t-10 -69v-116q0 -44 10 -67.5t34 -33.5t68 -10h38q70 0 113 17.5zM263.5 602q-12.5 13 -12.5 35v30q0 23 12.5 34.5t35.5 11.5h29q45 0 45 -46v-30
q0 -23 -11.5 -35.5t-33.5 -12.5h-29q-23 0 -35.5 13z" />
    <glyph glyph-name="Gcommaaccent" unicode="&#x122;" horiz-adv-x="698" 
d="M134.5 54.5q-54.5 54.5 -54.5 169.5v230q0 115 54.5 170t168.5 54h121q94 0 143.5 -39t57.5 -122q3 -21 -8 -32t-32 -11q-20 0 -30.5 10.5t-13.5 31.5q-5 45 -31 61.5t-86 16.5h-121q-54 1 -84 -12t-42.5 -43t-12.5 -85v-230q0 -55 13 -84.5t42.5 -42.5t84.5 -13h120
q48 0 73.5 10.5t36 36t10.5 73.5v47l-78 1q-42 0 -42 42q0 20 11 31t31 11l120 -1q20 0 31 -11t11 -31v-89q0 -106 -49.5 -155t-154.5 -49h-120q-115 0 -169.5 54.5zM437 -101q0 -6 -2 -14l-47 -96q-10 -17 -27 -17q-13 0 -21.5 6.5t-6.5 20.5l22 120q0 14 8.5 21.5
t23.5 7.5h19q31 0 31 -30v-19z" />
    <glyph glyph-name="gcommaaccent" unicode="&#x123;" horiz-adv-x="648" 
d="M554 465v-521q0 -74 -35 -109t-109 -35h-186q-121 0 -140 99q-1 3 -1 10q0 16 11 25.5t31 9.5q18 0 27 -9.5t16 -31.5q6 -11 18.5 -15t37.5 -4h186q37 0 48.5 11.5t11.5 48.5v116q-27 -29 -67 -44.5t-89 -15.5h-38q-100 0 -148 48t-48 147v116q0 101 48 149t148 47h82
q72 0 112 -42q0 42 42 42t42 -42zM427 101.5q43 17.5 43 51.5v200q0 39 -28 54.5t-84 15.5h-82q-44 1 -68 -9t-34 -34t-10 -69v-116q0 -44 10 -67.5t34 -33.5t68 -10h38q70 0 113 17.5zM345.5 763.5q8.5 -6.5 6.5 -20.5l-22 -120q0 -14 -8.5 -21.5t-23.5 -7.5h-19
q-31 0 -31 30v19q0 6 2 14l47 96q10 17 27 17q13 0 21.5 -6.5z" />
    <glyph glyph-name="Hcircumflex" unicode="&#x124;" horiz-adv-x="784" 
d="M117 13q-13 13 -13 29v594q0 17 13 29.5t29 12.5q17 0 29.5 -12.5t12.5 -29.5v-251h408v251q0 17 12.5 29.5t29.5 12.5t29.5 -12.5t12.5 -29.5v-594q0 -16 -12.5 -29t-29.5 -13t-29.5 12.5t-12.5 29.5v259h-408v-259q0 -16 -12.5 -29t-29.5 -13q-16 0 -29 13z
M273.5 741.5q-10.5 10.5 -10.5 24.5t10 24l73 73q18 19 44 19h6q26 0 44 -19l73 -73q10 -10 10 -24t-10.5 -24.5t-24.5 -10.5q-16 0 -25 10l-64 71h-12l-64 -71q-10 -10 -25 -10q-14 0 -24.5 10.5z" />
    <glyph glyph-name="hcircumflex" unicode="&#x125;" horiz-adv-x="667" 
d="M525 459q48 -48 48 -148v-269q0 -20 -11 -31t-31 -11t-31 11t-11 31v269q0 44 -10 68t-34 34t-68 10h-28q-66 0 -103 -17t-48 -52q-1 -5 -5 -15v-297q0 -20 -11 -31t-31 -11t-31 11t-11 31v290q-5 8 -5 17q0 6 1 9q2 10 4 16v288q0 20 11 31t31 11t31 -11t11 -31v-187
q61 32 156 32h28q100 0 148 -48zM32.5 773.5q-10.5 10.5 -10.5 24.5t10 24l73 73q18 19 44 19h6q26 0 44 -19l73 -73q10 -10 10 -24t-10.5 -24.5t-24.5 -10.5q-16 0 -25 10l-64 71h-12l-64 -71q-10 -10 -25 -10q-14 0 -24.5 10.5z" />
    <glyph glyph-name="Hbar" unicode="&#x126;" horiz-adv-x="784" 
d="M739 536.5q9 -8.5 9 -24.5q0 -34 -34 -34h-34v-436q0 -16 -12.5 -29t-29.5 -13t-29.5 12.5t-12.5 29.5v259h-408v-259q0 -16 -12.5 -29t-29.5 -13q-16 0 -29 13t-13 29v436h-36q-16 0 -24.5 9t-8.5 25t8.5 24.5t24.5 8.5h36v91q0 17 13 29.5t29 12.5q17 0 29.5 -12.5
t12.5 -29.5v-91h408v91q0 17 12.5 29.5t29.5 12.5t29.5 -12.5t12.5 -29.5v-91h34q16 0 25 -8.5zM596 385v93h-408v-93h408z" />
    <glyph glyph-name="hbar" unicode="&#x127;" horiz-adv-x="667" 
d="M525 459q48 -48 48 -148v-269q0 -20 -11 -31t-31 -11t-31 11t-11 31v269q0 44 -10 68t-34 34t-68 10h-28q-66 0 -103 -17t-48 -52q-1 -5 -5 -15v-297q0 -20 -11 -31t-31 -11t-31 11t-11 31v290q-5 8 -5 17q0 6 1 9q2 10 4 16v174h-34q-16 0 -25.5 9.5t-9.5 25.5
q0 17 9.5 26t25.5 9h34v44q0 20 11 31t31 11t31 -11t11 -31v-44h144q17 0 26 -9t9 -26t-9 -26t-26 -9h-144v-73q61 32 156 32h28q100 0 148 -48z" />
    <glyph glyph-name="Itilde" unicode="&#x128;" horiz-adv-x="292" 
d="M114 10q-10 10 -10 32v593q0 22 10 32t32 10t32 -10t10 -32v-593q0 -22 -10 -32t-32 -10t-32 10zM171.5 746.5q-13.5 8.5 -29.5 23.5q-10 9 -19 15.5t-16 6.5q-9 0 -15.5 -6t-12.5 -21q-13 -25 -31 -25q-7 0 -15 3q-22 9 -22 25q0 9 4 17q14 39 34 55t53 16q13 0 28 -9
t36 -26q25 -20 33 -20q5 0 8 3.5t5.5 7t3.5 5.5q10 27 31 27q8 0 13 -2q24 -7 24 -25q0 -7 -3 -16q-28 -63 -81 -63q-15 0 -28.5 8.5z" />
    <glyph glyph-name="itilde" unicode="&#x129;" horiz-adv-x="292" 
d="M115 11q-11 11 -11 31v423q0 20 11 31t31 11t31 -11t11 -31v-423q0 -20 -11 -31t-31 -11t-31 11zM170.5 575.5q-13.5 8.5 -29.5 23.5q-10 9 -19 15.5t-16 6.5q-9 0 -15.5 -6t-12.5 -21q-13 -25 -31 -25q-7 0 -15 3q-22 9 -22 25q0 9 4 17q14 39 34 55t53 16q13 0 28 -9
t36 -26q25 -20 33 -20q5 0 8 3.5t5.5 7t3.5 5.5q10 27 31 27q8 0 13 -2q24 -7 24 -25q0 -7 -3 -16q-28 -63 -81 -63q-15 0 -28.5 8.5z" />
    <glyph glyph-name="Imacron" unicode="&#x12a;" horiz-adv-x="292" 
d="M114 10q-10 10 -10 32v593q0 22 10 32t32 10t32 -10t10 -32v-593q0 -22 -10 -32t-32 -10t-32 10zM32 805q0 20 10.5 30.5t30.5 10.5h148q19 0 30 -10.5t11 -30.5q0 -19 -10.5 -29.5t-30.5 -10.5h-148q-41 0 -41 40z" />
    <glyph glyph-name="imacron" unicode="&#x12b;" horiz-adv-x="292" 
d="M115 11q-11 11 -11 31v423q0 20 11 31t31 11t31 -11t11 -31v-423q0 -20 -11 -31t-31 -11t-31 11zM31 634q0 20 10.5 30.5t30.5 10.5h148q19 0 30 -10.5t11 -30.5q0 -19 -10.5 -29.5t-30.5 -10.5h-148q-41 0 -41 40z" />
    <glyph glyph-name="Ibreve" unicode="&#x12c;" horiz-adv-x="292" 
d="M114 10q-10 10 -10 32v593q0 22 10 32t32 10t32 -10t10 -32v-593q0 -22 -10 -32t-32 -10t-32 10zM59.5 750q-35.5 25 -35.5 71v21q0 18 9.5 27.5t26.5 9.5q37 0 37 -37v-21q0 -16 14.5 -22t56.5 -6q33 0 45.5 6.5t12.5 21.5v33q0 12 9.5 18.5t26.5 6.5q37 0 37 -37v-21
q0 -46 -36 -71t-102 -25t-101.5 25z" />
    <glyph glyph-name="ibreve" unicode="&#x12d;" horiz-adv-x="292" 
d="M115 11q-11 11 -11 31v423q0 20 11 31t31 11t31 -11t11 -31v-423q0 -20 -11 -31t-31 -11t-31 11zM58.5 579q-35.5 25 -35.5 71v21q0 18 9.5 27.5t26.5 9.5q37 0 37 -37v-21q0 -16 14.5 -22t56.5 -6q33 0 45.5 6.5t12.5 21.5v33q0 12 9.5 18.5t26.5 6.5q37 0 37 -37v-21
q0 -46 -36 -71t-102 -25t-101.5 25z" />
    <glyph glyph-name="Iogonek" unicode="&#x12e;" horiz-adv-x="292" 
d="M242.5 -91.5q10.5 -10.5 10.5 -25.5q0 -16 -10 -26q-22 -21 -48 -33t-53 -12q-44 0 -73.5 27.5t-29.5 67.5q0 34 25 67l40 59v9v593q0 22 10 32t32 10t32 -10t10 -32v-593q0 -22 -10 -32l-2 -2l-53 -77q-11 -12 -11 -24q0 -10 8.5 -16t21.5 -6q25 0 48 24q14 10 26 10
q16 0 26.5 -10.5z" />
    <glyph glyph-name="iogonek" unicode="&#x12f;" horiz-adv-x="292" 
d="M97 602q-13 13 -13 35v30q0 23 12.5 34.5t35.5 11.5h29q45 0 45 -46v-30q0 -23 -11.5 -35.5t-33.5 -12.5h-29q-22 0 -35 13zM242.5 -91.5q10.5 -10.5 10.5 -25.5q0 -16 -10 -26q-22 -21 -48 -33t-53 -12q-44 0 -73.5 27.5t-29.5 67.5q0 34 25 67l41 59q-1 3 -1 9v423
q0 20 11 31t31 11t31 -11t11 -31v-423q0 -17 -8 -28q-2 -4 -4 -6l-53 -77q-11 -12 -11 -24q0 -10 8.5 -16t21.5 -6q25 0 48 24q14 10 26 10q16 0 26.5 -10.5z" />
    <glyph glyph-name="Idotaccent" unicode="&#x130;" horiz-adv-x="292" 
d="M114 10q-10 10 -10 32v593q0 22 10 32t32 10t32 -10t10 -32v-593q0 -22 -10 -32t-32 -10t-32 10zM97.5 773q-12.5 13 -12.5 35v30q0 23 12.5 34.5t35.5 11.5h29q45 0 45 -46v-30q0 -23 -11.5 -35.5t-33.5 -12.5h-29q-23 0 -35.5 13z" />
    <glyph glyph-name="dotlessi" unicode="&#x131;" horiz-adv-x="292" 
d="M115 11q-11 11 -11 31v423q0 20 11 31t31 11t31 -11t11 -31v-423q0 -20 -11 -31t-31 -11t-31 11z" />
    <glyph glyph-name="Jcircumflex" unicode="&#x134;" horiz-adv-x="617" 
d="M92.5 39q-49.5 39 -58.5 121q-2 21 9 32.5t32 11.5q39 0 43 -42q6 -45 32 -61.5t86 -16.5h83q48 0 73.5 10.5t36 36t10.5 73.5v432q0 42 42 42q20 0 31 -11t11 -31v-432q0 -106 -49.5 -155t-154.5 -49h-83q-94 0 -143.5 39zM362.5 741.5q-10.5 10.5 -10.5 24.5t10 24
l73 73q18 19 44 19h6q26 0 44 -19l73 -73q10 -10 10 -24t-10.5 -24.5t-24.5 -10.5q-16 0 -25 10l-64 71h-12l-64 -71q-10 -10 -25 -10q-14 0 -24.5 10.5z" />
    <glyph glyph-name="jcircumflex" unicode="&#x135;" horiz-adv-x="292" 
d="M36 -116q41 0 54.5 13.5t13.5 54.5v513q0 20 11 31t31 11t31 -11t11 -31v-513q0 -77 -37.5 -114.5t-114.5 -37.5q-41 0 -41 42t41 42zM27.5 570.5q-10.5 10.5 -10.5 24.5t10 24l73 73q18 19 44 19h6q26 0 44 -19l73 -73q10 -10 10 -24t-10.5 -24.5t-24.5 -10.5
q-16 0 -25 10l-64 71h-12l-64 -71q-10 -10 -25 -10q-14 0 -24.5 10.5z" />
    <glyph glyph-name="Kcommaaccent" unicode="&#x136;" horiz-adv-x="587" 
d="M552 45q0 -18 -17 -31q-12 -11 -28 -11q-18 0 -31 17l-245 303l-43 -45v-236q0 -20 -11 -31t-31 -11t-31 11t-11 31v594q0 20 11 31t31 11t31 -11t11 -31v-238l255 264q15 15 30 15t29 -14q15 -15 15 -30t-14 -29l-212 -220l250 -311q11 -14 11 -28zM358 -101
q0 -6 -2 -14l-47 -96q-10 -17 -27 -17q-13 0 -21.5 6.5t-6.5 20.5l22 120q0 14 8.5 21.5t23.5 7.5h19q31 0 31 -30v-19z" />
    <glyph glyph-name="kcommaaccent" unicode="&#x137;" horiz-adv-x="508" 
d="M473 72q13 -14 13 -28q0 -16 -16 -31q-15 -12 -29 -12q-16 0 -31 16l-175 198l-47 -40v-133q0 -20 -11 -31t-31 -11t-31 11t-11 31v620q0 20 11 31t31 11t31 -11t11 -31v-376l238 205q14 13 28 13q16 0 31 -17q12 -15 12 -29q0 -17 -16 -30l-183 -158zM320 -101
q0 -6 -2 -14l-47 -96q-10 -17 -27 -17q-13 0 -21.5 6.5t-6.5 20.5l22 120q0 14 8.5 21.5t23.5 7.5h19q31 0 31 -30v-19z" />
    <glyph glyph-name="kgreenlandic" unicode="&#x138;" horiz-adv-x="508" 
d="M473 72q13 -14 13 -28q0 -16 -17 -31q-13 -12 -28 -12q-16 0 -31 15l-175 199l-47 -40v-133q0 -20 -11 -31t-31 -11t-31 11t-11 31v423q0 20 11 31t31 11t31 -11t11 -31v-179l238 205q13 13 28 13q17 0 32 -18q11 -12 11 -27q0 -18 -16 -31l-183 -158z" />
    <glyph glyph-name="Lacute" unicode="&#x139;" horiz-adv-x="541" 
d="M104 42v594q0 42 42 42t42 -42v-552h277q42 0 42 -42t-42 -42h-319q-42 0 -42 42zM110 766q0 14 10 25l73 88q11 14 26 14q14 0 25 -10q14 -11 14 -26q0 -14 -10 -25l-73 -88q-11 -14 -26 -14q-12 0 -25 10q-14 11 -14 26z" />
    <glyph glyph-name="lacute" unicode="&#x13a;" horiz-adv-x="343" 
d="M141.5 37.5q-37.5 37.5 -37.5 114.5v510q0 20 11 31t31 11t31 -11t11 -31v-510q0 -41 13.5 -54.5t53.5 -13.5q43 0 43 -42q1 -20 -10 -31t-33 -11q-76 0 -113.5 37.5zM126 774q0 14 10 25l73 88q11 14 26 14q14 0 25 -10q14 -11 14 -26q0 -14 -10 -25l-73 -88
q-11 -14 -26 -14q-12 0 -25 10q-14 11 -14 26z" />
    <glyph glyph-name="Lcommaaccent" unicode="&#x13b;" horiz-adv-x="541" 
d="M104 42v594q0 42 42 42t42 -42v-552h277q42 0 42 -42t-42 -42h-319q-42 0 -42 42zM387 -101q0 -6 -2 -14l-47 -96q-10 -17 -27 -17q-13 0 -21.5 6.5t-6.5 20.5l22 120q0 14 8.5 21.5t23.5 7.5h19q31 0 31 -30v-19z" />
    <glyph glyph-name="lcommaaccent" unicode="&#x13c;" horiz-adv-x="343" 
d="M141.5 37.5q-37.5 37.5 -37.5 114.5v510q0 20 11 31t31 11t31 -11t11 -31v-510q0 -41 13.5 -54.5t53.5 -13.5q43 0 43 -42q1 -20 -10 -31t-33 -11q-76 0 -113.5 37.5zM282 -101q0 -6 -2 -14l-47 -96q-10 -17 -27 -17q-13 0 -21.5 6.5t-6.5 20.5l22 120q0 14 8.5 21.5
t23.5 7.5h19q31 0 31 -30v-19z" />
    <glyph glyph-name="Lcaron" unicode="&#x13d;" horiz-adv-x="541" 
d="M104 42v594q0 42 42 42t42 -42v-552h277q42 0 42 -42t-42 -42h-319q-42 0 -42 42zM384 613q0 -6 -2 -14l1 -1l-46 -94q-10 -17 -27 -17q-13 0 -21 6.5t-6 20.5l21 116v1q0 29 31 29h19q30 0 30 -29v-18z" />
    <glyph glyph-name="lcaron" unicode="&#x13e;" horiz-adv-x="419" 
d="M141.5 37.5q-37.5 37.5 -37.5 114.5v510q0 20 11 31t31 11t31 -11t11 -31v-510q0 -41 13.5 -54.5t53.5 -13.5q43 0 43 -42q1 -20 -10 -31t-33 -11q-76 0 -113.5 37.5zM373 657q0 -6 -2 -14l1 -1l-46 -94q-10 -17 -27 -17q-13 0 -21 6.5t-6 20.5l21 116v1q0 29 31 29h19
q30 0 30 -29v-18z" />
    <glyph glyph-name="Ldot" unicode="&#x13f;" horiz-adv-x="541" 
d="M104 42v594q0 42 42 42t42 -42v-552h277q42 0 42 -42t-42 -42h-319q-42 0 -42 42zM324.5 316.5q-10.5 10.5 -10.5 29.5v25q0 19 10.5 29t29.5 10h24q38 0 38 -39v-25q0 -19 -9.5 -29.5t-28.5 -10.5h-24q-19 0 -29.5 10.5z" />
    <glyph glyph-name="ldot" unicode="&#x140;" horiz-adv-x="420" 
d="M141.5 37.5q-37.5 37.5 -37.5 114.5v510q0 20 11 31t31 11t31 -11t11 -31v-510q0 -41 13.5 -54.5t53.5 -13.5q43 0 43 -42q1 -20 -10 -31t-33 -11q-76 0 -113.5 37.5zM263.5 340.5q-10.5 10.5 -10.5 29.5v25q0 19 10.5 29t29.5 10h24q38 0 38 -39v-25q0 -19 -9.5 -29.5
t-28.5 -10.5h-24q-19 0 -29.5 10.5z" />
    <glyph glyph-name="Lslash" unicode="&#x141;" horiz-adv-x="541" 
d="M507 42q0 -42 -42 -42h-319q-42 0 -42 42v185l-28 -21q-15 -10 -25 -10q-16 0 -30 18q-9 14 -9 25q0 17 17 31l75 57v309q0 42 42 42t42 -42v-246l66 50q13 10 25 10q16 0 29 -18q10 -13 10 -26q0 -15 -17 -30l-113 -85v-207h277q42 0 42 -42z" />
    <glyph glyph-name="lslash" unicode="&#x142;" horiz-adv-x="356" 
d="M307.5 473.5q8.5 -8.5 8.5 -19.5q0 -15 -12 -23l-116 -86v-193q0 -41 13.5 -54.5t53.5 -13.5q43 0 43 -42q1 -20 -10 -31t-33 -11q-76 0 -113.5 37.5t-37.5 114.5v130l-55 -41q-6 -6 -17 -6t-19.5 8.5t-8.5 19.5q0 14 12 23l88 66v310q0 20 11 31t31 11t31 -11t11 -31
v-248l83 62q6 6 17 6t19.5 -8.5z" />
    <glyph glyph-name="Nacute" unicode="&#x143;" horiz-adv-x="757" 
d="M642 667q11 -11 11 -31v-594q0 -20 -11 -31t-31 -11q-12 0 -22 6t-20 19l-381 491v-474q0 -20 -11 -31t-31 -11t-31 11t-11 31v594q0 20 11 31t31 11q12 0 21.5 -6t20.5 -19l381 -491v474q0 20 11 31t31 11t31 -11zM339 766q0 14 10 25l73 88q11 14 26 14q14 0 25 -10
q14 -11 14 -26q0 -14 -10 -25l-73 -88q-11 -14 -26 -14q-12 0 -25 10q-14 11 -14 26z" />
    <glyph glyph-name="nacute" unicode="&#x144;" horiz-adv-x="662" 
d="M520 459q48 -48 48 -148v-269q0 -20 -11 -31t-31 -11t-31 11t-11 31v269q0 44 -10 68t-34 34t-68 10h-28q-63 0 -106.5 -14.5t-49.5 -42.5v-324q0 -20 -11 -31t-31 -11t-31 11t-11 31v423q0 42 42 42t42 -42v-17q53 59 156 59h28q100 0 148 -48zM321 595q0 14 10 25
l73 88q11 14 26 14q14 0 25 -10q14 -11 14 -26q0 -14 -10 -25l-73 -88q-11 -14 -26 -14q-12 0 -25 10q-14 11 -14 26z" />
    <glyph glyph-name="Ncommaaccent" unicode="&#x145;" horiz-adv-x="757" 
d="M642 667q11 -11 11 -31v-594q0 -20 -11 -31t-31 -11q-12 0 -22 6t-20 19l-381 491v-474q0 -20 -11 -31t-31 -11t-31 11t-11 31v594q0 20 11 31t31 11q12 0 21.5 -6t20.5 -19l381 -491v474q0 20 11 31t31 11t31 -11zM440 -101q0 -6 -2 -14l-47 -96q-10 -17 -27 -17
q-13 0 -21.5 6.5t-6.5 20.5l22 120q0 14 8.5 21.5t23.5 7.5h19q31 0 31 -30v-19z" />
    <glyph glyph-name="ncommaaccent" unicode="&#x146;" horiz-adv-x="662" 
d="M520 459q48 -48 48 -148v-269q0 -20 -11 -31t-31 -11t-31 11t-11 31v269q0 44 -10 68t-34 34t-68 10h-28q-63 0 -106.5 -14.5t-49.5 -42.5v-324q0 -20 -11 -31t-31 -11t-31 11t-11 31v423q0 42 42 42t42 -42v-17q53 59 156 59h28q100 0 148 -48zM418 -101q0 -6 -2 -14
l-47 -96q-10 -17 -27 -17q-13 0 -21.5 6.5t-6.5 20.5l22 120q0 14 8.5 21.5t23.5 7.5h19q31 0 31 -30v-19z" />
    <glyph glyph-name="Ncaron" unicode="&#x147;" horiz-adv-x="757" 
d="M642 667q11 -11 11 -31v-594q0 -20 -11 -31t-31 -11q-12 0 -22 6t-20 19l-381 491v-474q0 -20 -11 -31t-31 -11t-31 11t-11 31v594q0 20 11 31t31 11q12 0 21.5 -6t20.5 -19l381 -491v474q0 20 11 31t31 11t31 -11zM272 867l92 -77h1l93 77q12 12 28 12q15 0 26.5 -11
t11.5 -27q0 -9 -5 -18.5t-13 -14.5l-93 -76q-11 -10 -22 -14t-25 -4h-3q-26 0 -47 18l-92 76q-8 5 -13 14.5t-5 18.5q0 16 11 27t27 11t28 -12z" />
    <glyph glyph-name="ncaron" unicode="&#x148;" horiz-adv-x="662" 
d="M520 459q48 -48 48 -148v-269q0 -20 -11 -31t-31 -11t-31 11t-11 31v269q0 44 -10 68t-34 34t-68 10h-28q-63 0 -106.5 -14.5t-49.5 -42.5v-324q0 -20 -11 -31t-31 -11t-31 11t-11 31v423q0 42 42 42t42 -42v-17q53 59 156 59h28q100 0 148 -48zM286 701l64 -71h12l64 71
q9 10 25 10q14 0 24.5 -10.5t10.5 -24.5t-10 -24l-73 -73q-18 -19 -44 -19h-6q-26 0 -44 19l-73 73q-10 10 -10 24t10.5 24.5t24.5 10.5q15 0 25 -10z" />
    <glyph glyph-name="Eng" unicode="&#x14a;" horiz-adv-x="757" 
d="M642 667q11 -11 11 -31v-692q0 -74 -35 -109t-109 -35h-119q-61 0 -95.5 24.5t-44.5 75.5q-1 3 -1 10q0 16 11 25t31 9q18 0 27 -9.5t16 -31.5q7 -11 19 -15t37 -4h119q37 0 48.5 11.5t11.5 48.5v81l-381 491v-474q0 -20 -11 -31t-31 -11t-31 11t-11 31v594q0 20 11 31
t31 11q12 0 21.5 -6t20.5 -19l381 -491v474q0 20 11 31t31 11t31 -11z" />
    <glyph glyph-name="eng" unicode="&#x14b;" horiz-adv-x="662" 
d="M520 459q48 -48 48 -148v-366q0 -73 -35.5 -108.5t-108.5 -35.5h-96q-116 0 -140 91q-1 3 -1 10q0 16 11 25t31 9q17 0 26 -9t17 -31q7 -6 19.5 -8.5t36.5 -2.5h96q37 0 48.5 11.5t11.5 48.5v366q0 44 -10 68t-34 34t-68 10h-28q-63 0 -106.5 -14.5t-49.5 -42.5v-324
q0 -20 -11 -31t-31 -11t-31 11t-11 31v423q0 42 42 42t42 -42v-17q53 59 156 59h28q100 0 148 -48z" />
    <glyph glyph-name="Omacron" unicode="&#x14c;" horiz-adv-x="728" 
d="M134.5 54.5q-54.5 54.5 -54.5 169.5v231q0 115 55 169.5t169 53.5h120q115 0 169.5 -54.5t54.5 -169.5v-230q0 -115 -54.5 -169.5t-169.5 -54.5h-120q-115 0 -169.5 54.5zM424 84q55 0 84.5 13t42.5 42.5t13 84.5v230q0 54 -13 84t-43 43t-84 13h-120q-54 1 -84 -12
t-43 -43t-13 -84v-231q0 -55 13 -84.5t42.5 -42.5t84.5 -13h120zM190 804q0 42 42 42h253q42 0 42 -42t-42 -42h-253q-42 0 -42 42z" />
    <glyph glyph-name="omacron" unicode="&#x14d;" 
d="M128 48q-48 48 -48 147v116q0 100 48 148t148 48h82q100 0 148 -48t48 -148v-115q0 -100 -48 -148t-148 -48h-82q-100 0 -148 48zM358 84q44 0 68 10t34 34t10 68v115q0 44 -10 68t-34 34t-68 10h-82q-45 0 -68.5 -10t-33.5 -33.5t-10 -68.5v-116q0 -44 10 -67.5
t34 -33.5t68 -10h82zM143 633q0 42 42 42h253q42 0 42 -42t-42 -42h-253q-42 0 -42 42z" />
    <glyph glyph-name="Obreve" unicode="&#x14e;" horiz-adv-x="728" 
d="M134.5 54.5q-54.5 54.5 -54.5 169.5v231q0 115 55 169.5t169 53.5h120q115 0 169.5 -54.5t54.5 -169.5v-230q0 -115 -54.5 -169.5t-169.5 -54.5h-120q-115 0 -169.5 54.5zM424 84q55 0 84.5 13t42.5 42.5t13 84.5v230q0 54 -13 84t-43 43t-84 13h-120q-54 1 -84 -12
t-43 -43t-13 -84v-231q0 -55 13 -84.5t42.5 -42.5t84.5 -13h120zM277.5 750q-35.5 25 -35.5 71v21q0 18 9.5 27.5t26.5 9.5q37 0 37 -37v-21q0 -16 14.5 -22t56.5 -6q33 0 45.5 6.5t12.5 21.5v33q0 12 9.5 18.5t26.5 6.5q37 0 37 -37v-21q0 -46 -36 -71t-102 -25t-101.5 25z
" />
    <glyph glyph-name="obreve" unicode="&#x14f;" 
d="M128 48q-48 48 -48 147v116q0 100 48 148t148 48h82q100 0 148 -48t48 -148v-115q0 -100 -48 -148t-148 -48h-82q-100 0 -148 48zM358 84q44 0 68 10t34 34t10 68v115q0 44 -10 68t-34 34t-68 10h-82q-45 0 -68.5 -10t-33.5 -33.5t-10 -68.5v-116q0 -44 10 -67.5
t34 -33.5t68 -10h82zM230.5 579q-35.5 25 -35.5 71v21q0 18 9.5 27.5t26.5 9.5q37 0 37 -37v-21q0 -16 14.5 -22t56.5 -6q33 0 45.5 6.5t12.5 21.5v33q0 12 9.5 18.5t26.5 6.5q37 0 37 -37v-21q0 -46 -36 -71t-102 -25t-101.5 25z" />
    <glyph glyph-name="Ohungarumlaut" unicode="&#x150;" horiz-adv-x="728" 
d="M134.5 54.5q-54.5 54.5 -54.5 169.5v231q0 115 55 169.5t169 53.5h120q115 0 169.5 -54.5t54.5 -169.5v-230q0 -115 -54.5 -169.5t-169.5 -54.5h-120q-115 0 -169.5 54.5zM424 84q55 0 84.5 13t42.5 42.5t13 84.5v230q0 54 -13 84t-43 43t-84 13h-120q-54 1 -84 -12
t-43 -43t-13 -84v-231q0 -55 13 -84.5t42.5 -42.5t84.5 -13h120zM252 766q0 14 10 25l73 88q11 14 26 14q14 0 25 -10q14 -11 14 -26q0 -14 -10 -25l-73 -88q-11 -14 -26 -14q-12 0 -25 10q-14 11 -14 26zM411 766q0 14 10 25l73 88q11 14 26 14q14 0 25 -10q14 -11 14 -26
q0 -14 -10 -25l-73 -88q-11 -14 -26 -14q-12 0 -25 10q-14 11 -14 26z" />
    <glyph glyph-name="ohungarumlaut" unicode="&#x151;" 
d="M128 48q-48 48 -48 147v116q0 100 48 148t148 48h82q100 0 148 -48t48 -148v-115q0 -100 -48 -148t-148 -48h-82q-100 0 -148 48zM358 84q44 0 68 10t34 34t10 68v115q0 44 -10 68t-34 34t-68 10h-82q-45 0 -68.5 -10t-33.5 -33.5t-10 -68.5v-116q0 -44 10 -67.5
t34 -33.5t68 -10h82zM205 595q0 14 10 25l73 88q11 14 26 14q14 0 25 -10q14 -11 14 -26q0 -14 -10 -25l-73 -88q-11 -14 -26 -14q-12 0 -25 10q-14 11 -14 26zM364 595q0 14 10 25l73 88q11 14 26 14q14 0 25 -10q14 -11 14 -26q0 -14 -10 -25l-73 -88q-11 -14 -26 -14
q-12 0 -25 10q-14 11 -14 26z" />
    <glyph glyph-name="OE" unicode="&#x152;" horiz-adv-x="891" 
d="M824 73q11 -11 11 -31t-11 -31t-31 -11h-489q-115 0 -169.5 54.5t-54.5 169.5v231q0 115 54.5 169t169.5 54h489q20 0 31 -11t11 -31t-11 -31t-31 -11h-289v-210h171q20 0 31 -11t11 -31t-11 -31t-31 -11h-171v-216h289q20 0 31 -11zM177 139.5q13 -29.5 42.5 -42.5
t84.5 -13h116v510h-116q-54 0 -84 -12.5t-43 -42.5t-13 -84v-231q0 -55 13 -84.5z" />
    <glyph glyph-name="oe" unicode="&#x153;" horiz-adv-x="964" 
d="M128 28q-48 48 -48 147v112q0 101 48 149t148 47h52q57 0 93.5 -17.5t59.5 -62.5q23 45 59.5 63t91.5 17h60q99 0 145.5 -54t46.5 -167q0 -20 -11 -31t-32 -11h-317v-42q0 -45 10 -69.5t32.5 -34.5t64.5 -10h61q43 0 66.5 7t32.5 22.5t9 43.5q0 17 12.5 29.5t29.5 12.5
t29.5 -12.5t12.5 -29.5q0 -81 -47.5 -119t-144.5 -38h-61q-54 0 -90 18t-59 63q-24 -45 -61 -63t-93 -18h-52q-100 0 -148 48zM328 64q44 0 68 10t34 34t10 68v111q0 44 -10 68t-34 34t-68 10h-52q-44 1 -68 -9t-34 -34t-10 -69v-112q0 -44 10 -67.5t34 -33.5t68 -10h52z
M799 304q-6 54 -30 74.5t-77 20.5h-60q-59 1 -82.5 -19t-25.5 -76h275z" />
    <glyph glyph-name="Racute" unicode="&#x154;" horiz-adv-x="625" 
d="M532 332q-37 -48 -107 -59l131 -218q6 -10 6 -22q0 -22 -22 -35q-13 -8 -23 -8q-20 0 -34 22l-152 253l-3 5h-140v-228q0 -20 -11 -31t-31 -11t-31 11t-11 31v594q0 20 11 31t31 11h234q92 0 140.5 -48.5t48.5 -140.5v-30q0 -79 -37 -127zM485 489q0 56 -24 80.5
t-81 24.5h-192v-240h192q57 0 81 24t24 81v30zM277 766q0 14 10 25l73 88q11 14 26 14q14 0 25 -10q14 -11 14 -26q0 -14 -10 -25l-73 -88q-11 -14 -26 -14q-12 0 -25 10q-14 11 -14 26z" />
    <glyph glyph-name="racute" unicode="&#x155;" horiz-adv-x="427" 
d="M399 496q11 -11 11 -31t-11 -31t-31 -11q-85 0 -131.5 -31.5t-48.5 -85.5v-264q0 -20 -11 -31t-31 -11t-31 11t-11 31v423q0 42 42 42t42 -42v-39q61 81 180 81q20 0 31 -11zM214 595q0 14 10 25l73 88q11 14 26 14q14 0 25 -10q14 -11 14 -26q0 -14 -10 -25l-73 -88
q-11 -14 -26 -14q-12 0 -25 10q-14 11 -14 26z" />
    <glyph glyph-name="Rcommaaccent" unicode="&#x156;" horiz-adv-x="625" 
d="M532 332q-37 -48 -107 -59l131 -218q6 -10 6 -22q0 -22 -22 -35q-13 -8 -23 -8q-20 0 -34 22l-152 253l-3 5h-140v-228q0 -20 -11 -31t-31 -11t-31 11t-11 31v594q0 20 11 31t31 11h234q92 0 140.5 -48.5t48.5 -140.5v-30q0 -79 -37 -127zM485 489q0 56 -24 80.5
t-81 24.5h-192v-240h192q57 0 81 24t24 81v30zM378 -101q0 -6 -2 -14l-47 -96q-10 -17 -27 -17q-13 0 -21.5 6.5t-6.5 20.5l22 120q0 14 8.5 21.5t23.5 7.5h19q31 0 31 -30v-19z" />
    <glyph glyph-name="rcommaaccent" unicode="&#x157;" horiz-adv-x="427" 
d="M399 496q11 -11 11 -31t-11 -31t-31 -11q-85 0 -131.5 -31.5t-48.5 -85.5v-264q0 -20 -11 -31t-31 -11t-31 11t-11 31v423q0 42 42 42t42 -42v-39q61 81 180 81q20 0 31 -11zM211 -101q0 -6 -2 -14l-47 -96q-10 -17 -27 -17q-13 0 -21.5 6.5t-6.5 20.5l22 120
q0 14 8.5 21.5t23.5 7.5h19q31 0 31 -30v-19z" />
    <glyph glyph-name="Rcaron" unicode="&#x158;" horiz-adv-x="625" 
d="M532 332q-37 -48 -107 -59l131 -218q6 -10 6 -22q0 -22 -22 -35q-13 -8 -23 -8q-20 0 -34 22l-152 253l-3 5h-140v-228q0 -20 -11 -31t-31 -11t-31 11t-11 31v594q0 20 11 31t31 11h234q92 0 140.5 -48.5t48.5 -140.5v-30q0 -79 -37 -127zM485 489q0 56 -24 80.5
t-81 24.5h-192v-240h192q57 0 81 24t24 81v30zM210 867l92 -77h1l93 77q12 12 28 12q15 0 26.5 -11t11.5 -27q0 -9 -5 -18.5t-13 -14.5l-93 -76q-11 -10 -22 -14t-25 -4h-3q-26 0 -47 18l-92 76q-8 5 -13 14.5t-5 18.5q0 16 11 27t27 11t28 -12z" />
    <glyph glyph-name="rcaron" unicode="&#x159;" horiz-adv-x="427" 
d="M399 496q11 -11 11 -31t-11 -31t-31 -11q-85 0 -131.5 -31.5t-48.5 -85.5v-264q0 -20 -11 -31t-31 -11t-31 11t-11 31v423q0 42 42 42t42 -42v-39q61 81 180 81q20 0 31 -11zM179 701l64 -71h12l64 71q9 10 25 10q14 0 24.5 -10.5t10.5 -24.5t-10 -24l-73 -73
q-18 -19 -44 -19h-6q-26 0 -44 19l-73 73q-10 10 -10 24t10.5 24.5t24.5 10.5q15 0 25 -10z" />
    <glyph glyph-name="Sacute" unicode="&#x15a;" horiz-adv-x="692" 
d="M139.5 34.5q-47.5 34.5 -59.5 106.5q-2 21 9 32.5t32 11.5q20 0 30 -9.5t14 -31.5q7 -34 31.5 -47t76.5 -13h144q44 0 67.5 10t33.5 33.5t10 66.5q0 64 -24 88t-87 24h-124q-94 0 -140 46t-46 141q0 94 45.5 139.5t139.5 45.5h119q158 0 182 -132q3 -21 -8 -32.5
t-33 -11.5q-20 0 -30 10t-13 31q-8 29 -30 40t-68 11h-119q-41 0 -62.5 -9t-30 -30.5t-8.5 -61.5q0 -41 9 -62.5t30.5 -31t62.5 -9.5h124q99 0 147 -48t48 -148q0 -99 -48 -146.5t-147 -47.5h-144q-86 0 -133.5 34.5zM317 766q0 14 10 25l73 88q11 14 26 14q14 0 25 -10
q14 -11 14 -26q0 -14 -10 -25l-73 -88q-11 -14 -26 -14q-12 0 -25 10q-14 11 -14 26z" />
    <glyph glyph-name="sacute" unicode="&#x15b;" horiz-adv-x="611" 
d="M75 105q-1 3 -1 9q0 17 11.5 26.5t30.5 9.5t29 -9.5t16 -31.5q6 -15 19.5 -20t42.5 -5h164q39 0 52.5 13t13.5 53t-13.5 53t-52.5 13h-161q-145 0 -145 145q0 74 36 110t109 36h156q118 0 139 -99q1 -3 1 -9q0 -16 -11.5 -25.5t-30.5 -9.5t-28.5 9.5t-15.5 29.5
q-6 12 -18 16t-36 4h-156q-26 0 -39 -4.5t-17.5 -17.5t-4.5 -40q0 -36 12 -48.5t49 -12.5h161q150 0 150 -150t-150 -150h-164q-127 0 -148 105zM280 595q0 14 10 25l73 88q11 14 26 14q14 0 25 -10q14 -11 14 -26q0 -14 -10 -25l-73 -88q-11 -14 -26 -14q-12 0 -25 10
q-14 11 -14 26z" />
    <glyph glyph-name="Scircumflex" unicode="&#x15c;" horiz-adv-x="692" 
d="M139.5 34.5q-47.5 34.5 -59.5 106.5q-2 21 9 32.5t32 11.5q20 0 30 -9.5t14 -31.5q7 -34 31.5 -47t76.5 -13h144q44 0 67.5 10t33.5 33.5t10 66.5q0 64 -24 88t-87 24h-124q-94 0 -140 46t-46 141q0 94 45.5 139.5t139.5 45.5h119q158 0 182 -132q3 -21 -8 -32.5
t-33 -11.5q-20 0 -30 10t-13 31q-8 29 -30 40t-68 11h-119q-41 0 -62.5 -9t-30 -30.5t-8.5 -61.5q0 -41 9 -62.5t30.5 -31t62.5 -9.5h124q99 0 147 -48t48 -148q0 -99 -48 -146.5t-147 -47.5h-144q-86 0 -133.5 34.5zM234.5 741.5q-10.5 10.5 -10.5 24.5t10 24l73 73
q18 19 44 19h6q26 0 44 -19l73 -73q10 -10 10 -24t-10.5 -24.5t-24.5 -10.5q-16 0 -25 10l-64 71h-12l-64 -71q-10 -10 -25 -10q-14 0 -24.5 10.5z" />
    <glyph glyph-name="scircumflex" unicode="&#x15d;" horiz-adv-x="611" 
d="M75 105q-1 3 -1 9q0 17 11.5 26.5t30.5 9.5t29 -9.5t16 -31.5q6 -15 19.5 -20t42.5 -5h164q39 0 52.5 13t13.5 53t-13.5 53t-52.5 13h-161q-145 0 -145 145q0 74 36 110t109 36h156q118 0 139 -99q1 -3 1 -9q0 -16 -11.5 -25.5t-30.5 -9.5t-28.5 9.5t-15.5 29.5
q-6 12 -18 16t-36 4h-156q-26 0 -39 -4.5t-17.5 -17.5t-4.5 -40q0 -36 12 -48.5t49 -12.5h161q150 0 150 -150t-150 -150h-164q-127 0 -148 105zM197.5 570.5q-10.5 10.5 -10.5 24.5t10 24l73 73q18 19 44 19h6q26 0 44 -19l73 -73q10 -10 10 -24t-10.5 -24.5t-24.5 -10.5
q-16 0 -25 10l-64 71h-12l-64 -71q-10 -10 -25 -10q-14 0 -24.5 10.5z" />
    <glyph glyph-name="Scedilla" unicode="&#x15e;" horiz-adv-x="692" 
d="M566.5 49.5q-45.5 -47.5 -140.5 -49.5q2 -2 18 -15q22 -14 36.5 -32.5t14.5 -49.5q0 -117 -117 -117q-47 0 -72 25t-25 72q0 35 35 35t35 -35q0 -18 4.5 -22.5t22.5 -4.5q29 0 38 8.5t9 38.5q0 7 -3.5 11.5t-16.5 13.5q-19 12 -33.5 28.5t-18.5 43.5h-80
q-86 0 -133.5 34.5t-59.5 106.5q-2 21 9 32.5t32 11.5q20 0 30 -9.5t14 -31.5q7 -34 31.5 -47t76.5 -13h144q44 0 67.5 10t33.5 33.5t10 66.5q0 64 -24 88t-87 24h-124q-94 0 -140 46t-46 141q0 94 45.5 139.5t139.5 45.5h119q158 0 182 -132q3 -21 -8 -32.5t-33 -11.5
q-20 0 -30 10t-13 31q-8 29 -30 40t-68 11h-119q-41 0 -62.5 -9t-30 -30.5t-8.5 -61.5q0 -41 9 -62.5t30.5 -31t62.5 -9.5h124q99 0 147 -48t48 -148q0 -97 -45.5 -144.5z" />
    <glyph glyph-name="scedilla" unicode="&#x15f;" horiz-adv-x="611" 
d="M389 0q2 -2 18 -15q22 -15 36.5 -33t14.5 -49q0 -117 -117 -117q-47 0 -72 25t-25 72q0 35 35 35t35 -35q0 -18 4.5 -22.5t22.5 -4.5q29 0 38 8.5t9 38.5q0 7 -3.5 11.5t-16.5 13.5q-19 12 -33.5 28.5t-18.5 43.5h-93q-127 0 -148 105q-1 3 -1 9q0 17 11.5 26.5t30.5 9.5
t29 -9.5t16 -31.5q6 -15 19.5 -20t42.5 -5h164q39 0 52.5 13t13.5 53t-13.5 53t-52.5 13h-161q-145 0 -145 145q0 74 36 110t109 36h156q118 0 139 -99q1 -3 1 -9q0 -16 -11.5 -25.5t-30.5 -9.5t-28.5 9.5t-15.5 29.5q-6 12 -18 16t-36 4h-156q-26 0 -39 -4.5t-17.5 -17.5
t-4.5 -40q0 -36 12 -48.5t49 -12.5h161q150 0 150 -150q0 -149 -148 -150z" />
    <glyph glyph-name="Scaron" unicode="&#x160;" horiz-adv-x="692" 
d="M139.5 34.5q-47.5 34.5 -59.5 106.5q-2 21 9 32.5t32 11.5q20 0 30 -9.5t14 -31.5q7 -34 31.5 -47t76.5 -13h144q44 0 67.5 10t33.5 33.5t10 66.5q0 64 -24 88t-87 24h-124q-94 0 -140 46t-46 141q0 94 45.5 139.5t139.5 45.5h119q158 0 182 -132q3 -21 -8 -32.5
t-33 -11.5q-20 0 -30 10t-13 31q-8 29 -30 40t-68 11h-119q-41 0 -62.5 -9t-30 -30.5t-8.5 -61.5q0 -41 9 -62.5t30.5 -31t62.5 -9.5h124q99 0 147 -48t48 -148q0 -99 -48 -146.5t-147 -47.5h-144q-86 0 -133.5 34.5zM250 867l92 -77h1l93 77q12 12 28 12q15 0 26.5 -11
t11.5 -27q0 -9 -5 -18.5t-13 -14.5l-93 -76q-11 -10 -22 -14t-25 -4h-3q-26 0 -47 18l-92 76q-8 5 -13 14.5t-5 18.5q0 16 11 27t27 11t28 -12z" />
    <glyph glyph-name="scaron" unicode="&#x161;" horiz-adv-x="611" 
d="M75 105q-1 3 -1 9q0 17 11.5 26.5t30.5 9.5t29 -9.5t16 -31.5q6 -15 19.5 -20t42.5 -5h164q39 0 52.5 13t13.5 53t-13.5 53t-52.5 13h-161q-145 0 -145 145q0 74 36 110t109 36h156q118 0 139 -99q1 -3 1 -9q0 -16 -11.5 -25.5t-30.5 -9.5t-28.5 9.5t-15.5 29.5
q-6 12 -18 16t-36 4h-156q-26 0 -39 -4.5t-17.5 -17.5t-4.5 -40q0 -36 12 -48.5t49 -12.5h161q150 0 150 -150t-150 -150h-164q-127 0 -148 105zM245 701l64 -71h12l64 71q9 10 25 10q14 0 24.5 -10.5t10.5 -24.5t-10 -24l-73 -73q-18 -19 -44 -19h-6q-26 0 -44 19l-73 73
q-10 10 -10 24t10.5 24.5t24.5 10.5q15 0 25 -10z" />
    <glyph glyph-name="uni0162" unicode="&#x162;" horiz-adv-x="614" 
d="M585 635q0 -42 -42 -42h-194v-551q0 -14 -6 -25v-2q0 -9 3.5 -14.5t18.5 -15.5q22 -14 36.5 -32.5t14.5 -49.5q0 -117 -117 -117q-47 0 -72 25t-25 72q0 35 35 35t35 -35q0 -18 4.5 -22.5t22.5 -4.5q29 0 38 8.5t9 38.5q0 7 -3.5 11.5t-16.5 13.5q-21 13 -36.5 32.5
t-16.5 52.5q-8 11 -8 29v551h-194q-42 0 -42 42t42 42h472q42 0 42 -42z" />
    <glyph glyph-name="uni0163" unicode="&#x163;" horiz-adv-x="419" 
d="M360 42q0 -20 -11 -31t-31 -11q-31 0 -61 5q3 -8 21 -20q22 -15 36.5 -33t14.5 -49q0 -117 -117 -117q-47 0 -72 25t-25 72q0 35 35 35t35 -35q0 -18 4.5 -22.5t22.5 -4.5q29 0 38 8.5t9 38.5q0 7 -3.5 11.5t-16.5 13.5q-53 32 -53 87q0 11 3 18q-64 45 -64 159v231h-49
q-20 0 -31 11t-11 31q0 42 42 42h49v73q0 20 11 31t31 11t31 -11t11 -31v-73h115q42 0 42 -42q0 -20 -11 -31t-31 -11h-115v-231q0 -43 10 -66t33 -32.5t66 -9.5q42 0 42 -42z" />
    <glyph glyph-name="Tcaron" unicode="&#x164;" horiz-adv-x="614" 
d="M265 42v551h-194q-42 0 -42 42t42 42h472q42 0 42 -42t-42 -42h-194v-551q0 -20 -11 -31t-31 -11q-42 0 -42 42zM204 867l92 -77h1l93 77q12 12 28 12q15 0 26.5 -11t11.5 -27q0 -9 -5 -18.5t-13 -14.5l-93 -76q-11 -10 -22 -14t-25 -4h-3q-26 0 -47 18l-92 76
q-8 5 -13 14.5t-5 18.5q0 16 11 27t27 11t28 -12z" />
    <glyph glyph-name="tcaron" unicode="&#x165;" horiz-adv-x="419" 
d="M360 42q0 -20 -11 -31t-31 -11q-99 0 -146 47t-47 145v231h-49q-20 0 -31 11t-11 31q0 42 42 42h49v73q0 20 11 31t31 11t31 -11t11 -31v-73h115q42 0 42 -42q0 -20 -11 -31t-31 -11h-115v-231q0 -43 10 -66t33 -32.5t66 -9.5q42 0 42 -42zM386 666q0 -6 -2 -14l1 -1
l-46 -94q-10 -17 -27 -17q-13 0 -21 6.5t-6 20.5l21 116v1q0 29 31 29h19q30 0 30 -29v-18z" />
    <glyph glyph-name="Tbar" unicode="&#x166;" horiz-adv-x="614" 
d="M585 635q0 -42 -42 -42h-194v-219h90q17 0 26 -9t9 -26t-9 -26t-26 -9h-90v-262q0 -20 -11 -31t-31 -11q-42 0 -42 42v262h-88q-16 0 -25.5 9.5t-9.5 25.5q0 17 9.5 26t25.5 9h88v219h-194q-42 0 -42 42t42 42h472q42 0 42 -42z" />
    <glyph glyph-name="tbar" unicode="&#x167;" horiz-adv-x="409" 
d="M209 276v-84q0 -43 10 -66t33 -32.5t66 -9.5q42 0 42 -42q0 -20 -11 -31t-31 -11q-99 0 -146 47t-47 145v84h-56q-16 0 -25.5 9.5t-9.5 25.5q0 17 9.5 26t25.5 9h56v77h-49q-20 0 -31 11t-11 31q0 42 42 42h49v73q0 20 11 31t31 11t31 -11t11 -31v-73h115q42 0 42 -42
q0 -20 -11 -31t-31 -11h-115v-77h122q17 0 26 -9t9 -26q0 -16 -9 -25.5t-26 -9.5h-122z" />
    <glyph glyph-name="Utilde" unicode="&#x168;" horiz-adv-x="756" 
d="M148.5 54.5q-54.5 54.5 -54.5 169.5v412q0 42 42 42t42 -42v-412q0 -55 13 -84.5t42.5 -42.5t84.5 -13h120q55 0 84.5 13t42.5 42.5t13 84.5v412q0 42 42 42t42 -42v-412q0 -115 -54.5 -169.5t-169.5 -54.5h-120q-115 0 -169.5 54.5zM403.5 745q-17.5 11 -36.5 30
q-13 14 -20.5 18t-16.5 4q-26 0 -39 -31q-11 -26 -30 -26q-7 0 -16 3q-22 8 -22 25q0 9 4 17q17 41 41.5 60t61.5 19q29 0 47.5 -11.5t37.5 -30.5q13 -13 19 -16.5t16 -3.5t16.5 5t12.5 20q11 28 31 28q3 0 13 -2q24 -6 24 -26q0 -6 -3 -15q-14 -40 -37 -59t-57 -19
q-29 0 -46.5 11z" />
    <glyph glyph-name="utilde" unicode="&#x169;" horiz-adv-x="662" 
d="M547 496q11 -11 11 -31v-423q0 -42 -42 -42t-42 42v17q-53 -59 -156 -59h-28q-100 0 -148 48t-48 148v269q0 20 11 31t31 11t31 -11t11 -31v-269q0 -44 10 -68t34 -34t68 -10h28q63 0 106.5 14.5t49.5 42.5v324q0 20 11 31t31 11t31 -11zM353.5 574q-17.5 11 -36.5 30
q-13 14 -20.5 18t-16.5 4q-26 0 -39 -31q-11 -26 -30 -26q-7 0 -16 3q-22 8 -22 25q0 9 4 17q17 41 41.5 60t61.5 19q29 0 47.5 -11.5t37.5 -30.5q13 -13 19 -16.5t16 -3.5t16.5 5t12.5 20q11 28 31 28q3 0 13 -2q24 -6 24 -26q0 -6 -3 -15q-14 -40 -37 -59t-57 -19
q-29 0 -46.5 11z" />
    <glyph glyph-name="Umacron" unicode="&#x16a;" horiz-adv-x="756" 
d="M148.5 54.5q-54.5 54.5 -54.5 169.5v412q0 42 42 42t42 -42v-412q0 -55 13 -84.5t42.5 -42.5t84.5 -13h120q55 0 84.5 13t42.5 42.5t13 84.5v412q0 42 42 42t42 -42v-412q0 -115 -54.5 -169.5t-169.5 -54.5h-120q-115 0 -169.5 54.5zM204 804q0 42 42 42h253q42 0 42 -42
t-42 -42h-253q-42 0 -42 42z" />
    <glyph glyph-name="umacron" unicode="&#x16b;" horiz-adv-x="662" 
d="M547 496q11 -11 11 -31v-423q0 -42 -42 -42t-42 42v17q-53 -59 -156 -59h-28q-100 0 -148 48t-48 148v269q0 20 11 31t31 11t31 -11t11 -31v-269q0 -44 10 -68t34 -34t68 -10h28q63 0 106.5 14.5t49.5 42.5v324q0 20 11 31t31 11t31 -11zM154 633q0 42 42 42h253
q42 0 42 -42t-42 -42h-253q-42 0 -42 42z" />
    <glyph glyph-name="Ubreve" unicode="&#x16c;" horiz-adv-x="756" 
d="M148.5 54.5q-54.5 54.5 -54.5 169.5v412q0 42 42 42t42 -42v-412q0 -55 13 -84.5t42.5 -42.5t84.5 -13h120q55 0 84.5 13t42.5 42.5t13 84.5v412q0 42 42 42t42 -42v-412q0 -115 -54.5 -169.5t-169.5 -54.5h-120q-115 0 -169.5 54.5zM291.5 750q-35.5 25 -35.5 71v21
q0 18 9.5 27.5t26.5 9.5q37 0 37 -37v-21q0 -16 14.5 -22t56.5 -6q33 0 45.5 6.5t12.5 21.5v33q0 12 9.5 18.5t26.5 6.5q37 0 37 -37v-21q0 -46 -36 -71t-102 -25t-101.5 25z" />
    <glyph glyph-name="ubreve" unicode="&#x16d;" horiz-adv-x="662" 
d="M547 496q11 -11 11 -31v-423q0 -42 -42 -42t-42 42v17q-53 -59 -156 -59h-28q-100 0 -148 48t-48 148v269q0 20 11 31t31 11t31 -11t11 -31v-269q0 -44 10 -68t34 -34t68 -10h28q63 0 106.5 14.5t49.5 42.5v324q0 20 11 31t31 11t31 -11zM241.5 579q-35.5 25 -35.5 71v21
q0 18 9.5 27.5t26.5 9.5q37 0 37 -37v-21q0 -16 14.5 -22t56.5 -6q33 0 45.5 6.5t12.5 21.5v33q0 12 9.5 18.5t26.5 6.5q37 0 37 -37v-21q0 -46 -36 -71t-102 -25t-101.5 25z" />
    <glyph glyph-name="Uring" unicode="&#x16e;" horiz-adv-x="756" 
d="M148.5 54.5q-54.5 54.5 -54.5 169.5v412q0 42 42 42t42 -42v-412q0 -55 13 -84.5t42.5 -42.5t84.5 -13h120q55 0 84.5 13t42.5 42.5t13 84.5v412q0 42 42 42t42 -42v-412q0 -115 -54.5 -169.5t-169.5 -54.5h-120q-115 0 -169.5 54.5zM324 749.5q-21 20.5 -21 56.5
t21 56.5t56 20.5q36 0 57 -20.5t21 -56.5t-21 -56.5t-57 -20.5q-35 0 -56 20.5zM395.5 787.5q4.5 1.5 4.5 8.5v16q0 10 -1.5 12t-9.5 2h-7q-16 0 -19 -2t-3 -11v-7q0 -14 2 -17t10 -3q19 0 23.5 1.5z" />
    <glyph glyph-name="uring" unicode="&#x16f;" horiz-adv-x="662" 
d="M547 496q11 -11 11 -31v-423q0 -42 -42 -42t-42 42v17q-53 -59 -156 -59h-28q-100 0 -148 48t-48 148v269q0 20 11 31t31 11t31 -11t11 -31v-269q0 -44 10 -68t34 -34t68 -10h28q63 0 106.5 14.5t49.5 42.5v324q0 20 11 31t31 11t31 -11zM274 578.5q-21 20.5 -21 56.5
t21 56.5t56 20.5q36 0 57 -20.5t21 -56.5t-21 -56.5t-57 -20.5q-35 0 -56 20.5zM345.5 616.5q4.5 1.5 4.5 8.5v16q0 10 -1.5 12t-9.5 2h-7q-16 0 -19 -2t-3 -11v-7q0 -14 2 -17t10 -3q19 0 23.5 1.5z" />
    <glyph glyph-name="Uhungarumlaut" unicode="&#x170;" horiz-adv-x="756" 
d="M148.5 54.5q-54.5 54.5 -54.5 169.5v412q0 42 42 42t42 -42v-412q0 -55 13 -84.5t42.5 -42.5t84.5 -13h120q55 0 84.5 13t42.5 42.5t13 84.5v412q0 42 42 42t42 -42v-412q0 -115 -54.5 -169.5t-169.5 -54.5h-120q-115 0 -169.5 54.5zM266 766q0 14 10 25l73 88
q11 14 26 14q14 0 25 -10q14 -11 14 -26q0 -14 -10 -25l-73 -88q-11 -14 -26 -14q-12 0 -25 10q-14 11 -14 26zM425 766q0 14 10 25l73 88q11 14 26 14q14 0 25 -10q14 -11 14 -26q0 -14 -10 -25l-73 -88q-11 -14 -26 -14q-12 0 -25 10q-14 11 -14 26z" />
    <glyph glyph-name="uhungarumlaut" unicode="&#x171;" horiz-adv-x="662" 
d="M547 496q11 -11 11 -31v-423q0 -42 -42 -42t-42 42v17q-53 -59 -156 -59h-28q-100 0 -148 48t-48 148v269q0 20 11 31t31 11t31 -11t11 -31v-269q0 -44 10 -68t34 -34t68 -10h28q63 0 106.5 14.5t49.5 42.5v324q0 20 11 31t31 11t31 -11zM216 595q0 14 10 25l73 88
q11 14 26 14q14 0 25 -10q14 -11 14 -26q0 -14 -10 -25l-73 -88q-11 -14 -26 -14q-12 0 -25 10q-14 11 -14 26zM375 595q0 14 10 25l73 88q11 14 26 14q14 0 25 -10q14 -11 14 -26q0 -14 -10 -25l-73 -88q-11 -14 -26 -14q-12 0 -25 10q-14 11 -14 26z" />
    <glyph glyph-name="Uogonek" unicode="&#x172;" horiz-adv-x="756" 
d="M534 -46q-11 -13 -11 -25q0 -9 8.5 -15t21.5 -6q7 0 16 2.5t13 1.5q10 2 13 2q20 0 29 -11t9 -28q0 -15 -17 -25q-32 -15 -63 -15q-44 0 -73.5 27t-29.5 67q0 35 25 68l4 5q-26 -2 -41 -2h-120q-115 0 -169.5 54.5t-54.5 169.5v412q0 42 42 42t42 -42v-412
q0 -55 13 -84.5t42.5 -42.5t84.5 -13h120q55 0 84.5 13t42.5 42.5t13 84.5v412q0 42 42 42t42 -42v-412q0 -104 -44 -158q-6 -9 -7 -10z" />
    <glyph glyph-name="uogonek" unicode="&#x173;" horiz-adv-x="662" 
d="M612.5 -91.5q10.5 -10.5 10.5 -25.5q0 -16 -10 -26q-22 -21 -48 -33t-53 -12q-44 0 -73.5 27.5t-29.5 67.5q0 34 25 67l41 59q-1 3 -1 9v17q-53 -59 -156 -59h-28q-100 0 -148 48t-48 148v269q0 20 11 31t31 11t31 -11t11 -31v-269q0 -44 10 -68t34 -34t68 -10h28
q63 0 106.5 14.5t49.5 42.5v324q0 20 11 31t31 11t31 -11t11 -31v-423q0 -18 -8 -29l-4 -5l-53 -77q-11 -12 -11 -24q0 -10 8.5 -16t21.5 -6q26 0 48 24q14 10 26 10q16 0 26.5 -10.5z" />
    <glyph glyph-name="Wcircumflex" unicode="&#x174;" horiz-adv-x="898" 
d="M874 639q0 -8 -3 -17l-185 -586q-7 -18 -17 -27t-27 -9h-2q-32 0 -44 36l-154 497l1 -20l-148 -477q-7 -19 -16.5 -27.5t-27.5 -8.5q-15 0 -24 8.5t-15 27.5l-185 586q-3 11 -3 18q0 11 6.5 19t20.5 15q12 5 20 5q24 0 35 -32l152 -483l144 478q6 18 17.5 27t30.5 9
q35 -1 46 -36l144 -478l152 483q10 31 35 31q6 0 20 -4q27 -13 27 -35zM302 730q-11 11 -11 27q0 9 5 18.5t13 14.5l92 76q21 18 47 18h3q14 0 25 -4t22 -14l93 -76q8 -5 13 -14.5t5 -18.5q0 -16 -11.5 -27t-26.5 -11q-16 0 -28 12l-93 77h-1l-92 -77q-12 -12 -28 -12
t-27 11z" />
    <glyph glyph-name="wcircumflex" unicode="&#x175;" horiz-adv-x="752" 
d="M717 469q0 -10 -4 -19l-152 -416q-12 -34 -47 -34q-37 0 -46 35l-98 327l-106 -328q-5 -16 -16.5 -25t-27.5 -9q-32 0 -44 34l-139 418q-3 9 -3 17q0 26 30 35q10 3 18 3q24 0 35 -30l110 -327l103 327q10 33 48 33q35 0 45 -35l98 -325l113 328q11 30 35 30q5 0 19 -4
q29 -11 29 -35zM251.5 570.5q-10.5 10.5 -10.5 24.5t10 24l73 73q18 19 44 19h6q26 0 44 -19l73 -73q10 -10 10 -24t-10.5 -24.5t-24.5 -10.5q-16 0 -25 10l-64 71h-12l-64 -71q-10 -10 -25 -10q-14 0 -24.5 10.5z" />
    <glyph glyph-name="Ycircumflex" unicode="&#x176;" horiz-adv-x="615" 
d="M592 635q0 -12 -9 -24l-238 -365v-204q0 -20 -11 -31t-31 -11t-31 11t-11 31v204l-229 365q-8 14 -8 25q0 21 21 34q14 8 25 8q19 0 33 -21l200 -321l210 321q12 20 32 20q12 0 25 -9q22 -14 22 -33zM159 730q-11 11 -11 27q0 9 5 18.5t13 14.5l92 76q21 18 47 18h3
q14 0 25 -4t22 -14l93 -76q8 -5 13 -14.5t5 -18.5q0 -16 -11.5 -27t-26.5 -11q-16 0 -28 12l-93 77h-1l-92 -77q-12 -12 -28 -12t-27 11z" />
    <glyph glyph-name="ycircumflex" unicode="&#x177;" horiz-adv-x="680" 
d="M94 -55q0 42 42 42t42 -42q0 -38 11.5 -49.5t48.5 -11.5h194q37 0 48.5 12t11.5 49v127q-28 -42 -65.5 -57t-90.5 -15h-49q-99 0 -146 47t-47 145v273q0 42 42 42t42 -42v-273q0 -43 9.5 -66t33 -32.5t66.5 -9.5h49q81 0 118.5 26.5t37.5 81.5v273q0 42 42 42t42 -42
v-520q0 -145 -144 -145h-194q-144 0 -144 145zM216.5 570.5q-10.5 10.5 -10.5 24.5t10 24l73 73q18 19 44 19h6q26 0 44 -19l73 -73q10 -10 10 -24t-10.5 -24.5t-24.5 -10.5q-16 0 -25 10l-64 71h-12l-64 -71q-10 -10 -25 -10q-14 0 -24.5 10.5z" />
    <glyph glyph-name="Ydieresis" unicode="&#x178;" horiz-adv-x="615" 
d="M592 635q0 -12 -9 -24l-238 -365v-204q0 -20 -11 -31t-31 -11t-31 11t-11 31v204l-229 365q-8 14 -8 25q0 21 21 34q14 8 25 8q19 0 33 -21l200 -321l210 321q12 20 32 20q12 0 25 -9q22 -14 22 -33zM183.5 762.5q-10.5 10.5 -10.5 29.5v25q0 19 10.5 29t29.5 10h24
q38 0 38 -39v-25q0 -19 -9.5 -29.5t-28.5 -10.5h-24q-19 0 -29.5 10.5zM350.5 762.5q-10.5 10.5 -10.5 29.5v25q0 19 10.5 29t29.5 10h24q38 0 38 -39v-25q0 -19 -9.5 -29.5t-28.5 -10.5h-24q-19 0 -29.5 10.5z" />
    <glyph glyph-name="Zacute" unicode="&#x179;" horiz-adv-x="689" 
d="M626.5 152.5q11.5 -11.5 8.5 -32.5q-12 -59 -53 -89.5t-109 -30.5h-369q-20 0 -30.5 11t-10.5 31q0 13 16 36l394 516h-259q-32 0 -50 -9.5t-25 -31.5q-5 -20 -15 -29.5t-29 -9.5t-30.5 9.5t-11.5 25.5q0 6 1 9q12 58 52.5 89t107.5 31h334q21 0 31.5 -11t10.5 -31
q0 -17 -16 -38l-394 -514h293q34 0 52 9.5t24 31.5q6 20 16 29.5t29 9.5q21 0 32.5 -11.5zM325 766q0 14 10 25l73 88q11 14 26 14q14 0 25 -10q14 -11 14 -26q0 -14 -10 -25l-73 -88q-11 -14 -26 -14q-12 0 -25 10q-14 11 -14 26z" />
    <glyph glyph-name="zacute" unicode="&#x17a;" horiz-adv-x="545" 
d="M497.5 135q11.5 -9 11.5 -25q0 -6 -1 -10q-11 -49 -46.5 -74.5t-93.5 -25.5h-259q-20 0 -31 11t-11 31q0 19 18 41l272 340h-171q-26 0 -38 -4t-18 -16q-6 -21 -15 -30.5t-28 -9.5q-20 0 -31 9t-11 26q0 6 1 9q19 100 140 100h245q42 0 42 -42q0 -20 -18 -42l-270 -338
l183 -1q24 0 36.5 4.5t18.5 16.5q7 21 16.5 30t27.5 9q19 0 30.5 -9zM248 595q0 14 10 25l73 88q11 14 26 14q14 0 25 -10q14 -11 14 -26q0 -14 -10 -25l-73 -88q-11 -14 -26 -14q-12 0 -25 10q-14 11 -14 26z" />
    <glyph glyph-name="Zdotaccent" unicode="&#x17b;" horiz-adv-x="689" 
d="M626.5 152.5q11.5 -11.5 8.5 -32.5q-12 -59 -53 -89.5t-109 -30.5h-369q-20 0 -30.5 11t-10.5 31q0 13 16 36l394 516h-259q-32 0 -50 -9.5t-25 -31.5q-5 -20 -15 -29.5t-29 -9.5t-30.5 9.5t-11.5 25.5q0 6 1 9q12 58 52.5 89t107.5 31h334q21 0 31.5 -11t10.5 -31
q0 -17 -16 -38l-394 -514h293q34 0 52 9.5t24 31.5q6 20 16 29.5t29 9.5q21 0 32.5 -11.5zM312.5 773q-12.5 13 -12.5 35v30q0 23 12.5 34.5t35.5 11.5h29q45 0 45 -46v-30q0 -23 -11.5 -35.5t-33.5 -12.5h-29q-23 0 -35.5 13z" />
    <glyph glyph-name="zdotaccent" unicode="&#x17c;" horiz-adv-x="545" 
d="M497.5 135q11.5 -9 11.5 -25q0 -6 -1 -10q-11 -49 -46.5 -74.5t-93.5 -25.5h-259q-20 0 -31 11t-11 31q0 19 18 41l272 340h-171q-26 0 -38 -4t-18 -16q-6 -21 -15 -30.5t-28 -9.5q-20 0 -31 9t-11 26q0 6 1 9q19 100 140 100h245q42 0 42 -42q0 -20 -18 -42l-270 -338
l183 -1q24 0 36.5 4.5t18.5 16.5q7 21 16.5 30t27.5 9q19 0 30.5 -9zM235.5 602q-12.5 13 -12.5 35v30q0 23 12.5 34.5t35.5 11.5h29q45 0 45 -46v-30q0 -23 -11.5 -35.5t-33.5 -12.5h-29q-23 0 -35.5 13z" />
    <glyph glyph-name="Zcaron" unicode="&#x17d;" horiz-adv-x="689" 
d="M626.5 152.5q11.5 -11.5 8.5 -32.5q-12 -59 -53 -89.5t-109 -30.5h-369q-20 0 -30.5 11t-10.5 31q0 13 16 36l394 516h-259q-32 0 -50 -9.5t-25 -31.5q-5 -20 -15 -29.5t-29 -9.5t-30.5 9.5t-11.5 25.5q0 6 1 9q12 58 52.5 89t107.5 31h334q21 0 31.5 -11t10.5 -31
q0 -17 -16 -38l-394 -514h293q34 0 52 9.5t24 31.5q6 20 16 29.5t29 9.5q21 0 32.5 -11.5zM258 867l92 -77h1l93 77q12 12 28 12q15 0 26.5 -11t11.5 -27q0 -9 -5 -18.5t-13 -14.5l-93 -76q-11 -10 -22 -14t-25 -4h-3q-26 0 -47 18l-92 76q-8 5 -13 14.5t-5 18.5q0 16 11 27
t27 11t28 -12z" />
    <glyph glyph-name="zcaron" unicode="&#x17e;" horiz-adv-x="545" 
d="M497.5 135q11.5 -9 11.5 -25q0 -6 -1 -10q-11 -49 -46.5 -74.5t-93.5 -25.5h-259q-20 0 -31 11t-11 31q0 19 18 41l272 340h-171q-26 0 -38 -4t-18 -16q-6 -21 -15 -30.5t-28 -9.5q-20 0 -31 9t-11 26q0 6 1 9q19 100 140 100h245q42 0 42 -42q0 -20 -18 -42l-270 -338
l183 -1q24 0 36.5 4.5t18.5 16.5q7 21 16.5 30t27.5 9q19 0 30.5 -9zM213 701l64 -71h12l64 71q9 10 25 10q14 0 24.5 -10.5t10.5 -24.5t-10 -24l-73 -73q-18 -19 -44 -19h-6q-26 0 -44 19l-73 73q-10 10 -10 24t10.5 24.5t24.5 10.5q15 0 25 -10z" />
    <glyph glyph-name="uni018F" unicode="&#x18f;" horiz-adv-x="728" 
d="M134.5 54.5q-54.5 54.5 -54.5 169.5v105h484v121q0 54 -13 84t-43 43t-84 13h-120q-54 0 -84 -13t-43 -43t-13 -84q0 -18 -12.5 -30t-29.5 -12t-29.5 12t-12.5 30q0 115 54.5 169.5t169.5 54.5h120q115 0 169.5 -54.5t54.5 -169.5v-226q0 -115 -54.5 -169.5t-169.5 -54.5
h-120q-115 0 -169.5 54.5zM424 84q55 0 84.5 13t42.5 42.5t13 84.5v21h-400v-21q0 -55 13 -84.5t42.5 -42.5t84.5 -13h120z" />
    <glyph glyph-name="florin" unicode="&#x192;" horiz-adv-x="328" 
d="M265.5 589q-21.5 -26 -31.5 -81v-1h77q20 0 31 -11t11 -31t-11 -31t-31 -11h-92l-58 -323q-8 -40 -30 -66t-57 -34q-8 -2 -12 -2q-15 0 -23.5 11.5t-8.5 29.5t8 27.5t29 19.5q11 13 12 29l55 308h-38q-20 0 -31 11t-11 31t11 31t31 11h53l3 15q15 85 57 128.5t118 55.5
q21 3 32 -8t11 -33q0 -20 -10 -30t-30 -13q-43 -7 -64.5 -33z" />
    <glyph glyph-name="Ohorn" unicode="&#x1a0;" horiz-adv-x="728" 
d="M694 685q10 -10 10 -29v-13q0 -68 -71 -86q15 -44 15 -103v-230q0 -115 -54.5 -169.5t-169.5 -54.5h-120q-115 0 -169.5 54.5t-54.5 169.5v231q0 115 55 169.5t169 53.5h120q124 0 179 -65q13 2 18 9t5 21v26q0 26 39 26q19 0 29 -10zM564 454q0 54 -13 84t-43 43t-84 13
h-120q-54 1 -84 -12t-43 -43t-13 -84v-231q0 -55 13 -84.5t42.5 -42.5t84.5 -13h120q55 0 84.5 13t42.5 42.5t13 84.5v230z" />
    <glyph glyph-name="ohorn" unicode="&#x1a1;" 
d="M600 525q10 -10 10 -29v-13q0 -35 -18.5 -56t-49.5 -29q12 -37 12 -87v-115q0 -100 -48 -148t-148 -48h-82q-100 0 -148 48t-48 147v116q0 100 48 148t148 48h82q105 0 153 -54q12 3 16.5 9.5t4.5 20.5v26q0 26 39 26q19 0 29 -10zM470 311q0 44 -10 68t-34 34t-68 10
h-82q-45 0 -68.5 -10t-33.5 -33.5t-10 -68.5v-116q0 -44 10 -67.5t34 -33.5t68 -10h82q44 0 68 10t34 34t10 68v115z" />
    <glyph glyph-name="Uhorn" unicode="&#x1af;" horiz-adv-x="756" 
d="M739 752q10 -10 10 -29v-13q0 -75 -87 -90v-396q0 -115 -54.5 -169.5t-169.5 -54.5h-120q-115 0 -169.5 54.5t-54.5 169.5v412q0 42 42 42t42 -42v-412q0 -55 13 -84.5t42.5 -42.5t84.5 -13h120q55 0 84.5 13t42.5 42.5t13 84.5v412q0 42 42 42q30 0 40.5 6.5t10.5 25.5
v26q0 26 39 26q19 0 29 -10z" />
    <glyph glyph-name="uhorn" unicode="&#x1b0;" horiz-adv-x="662" 
d="M632 581q10 -10 10 -29v-13q0 -74 -84 -89v-408q0 -42 -42 -42t-42 42v17q-53 -59 -156 -59h-28q-100 0 -148 48t-48 148v269q0 20 11 31t31 11t31 -11t11 -31v-269q0 -44 10 -68t34 -34t68 -10h28q63 0 106.5 14.5t49.5 42.5v324q0 19 10 30t29 12q30 0 40.5 6.5
t10.5 25.5v26q0 26 39 26q19 0 29 -10z" />
    <glyph glyph-name="uni01C4" unicode="&#x1c4;" horiz-adv-x="1370" 
d="M115 11q-11 11 -11 31v594q0 20 11 31t31 11h241q131 0 192.5 -61.5t61.5 -192.5v-170q0 -131 -61.5 -192.5t-192.5 -61.5h-241q-20 0 -31 11zM387 84q65 0 101.5 16t52.5 52.5t16 101.5v170q0 65 -16 101.5t-52.5 52.5t-101.5 16h-199v-510h199zM1307.5 152.5
q11.5 -11.5 8.5 -32.5q-12 -59 -53 -89.5t-109 -30.5h-369q-20 0 -30.5 11t-10.5 31q0 13 16 36l394 516h-259q-32 0 -50 -9.5t-25 -31.5q-5 -20 -15 -29.5t-29 -9.5t-30.5 9.5t-11.5 25.5q0 6 1 9q12 58 52.5 89t107.5 31h334q21 0 31.5 -11t10.5 -31q0 -17 -16 -38
l-394 -514h293q34 0 52 9.5t24 31.5q6 20 16 29.5t29 9.5q21 0 32.5 -11.5zM914 867l92 -77h1l93 77q12 12 28 12q15 0 26.5 -11t11.5 -27q0 -9 -5 -18.5t-13 -14.5l-93 -76q-11 -10 -22 -14t-25 -4h-3q-26 0 -47 18l-92 76q-8 5 -13 14.5t-5 18.5q0 16 11 27t27 11t28 -12z
" />
    <glyph glyph-name="uni01C5" unicode="&#x1c5;" horiz-adv-x="1206" 
d="M115 11q-11 11 -11 31v594q0 20 11 31t31 11h241q131 0 192.5 -61.5t61.5 -192.5v-170q0 -131 -61.5 -192.5t-192.5 -61.5h-241q-20 0 -31 11zM387 84q65 0 101.5 16t52.5 52.5t16 101.5v170q0 65 -16 101.5t-52.5 52.5t-101.5 16h-199v-510h199zM1158.5 135
q11.5 -9 11.5 -25q0 -6 -1 -10q-11 -49 -46.5 -74.5t-93.5 -25.5h-259q-20 0 -31 11t-11 31q0 19 18 41l272 340h-171q-26 0 -38 -4t-18 -16q-6 -21 -15 -30.5t-28 -9.5q-20 0 -31 9t-11 26q0 6 1 9q19 100 140 100h245q42 0 42 -42q0 -20 -18 -42l-270 -338l183 -1
q24 0 36.5 4.5t18.5 16.5q7 21 16.5 30t27.5 9q19 0 30.5 -9zM842 696l92 -77h1l93 77q12 12 28 12q15 0 26.5 -11t11.5 -27q0 -9 -5 -18.5t-13 -14.5l-93 -76q-11 -10 -22 -14t-25 -4h-3q-26 0 -47 18l-92 76q-8 5 -13 14.5t-5 18.5q0 16 11 27t27 11t28 -12z" />
    <glyph glyph-name="uni01C6" unicode="&#x1c6;" horiz-adv-x="1144" 
d="M543 693q11 -11 11 -31v-620q0 -20 -11 -31t-31 -11t-31 11t-11 31v7q-25 -25 -62.5 -37t-93.5 -12h-38q-100 0 -148 48t-48 148v115q0 100 48 148t148 48h194v155q0 20 11 31t31 11t31 -11zM426.5 101.5q43.5 17.5 43.5 51.5v270h-194q-44 0 -68 -10t-34 -34t-10 -68
v-115q0 -44 10 -68t34 -34t68 -10h38q69 0 112.5 17.5zM1096.5 135q11.5 -9 11.5 -25q0 -6 -1 -10q-11 -49 -46.5 -74.5t-93.5 -25.5h-259q-20 0 -31 11t-11 31q0 19 18 41l272 340h-171q-26 0 -38 -4t-18 -16q-6 -21 -15 -30.5t-28 -9.5q-20 0 -31 9t-11 26q0 6 1 9
q19 100 140 100h245q42 0 42 -42q0 -20 -18 -42l-270 -338l183 -1q24 0 36.5 4.5t18.5 16.5q7 21 16.5 30t27.5 9q19 0 30.5 -9zM812 701l64 -71h12l64 71q9 10 25 10q14 0 24.5 -10.5t10.5 -24.5t-10 -24l-73 -73q-18 -19 -44 -19h-6q-26 0 -44 19l-73 73q-10 10 -10 24
t10.5 24.5t24.5 10.5q15 0 25 -10z" />
    <glyph glyph-name="uni01C7" unicode="&#x1c7;" horiz-adv-x="1158" 
d="M104 42v594q0 42 42 42t42 -42v-552h277q42 0 42 -42t-42 -42h-319q-42 0 -42 42zM633.5 39q-49.5 39 -58.5 121q-2 21 9 32.5t32 11.5q39 0 43 -42q6 -45 32 -61.5t86 -16.5h83q48 0 73.5 10.5t36 36t10.5 73.5v432q0 42 42 42q20 0 31 -11t11 -31v-432
q0 -106 -49.5 -155t-154.5 -49h-83q-94 0 -143.5 39z" />
    <glyph glyph-name="uni01C8" unicode="&#x1c8;" horiz-adv-x="738" 
d="M104 42v594q0 42 42 42t42 -42v-552h277q42 0 42 -42t-42 -42h-319q-42 0 -42 42zM482 -116q41 0 54.5 13.5t13.5 54.5v513q0 20 11 31t31 11t31 -11t11 -31v-513q0 -77 -37.5 -114.5t-114.5 -37.5q-41 0 -41 42t41 42zM543.5 602q-12.5 13 -12.5 35v30q0 23 12.5 34.5
t35.5 11.5h29q45 0 45 -46v-30q0 -23 -11.5 -35.5t-33.5 -12.5h-29q-23 0 -35.5 13z" />
    <glyph glyph-name="uni01C9" unicode="&#x1c9;" horiz-adv-x="635" 
d="M141.5 37.5q-37.5 37.5 -37.5 114.5v510q0 20 11 31t31 11t31 -11t11 -31v-510q0 -41 13.5 -54.5t53.5 -13.5q43 0 43 -42q1 -20 -10 -31t-33 -11q-76 0 -113.5 37.5zM379 -116q41 0 54.5 13.5t13.5 54.5v513q0 20 11 31t31 11t31 -11t11 -31v-513q0 -77 -37.5 -114.5
t-114.5 -37.5q-41 0 -41 42t41 42zM440.5 602q-12.5 13 -12.5 35v30q0 23 12.5 34.5t35.5 11.5h29q45 0 45 -46v-30q0 -23 -11.5 -35.5t-33.5 -12.5h-29q-23 0 -35.5 13z" />
    <glyph glyph-name="uni01CA" unicode="&#x1ca;" horiz-adv-x="1374" 
d="M642 667q11 -11 11 -31v-594q0 -20 -11 -31t-31 -11q-12 0 -22 6t-20 19l-381 491v-474q0 -20 -11 -31t-31 -11t-31 11t-11 31v594q0 20 11 31t31 11q12 0 21.5 -6t20.5 -19l381 -491v474q0 20 11 31t31 11t31 -11zM849.5 39q-49.5 39 -58.5 121q-2 21 9 32.5t32 11.5
q39 0 43 -42q6 -45 32 -61.5t86 -16.5h83q48 0 73.5 10.5t36 36t10.5 73.5v432q0 42 42 42q20 0 31 -11t11 -31v-432q0 -106 -49.5 -155t-154.5 -49h-83q-94 0 -143.5 39z" />
    <glyph glyph-name="uni01CB" unicode="&#x1cb;" horiz-adv-x="1049" 
d="M642 667q11 -11 11 -31v-594q0 -20 -11 -31t-31 -11q-12 0 -22 6t-20 19l-381 491v-474q0 -20 -11 -31t-31 -11t-31 11t-11 31v594q0 20 11 31t31 11q12 0 21.5 -6t20.5 -19l381 -491v474q0 20 11 31t31 11t31 -11zM793 -116q41 0 54.5 13.5t13.5 54.5v513q0 20 11 31
t31 11t31 -11t11 -31v-513q0 -77 -37.5 -114.5t-114.5 -37.5q-41 0 -41 42t41 42zM854.5 602q-12.5 13 -12.5 35v30q0 23 12.5 34.5t35.5 11.5h29q45 0 45 -46v-30q0 -23 -11.5 -35.5t-33.5 -12.5h-29q-23 0 -35.5 13z" />
    <glyph glyph-name="uni01CC" unicode="&#x1cc;" horiz-adv-x="954" 
d="M520 459q48 -48 48 -148v-269q0 -20 -11 -31t-31 -11t-31 11t-11 31v269q0 44 -10 68t-34 34t-68 10h-28q-63 0 -106.5 -14.5t-49.5 -42.5v-324q0 -20 -11 -31t-31 -11t-31 11t-11 31v423q0 42 42 42t42 -42v-17q53 59 156 59h28q100 0 148 -48zM698 -116q41 0 54.5 13.5
t13.5 54.5v513q0 20 11 31t31 11t31 -11t11 -31v-513q0 -77 -37.5 -114.5t-114.5 -37.5q-41 0 -41 42t41 42zM759.5 602q-12.5 13 -12.5 35v30q0 23 12.5 34.5t35.5 11.5h29q45 0 45 -46v-30q0 -23 -11.5 -35.5t-33.5 -12.5h-29q-23 0 -35.5 13z" />
    <glyph glyph-name="Gcaron" unicode="&#x1e6;" horiz-adv-x="698" 
d="M134.5 54.5q-54.5 54.5 -54.5 169.5v230q0 115 54.5 170t168.5 54h121q94 0 143.5 -39t57.5 -122q3 -21 -8 -32t-32 -11q-20 0 -30.5 10.5t-13.5 31.5q-5 45 -31 61.5t-86 16.5h-121q-54 1 -84 -12t-42.5 -43t-12.5 -85v-230q0 -55 13 -84.5t42.5 -42.5t84.5 -13h120
q48 0 73.5 10.5t36 36t10.5 73.5v47l-78 1q-42 0 -42 42q0 20 11 31t31 11l120 -1q20 0 31 -11t11 -31v-89q0 -106 -49.5 -155t-154.5 -49h-120q-115 0 -169.5 54.5zM294 872l64 -71h12l64 71q9 10 25 10q14 0 24.5 -10.5t10.5 -24.5t-10 -24l-73 -73q-18 -19 -44 -19h-6
q-26 0 -44 19l-73 73q-10 10 -10 24t10.5 24.5t24.5 10.5q15 0 25 -10z" />
    <glyph glyph-name="gcaron" unicode="&#x1e7;" horiz-adv-x="648" 
d="M554 465v-521q0 -74 -35 -109t-109 -35h-186q-121 0 -140 99q-1 3 -1 10q0 16 11 25.5t31 9.5q18 0 27 -9.5t16 -31.5q6 -11 18.5 -15t37.5 -4h186q37 0 48.5 11.5t11.5 48.5v116q-27 -29 -67 -44.5t-89 -15.5h-38q-100 0 -148 48t-48 147v116q0 101 48 149t148 47h82
q72 0 112 -42q0 42 42 42t42 -42zM427 101.5q43 17.5 43 51.5v200q0 39 -28 54.5t-84 15.5h-82q-44 1 -68 -9t-34 -34t-10 -69v-116q0 -44 10 -67.5t34 -33.5t68 -10h38q70 0 113 17.5zM241 701l64 -71h12l64 71q9 10 25 10q14 0 24.5 -10.5t10.5 -24.5t-10 -24l-73 -73
q-18 -19 -44 -19h-6q-26 0 -44 19l-73 73q-10 10 -10 24t10.5 24.5t24.5 10.5q15 0 25 -10z" />
    <glyph glyph-name="uni01EA" unicode="&#x1ea;" horiz-adv-x="728" 
d="M477 -56q-11 -12 -11 -24q0 -10 8.5 -16t21.5 -6q26 0 48 24q14 10 26 10q16 0 26.5 -10.5t10.5 -25.5q0 -16 -10 -26q-22 -21 -48 -33t-53 -12q-44 0 -73.5 27.5t-29.5 67.5q0 34 25 67l9 13h-3h-120q-115 0 -169.5 54.5t-54.5 169.5v231q0 115 55 169.5t169 53.5h120
q115 0 169.5 -54.5t54.5 -169.5v-230q0 -86 -30 -137.5t-93 -72.5zM424 84q55 0 84.5 13t42.5 42.5t13 84.5v230q0 54 -13 84t-43 43t-84 13h-120q-54 1 -84 -12t-43 -43t-13 -84v-231q0 -55 13 -84.5t42.5 -42.5t84.5 -13h120z" />
    <glyph glyph-name="uni01EB" unicode="&#x1eb;" 
d="M423 -72q-11 -13 -11 -25q0 -9 8.5 -15t21.5 -6q7 0 16 2.5t13 1.5q10 2 13 2q20 0 29 -11t9 -28q0 -15 -17 -25q-32 -15 -63 -15q-44 0 -73.5 27t-29.5 67q0 35 25 68l23 30q-9 -1 -29 -1h-82q-100 0 -148 48t-48 147v116q0 100 48 148t148 48h82q100 0 148 -48t48 -148
v-115q0 -96 -44 -144q0 -12 -10 -22zM358 84q44 0 68 10t34 34t10 68v115q0 44 -10 68t-34 34t-68 10h-82q-45 0 -68.5 -10t-33.5 -33.5t-10 -68.5v-116q0 -44 10 -67.5t34 -33.5t68 -10h82z" />
    <glyph glyph-name="uni01F1" unicode="&#x1f1;" horiz-adv-x="1370" 
d="M115 11q-11 11 -11 31v594q0 20 11 31t31 11h241q131 0 192.5 -61.5t61.5 -192.5v-170q0 -131 -61.5 -192.5t-192.5 -61.5h-241q-20 0 -31 11zM387 84q65 0 101.5 16t52.5 52.5t16 101.5v170q0 65 -16 101.5t-52.5 52.5t-101.5 16h-199v-510h199zM1307.5 152.5
q11.5 -11.5 8.5 -32.5q-12 -59 -53 -89.5t-109 -30.5h-369q-20 0 -30.5 11t-10.5 31q0 13 16 36l394 516h-259q-32 0 -50 -9.5t-25 -31.5q-5 -20 -15 -29.5t-29 -9.5t-30.5 9.5t-11.5 25.5q0 6 1 9q12 58 52.5 89t107.5 31h334q21 0 31.5 -11t10.5 -31q0 -17 -16 -38
l-394 -514h293q34 0 52 9.5t24 31.5q6 20 16 29.5t29 9.5q21 0 32.5 -11.5z" />
    <glyph glyph-name="uni01F2" unicode="&#x1f2;" horiz-adv-x="1206" 
d="M115 11q-11 11 -11 31v594q0 20 11 31t31 11h241q131 0 192.5 -61.5t61.5 -192.5v-170q0 -131 -61.5 -192.5t-192.5 -61.5h-241q-20 0 -31 11zM387 84q65 0 101.5 16t52.5 52.5t16 101.5v170q0 65 -16 101.5t-52.5 52.5t-101.5 16h-199v-510h199zM1158.5 135
q11.5 -9 11.5 -25q0 -6 -1 -10q-11 -49 -46.5 -74.5t-93.5 -25.5h-259q-20 0 -31 11t-11 31q0 19 18 41l272 340h-171q-26 0 -38 -4t-18 -16q-6 -21 -15 -30.5t-28 -9.5q-20 0 -31 9t-11 26q0 6 1 9q19 100 140 100h245q42 0 42 -42q0 -20 -18 -42l-270 -338l183 -1
q24 0 36.5 4.5t18.5 16.5q7 21 16.5 30t27.5 9q19 0 30.5 -9z" />
    <glyph glyph-name="uni01F3" unicode="&#x1f3;" horiz-adv-x="1144" 
d="M543 693q11 -11 11 -31v-620q0 -20 -11 -31t-31 -11t-31 11t-11 31v7q-25 -25 -62.5 -37t-93.5 -12h-38q-100 0 -148 48t-48 148v115q0 100 48 148t148 48h194v155q0 20 11 31t31 11t31 -11zM426.5 101.5q43.5 17.5 43.5 51.5v270h-194q-44 0 -68 -10t-34 -34t-10 -68
v-115q0 -44 10 -68t34 -34t68 -10h38q69 0 112.5 17.5zM1096.5 135q11.5 -9 11.5 -25q0 -6 -1 -10q-11 -49 -46.5 -74.5t-93.5 -25.5h-259q-20 0 -31 11t-11 31q0 19 18 41l272 340h-171q-26 0 -38 -4t-18 -16q-6 -21 -15 -30.5t-28 -9.5q-20 0 -31 9t-11 26q0 6 1 9
q19 100 140 100h245q42 0 42 -42q0 -20 -18 -42l-270 -338l183 -1q24 0 36.5 4.5t18.5 16.5q7 21 16.5 30t27.5 9q19 0 30.5 -9z" />
    <glyph glyph-name="Aringacute" unicode="&#x1fa;" horiz-adv-x="666" 
d="M625 39q0 -24 -27 -35q-9 -4 -20 -4q-24 0 -35 27l-54 131h-311l-52 -131q-11 -27 -35 -27q-10 0 -19 4q-28 10 -28 35q0 11 4 20l238 586q15 33 47 33h2q33 -2 44 -33l242 -586q4 -9 4 -20zM211 242h244l-125 303zM280 749.5q-21 20.5 -21 56.5t21 56.5t56 20.5
q36 0 57 -20.5t21 -56.5t-21 -56.5t-57 -20.5q-35 0 -56 20.5zM351.5 787.5q4.5 1.5 4.5 8.5v16q0 10 -1.5 12t-9.5 2h-7q-16 0 -19 -2t-3 -11v-7q0 -14 2 -17t10 -3q19 0 23.5 1.5zM299 961q0 14 10 25l73 88q11 14 26 14q14 0 25 -10q14 -11 14 -26q0 -14 -10 -25l-73 -88
q-11 -14 -26 -14q-12 0 -25 10q-14 11 -14 26z" />
    <glyph glyph-name="aringacute" unicode="&#x1fb;" horiz-adv-x="640" 
d="M498 459q48 -48 48 -148v-269q0 -20 -11 -31t-31 -11t-31 11t-11 31v23q-53 -65 -156 -65h-56q-84 0 -125 41t-41 125t40.5 125t125.5 41h211q-3 52 -27 71.5t-84 19.5h-58q-50 0 -74.5 -7t-34.5 -24q-9 -21 -19 -29t-28 -8t-29.5 9t-11.5 24q0 6 1 10q15 56 62.5 82.5
t133.5 26.5h58q100 0 148 -48zM459 159.5q1 3.5 3 7.5v81h-212q-34 0 -51 -7t-24 -24t-7 -51t7 -51t24 -24t51 -7h56q127 0 151 69q1 3 2 6.5zM257 578.5q-21 20.5 -21 56.5t21 56.5t56 20.5q36 0 57 -20.5t21 -56.5t-21 -56.5t-57 -20.5q-35 0 -56 20.5zM328.5 616.5
q4.5 1.5 4.5 8.5v16q0 10 -1.5 12t-9.5 2h-7q-16 0 -19 -2t-3 -11v-7q0 -14 2 -17t10 -3q19 0 23.5 1.5zM276 790q0 14 10 25l73 88q11 14 26 14q14 0 25 -10q14 -11 14 -26q0 -14 -10 -25l-73 -88q-11 -14 -26 -14q-12 0 -25 10q-14 11 -14 26z" />
    <glyph glyph-name="AEacute" unicode="&#x1fc;" horiz-adv-x="860" 
d="M429 42v116h-228l-77 -134q-13 -24 -34 -24q-12 0 -23 7q-23 14 -23 34q0 12 7 23l332 585q18 29 51 29h328q20 0 31 -11t11 -31t-11 -31t-31 -11h-249v-210h131q20 0 31 -11t11 -31t-11 -31t-31 -11h-131v-216h249q20 0 31 -11t11 -31t-11 -31t-31 -11h-291
q-42 0 -42 42zM249 242h180v327zM501 766q0 14 10 25l73 88q11 14 26 14q14 0 25 -10q14 -11 14 -26q0 -14 -10 -25l-73 -88q-11 -14 -26 -14q-12 0 -25 10q-14 11 -14 26z" />
    <glyph glyph-name="aeacute" unicode="&#x1fd;" horiz-adv-x="966" 
d="M476 64q-31 -41 -79 -62.5t-111 -21.5h-36q-84 0 -125 41t-41 125t41 125t125 41h192q-5 50 -29.5 68.5t-82.5 18.5h-38q-47 0 -71.5 -6.5t-34.5 -21t-10 -40.5q0 -17 -12.5 -29.5t-29.5 -12.5t-29.5 12.5t-12.5 29.5q0 78 49 115t151 37h38q105 0 154 -77q48 77 150 76
h60q98 0 145 -52t47 -160q0 -20 -11 -31t-32 -11h-317v-52q0 -45 10 -69.5t32.5 -34.5t64.5 -10h61q43 0 66.5 7t32.5 22.5t9 43.5q0 17 12.5 29.5t29.5 12.5t29.5 -12.5t12.5 -29.5q0 -81 -47.5 -119t-144.5 -38h-61q-108 0 -157 86zM799 312q-6 48 -29.5 67t-75.5 19h-60
q-56 1 -79.5 -17.5t-27.5 -68.5h272zM286 64q81 0 118.5 26.5t37.5 81.5v56h-192q-34 0 -51 -7t-24 -24t-7 -51t7 -51t24 -24t51 -7h36zM450 595q0 14 10 25l73 88q11 14 26 14q14 0 25 -10q14 -11 14 -26q0 -14 -10 -25l-73 -88q-11 -14 -26 -14q-12 0 -25 10
q-14 11 -14 26z" />
    <glyph glyph-name="Oslashacute" unicode="&#x1fe;" horiz-adv-x="728" 
d="M648 454v-230q0 -115 -54.5 -169.5t-169.5 -54.5h-120q-64 0 -106 16l-16 -26q-13 -21 -31 -21q-10 0 -23 8q-21 13 -21 32q0 11 7 22l17 28q-51 54 -51 165v231q0 115 55 169.5t169 53.5h120q43 0 81 -8l14 23q14 21 31 21q10 0 23 -8q20 -14 20 -30q0 -10 -8 -24
l-9 -14q72 -53 72 -184zM178 136l280 457q-11 1 -34 1h-120q-54 1 -84 -12t-43 -43t-13 -84v-231q0 -59 14 -88zM564 454q0 41 -7.5 68.5t-24.5 42.5l-289 -476q28 -5 61 -5h120q55 0 84.5 13t42.5 42.5t13 84.5v230zM328 766q0 14 10 25l73 88q11 14 26 14q14 0 25 -10
q14 -11 14 -26q0 -14 -10 -25l-73 -88q-11 -14 -26 -14q-12 0 -25 10q-14 11 -14 26z" />
    <glyph glyph-name="oslashacute" unicode="&#x1ff;" 
d="M554 311v-115q0 -100 -48 -148t-148 -48h-82q-38 0 -72 8l-35 -57q-12 -20 -29 -20q-10 0 -23 8q-18 13 -18 28q0 10 7 21l32 51q-58 48 -58 156v116q0 100 48 148t148 48h82q37 0 71 -8l20 32q13 19 29 19q10 0 23 -8q16 -12 16 -28q0 -10 -7 -21l-15 -24
q59 -47 59 -158zM164 195q0 -33 5.5 -54t17.5 -33l198 314q-8 1 -27 1h-82q-45 0 -68.5 -10t-33.5 -33.5t-10 -68.5v-116zM470 311q0 33 -5.5 54.5t-17.5 33.5l-197 -314q8 -1 26 -1h82q44 0 68 10t34 34t10 68v115zM281 595q0 14 10 25l73 88q11 14 26 14q14 0 25 -10
q14 -11 14 -26q0 -14 -10 -25l-73 -88q-11 -14 -26 -14q-12 0 -25 10q-14 11 -14 26z" />
    <glyph glyph-name="uni0200" unicode="&#x200;" horiz-adv-x="666" 
d="M206 843q-10 10 -10 23t13 23q10 9 22 9q14 0 24 -13l66 -79q9 -10 9 -22q0 -14 -13 -24q-11 -10 -23 -10q-13 0 -23 13zM322 843q-10 10 -10 23t13 23q11 9 22 9q14 0 24 -13l66 -79q9 -10 9 -22q0 -14 -13 -24q-11 -10 -23 -10q-13 0 -23 13zM625 39q0 -24 -27 -35
q-9 -4 -20 -4q-24 0 -35 27l-54 131h-311l-52 -131q-11 -27 -35 -27q-10 0 -19 4q-28 10 -28 35q0 11 4 20l238 586q15 33 47 33h2q33 -2 44 -33l242 -586q4 -9 4 -20zM211 242h244l-125 303z" />
    <glyph glyph-name="uni0201" unicode="&#x201;" horiz-adv-x="640" 
d="M183 672q-10 10 -10 23t13 23q11 9 22 9q14 0 24 -13l66 -79q9 -10 9 -22q0 -14 -13 -24q-11 -10 -23 -10q-13 0 -23 13zM299 672q-10 10 -10 23t13 23q11 9 22 9q14 0 24 -13l66 -79q9 -10 9 -22q0 -14 -13 -24q-11 -10 -23 -10q-13 0 -23 13zM498 459q48 -48 48 -148
v-269q0 -20 -11 -31t-31 -11t-31 11t-11 31v23q-53 -65 -156 -65h-56q-84 0 -125 41t-41 125t40.5 125t125.5 41h211q-3 52 -27 71.5t-84 19.5h-58q-50 0 -74.5 -7t-34.5 -24q-9 -21 -19 -29t-28 -8t-29.5 9t-11.5 24q0 6 1 10q15 56 62.5 82.5t133.5 26.5h58q100 0 148 -48
zM459 159.5q1 3.5 3 7.5v81h-212q-34 0 -51 -7t-24 -24t-7 -51t7 -51t24 -24t51 -7h56q127 0 151 69q1 3 2 6.5z" />
    <glyph glyph-name="uni0202" unicode="&#x202;" horiz-adv-x="666" 
d="M625 39q0 -24 -27 -35q-9 -4 -20 -4q-24 0 -35 27l-54 131h-311l-52 -131q-11 -27 -35 -27q-10 0 -19 4q-28 10 -28 35q0 11 4 20l238 586q15 33 47 33h2q33 -2 44 -33l242 -586q4 -9 4 -20zM211 242h244l-125 303zM435 897q36 -25 36 -71v-21q0 -37 -37 -37
q-17 0 -26.5 6.5t-9.5 18.5v33q0 15 -12.5 21.5t-45.5 6.5q-42 0 -56.5 -6t-14.5 -22v-21q0 -37 -37 -37q-17 0 -26.5 9.5t-9.5 27.5v21q0 46 35.5 71t101.5 25t102 -25z" />
    <glyph glyph-name="uni0203" unicode="&#x203;" horiz-adv-x="640" 
d="M498 459q48 -48 48 -148v-269q0 -20 -11 -31t-31 -11t-31 11t-11 31v23q-53 -65 -156 -65h-56q-84 0 -125 41t-41 125t40.5 125t125.5 41h211q-3 52 -27 71.5t-84 19.5h-58q-50 0 -74.5 -7t-34.5 -24q-9 -21 -19 -29t-28 -8t-29.5 9t-11.5 24q0 6 1 10q15 56 62.5 82.5
t133.5 26.5h58q100 0 148 -48zM459 159.5q1 3.5 3 7.5v81h-212q-34 0 -51 -7t-24 -24t-7 -51t7 -51t24 -24t51 -7h56q127 0 151 69q1 3 2 6.5zM412 726q36 -25 36 -71v-21q0 -37 -37 -37q-17 0 -26.5 6.5t-9.5 18.5v33q0 15 -12.5 21.5t-45.5 6.5q-42 0 -56.5 -6t-14.5 -22
v-21q0 -37 -37 -37q-17 0 -26.5 9.5t-9.5 27.5v21q0 46 35.5 71t101.5 25t102 -25z" />
    <glyph glyph-name="uni0204" unicode="&#x204;" horiz-adv-x="603" 
d="M212 843q-10 10 -10 23t13 23q10 9 22 9q14 0 24 -13l66 -79q9 -10 9 -22q0 -14 -13 -24q-11 -10 -23 -10q-13 0 -23 13zM328 843q-10 10 -10 23t13 23q11 9 22 9q14 0 24 -13l66 -79q9 -10 9 -22q0 -14 -13 -24q-11 -10 -23 -10q-13 0 -23 13zM536 73q11 -11 11 -31
t-11 -31t-31 -11h-359q-20 0 -31 11t-11 31v594q0 20 11 31t31 11h359q20 0 31 -11t11 -31t-11 -31t-31 -11h-317v-210h199q20 0 31 -11t11 -31t-11 -31t-31 -11h-199v-216h317q20 0 31 -11z" />
    <glyph glyph-name="uni0205" unicode="&#x205;" 
d="M190 672q-10 10 -10 23t13 23q11 9 22 9q14 0 24 -13l66 -79q9 -10 9 -22q0 -14 -13 -24q-11 -10 -23 -10q-13 0 -23 13zM306 672q-10 10 -10 23t13 23q11 9 22 9q14 0 24 -13l66 -79q9 -10 9 -22q0 -14 -13 -24q-11 -10 -23 -10q-13 0 -23 13zM164 219v-24
q0 -44 10 -67.5t34 -33.5t68 -10h82q51 0 75.5 9.5t32.5 33.5q6 20 16 29.5t29 9.5t29.5 -8.5t10.5 -24.5q0 -7 -1 -10q-22 -123 -192 -123h-82q-100 0 -148 48t-48 147v116q0 101 48 149t148 47h82q100 0 148 -48t48 -148v-50q0 -20 -11 -31t-31 -11h-348zM164 303h306v8
q0 44 -10 68t-34 34t-68 10h-82q-44 1 -68 -9t-34 -34t-10 -69v-8z" />
    <glyph glyph-name="uni0206" unicode="&#x206;" horiz-adv-x="603" 
d="M536 73q11 -11 11 -31t-11 -31t-31 -11h-359q-20 0 -31 11t-11 31v594q0 20 11 31t31 11h359q20 0 31 -11t11 -31t-11 -31t-31 -11h-317v-210h199q20 0 31 -11t11 -31t-11 -31t-31 -11h-199v-216h317q20 0 31 -11zM441 897q36 -25 36 -71v-21q0 -37 -37 -37
q-17 0 -26.5 6.5t-9.5 18.5v33q0 15 -12.5 21.5t-45.5 6.5q-42 0 -56.5 -6t-14.5 -22v-21q0 -37 -37 -37q-17 0 -26.5 9.5t-9.5 27.5v21q0 46 35.5 71t101.5 25t102 -25z" />
    <glyph glyph-name="uni0207" unicode="&#x207;" 
d="M164 219v-24q0 -44 10 -67.5t34 -33.5t68 -10h82q51 0 75.5 9.5t32.5 33.5q6 20 16 29.5t29 9.5t29.5 -8.5t10.5 -24.5q0 -7 -1 -10q-22 -123 -192 -123h-82q-100 0 -148 48t-48 147v116q0 101 48 149t148 47h82q100 0 148 -48t48 -148v-50q0 -20 -11 -31t-31 -11h-348z
M164 303h306v8q0 44 -10 68t-34 34t-68 10h-82q-44 1 -68 -9t-34 -34t-10 -69v-8zM419 726q36 -25 36 -71v-21q0 -37 -37 -37q-17 0 -26.5 6.5t-9.5 18.5v33q0 15 -12.5 21.5t-45.5 6.5q-42 0 -56.5 -6t-14.5 -22v-21q0 -37 -37 -37q-17 0 -26.5 9.5t-9.5 27.5v21
q0 46 35.5 71t101.5 25t102 -25z" />
    <glyph glyph-name="uni0208" unicode="&#x208;" horiz-adv-x="292" 
d="M106 750q-13 0 -23 13l-65 80q-10 10 -10 23t13 23q11 9 22 9q14 0 24 -13l66 -79q9 -10 9 -22q0 -14 -13 -24q-11 -10 -23 -10zM222 750q-13 0 -23 13l-65 80q-10 10 -10 23t13 23q11 9 22 9q14 0 24 -13l66 -79q9 -10 9 -22q0 -14 -13 -24q-11 -10 -23 -10zM114 10
q-10 10 -10 32v593q0 22 10 32t32 10t32 -10t10 -32v-593q0 -22 -10 -32t-32 -10t-32 10z" />
    <glyph glyph-name="uni0209" unicode="&#x209;" horiz-adv-x="292" 
d="M105 579q-13 0 -23 13l-65 80q-10 10 -10 23t13 23q10 9 22 9q14 0 24 -13l66 -79q9 -10 9 -22q0 -14 -13 -24q-11 -10 -23 -10zM221 579q-13 0 -23 13l-65 80q-10 10 -10 23t13 23q11 9 22 9q14 0 24 -13l66 -79q9 -10 9 -22q0 -14 -13 -24q-11 -10 -23 -10zM115 11
q-11 11 -11 31v423q0 20 11 31t31 11t31 -11t11 -31v-423q0 -20 -11 -31t-31 -11t-31 11z" />
    <glyph glyph-name="uni020A" unicode="&#x20a;" horiz-adv-x="292" 
d="M114 10q-10 10 -10 32v593q0 22 10 32t32 10t32 -10t10 -32v-593q0 -22 -10 -32t-32 -10t-32 10zM247 897q36 -25 36 -71v-21q0 -37 -37 -37q-17 0 -26.5 6.5t-9.5 18.5v33q0 15 -12.5 21.5t-45.5 6.5q-42 0 -56.5 -6t-14.5 -22v-21q0 -37 -37 -37q-17 0 -26.5 9.5
t-9.5 27.5v21q0 46 35.5 71t101.5 25t102 -25z" />
    <glyph glyph-name="uni020B" unicode="&#x20b;" horiz-adv-x="292" 
d="M115 11q-11 11 -11 31v423q0 20 11 31t31 11t31 -11t11 -31v-423q0 -20 -11 -31t-31 -11t-31 11zM232 695q31 -31 31 -86q0 -31 -37 -31q-36 0 -36 31q0 25 -10 34.5t-35 9.5q-24 0 -34 -9.5t-10 -34.5q0 -31 -37 -31q-17 0 -26.5 8t-9.5 23q0 56 31 86.5t86 30.5
q56 0 87 -31z" />
    <glyph glyph-name="uni020C" unicode="&#x20c;" horiz-adv-x="728" 
d="M324 750q-13 0 -23 13l-65 80q-10 10 -10 23t13 23q11 9 22 9q14 0 24 -13l66 -79q9 -10 9 -22q0 -14 -13 -24q-11 -10 -23 -10zM440 750q-13 0 -23 13l-65 80q-10 10 -10 23t13 23q10 9 22 9q14 0 24 -13l66 -79q9 -10 9 -22q0 -14 -13 -24q-11 -10 -23 -10zM134.5 54.5
q-54.5 54.5 -54.5 169.5v231q0 115 55 169.5t169 53.5h120q115 0 169.5 -54.5t54.5 -169.5v-230q0 -115 -54.5 -169.5t-169.5 -54.5h-120q-115 0 -169.5 54.5zM424 84q55 0 84.5 13t42.5 42.5t13 84.5v230q0 54 -13 84t-43 43t-84 13h-120q-54 1 -84 -12t-43 -43t-13 -84
v-231q0 -55 13 -84.5t42.5 -42.5t84.5 -13h120z" />
    <glyph glyph-name="uni020D" unicode="&#x20d;" 
d="M277 579q-13 0 -23 13l-65 80q-10 10 -10 23t13 23q11 9 22 9q14 0 24 -13l66 -79q9 -10 9 -22q0 -14 -13 -24q-11 -10 -23 -10zM393 579q-13 0 -23 13l-65 80q-10 10 -10 23t13 23q11 9 22 9q14 0 24 -13l66 -79q9 -10 9 -22q0 -14 -13 -24q-11 -10 -23 -10zM128 48
q-48 48 -48 147v116q0 100 48 148t148 48h82q100 0 148 -48t48 -148v-115q0 -100 -48 -148t-148 -48h-82q-100 0 -148 48zM358 84q44 0 68 10t34 34t10 68v115q0 44 -10 68t-34 34t-68 10h-82q-45 0 -68.5 -10t-33.5 -33.5t-10 -68.5v-116q0 -44 10 -67.5t34 -33.5t68 -10
h82z" />
    <glyph glyph-name="uni020E" unicode="&#x20e;" horiz-adv-x="728" 
d="M134.5 54.5q-54.5 54.5 -54.5 169.5v231q0 115 55 169.5t169 53.5h120q115 0 169.5 -54.5t54.5 -169.5v-230q0 -115 -54.5 -169.5t-169.5 -54.5h-120q-115 0 -169.5 54.5zM424 84q55 0 84.5 13t42.5 42.5t13 84.5v230q0 54 -13 84t-43 43t-84 13h-120q-54 1 -84 -12
t-43 -43t-13 -84v-231q0 -55 13 -84.5t42.5 -42.5t84.5 -13h120zM465 897q36 -25 36 -71v-21q0 -37 -37 -37q-17 0 -26.5 6.5t-9.5 18.5v33q0 15 -12.5 21.5t-45.5 6.5q-42 0 -56.5 -6t-14.5 -22v-21q0 -37 -37 -37q-17 0 -26.5 9.5t-9.5 27.5v21q0 46 35.5 71t101.5 25
t102 -25z" />
    <glyph glyph-name="uni020F" unicode="&#x20f;" 
d="M128 48q-48 48 -48 147v116q0 100 48 148t148 48h82q100 0 148 -48t48 -148v-115q0 -100 -48 -148t-148 -48h-82q-100 0 -148 48zM358 84q44 0 68 10t34 34t10 68v115q0 44 -10 68t-34 34t-68 10h-82q-45 0 -68.5 -10t-33.5 -33.5t-10 -68.5v-116q0 -44 10 -67.5
t34 -33.5t68 -10h82zM418 726q36 -25 36 -71v-21q0 -37 -37 -37q-17 0 -26.5 6.5t-9.5 18.5v33q0 15 -12.5 21.5t-45.5 6.5q-42 0 -56.5 -6t-14.5 -22v-21q0 -37 -37 -37q-17 0 -26.5 9.5t-9.5 27.5v21q0 46 35.5 71t101.5 25t102 -25z" />
    <glyph glyph-name="uni0210" unicode="&#x210;" horiz-adv-x="625" 
d="M185 843q-10 10 -10 23t13 23q10 9 22 9q14 0 24 -13l66 -79q9 -10 9 -22q0 -14 -13 -24q-11 -10 -23 -10q-13 0 -23 13zM301 843q-10 10 -10 23t13 23q11 9 22 9q14 0 24 -13l66 -79q9 -10 9 -22q0 -14 -13 -24q-11 -10 -23 -10q-13 0 -23 13zM532 332q-37 -48 -107 -59
l131 -218q6 -10 6 -22q0 -22 -22 -35q-13 -8 -23 -8q-20 0 -34 22l-152 253l-3 5h-140v-228q0 -20 -11 -31t-31 -11t-31 11t-11 31v594q0 20 11 31t31 11h234q92 0 140.5 -48.5t48.5 -140.5v-30q0 -79 -37 -127zM485 489q0 56 -24 80.5t-81 24.5h-192v-240h192q57 0 81 24
t24 81v30z" />
    <glyph glyph-name="uni0211" unicode="&#x211;" horiz-adv-x="427" 
d="M122 672q-10 10 -10 23t13 23q10 9 22 9q14 0 24 -13l66 -79q9 -10 9 -22q0 -14 -13 -24q-11 -10 -23 -10q-13 0 -23 13zM238 672q-10 10 -10 23t13 23q11 9 22 9q14 0 24 -13l66 -79q9 -10 9 -22q0 -14 -13 -24q-11 -10 -23 -10q-13 0 -23 13zM399 496q11 -11 11 -31
t-11 -31t-31 -11q-85 0 -131.5 -31.5t-48.5 -85.5v-264q0 -20 -11 -31t-31 -11t-31 11t-11 31v423q0 42 42 42t42 -42v-39q61 81 180 81q20 0 31 -11z" />
    <glyph glyph-name="uni0212" unicode="&#x212;" horiz-adv-x="625" 
d="M532 332q-37 -48 -107 -59l131 -218q6 -10 6 -22q0 -22 -22 -35q-13 -8 -23 -8q-20 0 -34 22l-152 253l-3 5h-140v-228q0 -20 -11 -31t-31 -11t-31 11t-11 31v594q0 20 11 31t31 11h234q92 0 140.5 -48.5t48.5 -140.5v-30q0 -79 -37 -127zM485 489q0 56 -24 80.5
t-81 24.5h-192v-240h192q57 0 81 24t24 81v30zM414 897q36 -25 36 -71v-21q0 -37 -37 -37q-17 0 -26.5 6.5t-9.5 18.5v33q0 15 -12.5 21.5t-45.5 6.5q-42 0 -56.5 -6t-14.5 -22v-21q0 -37 -37 -37q-17 0 -26.5 9.5t-9.5 27.5v21q0 46 35.5 71t101.5 25t102 -25z" />
    <glyph glyph-name="uni0213" unicode="&#x213;" horiz-adv-x="427" 
d="M399 496q11 -11 11 -31t-11 -31t-31 -11q-85 0 -131.5 -31.5t-48.5 -85.5v-264q0 -20 -11 -31t-31 -11t-31 11t-11 31v423q0 42 42 42t42 -42v-39q61 81 180 81q20 0 31 -11zM351 726q36 -25 36 -71v-21q0 -37 -37 -37q-17 0 -26.5 6.5t-9.5 18.5v33q0 15 -12.5 21.5
t-45.5 6.5q-42 0 -56.5 -6t-14.5 -22v-21q0 -37 -37 -37q-17 0 -26.5 9.5t-9.5 27.5v21q0 46 35.5 71t101.5 25t102 -25z" />
    <glyph glyph-name="uni0214" unicode="&#x214;" horiz-adv-x="756" 
d="M338 750q-13 0 -23 13l-65 80q-10 10 -10 23t13 23q11 9 22 9q14 0 24 -13l66 -79q9 -10 9 -22q0 -14 -13 -24q-11 -10 -23 -10zM454 750q-13 0 -23 13l-65 80q-10 10 -10 23t13 23q10 9 22 9q14 0 24 -13l66 -79q9 -10 9 -22q0 -14 -13 -24q-11 -10 -23 -10zM148.5 54.5
q-54.5 54.5 -54.5 169.5v412q0 42 42 42t42 -42v-412q0 -55 13 -84.5t42.5 -42.5t84.5 -13h120q55 0 84.5 13t42.5 42.5t13 84.5v412q0 42 42 42t42 -42v-412q0 -115 -54.5 -169.5t-169.5 -54.5h-120q-115 0 -169.5 54.5z" />
    <glyph glyph-name="uni0215" unicode="&#x215;" horiz-adv-x="662" 
d="M200 672q-10 10 -10 23t13 23q11 9 22 9q14 0 24 -13l66 -79q9 -10 9 -22q0 -14 -13 -24q-11 -10 -23 -10q-13 0 -23 13zM316 672q-10 10 -10 23t13 23q10 9 22 9q14 0 24 -13l66 -79q9 -10 9 -22q0 -14 -13 -24q-11 -10 -23 -10q-13 0 -23 13zM547 496q11 -11 11 -31
v-423q0 -42 -42 -42t-42 42v17q-53 -59 -156 -59h-28q-100 0 -148 48t-48 148v269q0 20 11 31t31 11t31 -11t11 -31v-269q0 -44 10 -68t34 -34t68 -10h28q63 0 106.5 14.5t49.5 42.5v324q0 20 11 31t31 11t31 -11z" />
    <glyph glyph-name="uni0216" unicode="&#x216;" horiz-adv-x="756" 
d="M148.5 54.5q-54.5 54.5 -54.5 169.5v412q0 42 42 42t42 -42v-412q0 -55 13 -84.5t42.5 -42.5t84.5 -13h120q55 0 84.5 13t42.5 42.5t13 84.5v412q0 42 42 42t42 -42v-412q0 -115 -54.5 -169.5t-169.5 -54.5h-120q-115 0 -169.5 54.5zM479 897q36 -25 36 -71v-21
q0 -37 -37 -37q-17 0 -26.5 6.5t-9.5 18.5v33q0 15 -12.5 21.5t-45.5 6.5q-42 0 -56.5 -6t-14.5 -22v-21q0 -37 -37 -37q-17 0 -26.5 9.5t-9.5 27.5v21q0 46 35.5 71t101.5 25t102 -25z" />
    <glyph glyph-name="uni0217" unicode="&#x217;" horiz-adv-x="662" 
d="M547 496q11 -11 11 -31v-423q0 -42 -42 -42t-42 42v17q-53 -59 -156 -59h-28q-100 0 -148 48t-48 148v269q0 20 11 31t31 11t31 -11t11 -31v-269q0 -44 10 -68t34 -34t68 -10h28q63 0 106.5 14.5t49.5 42.5v324q0 20 11 31t31 11t31 -11zM429 726q36 -25 36 -71v-21
q0 -37 -37 -37q-17 0 -26.5 6.5t-9.5 18.5v33q0 15 -12.5 21.5t-45.5 6.5q-42 0 -56.5 -6t-14.5 -22v-21q0 -37 -37 -37q-17 0 -26.5 9.5t-9.5 27.5v21q0 46 35.5 71t101.5 25t102 -25z" />
    <glyph glyph-name="Scommaaccent" unicode="&#x218;" horiz-adv-x="692" 
d="M139.5 34.5q-47.5 34.5 -59.5 106.5q-2 21 9 32.5t32 11.5q20 0 30 -9.5t14 -31.5q7 -34 31.5 -47t76.5 -13h144q44 0 67.5 10t33.5 33.5t10 66.5q0 64 -24 88t-87 24h-124q-94 0 -140 46t-46 141q0 94 45.5 139.5t139.5 45.5h119q158 0 182 -132q3 -21 -8 -32.5
t-33 -11.5q-20 0 -30 10t-13 31q-8 29 -30 40t-68 11h-119q-41 0 -62.5 -9t-30 -30.5t-8.5 -61.5q0 -41 9 -62.5t30.5 -31t62.5 -9.5h124q99 0 147 -48t48 -148q0 -99 -48 -146.5t-147 -47.5h-144q-86 0 -133.5 34.5zM418 -101q0 -6 -2 -14l-47 -96q-10 -17 -27 -17
q-13 0 -21.5 6.5t-6.5 20.5l22 120q0 14 8.5 21.5t23.5 7.5h19q31 0 31 -30v-19z" />
    <glyph glyph-name="scommaaccent" unicode="&#x219;" horiz-adv-x="611" 
d="M75 105q-1 3 -1 9q0 17 11.5 26.5t30.5 9.5t29 -9.5t16 -31.5q6 -15 19.5 -20t42.5 -5h164q39 0 52.5 13t13.5 53t-13.5 53t-52.5 13h-161q-145 0 -145 145q0 74 36 110t109 36h156q118 0 139 -99q1 -3 1 -9q0 -16 -11.5 -25.5t-30.5 -9.5t-28.5 9.5t-15.5 29.5
q-6 12 -18 16t-36 4h-156q-26 0 -39 -4.5t-17.5 -17.5t-4.5 -40q0 -36 12 -48.5t49 -12.5h161q150 0 150 -150t-150 -150h-164q-127 0 -148 105zM381 -101q0 -6 -2 -14l-47 -96q-10 -17 -27 -17q-13 0 -21.5 6.5t-6.5 20.5l22 120q0 14 8.5 21.5t23.5 7.5h19q31 0 31 -30
v-19z" />
    <glyph glyph-name="uni021A" unicode="&#x21a;" horiz-adv-x="614" 
d="M265 42v551h-194q-42 0 -42 42t42 42h472q42 0 42 -42t-42 -42h-194v-551q0 -20 -11 -31t-31 -11q-42 0 -42 42zM339 -101q0 -6 -2 -14l-47 -96q-10 -17 -27 -17q-13 0 -21.5 6.5t-6.5 20.5l22 120q0 14 8.5 21.5t23.5 7.5h19q31 0 31 -30v-19z" />
    <glyph glyph-name="uni021B" unicode="&#x21b;" horiz-adv-x="419" 
d="M360 42q0 -20 -11 -31t-31 -11q-99 0 -146 47t-47 145v231h-49q-20 0 -31 11t-11 31q0 42 42 42h49v73q0 20 11 31t31 11t31 -11t11 -31v-73h115q42 0 42 -42q0 -20 -11 -31t-31 -11h-115v-231q0 -43 10 -66t33 -32.5t66 -9.5q42 0 42 -42zM252 -101q0 -6 -2 -14l-47 -96
q-10 -17 -27 -17q-13 0 -21.5 6.5t-6.5 20.5l22 120q0 14 8.5 21.5t23.5 7.5h19q31 0 31 -30v-19z" />
    <glyph glyph-name="uni022A" unicode="&#x22a;" horiz-adv-x="728" 
d="M134.5 54.5q-54.5 54.5 -54.5 169.5v231q0 115 55 169.5t169 53.5h120q115 0 169.5 -54.5t54.5 -169.5v-230q0 -115 -54.5 -169.5t-169.5 -54.5h-120q-115 0 -169.5 54.5zM424 84q55 0 84.5 13t42.5 42.5t13 84.5v230q0 54 -13 84t-43 43t-84 13h-120q-54 1 -84 -12
t-43 -43t-13 -84v-231q0 -55 13 -84.5t42.5 -42.5t84.5 -13h120zM240.5 762.5q-10.5 10.5 -10.5 29.5v25q0 19 10.5 29t29.5 10h24q38 0 38 -39v-25q0 -19 -9.5 -29.5t-28.5 -10.5h-24q-19 0 -29.5 10.5zM407.5 762.5q-10.5 10.5 -10.5 29.5v25q0 19 10.5 29t29.5 10h24
q38 0 38 -39v-25q0 -19 -9.5 -29.5t-28.5 -10.5h-24q-19 0 -29.5 10.5zM190 901q0 42 42 42h253q42 0 42 -42t-42 -42h-253q-42 0 -42 42z" />
    <glyph glyph-name="uni022B" unicode="&#x22b;" 
d="M128 48q-48 48 -48 147v116q0 100 48 148t148 48h82q100 0 148 -48t48 -148v-115q0 -100 -48 -148t-148 -48h-82q-100 0 -148 48zM358 84q44 0 68 10t34 34t10 68v115q0 44 -10 68t-34 34t-68 10h-82q-45 0 -68.5 -10t-33.5 -33.5t-10 -68.5v-116q0 -44 10 -67.5
t34 -33.5t68 -10h82zM193.5 591.5q-10.5 10.5 -10.5 29.5v25q0 19 10.5 29t29.5 10h24q38 0 38 -39v-25q0 -19 -9.5 -29.5t-28.5 -10.5h-24q-19 0 -29.5 10.5zM360.5 591.5q-10.5 10.5 -10.5 29.5v25q0 19 10.5 29t29.5 10h24q38 0 38 -39v-25q0 -19 -9.5 -29.5t-28.5 -10.5
h-24q-19 0 -29.5 10.5zM143 730q0 42 42 42h253q42 0 42 -42t-42 -42h-253q-42 0 -42 42z" />
    <glyph glyph-name="uni022C" unicode="&#x22c;" horiz-adv-x="728" 
d="M134.5 54.5q-54.5 54.5 -54.5 169.5v231q0 115 55 169.5t169 53.5h120q115 0 169.5 -54.5t54.5 -169.5v-230q0 -115 -54.5 -169.5t-169.5 -54.5h-120q-115 0 -169.5 54.5zM424 84q55 0 84.5 13t42.5 42.5t13 84.5v230q0 54 -13 84t-43 43t-84 13h-120q-54 1 -84 -12
t-43 -43t-13 -84v-231q0 -55 13 -84.5t42.5 -42.5t84.5 -13h120zM389.5 745q-17.5 11 -36.5 30q-13 14 -20.5 18t-16.5 4q-26 0 -39 -31q-11 -26 -30 -26q-7 0 -16 3q-22 8 -22 25q0 9 4 17q17 41 41.5 60t61.5 19q29 0 47.5 -11.5t37.5 -30.5q13 -13 19 -16.5t16 -3.5
t16.5 5t12.5 20q11 28 31 28q3 0 13 -2q24 -6 24 -26q0 -6 -3 -15q-14 -40 -37 -59t-57 -19q-29 0 -46.5 11zM190 974q0 42 42 42h253q42 0 42 -42t-42 -42h-253q-42 0 -42 42z" />
    <glyph glyph-name="uni022D" unicode="&#x22d;" 
d="M128 48q-48 48 -48 147v116q0 100 48 148t148 48h82q100 0 148 -48t48 -148v-115q0 -100 -48 -148t-148 -48h-82q-100 0 -148 48zM358 84q44 0 68 10t34 34t10 68v115q0 44 -10 68t-34 34t-68 10h-82q-45 0 -68.5 -10t-33.5 -33.5t-10 -68.5v-116q0 -44 10 -67.5
t34 -33.5t68 -10h82zM342.5 574q-17.5 11 -36.5 30q-13 14 -20.5 18t-16.5 4q-26 0 -39 -31q-11 -26 -30 -26q-7 0 -16 3q-22 8 -22 25q0 9 4 17q17 41 41.5 60t61.5 19q29 0 47.5 -11.5t37.5 -30.5q13 -13 19 -16.5t16 -3.5t16.5 5t12.5 20q11 28 31 28q3 0 13 -2
q24 -6 24 -26q0 -6 -3 -15q-14 -40 -37 -59t-57 -19q-29 0 -46.5 11zM143 803q0 42 42 42h253q42 0 42 -42t-42 -42h-253q-42 0 -42 42z" />
    <glyph glyph-name="uni0230" unicode="&#x230;" horiz-adv-x="728" 
d="M134.5 54.5q-54.5 54.5 -54.5 169.5v231q0 115 55 169.5t169 53.5h120q115 0 169.5 -54.5t54.5 -169.5v-230q0 -115 -54.5 -169.5t-169.5 -54.5h-120q-115 0 -169.5 54.5zM424 84q55 0 84.5 13t42.5 42.5t13 84.5v230q0 54 -13 84t-43 43t-84 13h-120q-54 1 -84 -12
t-43 -43t-13 -84v-231q0 -55 13 -84.5t42.5 -42.5t84.5 -13h120zM315.5 773q-12.5 13 -12.5 35v30q0 23 12.5 34.5t35.5 11.5h29q45 0 45 -46v-30q0 -23 -11.5 -35.5t-33.5 -12.5h-29q-23 0 -35.5 13zM190 936q0 42 42 42h253q42 0 42 -42t-42 -42h-253q-42 0 -42 42z" />
    <glyph glyph-name="uni0231" unicode="&#x231;" 
d="M128 48q-48 48 -48 147v116q0 100 48 148t148 48h82q100 0 148 -48t48 -148v-115q0 -100 -48 -148t-148 -48h-82q-100 0 -148 48zM358 84q44 0 68 10t34 34t10 68v115q0 44 -10 68t-34 34t-68 10h-82q-45 0 -68.5 -10t-33.5 -33.5t-10 -68.5v-116q0 -44 10 -67.5
t34 -33.5t68 -10h82zM268.5 602q-12.5 13 -12.5 35v30q0 23 12.5 34.5t35.5 11.5h29q45 0 45 -46v-30q0 -23 -11.5 -35.5t-33.5 -12.5h-29q-23 0 -35.5 13zM143 765q0 42 42 42h253q42 0 42 -42t-42 -42h-253q-42 0 -42 42z" />
    <glyph glyph-name="uni0232" unicode="&#x232;" horiz-adv-x="615" 
d="M592 635q0 -12 -9 -24l-238 -365v-204q0 -20 -11 -31t-31 -11t-31 11t-11 31v204l-229 365q-8 14 -8 25q0 21 21 34q14 8 25 8q19 0 33 -21l200 -321l210 321q12 20 32 20q12 0 25 -9q22 -14 22 -33zM133 804q0 42 42 42h253q42 0 42 -42t-42 -42h-253q-42 0 -42 42z" />
    <glyph glyph-name="uni0233" unicode="&#x233;" horiz-adv-x="680" 
d="M94 -55q0 42 42 42t42 -42q0 -38 11.5 -49.5t48.5 -11.5h194q37 0 48.5 12t11.5 49v127q-28 -42 -65.5 -57t-90.5 -15h-49q-99 0 -146 47t-47 145v273q0 42 42 42t42 -42v-273q0 -43 9.5 -66t33 -32.5t66.5 -9.5h49q81 0 118.5 26.5t37.5 81.5v273q0 42 42 42t42 -42
v-520q0 -145 -144 -145h-194q-144 0 -144 145zM161 633q0 42 42 42h253q42 0 42 -42t-42 -42h-253q-42 0 -42 42z" />
    <glyph glyph-name="uni0237" unicode="&#x237;" horiz-adv-x="292" 
d="M36 -116q41 0 54.5 13.5t13.5 54.5v513q0 20 11 31t31 11t31 -11t11 -31v-513q0 -77 -37.5 -114.5t-114.5 -37.5q-41 0 -41 42t41 42z" />
    <glyph glyph-name="uni0259" unicode="&#x259;" 
d="M506 459q48 -48 48 -147v-116q0 -101 -48 -149t-148 -47h-82q-100 0 -148 48t-48 148v50q0 20 11 31t31 11h348v24q0 44 -10 67.5t-34 33.5t-68 10h-82q-51 0 -75.5 -9.5t-32.5 -33.5q-6 -20 -16 -29.5t-29 -9.5t-29.5 8.5t-10.5 24.5q0 7 1 10q22 123 192 123h82
q100 0 148 -48zM470 204h-306v-8q0 -44 10 -68t34 -34t68 -10h82q44 -1 68 9t34 34t10 69v8z" />
    <glyph glyph-name="uni02BC" unicode="&#x2bc;" horiz-adv-x="223" 
d="M136 586q0 -6 -2 -16l-52 -136q-3 -9 -12 -14.5t-20 -5.5q-14 0 -25.5 8.5t-11.5 22.5q0 8 3 15l35 92q-17 9 -17 34v25q0 19 10.5 29t29.5 10h24q38 0 38 -39v-25z" />
    <glyph glyph-name="circumflex" unicode="&#x2c6;" horiz-adv-x="360" 
d="M60.5 542.5q-10.5 10.5 -10.5 24.5t10 24l73 73q18 19 44 19h6q26 0 44 -19l73 -73q10 -10 10 -24t-10.5 -24.5t-24.5 -10.5q-16 0 -25 10l-64 71h-12l-64 -71q-10 -10 -25 -10q-14 0 -24.5 10.5z" />
    <glyph glyph-name="caron" unicode="&#x2c7;" horiz-adv-x="360" 
d="M110 659l64 -71h12l64 71q9 10 25 10q14 0 24.5 -10.5t10.5 -24.5t-10 -24l-73 -73q-18 -19 -44 -19h-6q-26 0 -44 19l-73 73q-10 10 -10 24t10.5 24.5t24.5 10.5q15 0 25 -10z" />
    <glyph glyph-name="uni02C9" unicode="&#x2c9;" horiz-adv-x="437" 
d="M50 605q0 42 42 42h253q42 0 42 -42t-42 -42h-253q-42 0 -42 42z" />
    <glyph glyph-name="breve" unicode="&#x2d8;" horiz-adv-x="375" 
d="M85.5 537q-35.5 25 -35.5 71v21q0 18 9.5 27.5t26.5 9.5q37 0 37 -37v-21q0 -16 14.5 -22t56.5 -6q33 0 45.5 6.5t12.5 21.5v33q0 12 9.5 18.5t26.5 6.5q37 0 37 -37v-21q0 -46 -36 -71t-102 -25t-101.5 25z" />
    <glyph glyph-name="dotaccent" unicode="&#x2d9;" horiz-adv-x="222" 
d="M53 566q-13 13 -13 35v30q0 23 12.5 34.5t35.5 11.5h29q45 0 45 -46v-30q0 -23 -11.5 -35.5t-33.5 -12.5h-29q-22 0 -35 13z" />
    <glyph glyph-name="ring" unicode="&#x2da;" horiz-adv-x="255" 
d="M71 535.5q-21 20.5 -21 56.5t21 56.5t56 20.5q36 0 57 -20.5t21 -56.5t-21 -56.5t-57 -20.5q-35 0 -56 20.5zM142.5 573.5q4.5 1.5 4.5 8.5v16q0 10 -1.5 12t-9.5 2h-7q-16 0 -19 -2t-3 -11v-7q0 -14 2 -17t10 -3q19 0 23.5 1.5z" />
    <glyph glyph-name="ogonek" unicode="&#x2db;" horiz-adv-x="283" 
d="M79.5 -197q-29.5 27 -29.5 67q0 35 25 68l78 103q15 16 27 16q13 0 27 -11t14 -25q0 -13 -10 -24l-77 -102q-11 -13 -11 -25q0 -9 8.5 -15t21.5 -6q7 0 16 2.5t13 1.5q10 2 13 2q20 0 29 -11t9 -28q0 -15 -17 -25q-32 -15 -63 -15q-44 0 -73.5 27z" />
    <glyph glyph-name="tilde" unicode="&#x2dc;" horiz-adv-x="424" 
d="M230.5 544q-17.5 11 -36.5 30q-13 14 -20.5 18t-16.5 4q-26 0 -39 -31q-11 -26 -30 -26q-7 0 -16 3q-22 8 -22 25q0 9 4 17q17 41 41.5 60t61.5 19q29 0 47.5 -11.5t37.5 -30.5q13 -13 19 -16.5t16 -3.5t16.5 5t12.5 20q11 28 31 28q3 0 13 -2q24 -6 24 -26q0 -6 -3 -15
q-14 -40 -37 -59t-57 -19q-29 0 -46.5 11z" />
    <glyph glyph-name="hungarumlaut" unicode="&#x2dd;" horiz-adv-x="409" 
d="M51 549q0 14 10 25l73 88q11 14 26 14q14 0 25 -10q14 -11 14 -26q0 -14 -10 -25l-73 -88q-11 -14 -26 -14q-12 0 -25 10q-14 11 -14 26zM210 549q0 14 10 25l73 88q11 14 26 14q14 0 25 -10q14 -11 14 -26q0 -14 -10 -25l-73 -88q-11 -14 -26 -14q-12 0 -25 10
q-14 11 -14 26z" />
    <glyph glyph-name="gravecomb" unicode="&#x300;" horiz-adv-x="0" 
d="M-90 541q-15 0 -26 14l-73 88q-10 11 -10 25q0 15 14 26q11 10 25 10q15 0 26 -14l73 -88q10 -11 10 -25q0 -15 -14 -26q-13 -10 -25 -10z" />
    <glyph glyph-name="acutecomb" unicode="&#x301;" horiz-adv-x="0" 
d="M-199 595q0 14 10 25l73 88q11 14 26 14q14 0 25 -10q14 -11 14 -26q0 -14 -10 -25l-73 -88q-11 -14 -26 -14q-12 0 -25 10q-14 11 -14 26z" />
    <glyph glyph-name="uni0302" unicode="&#x302;" horiz-adv-x="0" 
d="M-299.5 570.5q-10.5 10.5 -10.5 24.5t10 24l73 73q18 19 44 19h6q26 0 44 -19l73 -73q10 -10 10 -24t-10.5 -24.5t-24.5 -10.5q-16 0 -25 10l-64 71h-12l-64 -71q-10 -10 -25 -10q-14 0 -24.5 10.5z" />
    <glyph glyph-name="tildecomb" unicode="&#x303;" horiz-adv-x="0" 
d="M-193.5 574q-17.5 11 -36.5 30q-13 14 -20.5 18t-16.5 4q-26 0 -39 -31q-11 -26 -30 -26q-7 0 -16 3q-22 8 -22 25q0 9 4 17q17 41 41.5 60t61.5 19q29 0 47.5 -11.5t37.5 -30.5q13 -13 19 -16.5t16 -3.5t16.5 5t12.5 20q11 28 31 28q3 0 13 -2q24 -6 24 -26q0 -6 -3 -15
q-14 -40 -37 -59t-57 -19q-29 0 -46.5 11z" />
    <glyph glyph-name="uni0304" unicode="&#x304;" horiz-adv-x="0" 
d="M-387 633q0 42 42 42h253q42 0 42 -42t-42 -42h-253q-42 0 -42 42z" />
    <glyph glyph-name="uni0306" unicode="&#x306;" horiz-adv-x="0" 
d="M-289.5 579q-35.5 25 -35.5 71v21q0 18 9.5 27.5t26.5 9.5q37 0 37 -37v-21q0 -16 14.5 -22t56.5 -6q33 0 45.5 6.5t12.5 21.5v33q0 12 9.5 18.5t26.5 6.5q37 0 37 -37v-21q0 -46 -36 -71t-102 -25t-101.5 25z" />
    <glyph glyph-name="uni0307" unicode="&#x307;" horiz-adv-x="0" 
d="M-169.5 602q-12.5 13 -12.5 35v30q0 23 12.5 34.5t35.5 11.5h29q45 0 45 -46v-30q0 -23 -11.5 -35.5t-33.5 -12.5h-29q-23 0 -35.5 13z" />
    <glyph glyph-name="uni0308" unicode="&#x308;" horiz-adv-x="0" 
d="M-316.5 591.5q-10.5 10.5 -10.5 29.5v25q0 19 10.5 29t29.5 10h24q38 0 38 -39v-25q0 -19 -9.5 -29.5t-28.5 -10.5h-24q-19 0 -29.5 10.5zM-149.5 591.5q-10.5 10.5 -10.5 29.5v25q0 19 10.5 29t29.5 10h24q38 0 38 -39v-25q0 -19 -9.5 -29.5t-28.5 -10.5h-24
q-19 0 -29.5 10.5z" />
    <glyph glyph-name="hookabovecomb" unicode="&#x309;" horiz-adv-x="0" 
d="M-167 565.5q-6 5.5 -6 21.5q0 28 13.5 43.5t34.5 28.5q13 8 16 11t3 9q0 22 -6.5 28.5t-27.5 6.5t-27.5 -6.5t-6.5 -28.5q0 -16 -6 -22t-22 -6t-22 6t-6 22q0 90 90 90t90 -90q0 -27 -13 -42t-33 -27q-14 -8 -17.5 -12t-3.5 -11q0 -16 -6 -21.5t-22 -5.5t-22 5.5z" />
    <glyph glyph-name="uni030A" unicode="&#x30a;" horiz-adv-x="0" 
d="M-184 578.5q-21 20.5 -21 56.5t21 56.5t56 20.5q36 0 57 -20.5t21 -56.5t-21 -56.5t-57 -20.5q-35 0 -56 20.5zM-112.5 616.5q4.5 1.5 4.5 8.5v16q0 10 -1.5 12t-9.5 2h-7q-16 0 -19 -2t-3 -11v-7q0 -14 2 -17t10 -3q19 0 23.5 1.5z" />
    <glyph glyph-name="uni030B" unicode="&#x30b;" horiz-adv-x="0" 
d="M-357 595q0 14 10 25l73 88q11 14 26 14q14 0 25 -10q14 -11 14 -26q0 -14 -10 -25l-73 -88q-11 -14 -26 -14q-12 0 -25 10q-14 11 -14 26zM-198 595q0 14 10 25l73 88q11 14 26 14q14 0 25 -10q14 -11 14 -26q0 -14 -10 -25l-73 -88q-11 -14 -26 -14q-12 0 -25 10
q-14 11 -14 26z" />
    <glyph glyph-name="uni030C" unicode="&#x30c;" horiz-adv-x="0" 
d="M-250 701l64 -71h12l64 71q9 10 25 10q14 0 24.5 -10.5t10.5 -24.5t-10 -24l-73 -73q-18 -19 -44 -19h-6q-26 0 -44 19l-73 73q-10 10 -10 24t10.5 24.5t24.5 10.5q15 0 25 -10z" />
    <glyph glyph-name="uni030F" unicode="&#x30f;" horiz-adv-x="0" 
d="M-201 579q-13 0 -23 13l-65 80q-10 10 -10 23t13 23q10 9 22 9q14 0 24 -13l66 -79q9 -10 9 -22q0 -14 -13 -24q-11 -10 -23 -10zM-85 579q-13 0 -23 13l-65 80q-10 10 -10 23t13 23q11 9 22 9q14 0 24 -13l66 -79q9 -10 9 -22q0 -14 -13 -24q-11 -10 -23 -10z" />
    <glyph glyph-name="uni0311" unicode="&#x311;" horiz-adv-x="0" 
d="M-86 726q36 -25 36 -71v-21q0 -37 -37 -37q-17 0 -26.5 6.5t-9.5 18.5v33q0 15 -12.5 21.5t-45.5 6.5q-42 0 -56.5 -6t-14.5 -22v-21q0 -37 -37 -37q-17 0 -26.5 9.5t-9.5 27.5v21q0 46 35.5 71t101.5 25t102 -25z" />
    <glyph glyph-name="uni0312" unicode="&#x312;" horiz-adv-x="0" 
d="M-77.5 763.5q8.5 -6.5 6.5 -20.5l-22 -120q0 -14 -8.5 -21.5t-23.5 -7.5h-19q-31 0 -31 30v19q0 6 2 14l47 96q10 17 27 17q13 0 21.5 -6.5z" />
    <glyph glyph-name="uni031B" unicode="&#x31b;" horiz-adv-x="0" 
d="M-179 507q30 0 40.5 6.5t10.5 25.5v26q0 26 39 26q19 0 29 -10t10 -29v-13q0 -52 -37.5 -72.5t-91.5 -20.5v61z" />
    <glyph glyph-name="dotbelowcomb" unicode="&#x323;" horiz-adv-x="0" 
d="M-149.5 -146.5q-10.5 10.5 -10.5 29.5v25q0 19 10.5 29t29.5 10h24q38 0 38 -39v-25q0 -19 -9.5 -29.5t-28.5 -10.5h-24q-19 0 -29.5 10.5z" />
    <glyph glyph-name="uni0324" unicode="&#x324;" horiz-adv-x="0" 
d="M-316.5 -135.5q-10.5 10.5 -10.5 29.5v25q0 19 10.5 29t29.5 10h24q38 0 38 -39v-25q0 -19 -9.5 -29.5t-28.5 -10.5h-24q-19 0 -29.5 10.5zM-149.5 -135.5q-10.5 10.5 -10.5 29.5v25q0 19 10.5 29t29.5 10h24q38 0 38 -39v-25q0 -19 -9.5 -29.5t-28.5 -10.5h-24
q-19 0 -29.5 10.5z" />
    <glyph glyph-name="uni0326" unicode="&#x326;" horiz-adv-x="0" 
d="M-29 -101q0 -6 -2 -14l-47 -96q-10 -17 -27 -17q-13 0 -21.5 6.5t-6.5 20.5l22 120q0 14 8.5 21.5t23.5 7.5h19q31 0 31 -30v-19z" />
    <glyph glyph-name="uni0327" unicode="&#x327;" horiz-adv-x="0" 
d="M-239 -189q-25 25 -25 72q0 35 35 35t35 -35q0 -18 4.5 -22.5t22.5 -4.5q29 0 38 8.5t9 38.5q0 7 -3.5 11.5t-16.5 13.5q-53 32 -53 87q0 35 35 35t35 -35q0 -9 3.5 -14.5t18.5 -15.5q22 -15 36.5 -33t14.5 -49q0 -117 -117 -117q-47 0 -72 25z" />
    <glyph glyph-name="uni0328" unicode="&#x328;" horiz-adv-x="0" 
d="M-203.5 -197q-29.5 27 -29.5 67q0 35 25 68l78 103q15 16 27 16q13 0 27 -11t14 -25q0 -13 -10 -24l-77 -102q-11 -13 -11 -25q0 -9 8.5 -15t21.5 -6q7 0 16 2.5t13 1.5q10 2 13 2q20 0 29 -11t9 -28q0 -15 -17 -25q-32 -15 -63 -15q-44 0 -73.5 27z" />
    <glyph glyph-name="uni032E" unicode="&#x32e;" horiz-adv-x="0" 
d="M-289.5 -202q-35.5 25 -35.5 71v21q0 18 9.5 27.5t26.5 9.5q37 0 37 -37v-21q0 -16 14.5 -22t56.5 -6q33 0 45.5 6.5t12.5 21.5v33q0 12 9.5 18.5t26.5 6.5q37 0 37 -37v-21q0 -46 -36 -71t-102 -25t-101.5 25z" />
    <glyph glyph-name="uni0331" unicode="&#x331;" horiz-adv-x="0" 
d="M-387 -107q0 42 42 42h253q42 0 42 -42t-42 -42h-253q-42 0 -42 42z" />
    <glyph glyph-name="uni0335" unicode="&#x335;" horiz-adv-x="0" 
d="M-373 244.5q-9 9.5 -9 25.5q0 17 9 26t26 9h262q17 0 26 -9t9 -26t-9 -26t-26 -9h-262q-17 0 -26 9.5z" />
    <glyph glyph-name="uni0336" unicode="&#x336;" horiz-adv-x="0" 
d="M-754.5 243q-8.5 9 -8.5 25t8.5 24.5t24.5 8.5h646q16 0 25 -8.5t9 -24.5q0 -34 -34 -34h-646q-16 0 -24.5 9z" />
    <glyph glyph-name="uni0337" unicode="&#x337;" horiz-adv-x="0" 
d="M-317 205q-17 0 -30 18q-9 14 -9 25q0 17 17 31l225 170q13 10 25 10q15 0 29 -18q10 -13 10 -26q0 -15 -17 -30l-225 -170q-15 -10 -25 -10z" />
    <glyph glyph-name="uni0338" unicode="&#x338;" horiz-adv-x="0" 
d="M-537 -44q0 11 7 22l405 662q13 21 31 21q10 0 23 -8q20 -14 20 -30q0 -10 -8 -24l-403 -662q-13 -21 -31 -21q-10 0 -23 8q-21 13 -21 32z" />
    <glyph glyph-name="uni037A" unicode="&#x37a;" horiz-adv-x="286" 
d="M128.5 -171.5q-26.5 13.5 -38 44.5t-11.5 87v29q0 36 42 36t42 -36v-47q0 -27 7.5 -35t31.5 -8q51 0 51 -42t-51 -42q-47 0 -73.5 13.5z" />
    <glyph glyph-name="uni037E" unicode="&#x37e;" horiz-adv-x="271" 
d="M180 393.5q-21 -17.5 -47 -17.5t-46 17t-20 40q0 22 20.5 39.5t46.5 17.5t46.5 -17.5t20.5 -39.5t-21 -39.5zM151 -16q-15 -34 -39 -34q-19 0 -28.5 10.5t-9.5 30.5v1l3 18v1l24 87q11 35 41 35q23 0 40 -11t17 -27t-8 -29z" />
    <glyph glyph-name="tonos" unicode="&#x384;" horiz-adv-x="265" 
d="M189 685q12 -12 12 -29q0 -14 -3 -26l-49 -135q-12 -34 -43 -34q-17 0 -29.5 11t-12.5 26t4 26l49 136q16 37 44 37q16 0 28 -12z" />
    <glyph glyph-name="dieresistonos" unicode="&#x385;" horiz-adv-x="403" 
d="M267 815q12 -12 12 -29q0 -14 -3 -26l-49 -135q-12 -34 -43 -34q-17 0 -29.5 11t-12.5 27q0 13 4 25l49 136q16 37 44 37q16 0 28 -12zM135 506.5q-21 -17.5 -47 -17.5t-46 17t-20 40q0 22 20.5 39.5t46.5 17.5t46.5 -17.5t20.5 -39.5t-21 -39.5zM305 506.5
q-21 -17.5 -47 -17.5t-46 17t-20 40q0 22 20.5 39.5t46.5 17.5t46.5 -17.5t20.5 -39.5t-21 -39.5z" />
    <glyph glyph-name="Alphatonos" unicode="&#x386;" horiz-adv-x="616" 
d="M225 787q12 -12 12 -29q0 -14 -3 -26l-49 -135q-12 -34 -43 -34q-17 0 -29.5 11t-12.5 26t4 26l49 136q16 37 44 37q16 0 28 -12zM356 642l239 -603q3 -10 3 -25q0 -14 -12.5 -25t-29.5 -11q-31 0 -43 32l-67 173h-270l-67 -173q-14 -32 -43 -32q-17 0 -29.5 11t-12.5 25
q0 15 3 25l239 603h90zM310 516l-100 -249h202z" />
    <glyph glyph-name="anoteleia" unicode="&#x387;" horiz-adv-x="252" 
d="M172 347.5q-21 -17.5 -47 -17.5t-46 17t-20 40q0 22 20.5 39.5t46.5 17.5t46.5 -17.5t20.5 -39.5t-21 -39.5z" />
    <glyph glyph-name="Epsilontonos" unicode="&#x388;" horiz-adv-x="677" 
d="M131 787q12 -12 12 -29q0 -14 -3 -26l-49 -135q-12 -34 -43 -34q-17 0 -29.5 11t-12.5 26t4 26l49 136q16 37 44 37q16 0 28 -12zM203 316v-238h382q24 0 37 -11t13 -33q0 -19 -13 -29.5t-37 -10.5h-426q-19 0 -29.5 13t-10.5 37v548q0 24 10.5 37t29.5 13h426
q24 0 37 -11t13 -33q0 -19 -13 -29.5t-37 -10.5h-382v-158h259q27 0 41.5 -11t14.5 -33q0 -40 -56 -40h-259z" />
    <glyph glyph-name="Etatonos" unicode="&#x389;" horiz-adv-x="716" 
d="M130 787q12 -12 12 -29q0 -14 -3 -26l-49 -135q-12 -34 -43 -34q-17 0 -29.5 11t-12.5 26t4 26l49 136q16 37 44 37q16 0 28 -12zM206 35q0 -48 -42 -48t-42 48v565q0 49 40 49q44 0 44 -49v-215h348v215q0 49 42 49t42 -49v-565q0 -48 -42 -48t-42 48v266h-348v-266z
" />
    <glyph glyph-name="Iotatonos" unicode="&#x38a;" horiz-adv-x="287" 
d="M129 787q12 -12 12 -29q0 -14 -3 -26l-49 -135q-12 -34 -43 -34q-17 0 -29.5 11t-12.5 26t4 26l49 136q16 37 44 37q16 0 28 -12zM209 33q0 -46 -42 -46t-42 46v569q0 47 42 47t42 -47v-569z" />
    <glyph glyph-name="Omicrontonos" unicode="&#x38c;" horiz-adv-x="661" 
d="M143 787q12 -12 12 -29q0 -14 -3 -26l-49 -135q-12 -34 -43 -34q-17 0 -29.5 11t-12.5 26t4 26l49 136q16 37 44 37q16 0 28 -12zM603 230q0 -74 -31.5 -129.5t-90 -85.5t-136.5 -30t-136.5 30t-90 85.5t-31.5 129.5v176q0 74 31.5 129.5t90 85.5t136.5 30t136.5 -30
t90 -85.5t31.5 -129.5v-176zM345 567q-85 0 -129.5 -42t-44.5 -122v-170q0 -80 44.5 -122t129.5 -42t129.5 42t44.5 122v170q0 77 -43 122q-45 42 -131 42z" />
    <glyph glyph-name="Upsilontonos" unicode="&#x38e;" horiz-adv-x="674" 
d="M139 787q12 -12 12 -29q0 -14 -3 -26l-49 -135q-12 -34 -43 -34q-17 0 -29.5 11t-12.5 26t4 26l49 136q16 37 44 37q16 0 28 -12zM348 304l-214 275v1q-11 17 -11 32t13 26t30 11q18 0 36 -24l190 -250l189 250q21 24 37 24q17 0 30 -11t13 -26t-11 -32v-1l-213 -275
v-272q0 -45 -44 -45q-21 0 -32.5 11.5t-12.5 33.5v272z" />
    <glyph glyph-name="Omegatonos" unicode="&#x38f;" horiz-adv-x="652" 
d="M162 787q12 -12 12 -29q0 -14 -3 -26l-49 -135q-12 -34 -43 -34q-17 0 -29.5 11t-12.5 26t4 26l49 136q16 37 44 37q16 0 28 -12zM369 162q98 18 127 84q14 34 14 78v79q0 79 -45 121.5t-129 42.5t-129 -42.5t-45 -121.5v-79q0 -34 9.5 -64t25.5 -47q16 -18 41 -30.5
t65 -21.5v-56q0 -50 -8.5 -72.5t-32 -30.5t-76.5 -8h-57q-51 0 -51 42t51 42h57q11 0 17 0.5t7 3.5t1 12v14q-64 29 -98.5 86.5t-34.5 133.5v78q0 74 31.5 129.5t90 85.5t136.5 30t136.5 -30t90 -85.5t31.5 -129.5v-78q0 -76 -34.5 -133.5t-98.5 -86.5v-19v-4q0 -5 2.5 -6
t10 -1h10.5h59q51 0 51 -42t-51 -42h-57q-54 0 -77.5 7.5t-31.5 30t-8 73.5v57z" />
    <glyph glyph-name="iotadieresistonos" unicode="&#x390;" horiz-adv-x="250" 
d="M201 815q12 -12 12 -29q0 -14 -3 -26l-49 -135q-12 -34 -43 -34q-17 0 -29.5 11t-12.5 27q0 13 4 25l49 136q16 37 44 37q16 0 28 -12zM69 506.5q-21 -17.5 -47 -17.5t-46 17t-20 40q0 22 20.5 39.5t46.5 17.5t46.5 -17.5t20.5 -39.5t-21 -39.5zM239 506.5
q-21 -17.5 -47 -17.5t-46 17t-20 40q0 22 20.5 39.5t46.5 17.5t46.5 -17.5t20.5 -39.5t-21 -39.5zM180 -6q-64 0 -90 30.5t-26 105.5v296q0 48 42 48t42 -48v-308q0 -25 7.5 -32.5t31.5 -7.5q51 0 51 -42t-51 -42h-7z" />
    <glyph glyph-name="Alpha" unicode="&#x391;" horiz-adv-x="610" 
d="M350 642l239 -603q3 -10 3 -25q0 -14 -12.5 -25t-29.5 -11q-31 0 -43 32l-67 173h-270l-67 -173q-14 -32 -43 -32q-17 0 -29.5 11t-12.5 25q0 15 3 25l239 603h90zM304 516l-100 -249h202z" />
    <glyph glyph-name="Beta" unicode="&#x392;" horiz-adv-x="644" 
d="M78 592q0 24 10.5 37t29.5 13h188q89 0 142.5 -17t78.5 -53.5t25 -96.5q0 -69 -36 -107q78 -45 78 -165v-19q0 -72 -25 -113t-80.5 -59t-152.5 -18h-218q-19 0 -29.5 13t-10.5 37v548zM306 390q67 0 101 7t47.5 24t13.5 51t-13.5 50.5t-47.5 23.5t-101 7h-144v-163h144z
M162 306v-228h174q77 0 112.5 8t48.5 29.5t13 68.5v16q0 47 -12 68.5t-44 29.5t-100 8h-192z" />
    <glyph glyph-name="Gamma" unicode="&#x393;" horiz-adv-x="595" 
d="M199 558q-24 0 -31.5 -8t-7.5 -33v-482q0 -48 -42 -48t-42 48v468q0 76 26 107.5t90 31.5h335q51 0 51 -42t-51 -42h-328z" />
    <glyph glyph-name="uni0394" unicode="&#x394;" horiz-adv-x="592" 
d="M62 -6q-17 0 -30 11t-13 26q0 13 3 23l227 563q12 33 47 33t47 -33l227 -563q3 -10 3 -23q0 -15 -13 -26t-30 -11h-468zM121 79h350l-175 441z" />
    <glyph glyph-name="Epsilon" unicode="&#x395;" horiz-adv-x="636" 
d="M162 316v-238h382q24 0 37 -11t13 -33q0 -19 -13 -29.5t-37 -10.5h-426q-19 0 -29.5 13t-10.5 37v548q0 24 10.5 37t29.5 13h426q24 0 37 -11t13 -33q0 -19 -13 -29.5t-37 -10.5h-382v-158h259q27 0 41.5 -11t14.5 -33q0 -40 -56 -40h-259z" />
    <glyph glyph-name="Zeta" unicode="&#x396;" horiz-adv-x="602" 
d="M44 -6v72l404 492h-353q-52 0 -52 42t52 42h464v-75l-402 -489h351q51 0 51 -42t-51 -42h-464z" />
    <glyph glyph-name="Eta" unicode="&#x397;" horiz-adv-x="672" 
d="M162 35q0 -48 -42 -48t-42 48v565q0 49 40 49q44 0 44 -49v-215h348v215q0 49 42 49t42 -49v-565q0 -48 -42 -48t-42 48v266h-348v-266z" />
    <glyph glyph-name="Theta" unicode="&#x398;" horiz-adv-x="632" 
d="M574 230q0 -74 -31.5 -129.5t-90 -85.5t-136.5 -30t-136.5 30t-90 85.5t-31.5 129.5v176q0 74 31.5 129.5t90 85.5t136.5 30t136.5 -30t90 -85.5t31.5 -129.5v-176zM316 567q-85 0 -129.5 -42t-44.5 -122v-170q0 -80 44.5 -122t129.5 -42t129.5 42t44.5 122v170
q0 77 -43 122q-45 42 -131 42zM220 275q-22 0 -36 12t-14 31q0 42 50 42h189q23 0 38 -11.5t15 -30.5t-15 -31t-38 -12h-189z" />
    <glyph glyph-name="Iota" unicode="&#x399;" horiz-adv-x="240" 
d="M162 33q0 -46 -42 -46t-42 46v569q0 47 42 47t42 -47v-569z" />
    <glyph glyph-name="Kappa" unicode="&#x39a;" horiz-adv-x="560" 
d="M545 59q15 -16 15 -32t-13.5 -28t-30.5 -12q-19 0 -35 21l-282 299l-37 -45v-227q0 -48 -42 -48t-42 46v569q0 47 42 47q19 0 30.5 -13t11.5 -36v-239l252 267q19 21 37 21q17 0 29.5 -11.5t12.5 -27.5q0 -17 -14 -33l-220 -223z" />
    <glyph glyph-name="Lambda" unicode="&#x39b;" horiz-adv-x="608" 
d="M20 30l243 612h82l243 -612q3 -10 3 -26q0 -26 -42 -26q-14 0 -26.5 7t-16.5 17l-203 509l-201 -509q-9 -24 -46 -24t-39 26q0 16 3 26z" />
    <glyph glyph-name="Mu" unicode="&#x39c;" horiz-adv-x="693" 
d="M379 287q-14 -14 -32 -14q-19 0 -33 14l-152 217v-466q0 -51 -42 -51t-42 48v565q0 49 40 49q25 0 43 -26l185 -259l186 260q19 25 42 25q41 0 41 -49v-565q0 -48 -42 -48t-42 51v466z" />
    <glyph glyph-name="Nu" unicode="&#x39d;" horiz-adv-x="672" 
d="M520 -3l-358 501v-466q0 -45 -42 -45t-42 48v565q0 49 40 49q25 0 43 -26l349 -486v460q0 52 42 52t42 -49v-565q0 -48 -41 -48q-27 0 -33 10z" />
    <glyph glyph-name="Xi" unicode="&#x39e;" horiz-adv-x="641" 
d="M89 569q-47 0 -47 42q0 19 13 30.5t34 11.5h460q23 0 36.5 -11.5t13.5 -31.5q0 -19 -13.5 -30t-36.5 -11h-460zM209 275q-22 0 -36 12t-14 31q0 20 13 30.5t37 10.5h219q23 0 38 -11t15 -30t-15 -31t-38 -12h-219zM89 -6q-47 0 -47 42q0 19 13 30.5t34 11.5h460
q23 0 36.5 -12t13.5 -32q0 -19 -13 -29.5t-37 -10.5h-460z" />
    <glyph glyph-name="Omicron" unicode="&#x39f;" horiz-adv-x="632" 
d="M574 230q0 -74 -31.5 -129.5t-90 -85.5t-136.5 -30t-136.5 30t-90 85.5t-31.5 129.5v176q0 74 31.5 129.5t90 85.5t136.5 30t136.5 -30t90 -85.5t31.5 -129.5v-176zM316 567q-85 0 -129.5 -42t-44.5 -122v-170q0 -80 44.5 -122t129.5 -42t129.5 42t44.5 122v170
q0 77 -43 122q-45 42 -131 42z" />
    <glyph glyph-name="Pi" unicode="&#x3a0;" horiz-adv-x="664" 
d="M79 642h506v-607q0 -48 -42 -48t-42 48v523h-338v-523q0 -48 -42 -48t-42 48v607z" />
    <glyph glyph-name="Rho" unicode="&#x3a1;" horiz-adv-x="580" 
d="M162 33q0 -46 -42 -46t-42 46v564q0 24 10.5 37t29.5 13h191q128 0 185.5 -37.5t57.5 -120.5q0 -85 -50 -129t-145 -44h-195v-283zM309 400q101 0 130 17q29 15 29 65q0 34 -13 51t-46 23.5t-100 6.5h-147v-163h147z" />
    <glyph glyph-name="Sigma" unicode="&#x3a3;" horiz-adv-x="619" 
d="M73 653h460q23 0 36.5 -12t13.5 -31t-13.5 -30t-36.5 -11h-372l212 -214q3 -1 5 -5q12 -10 12 -26q0 -13 -15 -33h-1l-213 -213h372q23 0 36.5 -12t13.5 -31t-13.5 -30t-36.5 -11h-466q-17 0 -29 11.5t-12 27.5t14 33l243 257l-243 257q-14 14 -14 33q0 40 47 40z" />
    <glyph glyph-name="Tau" unicode="&#x3a4;" horiz-adv-x="520" 
d="M450 642q49 0 49 -42t-49 -42h-142v-525q0 -20 -13.5 -33t-35.5 -13t-34 12t-12 34v525h-144q-23 0 -36 11.5t-13 30.5t13 30.5t36 11.5h381z" />
    <glyph glyph-name="Upsilon" unicode="&#x3a5;" horiz-adv-x="563" 
d="M237 304l-214 275v1q-11 17 -11 32t13 26t30 11q18 0 36 -24l190 -250l189 250q21 24 37 24q17 0 30 -11t13 -26t-11 -32v-1l-213 -275v-272q0 -45 -44 -45q-21 0 -32.5 11.5t-12.5 33.5v272z" />
    <glyph glyph-name="Phi" unicode="&#x3a6;" horiz-adv-x="588" 
d="M342 33q0 -46 -47 -46q-19 0 -31.5 13t-12.5 33v36q-101 13 -158 77.5t-57 165.5v12q0 101 57 165.5t158 77.5v37q0 45 46 45q45 0 45 -47v-35q98 -13 154 -78t56 -165v-12q0 -100 -56 -165t-154 -78v-36zM120 312q0 -148 131 -169v350q-64 -10 -97.5 -53t-33.5 -116v-12
zM468 324q0 70 -32.5 113.5t-93.5 54.5v-348q61 11 93.5 54t32.5 114v12z" />
    <glyph glyph-name="Chi" unicode="&#x3a7;" horiz-adv-x="605" 
d="M561 57q11 -14 11 -31t-12.5 -28t-31.5 -11q-16 0 -36 22l-190 251l-189 -251q-17 -22 -36 -22t-31.5 11t-12.5 28q0 15 11 31l202 260l-202 261q-11 14 -11 33q0 16 12 27.5t29 11.5h2q22 0 37 -26v1l189 -250l190 250q18 24 36 24q19 0 31.5 -11t12.5 -27
q0 -18 -11 -33l-202 -261z" />
    <glyph glyph-name="Psi" unicode="&#x3a8;" horiz-adv-x="600" 
d="M474 600q0 22 11.5 35.5t31.5 13.5t30.5 -12t10.5 -35v-149q0 -99 -57 -164.5t-157 -78.5v-177q0 -46 -43 -46t-43 46v177q-101 13 -158.5 78t-57.5 165v149q0 47 42 47q19 0 30.5 -13t11.5 -36v-146q0 -71 32.5 -110t99.5 -49v305q0 49 43 49t43 -49v-304
q130 19 130 158v146z" />
    <glyph glyph-name="uni03A9" unicode="&#x3a9;" horiz-adv-x="632" 
d="M349 162q98 18 127 84q14 34 14 78v79q0 79 -45 121.5t-129 42.5t-129 -42.5t-45 -121.5v-79q0 -34 9.5 -64t25.5 -47q16 -18 41 -30.5t65 -21.5v-56q0 -50 -8.5 -72.5t-32 -30.5t-76.5 -8h-57q-51 0 -51 42t51 42h57q11 0 17 0.5t7 3.5t1 12v14q-64 29 -98.5 86.5
t-34.5 133.5v78q0 74 31.5 129.5t90 85.5t136.5 30t136.5 -30t90 -85.5t31.5 -129.5v-78q0 -76 -34.5 -133.5t-98.5 -86.5v-19v-4q0 -5 2.5 -6t10 -1h10.5h59q51 0 51 -42t-51 -42h-57q-54 0 -77.5 7.5t-31.5 30t-8 73.5v57z" />
    <glyph glyph-name="Iotadieresis" unicode="&#x3aa;" horiz-adv-x="240" 
d="M81 717.5q-21 -17.5 -47 -17.5t-46 17t-20 40q0 22 20.5 39.5t46.5 17.5t46.5 -17.5t20.5 -39.5t-21 -39.5zM251 717.5q-21 -17.5 -47 -17.5t-46 17t-20 40q0 22 20.5 39.5t46.5 17.5t46.5 -17.5t20.5 -39.5t-21 -39.5zM162 33q0 -46 -42 -46t-42 46v569q0 47 42 47
t42 -47v-569z" />
    <glyph glyph-name="Upsilondieresis" unicode="&#x3ab;" horiz-adv-x="563" 
d="M242 717.5q-21 -17.5 -47 -17.5t-46 17t-20 40q0 22 20.5 39.5t46.5 17.5t46.5 -17.5t20.5 -39.5t-21 -39.5zM412 717.5q-21 -17.5 -47 -17.5t-46 17t-20 40q0 22 20.5 39.5t46.5 17.5t46.5 -17.5t20.5 -39.5t-21 -39.5zM237 304l-214 275v1q-11 17 -11 32t13 26t30 11
q18 0 36 -24l190 -250l189 250q21 24 37 24q17 0 30 -11t13 -26t-11 -32v-1l-213 -275v-272q0 -45 -44 -45q-21 0 -32.5 11.5t-12.5 33.5v272z" />
    <glyph glyph-name="alphatonos" unicode="&#x3ac;" horiz-adv-x="625" 
d="M384 737q12 -12 12 -29q0 -14 -3 -26l-49 -135q-12 -34 -43 -34q-17 0 -29.5 11t-12.5 26t4 26l49 136q16 37 44 37q16 0 28 -12zM542 -6q-77 0 -102 49q-64 -49 -169 -49q-115 0 -166.5 48.5t-51.5 155.5v65q0 106 51 155t161 49q96 0 158 -37q5 44 45 44q42 0 42 -48
v-308q0 -25 7.5 -32.5t31.5 -7.5q51 0 51 -42t-51 -42h-7zM423 263q0 63 -36.5 91.5t-117.5 28.5q-53 0 -81 -10.5t-39.5 -35.5t-11.5 -74v-65q0 -49 11.5 -74t39.5 -35.5t81 -10.5q81 0 117.5 28.5t36.5 91.5v65z" />
    <glyph glyph-name="epsilontonos" unicode="&#x3ad;" horiz-adv-x="635" 
d="M388 737q12 -12 12 -29q0 -14 -3 -26l-49 -135q-12 -34 -43 -34q-17 0 -29.5 11t-12.5 26t4 26l49 136q16 37 44 37q16 0 28 -12zM261 196q-67 0 -94.5 -17.5t-27.5 -58.5q0 -20 32 -31t94 -11h106q61 0 95 16t34 45q0 51 42 51t42 -51q0 -145 -206 -145h-120
q-203 0 -203 136q0 68 45 104q-45 30 -45 97q0 136 203 136h120q206 0 206 -145q0 -51 -42 -51t-42 51q0 18 -13 31t-36 19q-43 11 -80 11h-106q-127 0 -127 -42q0 -25 10.5 -37.5t36 -18t76.5 -5.5h69q52 0 52 -44q0 -40 -52 -40h-69z" />
    <glyph glyph-name="etatonos" unicode="&#x3ae;" horiz-adv-x="651" 
d="M416 743q12 -12 12 -29q0 -14 -3 -26l-49 -135q-12 -34 -43 -34q-17 0 -29.5 11t-12.5 26t4 26l49 136q16 37 44 37q16 0 28 -12zM502 277q0 46 -12.5 68t-47.5 30t-110 8q-94 0 -137 -37t-43 -117v-194q0 -48 -42 -48t-42 48v390q0 49 40 49q44 0 44 -52v1q65 44 183 44
q93 0 147.5 -18t79 -58.5t24.5 -110.5v-440q0 -51 -42 -51t-42 51v437z" />
    <glyph glyph-name="iotatonos" unicode="&#x3af;" horiz-adv-x="250" 
d="M199 734q12 -12 12 -29q0 -14 -3 -26l-49 -135q-12 -34 -43 -34q-17 0 -29.5 11t-12.5 26t4 26l49 136q16 37 44 37q16 0 28 -12zM180 -6q-64 0 -90 30.5t-26 105.5v296q0 48 42 48t42 -48v-308q0 -25 7.5 -32.5t31.5 -7.5q51 0 51 -42t-51 -42h-7z" />
    <glyph glyph-name="upsilondieresistonos" unicode="&#x3b0;" horiz-adv-x="626" 
d="M406 813q12 -12 12 -29q0 -14 -3 -26l-49 -135q-12 -34 -43 -34q-17 0 -29.5 11t-12.5 27q0 13 4 25l49 136q16 37 44 37q16 0 28 -12zM274 504.5q-21 -17.5 -47 -17.5t-46 17t-20 40q0 22 20.5 39.5t46.5 17.5t46.5 -17.5t20.5 -39.5t-21 -39.5zM444 504.5
q-21 -17.5 -47 -17.5t-46 17t-20 40q0 22 20.5 39.5t46.5 17.5t46.5 -17.5t20.5 -39.5t-21 -39.5zM563 178q0 -73 -22 -112t-73.5 -55.5t-146.5 -16.5q-96 0 -151.5 17.5t-80.5 57.5t-25 109v248q0 48 42 48t42 -48v-245q0 -45 13 -66.5t48.5 -29t112.5 -7.5q75 0 106 6.5
t41 27t10 69.5v245q0 48 42 48t42 -48v-248z" />
    <glyph glyph-name="alpha" unicode="&#x3b1;" horiz-adv-x="625" 
d="M542 -6q-77 0 -102 49q-64 -49 -169 -49q-115 0 -166.5 48.5t-51.5 155.5v65q0 106 51 155t161 49q96 0 158 -37q5 44 45 44q42 0 42 -48v-308q0 -25 7.5 -32.5t31.5 -7.5q51 0 51 -42t-51 -42h-7zM423 263q0 63 -36.5 91.5t-117.5 28.5q-53 0 -81 -10.5t-39.5 -35.5
t-11.5 -74v-65q0 -49 11.5 -74t39.5 -35.5t81 -10.5q81 0 117.5 28.5t36.5 91.5v65z" />
    </font>
</defs>
</svg>
