<?xml version="1.0" encoding="utf-8"?>
<!-- Generator: Adobe Illustrator 22.1.0, SVG Export Plug-In . SVG Version: 6.00 Build 0)  -->
<svg version="1.1" id="Layer_1" xmlns="http://www.w3.org/2000/svg" xmlns:xlink="http://www.w3.org/1999/xlink" x="0px" y="0px"
	 viewBox="0 0 16 16" style="enable-background:new 0 0 16 16;" xml:space="preserve">
<g>
	<path d="M10.7,6.3h0.5l0.4,0.7v0.3h0.2h1.7h0.1V7V6.9h0c0,0-0.2,0-0.4-0.3c0,0,0,0,0,0c0,0,0,0,0,0c0,0,0,0,0,0c0,0,0,0,0,0
		l-0.2-0.3h0l-0.7-1.2h-1.5V6.3z"/>
	<path d="M10.5,11.4C10.5,11.4,10.5,11.4,10.5,11.4l0-0.3H9v0.3c0,0,0,0,0,0c0,0.5-0.3,0.6-0.6,0.6l0.6,0v0H8.5v0.3h2.7v-0.3h-0.6v0
		l0.6,0C10.9,12.1,10.5,12,10.5,11.4z"/>
	<path d="M13.5,9V8.8h-0.1h-1.7h-0.2v0.3l-0.4,0.7h-0.7v-5V4.6c0,0,0,0,0,0c0-0.4,0.1-0.6,0.3-0.6h0v0V3.7h-0.3v0H9v0H8.7V4v0h0
		C9,4,9,4.2,9,4.6c0,0,0,0,0,0v0.5h-2V4.6c0,0,0,0,0,0C7.1,4.2,7.2,4,7.4,4h0v0V3.7H7.1v0H5.6v0H5.2V4v0h0c0.2,0,0.3,0.3,0.3,0.6
		c0,0,0,0,0,0v0.5H3.9L3.8,5.3l-0.6,1L2.8,7h0L2.2,8l0.6,1h0l0.4,0.8l0.6,1L3.9,11h1.5V9.8H4.9L3.9,8l1-1.8H9v1.2h-2v-1H5.6v5
		c0,0,0,0,0,0c0,0.5-0.3,0.6-0.6,0.6l0.6,0v0H5v0.3h2.7v-0.3H7.1v0l0.6,0c-0.2,0-0.6-0.1-0.6-0.6c0,0,0,0,0,0V11h5.2l0.7-1.2h0
		l0.2-0.3c0,0,0,0,0,0c0,0,0,0,0-0.1c0,0,0,0,0,0c0,0,0,0,0,0C13.3,9.1,13.5,9.1,13.5,9L13.5,9L13.5,9z M9,9.8h-2V8.6h2V9.8z"/>
</g>
</svg>
