<?xml version="1.0" standalone="no"?>
<!DOCTYPE svg PUBLIC "-//W3C//DTD SVG 1.1//EN" "http://www.w3.org/Graphics/SVG/1.1/DTD/svg11.dtd" >
<svg xmlns="http://www.w3.org/2000/svg" xmlns:xlink="http://www.w3.org/1999/xlink" version="1.1">
<metadata>
Created by FontForge 20161003 at Tue Jul 10 15:51:22 2018
 By www-data
Copyright (c) 2014 Indian Type Foundry (info@indiantypefoundry.com)
</metadata>
<defs>
<font id="TekoRegular" horiz-adv-x="194" >
  <font-face 
    font-family="TekoRegular"
    font-weight="400"
    font-stretch="normal"
    units-per-em="1000"
    panose-1="2 0 0 0 0 0 0 0 0 0"
    ascent="800"
    descent="-200"
    x-height="488"
    cap-height="626"
    bbox="-394 -394 1670 857"
    underline-thickness="50"
    underline-position="-150"
    unicode-range="U+000D-FB02"
  />
<missing-glyph horiz-adv-x="751" 
d="M176 0v701h399v-701h-399zM235 646v-591h281v591h-281z" />
    <glyph glyph-name="fi" unicode="fi" horiz-adv-x="376" 
d="M333 488v-488h-90v415h-99v-415h-89v415h-49v73h49v93q0 88 93 88h46v-75h-20q-18 0 -24 -6t-6 -23v-77h189zM243 669h90v-75h-90v75z" />
    <glyph glyph-name="fl" unicode="fl" horiz-adv-x="376" 
d="M243 669h90v-669h-90v415h-99v-415h-89v415h-49v73h49v93q0 88 93 88h46v-75h-20q-18 0 -24 -6t-6 -23v-77h99v181z" />
    <glyph glyph-name=".notdef" horiz-adv-x="751" 
d="M176 0v701h399v-701h-399zM235 646v-591h281v591h-281z" />
    <glyph glyph-name=".null" horiz-adv-x="0" 
 />
    <glyph glyph-name="nonmarkingreturn" horiz-adv-x="333" 
 />
    <glyph glyph-name="NULL" horiz-adv-x="0" 
 />
    <glyph glyph-name="NULL" horiz-adv-x="0" 
 />
    <glyph glyph-name="CR" unicode="&#xd;" horiz-adv-x="145" 
 />
    <glyph glyph-name="space" unicode=" " horiz-adv-x="145" 
 />
    <glyph glyph-name="exclam" unicode="!" horiz-adv-x="209" 
d="M50 626h109l-17 -422h-75zM53 0v123h101v-123h-101z" />
    <glyph glyph-name="quotedbl" unicode="&#x22;" horiz-adv-x="292" 
d="M36 626h83v-223h-83v223zM173 626h83v-223h-83v223z" />
    <glyph glyph-name="numbersign" unicode="#" horiz-adv-x="496" 
d="M290 230l30 166h-114l-29 -166h113zM466 396h-66l-30 -166h63v-69h-75l-29 -161h-80l29 161h-113l-29 -161h-81l29 161h-54v69h66l30 166h-62v69h74l29 161h80l-29 -161h114l29 161h80l-29 -161h54v-69z" />
    <glyph glyph-name="dollar" unicode="$" horiz-adv-x="361" 
d="M159 356h73q92 0 92 -88v-180q0 -88 -94 -88h-6v-77h-86v77h-5q-93 0 -93 88v92h91v-78q0 -18 6 -23.5t24 -5.5h42q18 0 23.5 5.5t5.5 23.5v153q0 18 -5.5 23.5t-23.5 5.5h-74q-91 0 -91 89v165q0 88 93 88h7v77h86v-77h5q93 0 93 -88v-92h-91v78q0 18 -6 23.5t-24 5.5
h-42q-18 0 -24 -5.5t-6 -23.5v-139q0 -18 6 -23.5t24 -5.5z" />
    <glyph glyph-name="percent" unicode="%" horiz-adv-x="641" 
d="M251 549v-184q0 -77 -78 -77h-66q-78 0 -78 77v184q0 39 18.5 58t59.5 19h66q41 0 59.5 -19t18.5 -58zM612 261v-184q0 -77 -77 -77h-67q-78 0 -78 77v184q0 77 78 77h67q77 0 77 -77zM177 377v161q0 17 -5 22t-21 5h-22q-17 0 -21.5 -5t-4.5 -22v-161q0 -18 4.5 -23
t21.5 -5h22q16 0 21 5.5t5 22.5zM538 88v162q0 17 -4.5 22t-21.5 5h-21q-17 0 -22 -5t-5 -22v-162q0 -17 5 -22t22 -5h21q17 0 21.5 5t4.5 22zM429 626h75l-292 -626h-74z" />
    <glyph glyph-name="ampersand" unicode="&#x26;" horiz-adv-x="461" 
d="M156 71h173l-149 179l-24 -16q-17 -11 -23.5 -22.5t-6.5 -34.5v-77q0 -18 6 -23.5t24 -5.5zM151 527v-91q0 -31 42 -80l6 5q32 21 44.5 38t12.5 46v82q0 18 -6 23.5t-24 5.5h-46q-18 0 -23.5 -5.5t-5.5 -23.5zM514 -35h-96l-35 42q-17 -7 -44 -7h-208q-93 0 -93 88v104
q0 33 13 53.5t48 42.5l30 22q-24 30 -35 45t-22 40t-11 47v96q0 88 94 88h97q92 0 92 -88v-93q0 -51 -18 -80.5t-58 -55.5l-23 -15l115 -141v77h73v-142q0 -8 -2 -22z" />
    <glyph glyph-name="quotesingle" unicode="'" horiz-adv-x="161" 
d="M36 626h89v-223h-89v223z" />
    <glyph glyph-name="parenleft" unicode="(" horiz-adv-x="264" 
d="M47 375q0 203 55.5 311t165.5 108h15v-76l-13 -1q-133 -8 -133 -341v-134q0 -333 133 -341l13 -1v-75h-15q-110 0 -165.5 107.5t-55.5 311.5v131z" />
    <glyph glyph-name="parenright" unicode=")" horiz-adv-x="264" 
d="M215 244q0 -204 -55.5 -311.5t-165.5 -107.5h-15v75l13 1q133 8 133 341v134q0 333 -133 341l-13 1v76h15q110 0 165.5 -108t55.5 -311v-131z" />
    <glyph glyph-name="asterisk" unicode="*" horiz-adv-x="320" 
d="M305 493l-35 -10q-25 -9 -60 -13q20 -16 42 -46l21 -29l-61 -44l-21 30q-21 29 -30 53q-16 -33 -31 -55l-21 -28l-62 44l22 29q21 29 42 46q-27 2 -61 13l-34 11l23 71l34 -11q34 -11 57 -26q-7 28 -7 62v36h75v-36q0 -33 -7 -61q24 15 57 25l33 11z" />
    <glyph glyph-name="plus" unicode="+" horiz-adv-x="408" 
d="M385 350v-74h-136v-151h-90v151h-136v74h136v151h90v-151h136z" />
    <glyph glyph-name="comma" unicode="," horiz-adv-x="165" 
d="M32 123h101v-65l-69 -198h-32v263z" />
    <glyph glyph-name="hyphen" unicode="-" horiz-adv-x="315" 
d="M48 259v70h218v-70h-218z" />
    <glyph glyph-name="period" unicode="." horiz-adv-x="165" 
d="M32 0v123h101v-123h-101z" />
    <glyph glyph-name="slash" unicode="/" horiz-adv-x="390" 
d="M275 700h84l-273 -820h-84z" />
    <glyph glyph-name="zero" unicode="0" horiz-adv-x="390" 
d="M343 538v-450q0 -88 -93 -88h-109q-94 0 -94 88v450q0 88 94 88h109q93 0 93 -88zM252 102v422q0 18 -6 23.5t-24 5.5h-54q-18 0 -23.5 -5.5t-5.5 -23.5v-422q0 -18 5.5 -23.5t23.5 -5.5h54q18 0 24 5.5t6 23.5z" />
    <glyph glyph-name="one" unicode="1" horiz-adv-x="235" 
d="M183 626v-626h-91v553h-72v73h163z" />
    <glyph glyph-name="two" unicode="2" horiz-adv-x="328" 
d="M115 524v-102h-90v116q0 88 93 88h86q94 0 94 -88v-63q0 -70 -35 -137l-135 -265h174v-73h-276v70l153 288q28 53 28 120v46q0 18 -5.5 23.5t-24.5 5.5h-32q-18 0 -24 -5.5t-6 -23.5z" />
    <glyph glyph-name="three" unicode="3" horiz-adv-x="355" 
d="M119 524v-94h-90v108q0 88 93 88h92q94 0 94 -88v-158q0 -53 -40 -62q40 -9 40 -58v-172q0 -88 -94 -88h-92q-93 0 -93 88v107h90v-93q0 -18 6 -23.5t24 -5.5h39q18 0 24 5.5t6 23.5v150q0 18 -6 23.5t-24 5.5h-75v72h75q18 0 24 5.5t6 23.5v142q0 18 -6 23.5t-24 5.5
h-39q-18 0 -24 -5.5t-6 -23.5z" />
    <glyph glyph-name="four" unicode="4" horiz-adv-x="363" 
d="M363 198v-74h-56v-124h-87v124h-214v75l180 427h90l-184 -428h128v120h87v-120h56z" />
    <glyph glyph-name="five" unicode="5" horiz-adv-x="358" 
d="M132 391h97q94 0 94 -88v-215q0 -88 -94 -88h-96q-93 0 -93 88v111h91v-97q0 -18 6 -23.5t24 -5.5h41q18 0 24 5.5t6 23.5v187q0 18 -6 24t-24 6h-160v307h279v-73h-189v-162z" />
    <glyph glyph-name="six" unicode="6" horiz-adv-x="382" 
d="M250 102v157q0 17 -6 23t-24 6h-83v-186q0 -18 6 -23.5t24 -5.5h53q18 0 24 5.5t6 23.5zM137 360h110q93 0 93 -89v-183q0 -88 -93 -88h-106q-94 0 -94 88v450q0 88 94 88h103q93 0 93 -88v-108h-89v94q0 18 -6 23.5t-24 5.5h-51q-18 0 -24 -5.5t-6 -23.5v-164z" />
    <glyph glyph-name="seven" unicode="7" horiz-adv-x="291" 
d="M286 626v-56l-168 -570h-92l163 551h-183v75h280z" />
    <glyph glyph-name="eight" unicode="8" horiz-adv-x="389" 
d="M253 379v146q0 17 -5.5 23t-23.5 6h-59q-18 0 -23.5 -6t-5.5 -23v-146q0 -17 5.5 -23t23.5 -6h59q18 0 23.5 6t5.5 23zM253 102v150q0 17 -5.5 23t-23.5 6h-59q-18 0 -23.5 -6t-5.5 -23v-150q0 -18 5.5 -24t23.5 -6h59q18 0 23.5 6t5.5 24zM342 538v-161q0 -53 -39 -62
q39 -11 39 -59v-168q0 -88 -93 -88h-109q-93 0 -93 88v168q0 48 39 59q-39 9 -39 62v161q0 88 93 88h109q93 0 93 -88z" />
    <glyph glyph-name="nine" unicode="9" horiz-adv-x="378" 
d="M158 327h82v197q0 18 -5.5 23.5t-23.5 5.5h-53q-18 0 -24 -5.5t-6 -23.5v-168q0 -17 6 -23t24 -6zM131 626h106q94 0 94 -88v-450q0 -88 -94 -88h-103q-94 0 -94 88v107h90v-93q0 -18 5.5 -23.5t24.5 -5.5h51q18 0 23.5 5.5t5.5 23.5v154h-109q-93 0 -93 89v193
q0 88 93 88z" />
    <glyph glyph-name="colon" unicode=":" horiz-adv-x="165" 
d="M32 70v123h101v-123h-101zM32 295v123h101v-123h-101z" />
    <glyph glyph-name="semicolon" unicode=";" horiz-adv-x="165" 
d="M32 123h101v-65l-69 -198h-32v263zM32 365v123h101v-123h-101z" />
    <glyph glyph-name="less" unicode="&#x3c;" horiz-adv-x="420" 
d="M391 400l-277 -86l277 -87v-81l-362 122v92l362 120v-80z" />
    <glyph glyph-name="equal" unicode="=" horiz-adv-x="420" 
d="M29 365v76h362v-76h-362zM29 185v76h362v-76h-362z" />
    <glyph glyph-name="greater" unicode="&#x3e;" horiz-adv-x="420" 
d="M306 314l-277 86v80l362 -120v-92l-362 -122v81z" />
    <glyph glyph-name="question" unicode="?" horiz-adv-x="342" 
d="M103 0v123h101v-123h-101zM113 626h96q93 0 93 -87v-182q0 -87 -93 -87h-13l-4 -66h-76l-8 131h75q17 0 22.5 6.5t5.5 23.5v161q0 17 -5.5 23.5t-22.5 6.5h-44q-17 0 -22.5 -6.5t-5.5 -23.5v-72h-91v85q0 87 93 87z" />
    <glyph glyph-name="at" unicode="@" horiz-adv-x="696" 
d="M233 343q0 86 88 86h27q48 0 61 -39v39h82v-280h44q19 0 24.5 5.5t5.5 23.5v295q0 18 -5.5 24t-24.5 6h-344q-18 0 -23.5 -6t-5.5 -24v-442q0 -17 5.5 -23t23.5 -6h301v-72h-326q-90 0 -90 88v469q0 88 90 88h394q90 0 90 -88v-318q0 -88 -91 -88h-145v51q-7 -51 -66 -51
h-27q-88 0 -88 86v176zM318 332v-154q0 -17 5.5 -23t23.5 -6h29q32 0 32 35v142q0 19 -7.5 26.5t-24.5 7.5h-29q-18 0 -23.5 -5.5t-5.5 -22.5z" />
    <glyph glyph-name="A" unicode="A" horiz-adv-x="385" 
d="M136 218h109l-57 330zM282 0l-25 145h-132l-23 -145h-90l111 626h131l119 -626h-91z" />
    <glyph glyph-name="B" unicode="B" horiz-adv-x="409" 
d="M52 626h217q94 0 94 -88v-159q0 -53 -40 -62q40 -10 40 -58v-171q0 -88 -94 -88h-217v626zM272 100v154q0 18 -6 23.5t-24 5.5h-100v-212h100q18 0 24 5.5t6 23.5zM272 383v143q0 18 -6 23.5t-24 5.5h-100v-201h100q18 0 24 5.5t6 23.5z" />
    <glyph glyph-name="C" unicode="C" horiz-adv-x="377" 
d="M340 430h-92v96q0 18 -5.5 23.5t-23.5 5.5h-51q-18 0 -24 -5.5t-6 -23.5v-427q0 -18 6 -23.5t24 -5.5h51q18 0 23.5 5.5t5.5 23.5v95h92v-106q0 -89 -94 -89h-106q-93 0 -93 89v450q0 88 93 88h106q94 0 94 -88v-108z" />
    <glyph glyph-name="D" unicode="D" horiz-adv-x="412" 
d="M274 100v426q0 18 -6 23.5t-24 5.5h-99v-484h99q18 0 24 5.5t6 23.5zM54 626h218q93 0 93 -88v-450q0 -88 -93 -88h-218v626z" />
    <glyph glyph-name="E" unicode="E" horiz-adv-x="343" 
d="M143 73h181v-73h-272v626h265v-73h-174v-193h144v-73h-144v-214z" />
    <glyph glyph-name="F" unicode="F" horiz-adv-x="332" 
d="M325 553h-182v-206h144v-71h-144v-276h-91v626h273v-73z" />
    <glyph glyph-name="G" unicode="G" horiz-adv-x="382" 
d="M340 443h-91v83q0 18 -6 23.5t-24 5.5h-51q-18 0 -24 -5.5t-6 -23.5v-427q0 -18 6 -23.5t24 -5.5h51q18 0 24 5.5t6 23.5v153h-50v70h141v-234q0 -89 -93 -89h-107q-93 0 -93 89v450q0 88 93 88h107q93 0 93 -88v-95z" />
    <glyph glyph-name="H" unicode="H" horiz-adv-x="417" 
d="M275 626h90v-626h-90v275h-133v-275h-90v626h90v-278h133v278z" />
    <glyph glyph-name="I" unicode="I" horiz-adv-x="210" 
d="M60 626h90v-626h-90v626z" />
    <glyph glyph-name="J" unicode="J" horiz-adv-x="334" 
d="M14 206h91v-104q0 -18 6 -23.5t24 -5.5h29q18 0 24 5.5t6 23.5v524h91v-538q0 -88 -93 -88h-85q-93 0 -93 88v118z" />
    <glyph glyph-name="K" unicode="K" horiz-adv-x="384" 
d="M52 0v626h90v-626h-90zM374 626l-132 -314l131 -312h-98l-127 312l129 314h97z" />
    <glyph glyph-name="L" unicode="L" horiz-adv-x="301" 
d="M142 73h155v-73h-245v626h90v-553z" />
    <glyph glyph-name="M" unicode="M" horiz-adv-x="516" 
d="M299 136h-82l-86 321v-457h-79v626h99l107 -388l107 388h99v-626h-79v458z" />
    <glyph glyph-name="N" unicode="N" horiz-adv-x="410" 
d="M275 626h83v-626h-91l-132 452v-452h-83v626h95l128 -439v439z" />
    <glyph glyph-name="O" unicode="O" horiz-adv-x="393" 
d="M255 102v422q0 18 -6 23.5t-24 5.5h-58q-18 0 -23.5 -5.5t-5.5 -23.5v-422q0 -18 5.5 -23.5t23.5 -5.5h58q18 0 24 5.5t6 23.5zM141 626h111q93 0 93 -88v-450q0 -88 -93 -88h-111q-94 0 -94 88v450q0 88 94 88z" />
    <glyph glyph-name="P" unicode="P" horiz-adv-x="378" 
d="M260 344v180q0 18 -6 23.5t-24 5.5h-88v-239h88q18 0 24 6t6 24zM52 626h205q93 0 93 -88v-208q0 -88 -93 -88h-115v-242h-90v626z" />
    <glyph glyph-name="Q" unicode="Q" horiz-adv-x="393" 
d="M138 524v-422q0 -18 5.5 -23.5t23.5 -5.5h58q18 0 24 5.5t6 23.5v422q0 18 -6 23.5t-24 5.5h-58q-18 0 -23.5 -5.5t-5.5 -23.5zM360 -91h-96l-66 91h-57q-94 0 -94 88v450q0 88 94 88h111q93 0 93 -88v-450q0 -68 -56 -84z" />
    <glyph glyph-name="R" unicode="R" horiz-adv-x="396" 
d="M142 553v-228h88q18 0 24 5.5t6 23.5v170q0 18 -6 23.5t-24 5.5h-88zM285 0l-94 253h-49v-253h-90v626h205q93 0 93 -88v-196q0 -76 -67 -87l99 -255h-97z" />
    <glyph glyph-name="S" unicode="S" horiz-adv-x="361" 
d="M232 102v153q0 18 -5.5 23.5t-23.5 5.5h-74q-91 0 -91 89v165q0 88 93 88h98q93 0 93 -88v-92h-91v78q0 18 -6 23.5t-24 5.5h-42q-18 0 -24 -5.5t-6 -23.5v-139q0 -18 6 -23.5t24 -5.5h73q92 0 92 -88v-180q0 -88 -94 -88h-97q-93 0 -93 88v92h91v-78q0 -18 6 -23.5
t24 -5.5h42q18 0 23.5 5.5t5.5 23.5z" />
    <glyph glyph-name="T" unicode="T" horiz-adv-x="310" 
d="M305 626v-73h-105v-553h-90v553h-105v73h300z" />
    <glyph glyph-name="U" unicode="U" horiz-adv-x="397" 
d="M257 626h91v-538q0 -88 -94 -88h-111q-94 0 -94 88v538h91v-524q0 -18 6 -23.5t24 -5.5h57q19 0 24.5 5.5t5.5 23.5v524z" />
    <glyph glyph-name="V" unicode="V" horiz-adv-x="364" 
d="M266 626h93l-113 -626h-128l-113 626h93l83 -543z" />
    <glyph glyph-name="W" unicode="W" horiz-adv-x="609" 
d="M508 626h91l-100 -626h-125l-70 470l-69 -470h-125l-100 626h93l70 -544l81 544h100l81 -544z" />
    <glyph glyph-name="X" unicode="X" horiz-adv-x="373" 
d="M235 320l134 -320h-100l-84 238l-84 -238h-97l132 320l-123 306h100l72 -225l73 225h98z" />
    <glyph glyph-name="Y" unicode="Y" horiz-adv-x="361" 
d="M357 626l-128 -428v-198h-91v198l-134 428h92l87 -345l82 345h92z" />
    <glyph glyph-name="Z" unicode="Z" horiz-adv-x="313" 
d="M305 627v-73l-205 -481h200v-73h-292v73l205 481h-194v73h286z" />
    <glyph glyph-name="bracketleft" unicode="[" horiz-adv-x="311" 
d="M249 710h-100v-802h100v-73h-191v948h191v-73z" />
    <glyph glyph-name="backslash" unicode="\" horiz-adv-x="390" 
d="M31 700h84l273 -820h-84z" />
    <glyph glyph-name="bracketright" unicode="]" horiz-adv-x="311" 
d="M234 783v-948h-190v73h99v802h-99v73h190z" />
    <glyph glyph-name="asciicircum" unicode="^" horiz-adv-x="498" 
d="M187 671h114l133 -354h-94l-96 270l-95 -270h-94z" />
    <glyph glyph-name="underscore" unicode="_" horiz-adv-x="474" 
d="M0 -114v71h474v-71h-474z" />
    <glyph glyph-name="grave" unicode="`" horiz-adv-x="421" 
d="M216 651l82 -132h-77l-105 132h100z" />
    <glyph glyph-name="a" unicode="a" horiz-adv-x="360" 
d="M158 73h35q18 0 25.5 8t7.5 27v272q0 19 -7.5 27t-25.5 8h-35q-18 0 -24 -5.5t-6 -23.5v-284q0 -18 6 -23.5t24 -5.5zM226 488h90v-488h-90v39q-13 -39 -62 -39h-36q-90 0 -90 88v311q0 89 90 89h36q49 0 62 -39v39z" />
    <glyph glyph-name="b" unicode="b" horiz-adv-x="360" 
d="M232 102v285q0 17 -6 23t-24 6h-35q-18 0 -25.5 -8t-7.5 -27v-273q0 -19 7.5 -27t25.5 -8h35q18 0 24 5.5t6 23.5zM196 489h35q91 0 91 -89v-312q0 -88 -91 -88h-35q-49 0 -62 39v-39h-90v669h90v-219q13 39 62 39z" />
    <glyph glyph-name="c" unicode="c" horiz-adv-x="351" 
d="M320 334h-89v52q0 18 -6 23.5t-24 5.5h-43q-18 0 -24 -5.5t-6 -23.5v-284q0 -18 6 -23.5t24 -5.5h43q18 0 24 5.5t6 23.5v52h89v-66q0 -88 -94 -88h-95q-93 0 -93 88v311q0 89 93 89h95q94 0 94 -89v-65z" />
    <glyph glyph-name="d" unicode="d" horiz-adv-x="360" 
d="M158 73h35q18 0 25.5 8t7.5 27v273q0 19 -7.5 27t-25.5 8h-35q-18 0 -24 -6t-6 -23v-285q0 -18 6 -23.5t24 -5.5zM226 669h90v-669h-90v39q-13 -39 -62 -39h-36q-90 0 -90 88v312q0 89 90 89h36q49 0 62 -39v219z" />
    <glyph glyph-name="e" unicode="e" horiz-adv-x="360" 
d="M130 282h108v106q0 17 -5.5 23t-23.5 6h-49q-18 0 -24 -6t-6 -23v-106zM135 488h98q94 0 94 -89v-183h-197v-116q0 -17 6 -23t24 -6h46q18 0 24 6t6 24v40h88v-53q0 -88 -93 -88h-96q-93 0 -93 88v311q0 89 93 89z" />
    <glyph glyph-name="f" unicode="f" horiz-adv-x="222" 
d="M217 593h-42q-18 0 -24 -5.5t-6 -23.5v-76h72v-73h-72v-415h-90v415h-49v73h49v93q0 88 93 88h69v-76z" />
    <glyph glyph-name="g" unicode="g" horiz-adv-x="360" 
d="M158 79h35q18 0 25.5 8t7.5 27v266q0 19 -7.5 27t-25.5 8h-35q-18 0 -24 -5.5t-6 -23.5v-278q0 -17 6 -23t24 -6zM226 488h90v-538q0 -88 -94 -88h-167v71h141q18 0 24 6t6 23v83q-13 -39 -62 -39h-36q-90 0 -90 89v304q0 89 90 89h36q49 0 62 -39v39z" />
    <glyph glyph-name="h" unicode="h" horiz-adv-x="365" 
d="M196 488h35q91 0 91 -89v-399h-90v386q0 18 -6 23.5t-24 5.5h-35q-18 0 -25.5 -8t-7.5 -27v-380h-90v669h90v-220q13 39 62 39z" />
    <glyph glyph-name="i" unicode="i" horiz-adv-x="178" 
d="M134 0h-90v488h90v-488zM42 581v89h94v-89h-94z" />
    <glyph glyph-name="j" unicode="j" horiz-adv-x="178" 
d="M44 -38v526h90v-538q0 -88 -93 -88h-45v71h18q18 0 24 6t6 23zM42 581v89h94v-89h-94z" />
    <glyph glyph-name="k" unicode="k" horiz-adv-x="357" 
d="M44 0v669h90v-669h-90zM354 488l-112 -233l112 -255h-96l-108 255l108 233h96z" />
    <glyph glyph-name="l" unicode="l" horiz-adv-x="178" 
d="M134 0h-90v669h90v-669z" />
    <glyph glyph-name="m" unicode="m" horiz-adv-x="548" 
d="M384 488h35q90 0 90 -89v-399h-90v386q0 18 -5.5 23.5t-23.5 5.5h-36q-32 0 -32 -35v-380h-90v386q0 18 -6 23.5t-24 5.5h-35q-18 0 -25.5 -8t-7.5 -27v-380h-90v488h90v-39q13 39 62 39h35q64 0 83 -45q12 45 70 45z" />
    <glyph glyph-name="n" unicode="n" horiz-adv-x="365" 
d="M196 488h35q91 0 91 -89v-399h-90v386q0 18 -6 23.5t-24 5.5h-35q-18 0 -25.5 -8t-7.5 -27v-380h-90v488h90v-39q13 39 62 39z" />
    <glyph glyph-name="o" unicode="o" horiz-adv-x="370" 
d="M242 101v286q0 18 -6 24t-24 6h-55q-18 0 -23.5 -6t-5.5 -24v-286q0 -18 5.5 -24t23.5 -6h55q18 0 24 6t6 24zM131 488h107q93 0 93 -89v-311q0 -88 -93 -88h-107q-92 0 -92 88v311q0 89 92 89z" />
    <glyph glyph-name="p" unicode="p" horiz-adv-x="360" 
d="M232 102v284q0 18 -6 23.5t-24 5.5h-35q-18 0 -25.5 -8t-7.5 -27v-272q0 -19 7.5 -27t25.5 -8h35q18 0 24 5.5t6 23.5zM196 488h35q91 0 91 -89v-311q0 -88 -91 -88h-35q-49 0 -62 39v-177h-90v626h90v-39q13 39 62 39z" />
    <glyph glyph-name="q" unicode="q" horiz-adv-x="360" 
d="M158 73h35q18 0 25.5 8t7.5 27v272q0 19 -7.5 27t-25.5 8h-35q-18 0 -24 -5.5t-6 -23.5v-284q0 -18 6 -23.5t24 -5.5zM226 488h90v-626h-90v177q-13 -39 -62 -39h-36q-90 0 -90 88v311q0 89 90 89h36q49 0 62 -39v39z" />
    <glyph glyph-name="r" unicode="r" horiz-adv-x="238" 
d="M213 489h20v-78h-36q-63 0 -63 -74v-337h-90v488h90v-60q8 26 28.5 43.5t50.5 17.5z" />
    <glyph glyph-name="s" unicode="s" horiz-adv-x="328" 
d="M207 98v81q0 18 -6 23.5t-24 5.5h-51q-93 0 -93 88v103q0 89 93 89h73q94 0 94 -89v-47h-88v38q0 18 -6 23.5t-24 5.5h-24q-18 0 -24 -5.5t-6 -23.5v-84q0 -18 6 -23.5t24 -5.5h52q92 0 92 -89v-100q0 -88 -93 -88h-74q-93 0 -93 88v48h88v-38q0 -18 6 -23.5t24 -5.5h24
q18 0 24 5.5t6 23.5z" />
    <glyph glyph-name="t" unicode="t" horiz-adv-x="219" 
d="M209 415h-67v-309q0 -18 5.5 -23.5t23.5 -5.5h38v-77h-64q-94 0 -94 88v327h-46v73h46v83h91v-83h67v-73z" />
    <glyph glyph-name="u" unicode="u" horiz-adv-x="365" 
d="M231 488h90v-488h-90v39q-13 -39 -62 -39h-36q-90 0 -90 88v400h90v-386q0 -18 6 -23.5t24 -5.5h35q18 0 25.5 8t7.5 27v380z" />
    <glyph glyph-name="v" unicode="v" horiz-adv-x="317" 
d="M94 488l64 -412l65 412h90l-90 -488h-129l-90 488h90z" />
    <glyph glyph-name="w" unicode="w" horiz-adv-x="543" 
d="M453 488h85l-90 -488h-119l-58 369l-58 -369h-119l-89 488h85l65 -411l63 411h107l61 -411z" />
    <glyph glyph-name="x" unicode="x" horiz-adv-x="342" 
d="M216 250l122 -250h-95l-73 169l-71 -169h-94l120 249l-113 239h96l63 -160l62 160h94z" />
    <glyph glyph-name="y" unicode="y" horiz-adv-x="342" 
d="M8 488h92l74 -409l69 409h91l-103 -535q-22 -91 -115 -91h-60v72h41q43 0 52 33l10 41h-49z" />
    <glyph glyph-name="z" unicode="z" horiz-adv-x="292" 
d="M106 72h172v-72h-264v72l169 344h-158v72h251v-72z" />
    <glyph glyph-name="braceleft" unicode="{" horiz-adv-x="283" 
d="M198 682v-251q0 -110 -76 -121q76 -9 76 -118v-254q0 -17 7 -24t25 -7h45v-71h-82q-47 0 -66.5 23t-19.5 67v241q0 56 -20 82t-63 26h-17v70h17q43 0 63 26.5t20 83.5v238q0 90 86 90h82v-71h-45q-18 0 -25 -6.5t-7 -23.5z" />
    <glyph glyph-name="bar" unicode="|" horiz-adv-x="197" 
d="M54 743h87v-861h-87v861z" />
    <glyph glyph-name="braceright" unicode="}" horiz-adv-x="283" 
d="M84 431v251q0 17 -7 23.5t-25 6.5h-45v71h82q47 0 66 -23.5t19 -66.5v-238q0 -57 20 -83.5t64 -26.5h16v-70h-16q-44 0 -64 -26t-20 -82v-241q0 -44 -19 -67t-66 -23h-82v71h45q18 0 25 7t7 24v254q0 109 76 118q-76 11 -76 121z" />
    <glyph glyph-name="asciitilde" unicode="~" horiz-adv-x="524" 
d="M344 213q-30 0 -55 12.5t-39 28t-34 28t-42 12.5q-18 0 -24 -8t-6 -25v-47h-83v66q0 81 84 81h37q28 0 52 -12.5t38.5 -28t36 -28t44.5 -12.5q17 0 22 7.5t5 26.5v46h83v-65q0 -82 -85 -82h-34z" />
    <glyph glyph-name="uni00A0" unicode="&#xa0;" horiz-adv-x="145" 
 />
    <glyph glyph-name="exclamdown" unicode="&#xa1;" horiz-adv-x="209" 
d="M53 365v123h101v-123h-101zM159 -138h-109l17 422h75z" />
    <glyph glyph-name="cent" unicode="&#xa2;" horiz-adv-x="351" 
d="M320 334h-89v52q0 18 -6 23.5t-24 5.5h-43q-18 0 -24 -5.5t-6 -23.5v-284q0 -18 6 -23.5t24 -5.5h43q18 0 24 5.5t6 23.5v52h89v-66q0 -88 -94 -88h-1v-76h-86v76h-8q-93 0 -93 88v311q0 89 93 89h8v77h86v-77h1q94 0 94 -89v-65z" />
    <glyph glyph-name="sterling" unicode="&#xa3;" horiz-adv-x="387" 
d="M145 73h219v-73h-332v71q27 1 37.5 23t10.5 72v101h-48v71h48v200q0 88 93 88h94q93 0 93 -88v-92h-91v78q0 18 -5.5 23.5t-23.5 5.5h-39q-18 0 -24 -5.5t-6 -23.5v-186h131v-71h-131v-113q0 -64 -26 -81z" />
    <glyph glyph-name="currency" unicode="&#xa4;" horiz-adv-x="484" 
d="M222 176h52q25 0 33 7.5t8 32.5v165q0 26 -8 33.5t-33 7.5h-52q-24 0 -32 -7.5t-8 -33.5v-165q0 -25 8 -32.5t32 -7.5zM397 390v-182q0 -30 -7 -48l42 -42l-58 -58l-48 48q-18 -2 -29 -2h-97q-18 0 -35 3l-49 -49l-58 58l47 47q-5 20 -5 43v182q0 29 7 47l-49 49l58 58
l55 -55q18 2 29 2h97q16 0 23 -1l54 54l58 -58l-44 -44q9 -21 9 -52z" />
    <glyph glyph-name="yen" unicode="&#xa5;" horiz-adv-x="383" 
d="M370 626l-86 -280h78v-69h-100l-18 -59h118v-66h-124v-152h-91v152h-125v66h119l-19 59h-100v69h79l-88 280h91l88 -331l87 331h91z" />
    <glyph glyph-name="brokenbar" unicode="&#xa6;" horiz-adv-x="197" 
d="M52 250h91v-347h-91v347zM143 375h-91v347h91v-347z" />
    <glyph glyph-name="section" unicode="&#xa7;" horiz-adv-x="419" 
d="M248 388h-76q-18 0 -24 -6t-6 -23v-90q0 -18 6 -23.5t24 -5.5h76q18 0 23.5 5.5t5.5 23.5v90q0 17 -5.5 23t-23.5 6zM366 534h-90v35q0 18 -6 24t-24 6h-40q-19 0 -24.5 -6t-5.5 -24v-81q0 -18 5.5 -24t24.5 -6h66q93 0 93 -88v-81q0 -71 -41 -88q10 -20 10 -50v-103
q0 -89 -94 -89h-94q-93 0 -93 89v45h90v-35q0 -18 6 -23.5t24 -5.5h41q18 0 23.5 5.5t5.5 23.5v82q0 18 -5.5 23.5t-23.5 5.5h-67q-93 0 -93 89v77q0 73 43 90q-11 22 -11 51v104q0 88 93 88h94q93 0 93 -88v-46z" />
    <glyph glyph-name="dieresis" unicode="&#xa8;" horiz-adv-x="421" 
d="M65 541v94h102v-94h-102zM255 541v94h101v-94h-101z" />
    <glyph glyph-name="copyright" unicode="&#xa9;" horiz-adv-x="701" 
d="M670 341v-63q0 -141 -51 -209.5t-166 -68.5h-191q-115 0 -166 68.5t-51 209.5v63q0 142 51.5 213.5t165.5 71.5h191q114 0 165.5 -71.5t51.5 -213.5zM270 68h175q79 0 112 52.5t33 152.5v73q0 214 -145 214h-175q-145 0 -145 -214v-73q0 -100 33 -152.5t112 -52.5z
M407 244v26h80v-39q0 -80 -84 -80h-90q-84 0 -84 80v174q0 81 84 81h90q84 0 84 -81v-38h-80v25q0 17 -5.5 22.5t-22.5 5.5h-43q-17 0 -22.5 -5.5t-5.5 -22.5v-148q0 -17 5.5 -22t22.5 -5h43q17 0 22.5 5t5.5 22z" />
    <glyph glyph-name="ordfeminine" unicode="&#xaa;" horiz-adv-x="257" 
d="M107 334h37q22 0 22 24v192q0 25 -22 25h-37q-14 0 -18 -3.5t-4 -16.5v-200q0 -13 4.5 -17t17.5 -4zM167 626h60v-344h-61v24q-9 -24 -41 -24h-36q-64 0 -64 63v218q0 63 64 63h35q34 0 43 -27v27z" />
    <glyph glyph-name="guillemotleft" unicode="&#xab;" horiz-adv-x="490" 
d="M156 104l-119 155l119 155h94l-120 -156l120 -154h-94zM358 104l-118 155l118 155h95l-121 -156l121 -154h-95z" />
    <glyph glyph-name="logicalnot" unicode="&#xac;" horiz-adv-x="460" 
d="M416 400v-239h-71v148h-311v91h382z" />
    <glyph glyph-name="uni00AD" unicode="&#xad;" horiz-adv-x="315" 
d="M48 259v70h218v-70h-218z" />
    <glyph glyph-name="registered" unicode="&#xae;" horiz-adv-x="414" 
d="M380 535v-35q0 -78 -28.5 -116t-91.5 -38h-106q-64 0 -92 38t-28 116v35q0 78 28.5 117.5t91.5 39.5h106q120 0 120 -157zM159 385h97q44 0 61.5 28t17.5 84v40q0 118 -79 118h-97q-80 0 -80 -118v-40q0 -56 18 -84t62 -28zM156 625h70q35 0 35 -32v-61q0 -28 -22 -32
l33 -83h-38l-32 81h-10v-81h-36v208zM224 535v54q0 7 -6 7h-26v-67h26q6 0 6 6z" />
    <glyph glyph-name="macron" unicode="&#xaf;" horiz-adv-x="421" 
d="M76 551v68h268v-68h-268z" />
    <glyph glyph-name="degree" unicode="&#xb0;" horiz-adv-x="383" 
d="M324 539v-110q0 -86 -91 -86h-88q-91 0 -91 86v110q0 87 91 87h88q91 0 91 -87zM240 437v95q0 17 -6 22.5t-24 5.5h-42q-18 0 -24 -5.5t-6 -22.5v-95q0 -17 6 -22.5t24 -5.5h42q19 0 24.5 5.5t5.5 22.5z" />
    <glyph glyph-name="plusminus" unicode="&#xb1;" horiz-adv-x="420" 
d="M29 171v73h362v-73h-362zM255 426h136v-72h-136v-79h-90v79h-136v72h136v79h90v-79z" />
    <glyph glyph-name="twosuperior" unicode="&#xb2;" horiz-adv-x="202" 
d="M73 563v-51h-59v66q0 48 51 48h68q51 0 51 -48v-33q0 -49 -22 -83l-78 -129h102v-51h-172v48l93 148q17 25 17 67v18q0 9 -3 12.5t-13 3.5h-18q-10 0 -13.5 -3.5t-3.5 -12.5z" />
    <glyph glyph-name="threesuperior" unicode="&#xb3;" horiz-adv-x="214" 
d="M76 563v-44h-61v59q0 48 52 48h71q51 0 51 -48v-88q0 -30 -22 -34q22 -4 22 -32v-94q0 -48 -51 -48h-71q-52 0 -52 48v59h61v-43q0 -10 3 -13t13 -3h21q10 0 13 3t3 13v70q0 10 -3 13t-13 3h-31v47h31q10 0 13 3.5t3 12.5v68q0 9 -3 12.5t-13 3.5h-21q-10 0 -13 -3.5
t-3 -12.5z" />
    <glyph glyph-name="acute" unicode="&#xb4;" horiz-adv-x="421" 
d="M118 519l82 132h100l-105 -132h-77z" />
    <glyph glyph-name="uni00B5" unicode="&#xb5;" horiz-adv-x="371" 
d="M228 488h90v-488h-90v39q-13 -39 -62 -39h-36v-138h-90v626h90v-386q0 -18 6 -23.5t24 -5.5h35q18 0 25.5 8t7.5 27v380z" />
    <glyph glyph-name="paragraph" unicode="&#xb6;" horiz-adv-x="507" 
d="M287 626v-764h-82v364h-63q-93 0 -93 88v224q0 88 93 88h145zM363 626h82v-764h-82v764z" />
    <glyph glyph-name="periodcentered" unicode="&#xb7;" horiz-adv-x="217" 
d="M34 259v121h101v-121h-101z" />
    <glyph glyph-name="cedilla" unicode="&#xb8;" horiz-adv-x="421" 
d="M206 -84v34h85v-41q0 -96 -101 -96h-57v70h40q33 0 33 33z" />
    <glyph glyph-name="onesuperior" unicode="&#xb9;" horiz-adv-x="145" 
d="M111 626v-344h-61v297h-39v47h100z" />
    <glyph glyph-name="ordmasculine" unicode="&#xba;" horiz-adv-x="248" 
d="M162 350v208q0 13 -4.5 17t-17.5 4h-33q-13 0 -17 -4t-4 -17v-208q0 -12 4 -16t17 -4h33q13 0 17.5 4t4.5 16zM91 626h66q65 0 65 -63v-218q0 -63 -65 -63h-66q-65 0 -65 63v218q0 63 65 63z" />
    <glyph glyph-name="guillemotright" unicode="&#xbb;" horiz-adv-x="490" 
d="M250 259l-119 -155h-94l121 154l-121 156h94zM453 259l-119 -155h-94l120 154l-120 156h94z" />
    <glyph glyph-name="onequarter" unicode="&#xbc;" horiz-adv-x="541" 
d="M124 282h-61v297h-40v47h101v-344zM302 626h84l-218 -626h-84zM487 115v-48h-30v-67h-62v67h-117v45l99 236h64l-100 -233h54v64h62v-64h30z" />
    <glyph glyph-name="onehalf" unicode="&#xbd;" horiz-adv-x="543" 
d="M124 282h-61v297h-40v47h101v-344zM302 626h84l-218 -626h-84zM400 51h102v-51h-172v48l94 148q16 26 16 67v18q0 9 -3 12.5t-13 3.5h-18q-17 0 -17 -16v-51h-59v66q0 48 51 48h68q51 0 51 -48v-33q0 -49 -22 -83z" />
    <glyph glyph-name="threequarters" unicode="&#xbe;" horiz-adv-x="566" 
d="M194 424v-94q0 -48 -51 -48h-71q-52 0 -52 48v59h61v-43q0 -10 3 -13t13 -3h21q10 0 13 3t3 13v70q0 10 -3 13t-13 3h-31v47h31q10 0 13 3.5t3 12.5v68q0 9 -3 12.5t-13 3.5h-21q-10 0 -13 -3.5t-3 -12.5v-44h-61v59q0 48 52 48h71q51 0 51 -48v-88q0 -30 -22 -34
q22 -4 22 -32zM357 626h84l-218 -626h-84zM542 115v-48h-30v-67h-62v67h-116v45l98 236h64l-100 -233h54v64h62v-64h30z" />
    <glyph glyph-name="questiondown" unicode="&#xbf;" horiz-adv-x="342" 
d="M219 488v-123h-101v123h101zM211 34h91v-85q0 -87 -93 -87h-96q-93 0 -93 87v182q0 87 93 87h13l4 66h76l8 -131h-75q-17 0 -22.5 -6.5t-5.5 -23.5v-161q0 -17 5.5 -23.5t22.5 -6.5h44q17 0 22.5 6.5t5.5 23.5v72z" />
    <glyph glyph-name="Agrave" unicode="&#xc0;" horiz-adv-x="385" 
d="M220 657h-77l-105 132h100zM136 218h109l-57 330zM282 0l-25 145h-132l-23 -145h-90l111 626h131l119 -626h-91z" />
    <glyph glyph-name="Aacute" unicode="&#xc1;" horiz-adv-x="385" 
d="M333 789l-105 -132h-77l82 132h100zM136 218h109l-57 330zM282 0l-25 145h-132l-23 -145h-90l111 626h131l119 -626h-91z" />
    <glyph glyph-name="Acircumflex" unicode="&#xc2;" horiz-adv-x="385" 
d="M188 738l-52 -81h-94l96 132h101l95 -132h-93zM136 218h109l-57 330zM282 0l-25 145h-132l-23 -145h-90l111 626h131l119 -626h-91z" />
    <glyph glyph-name="Atilde" unicode="&#xc3;" horiz-adv-x="385" 
d="M123 673v-15h-78v22q0 40 18 60t60 20h9q25 0 56.5 -19t40.5 -19q11 0 15 4.5t4 19.5v14h77v-23q0 -39 -17 -59t-60 -20h-7q-26 0 -59 19t-42 19q-17 0 -17 -23zM136 218h109l-57 330zM282 0l-25 145h-132l-23 -145h-90l111 626h131l119 -626h-91z" />
    <glyph glyph-name="Adieresis" unicode="&#xc4;" horiz-adv-x="385" 
d="M334 751v-94h-101v94h101zM145 751v-94h-102v94h102zM136 218h109l-57 330zM282 0l-25 145h-132l-23 -145h-90l111 626h131l119 -626h-91z" />
    <glyph glyph-name="Aring" unicode="&#xc5;" horiz-adv-x="385" 
d="M146 740v-7q0 -15 4.5 -20t21.5 -5h33q17 0 21.5 5t4.5 20v7q0 15 -4.5 20t-21.5 5h-33q-17 0 -21.5 -5t-4.5 -20zM221 658h-65q-73 0 -73 70v17q0 70 73 70h65q73 0 73 -70v-17q0 -70 -73 -70zM136 218h109l-57 330zM282 0l-25 145h-132l-23 -145h-90l111 626h131
l119 -626h-91z" />
    <glyph glyph-name="AE" unicode="&#xc6;" horiz-adv-x="579" 
d="M181 221h105v293zM375 73h181v-73h-270v149h-131l-53 -149h-91l232 626h306v-73h-174v-193h144v-73h-144v-214z" />
    <glyph glyph-name="Ccedilla" unicode="&#xc7;" horiz-adv-x="377" 
d="M153 -84v34h85v-41q0 -96 -101 -96h-57v70h40q33 0 33 33zM340 430h-92v96q0 18 -5.5 23.5t-23.5 5.5h-51q-18 0 -24 -5.5t-6 -23.5v-427q0 -18 6 -23.5t24 -5.5h51q18 0 23.5 5.5t5.5 23.5v95h92v-106q0 -89 -94 -89h-106q-93 0 -93 89v450q0 88 93 88h106q94 0 94 -88
v-108z" />
    <glyph glyph-name="Egrave" unicode="&#xc8;" horiz-adv-x="343" 
d="M223 657h-77l-105 132h100zM143 73h181v-73h-272v626h265v-73h-174v-193h144v-73h-144v-214z" />
    <glyph glyph-name="Eacute" unicode="&#xc9;" horiz-adv-x="343" 
d="M325 789l-105 -132h-77l82 132h100zM143 287v-214h181v-73h-272v626h265v-73h-174v-193h144v-73h-144z" />
    <glyph glyph-name="Ecircumflex" unicode="&#xca;" horiz-adv-x="343" 
d="M186 738l-52 -81h-94l96 132h101l95 -132h-93zM143 287v-214h181v-73h-272v626h265v-73h-174v-193h144v-73h-144z" />
    <glyph glyph-name="Edieresis" unicode="&#xcb;" horiz-adv-x="354" 
d="M139 751v-94h-102v94h102zM143 287v-214h181v-73h-272v626h265v-73h-174v-193h144v-73h-144zM227 751h101v-94h-101v94z" />
    <glyph glyph-name="Igrave" unicode="&#xcc;" horiz-adv-x="210" 
d="M60 626h90v-626h-90v626zM61 789l82 -132h-77l-105 132h100z" />
    <glyph glyph-name="Iacute" unicode="&#xcd;" horiz-adv-x="210" 
d="M60 626h90v-626h-90v626zM69 657l82 132h100l-105 -132h-77z" />
    <glyph glyph-name="Icircumflex" unicode="&#xce;" horiz-adv-x="210" 
d="M60 626h90v-626h-90v626zM-40 657l96 132h101l95 -132h-93l-53 81l-52 -81h-94z" />
    <glyph glyph-name="Idieresis" unicode="&#xcf;" horiz-adv-x="210" 
d="M-42 657v94h102v-94h-102zM148 657v94h101v-94h-101zM60 626h90v-626h-90v626z" />
    <glyph glyph-name="Eth" unicode="&#xd0;" horiz-adv-x="412" 
d="M274 100v426q0 18 -6 23.5t-24 5.5h-99v-204h75v-71h-75v-209h99q18 0 24 5.5t6 23.5zM54 626h218q93 0 93 -88v-450q0 -88 -93 -88h-218v280h-51v71h51v275z" />
    <glyph glyph-name="Ntilde" unicode="&#xd1;" horiz-adv-x="410" 
d="M275 626h83v-626h-91l-132 452v-452h-83v626h95l128 -439v439zM261 658q-26 0 -59 19t-42 19q-17 0 -17 -23v-15h-78v22q0 40 18 60t60 20h9q25 0 56.5 -19t40.5 -19q11 0 15 4.5t4 19.5v14h77v-23q0 -39 -17 -59t-60 -20h-7z" />
    <glyph glyph-name="Ograve" unicode="&#xd2;" horiz-adv-x="393" 
d="M225 657h-77l-105 132h100zM255 102v422q0 18 -6 23.5t-24 5.5h-58q-18 0 -23.5 -5.5t-5.5 -23.5v-422q0 -18 5.5 -23.5t23.5 -5.5h58q18 0 24 5.5t6 23.5zM141 626h111q93 0 93 -88v-450q0 -88 -93 -88h-111q-94 0 -94 88v450q0 88 94 88z" />
    <glyph glyph-name="Oacute" unicode="&#xd3;" horiz-adv-x="393" 
d="M334 789l-105 -132h-77l82 132h100zM255 102v422q0 18 -6 23.5t-24 5.5h-58q-18 0 -23.5 -5.5t-5.5 -23.5v-422q0 -18 5.5 -23.5t23.5 -5.5h58q18 0 24 5.5t6 23.5zM141 626h111q93 0 93 -88v-450q0 -88 -93 -88h-111q-94 0 -94 88v450q0 88 94 88z" />
    <glyph glyph-name="Ocircumflex" unicode="&#xd4;" horiz-adv-x="393" 
d="M195 738l-52 -81h-94l96 132h101l95 -132h-93zM255 102v422q0 18 -6 23.5t-24 5.5h-58q-18 0 -23.5 -5.5t-5.5 -23.5v-422q0 -18 5.5 -23.5t23.5 -5.5h58q18 0 24 5.5t6 23.5zM141 626h111q93 0 93 -88v-450q0 -88 -93 -88h-111q-94 0 -94 88v450q0 88 94 88z" />
    <glyph glyph-name="Otilde" unicode="&#xd5;" horiz-adv-x="393" 
d="M133 673v-15h-78v22q0 40 18 60t60 20h9q25 0 56.5 -19t40.5 -19q11 0 15 4.5t4 19.5v14h77v-23q0 -39 -17 -59t-60 -20h-7q-26 0 -59 19t-42 19q-17 0 -17 -23zM255 102v422q0 18 -6 23.5t-24 5.5h-58q-18 0 -23.5 -5.5t-5.5 -23.5v-422q0 -18 5.5 -23.5t23.5 -5.5h58
q18 0 24 5.5t6 23.5zM141 626h111q93 0 93 -88v-450q0 -88 -93 -88h-111q-94 0 -94 88v450q0 88 94 88z" />
    <glyph glyph-name="Odieresis" unicode="&#xd6;" horiz-adv-x="389" 
d="M342 751v-94h-101v94h101zM153 751v-94h-102v94h102zM255 102v422q0 18 -6 23.5t-24 5.5h-58q-18 0 -23.5 -5.5t-5.5 -23.5v-422q0 -18 5.5 -23.5t23.5 -5.5h58q18 0 24 5.5t6 23.5zM141 626h111q93 0 93 -88v-450q0 -88 -93 -88h-111q-94 0 -94 88v450q0 88 94 88z" />
    <glyph glyph-name="multiply" unicode="&#xd7;" horiz-adv-x="378" 
d="M354 420l-109 -109l109 -109l-56 -56l-109 109l-109 -109l-56 56l109 109l-109 109l56 56l109 -109l109 109z" />
    <glyph glyph-name="Oslash" unicode="&#xd8;" horiz-adv-x="401" 
d="M262 98v307l-121 -324q4 -13 28 -13h62q19 0 25 6t6 24zM139 529v-311l122 325q-4 15 -30 15h-62q-19 0 -24.5 -6t-5.5 -23zM352 646l-19 -50q16 -20 16 -58v-450q0 -88 -93 -88h-111q-18 0 -33 3l-9 -23h-53l18 49q-17 22 -17 59v450q0 88 94 88h111q21 0 34 -4l9 24h53
z" />
    <glyph glyph-name="Ugrave" unicode="&#xd9;" horiz-adv-x="397" 
d="M237 657h-77l-105 132h100zM257 626h91v-538q0 -88 -94 -88h-111q-94 0 -94 88v538h91v-524q0 -18 6 -23.5t24 -5.5h57q19 0 24.5 5.5t5.5 23.5v524z" />
    <glyph glyph-name="Uacute" unicode="&#xda;" horiz-adv-x="397" 
d="M340 789l-105 -132h-77l82 132h100zM257 626h91v-538q0 -88 -94 -88h-111q-94 0 -94 88v538h91v-524q0 -18 6 -23.5t24 -5.5h57q19 0 24.5 5.5t5.5 23.5v524z" />
    <glyph glyph-name="Ucircumflex" unicode="&#xdb;" horiz-adv-x="397" 
d="M198 738l-52 -81h-94l96 132h101l95 -132h-93zM257 626h91v-538q0 -88 -94 -88h-111q-94 0 -94 88v538h91v-524q0 -18 6 -23.5t24 -5.5h57q19 0 24.5 5.5t5.5 23.5v524z" />
    <glyph glyph-name="Udieresis" unicode="&#xdc;" horiz-adv-x="397" 
d="M344 751v-94h-101v94h101zM155 751v-94h-102v94h102zM257 626h91v-538q0 -88 -94 -88h-111q-94 0 -94 88v538h91v-524q0 -18 6 -23.5t24 -5.5h57q19 0 24.5 5.5t5.5 23.5v524z" />
    <glyph glyph-name="Yacute" unicode="&#xdd;" horiz-adv-x="361" 
d="M325 789l-105 -132h-77l82 132h100zM357 626l-128 -428v-198h-91v198l-134 428h92l87 -345l82 345h92z" />
    <glyph glyph-name="Thorn" unicode="&#xde;" horiz-adv-x="385" 
d="M259 224v178q0 18 -6 23.5t-24 5.5h-86v-236h86q18 0 24 5.5t6 23.5zM143 503h113q93 0 93 -88v-204q0 -88 -93 -88h-113v-123h-90v626h90v-123z" />
    <glyph glyph-name="germandbls" unicode="&#xdf;" horiz-adv-x="477" 
d="M200 151h89v-52q0 -17 5.5 -23t23.5 -6h11q18 0 23.5 5.5t5.5 23.5v81q0 18 -5.5 23.5t-23.5 5.5h-38q-91 0 -91 89v56q0 86 88 86q23 0 29.5 4t6.5 20v31q0 18 -5.5 24t-23.5 6h-129q-18 0 -24.5 -6t-6.5 -24v-495h-90v512q0 88 91 88h188q91 0 91 -87v-67
q0 -73 -80 -73h-18q-18 0 -24 -5.5t-6 -23.5v-37q0 -18 6 -23.5t24 -5.5h37q93 0 93 -88v-102q0 -88 -91 -88h-64q-92 0 -92 88v63z" />
    <glyph glyph-name="agrave" unicode="&#xe0;" horiz-adv-x="360" 
d="M245 519h-77l-105 132h100zM158 73h35q18 0 25.5 8t7.5 27v272q0 19 -7.5 27t-25.5 8h-35q-18 0 -24 -5.5t-6 -23.5v-284q0 -18 6 -23.5t24 -5.5zM226 488h90v-488h-90v39q-13 -39 -62 -39h-36q-90 0 -90 88v311q0 89 90 89h36q49 0 62 -39v39z" />
    <glyph glyph-name="aacute" unicode="&#xe1;" horiz-adv-x="360" 
d="M328 651l-105 -132h-77l82 132h100zM158 73h35q18 0 25.5 8t7.5 27v272q0 19 -7.5 27t-25.5 8h-35q-18 0 -24 -5.5t-6 -23.5v-284q0 -18 6 -23.5t24 -5.5zM226 449v39h90v-488h-90v39q-13 -39 -62 -39h-36q-90 0 -90 88v311q0 89 90 89h36q49 0 62 -39z" />
    <glyph glyph-name="acircumflex" unicode="&#xe2;" horiz-adv-x="360" 
d="M182 600l-52 -81h-94l96 132h101l95 -132h-93zM158 73h35q18 0 25.5 8t7.5 27v272q0 19 -7.5 27t-25.5 8h-35q-18 0 -24 -5.5t-6 -23.5v-284q0 -18 6 -23.5t24 -5.5zM226 449v39h90v-488h-90v39q-13 -39 -62 -39h-36q-90 0 -90 88v311q0 89 90 89h36q49 0 62 -39z" />
    <glyph glyph-name="atilde" unicode="&#xe3;" horiz-adv-x="360" 
d="M113 549v-15h-78v22q0 40 18 60t60 20h9q25 0 56.5 -19t40.5 -19q11 0 15 4.5t4 19.5v14h77v-23q0 -39 -17 -59t-60 -20h-7q-26 0 -59 19t-42 19q-17 0 -17 -23zM158 73h35q18 0 25.5 8t7.5 27v272q0 19 -7.5 27t-25.5 8h-35q-18 0 -24 -5.5t-6 -23.5v-284q0 -18 6 -23.5
t24 -5.5zM226 488h90v-488h-90v39q-13 -39 -62 -39h-36q-90 0 -90 88v311q0 89 90 89h36q49 0 62 -39v39z" />
    <glyph glyph-name="adieresis" unicode="&#xe4;" horiz-adv-x="360" 
d="M135 635v-94h-102v94h102zM158 73h35q18 0 25.5 8t7.5 27v272q0 19 -7.5 27t-25.5 8h-35q-18 0 -24 -5.5t-6 -23.5v-284q0 -18 6 -23.5t24 -5.5zM226 449v39h90v-488h-90v39q-13 -39 -62 -39h-36q-90 0 -90 88v311q0 89 90 89h36q49 0 62 -39zM223 635h101v-94h-101v94z
" />
    <glyph glyph-name="aring" unicode="&#xe5;" horiz-adv-x="360" 
d="M141 610v-7q0 -15 4.5 -20t21.5 -5h33q17 0 21.5 5t4.5 20v7q0 15 -4.5 20t-21.5 5h-33q-17 0 -21.5 -5t-4.5 -20zM216 528h-65q-73 0 -73 70v17q0 70 73 70h65q73 0 73 -70v-17q0 -70 -73 -70zM158 73h35q18 0 25.5 8t7.5 27v272q0 19 -7.5 27t-25.5 8h-35
q-18 0 -24 -5.5t-6 -23.5v-284q0 -18 6 -23.5t24 -5.5zM226 488h90v-488h-90v39q-13 -39 -62 -39h-36q-90 0 -90 88v311q0 89 90 89h36q49 0 62 -39v39z" />
    <glyph glyph-name="ae" unicode="&#xe6;" horiz-adv-x="557" 
d="M163 73h35q16 0 24 6.5t9 23.5v104l-98 -39v-66q0 -18 6 -23.5t24 -5.5zM397 416h-48q-18 0 -23.5 -5.5t-5.5 -23.5v-104h106v104q0 18 -5.5 23.5t-23.5 5.5zM505 215h-185v-114q0 -18 5.5 -23.5t23.5 -5.5h45q18 0 24 5.5t6 23.5v40h89v-53q0 -88 -93 -88h-77
q-26 0 -45 12t-26 30q-6 -18 -24.5 -30t-44.5 -12h-70q-90 0 -90 88v114l188 77v106q-3 30 -33 30h-35q-18 0 -24 -5.5t-6 -23.5v-75h-90v88q0 89 90 89h71q25 0 44 -12.5t25 -29.5q6 18 25 30t46 12h78q93 0 93 -89v-179h-10v-5z" />
    <glyph glyph-name="ccedilla" unicode="&#xe7;" horiz-adv-x="351" 
d="M140 -84v34h85v-41q0 -96 -101 -96h-57v70h40q33 0 33 33zM320 334h-89v52q0 18 -6 23.5t-24 5.5h-43q-18 0 -24 -5.5t-6 -23.5v-284q0 -18 6 -23.5t24 -5.5h43q18 0 24 5.5t6 23.5v52h89v-66q0 -88 -94 -88h-95q-93 0 -93 88v311q0 89 93 89h95q94 0 94 -89v-65z" />
    <glyph glyph-name="egrave" unicode="&#xe8;" horiz-adv-x="360" 
d="M217 519h-77l-105 132h100zM130 282h108v106q0 17 -5.5 23t-23.5 6h-49q-18 0 -24 -6t-6 -23v-106zM135 488h98q94 0 94 -89v-183h-197v-116q0 -17 6 -23t24 -6h46q18 0 24 6t6 24v40h88v-53q0 -88 -93 -88h-96q-93 0 -93 88v311q0 89 93 89z" />
    <glyph glyph-name="eacute" unicode="&#xe9;" horiz-adv-x="360" 
d="M327 651l-105 -132h-77l82 132h100zM130 282h108v106q0 17 -5.5 23t-23.5 6h-49q-18 0 -24 -6t-6 -23v-106zM135 488h98q94 0 94 -89v-183h-197v-116q0 -17 6 -23t24 -6h46q18 0 24 6t6 24v40h88v-53q0 -88 -93 -88h-96q-93 0 -93 88v311q0 89 93 89z" />
    <glyph glyph-name="ecircumflex" unicode="&#xea;" horiz-adv-x="358" 
d="M186 600l-52 -81h-94l96 132h101l95 -132h-93zM130 282h108v106q0 17 -5.5 23t-23.5 6h-49q-18 0 -24 -6t-6 -23v-106zM135 488h98q94 0 94 -89v-183h-197v-116q0 -17 6 -23t24 -6h46q18 0 24 6t6 24v40h88v-53q0 -88 -93 -88h-96q-93 0 -93 88v311q0 89 93 89z" />
    <glyph glyph-name="edieresis" unicode="&#xeb;" horiz-adv-x="358" 
d="M325 635v-94h-101v94h101zM136 635v-94h-102v94h102zM130 282h108v106q0 17 -5.5 23t-23.5 6h-49q-18 0 -24 -6t-6 -23v-106zM135 488h98q94 0 94 -89v-183h-197v-116q0 -17 6 -23t24 -6h46q18 0 24 6t6 24v40h88v-53q0 -88 -93 -88h-96q-93 0 -93 88v311q0 89 93 89z
" />
    <glyph glyph-name="igrave" unicode="&#xec;" horiz-adv-x="178" 
d="M134 0h-90v488h90v-488zM46 651l82 -132h-77l-105 132h100z" />
    <glyph glyph-name="iacute" unicode="&#xed;" horiz-adv-x="178" 
d="M134 0h-90v488h90v-488zM47 519l82 132h100l-105 -132h-77z" />
    <glyph glyph-name="icircumflex" unicode="&#xee;" horiz-adv-x="178" 
d="M134 0h-90v488h90v-488zM-57 519l96 132h101l95 -132h-93l-53 81l-52 -81h-94z" />
    <glyph glyph-name="idieresis" unicode="&#xef;" horiz-adv-x="178" 
d="M134 0h-90v488h90v-488zM-57 541v94h102v-94h-102zM133 541v94h101v-94h-101z" />
    <glyph glyph-name="eth" unicode="&#xf0;" horiz-adv-x="378" 
d="M241 102v198q0 22 -3 45h-80q-18 0 -24 -5.5t-6 -23.5v-214q0 -18 6 -23.5t24 -5.5h53q18 0 24 5.5t6 23.5zM318 566l-57 -21q70 -108 70 -236v-221q0 -88 -94 -88h-106q-93 0 -93 88v239q0 89 93 89h91q-17 50 -48 98l-95 -34v55l62 22q-33 39 -71 69h125q23 -23 34 -37
l89 32v-55z" />
    <glyph glyph-name="ntilde" unicode="&#xf1;" horiz-adv-x="365" 
d="M112 549v-15h-78v22q0 40 18 60t60 20h9q25 0 56.5 -19t40.5 -19q11 0 15 4.5t4 19.5v14h77v-23q0 -39 -17 -59t-60 -20h-7q-26 0 -59 19t-42 19q-17 0 -17 -23zM196 488h35q91 0 91 -89v-399h-90v386q0 18 -6 23.5t-24 5.5h-35q-18 0 -25.5 -8t-7.5 -27v-380h-90v488h90
v-39q13 39 62 39z" />
    <glyph glyph-name="ograve" unicode="&#xf2;" horiz-adv-x="370" 
d="M220 519h-77l-105 132h100zM242 101v286q0 18 -6 24t-24 6h-55q-18 0 -23.5 -6t-5.5 -24v-286q0 -18 5.5 -24t23.5 -6h55q18 0 24 6t6 24zM131 488h107q93 0 93 -89v-311q0 -88 -93 -88h-107q-92 0 -92 88v311q0 89 92 89z" />
    <glyph glyph-name="oacute" unicode="&#xf3;" horiz-adv-x="370" 
d="M326 651l-105 -132h-77l82 132h100zM242 101v286q0 18 -6 24t-24 6h-55q-18 0 -23.5 -6t-5.5 -24v-286q0 -18 5.5 -24t23.5 -6h55q18 0 24 6t6 24zM131 488h107q93 0 93 -89v-311q0 -88 -93 -88h-107q-92 0 -92 88v311q0 89 92 89z" />
    <glyph glyph-name="ocircumflex" unicode="&#xf4;" horiz-adv-x="370" 
d="M183 600l-52 -81h-94l96 132h101l95 -132h-93zM242 101v286q0 18 -6 24t-24 6h-55q-18 0 -23.5 -6t-5.5 -24v-286q0 -18 5.5 -24t23.5 -6h55q18 0 24 6t6 24zM131 488h107q93 0 93 -89v-311q0 -88 -93 -88h-107q-92 0 -92 88v311q0 89 92 89z" />
    <glyph glyph-name="otilde" unicode="&#xf5;" horiz-adv-x="370" 
d="M116 549v-15h-78v22q0 40 18 60t60 20h9q25 0 56.5 -19t40.5 -19q11 0 15 4.5t4 19.5v14h77v-23q0 -39 -17 -59t-60 -20h-7q-26 0 -59 19t-42 19q-17 0 -17 -23zM242 101v286q0 18 -6 24t-24 6h-55q-18 0 -23.5 -6t-5.5 -24v-286q0 -18 5.5 -24t23.5 -6h55q18 0 24 6
t6 24zM131 488h107q93 0 93 -89v-311q0 -88 -93 -88h-107q-92 0 -92 88v311q0 89 92 89z" />
    <glyph glyph-name="odieresis" unicode="&#xf6;" horiz-adv-x="370" 
d="M330 635v-94h-101v94h101zM141 635v-94h-102v94h102zM242 101v286q0 18 -6 24t-24 6h-55q-18 0 -23.5 -6t-5.5 -24v-286q0 -18 5.5 -24t23.5 -6h55q18 0 24 6t6 24zM131 488h107q93 0 93 -89v-311q0 -88 -93 -88h-107q-92 0 -92 88v311q0 89 92 89z" />
    <glyph glyph-name="divide" unicode="&#xf7;" horiz-adv-x="412" 
d="M25 276v74h362v-74h-362zM161 501h90v-88h-90v88zM161 212h90v-87h-90v87z" />
    <glyph glyph-name="oslash" unicode="&#xf8;" horiz-adv-x="378" 
d="M248 96v219l-112 -244q6 -5 24 -5h58q19 0 24.5 5.5t5.5 24.5zM129 392v-220l112 245q-5 5 -23 5h-58q-19 0 -25 -5.5t-6 -24.5zM337 508l-21 -46q19 -22 19 -63v-311q0 -88 -93 -88h-107q-17 0 -30 3l-11 -23h-53l21 46q-19 22 -19 62v311q0 89 92 89h107q16 0 31 -3
l10 23h54z" />
    <glyph glyph-name="ugrave" unicode="&#xf9;" horiz-adv-x="365" 
d="M223 519h-77l-105 132h100zM231 488h90v-488h-90v39q-13 -39 -62 -39h-36q-90 0 -90 88v400h90v-386q0 -18 6 -23.5t24 -5.5h35q18 0 25.5 8t7.5 27v380z" />
    <glyph glyph-name="uacute" unicode="&#xfa;" horiz-adv-x="365" 
d="M325 651l-105 -132h-77l82 132h100zM231 488h90v-488h-90v39q-13 -39 -62 -39h-36q-90 0 -90 88v400h90v-386q0 -18 6 -23.5t24 -5.5h35q18 0 25.5 8t7.5 27v380z" />
    <glyph glyph-name="ucircumflex" unicode="&#xfb;" horiz-adv-x="361" 
d="M178 600l-52 -81h-94l96 132h101l95 -132h-93zM231 488h90v-488h-90v39q-13 -39 -62 -39h-36q-90 0 -90 88v400h90v-386q0 -18 6 -23.5t24 -5.5h35q18 0 25.5 8t7.5 27v380z" />
    <glyph glyph-name="udieresis" unicode="&#xfc;" horiz-adv-x="364" 
d="M134 635v-94h-102v94h102zM231 488h90v-488h-90v39q-13 -39 -62 -39h-36q-90 0 -90 88v400h90v-386q0 -18 6 -23.5t24 -5.5h35q18 0 25.5 8t7.5 27v380zM222 635h101v-94h-101v94z" />
    <glyph glyph-name="yacute" unicode="&#xfd;" horiz-adv-x="342" 
d="M8 488h92l74 -409l69 409h91l-103 -535q-22 -91 -115 -91h-60v72h41q43 0 52 33l10 41h-49zM136 519l82 132h100l-105 -132h-77z" />
    <glyph glyph-name="thorn" unicode="&#xfe;" horiz-adv-x="362" 
d="M230 102v284q0 18 -5.5 23.5t-23.5 5.5h-36q-32 0 -32 -35v-272q0 -35 32 -35h36q18 0 23.5 5.5t5.5 23.5zM195 488h35q91 0 91 -89v-311q0 -88 -91 -88h-35q-49 0 -62 36v-174h-90v807h89v-220q13 39 63 39z" />
    <glyph glyph-name="ydieresis" unicode="&#xff;" horiz-adv-x="349" 
d="M25 541v94h102v-94h-102zM215 541v94h101v-94h-101zM8 488h92l74 -409l69 409h91l-103 -535q-22 -91 -115 -91h-60v72h41q43 0 52 33l10 41h-49z" />
    <glyph glyph-name="Amacron" unicode="&#x100;" horiz-adv-x="385" 
d="M322 726v-68h-268v68h268zM136 218h109l-57 330zM282 0l-25 145h-132l-23 -145h-90l111 626h131l119 -626h-91z" />
    <glyph glyph-name="amacron" unicode="&#x101;" horiz-adv-x="360" 
d="M310 619v-68h-268v68h268zM158 73h35q18 0 25.5 8t7.5 27v272q0 19 -7.5 27t-25.5 8h-35q-18 0 -24 -5.5t-6 -23.5v-284q0 -18 6 -23.5t24 -5.5zM226 488h90v-488h-90v39q-13 -39 -62 -39h-36q-90 0 -90 88v311q0 89 90 89h36q49 0 62 -39v39z" />
    <glyph glyph-name="Abreve" unicode="&#x102;" horiz-adv-x="385" 
d="M239 657h-101q-94 0 -94 89v43h84v-38q0 -18 6 -23.5t24 -5.5h61q18 0 24 5.5t6 23.5v38h84v-43q0 -89 -94 -89zM136 218h109l-57 330zM282 0l-25 145h-132l-23 -145h-90l111 626h131l119 -626h-91z" />
    <glyph glyph-name="abreve" unicode="&#x103;" horiz-adv-x="360" 
d="M158 73h35q18 0 25.5 8t7.5 27v272q0 19 -7.5 27t-25.5 8h-35q-18 0 -24 -5.5t-6 -23.5v-284q0 -18 6 -23.5t24 -5.5zM226 449v39h90v-488h-90v39q-13 -39 -62 -39h-36q-90 0 -90 88v311q0 89 90 89h36q49 0 62 -39zM243 651h84v-43q0 -89 -94 -89h-101q-94 0 -94 89v43
h84v-38q0 -18 6 -23.5t24 -5.5h61q18 0 24 5.5t6 23.5v38z" />
    <glyph glyph-name="Aogonek" unicode="&#x104;" horiz-adv-x="385" 
d="M136 218h109l-57 330zM310 -162h81v-63h-97q-86 0 -86 84v33q0 85 86 85h8v23h-20l-25 145h-132l-23 -145h-90l111 626h131l117 -615h2v-97h-63q-18 0 -23.5 -5t-5.5 -22v-22q0 -17 5.5 -22t23.5 -5z" />
    <glyph glyph-name="aogonek" unicode="&#x105;" horiz-adv-x="360" 
d="M158 73h35q18 0 25.5 8t7.5 27v272q0 19 -7.5 27t-25.5 8h-35q-18 0 -24 -5.5t-6 -23.5v-284q0 -18 6 -23.5t24 -5.5zM253 -162h81v-63h-97q-86 0 -86 84v33q0 85 86 85h8v23h-19v39q-13 -39 -62 -39h-36q-90 0 -90 88v311q0 89 90 89h36q49 0 62 -39v39h90v-574h-63
q-18 0 -23.5 -5t-5.5 -22v-22q0 -17 5.5 -22t23.5 -5z" />
    <glyph glyph-name="Cacute" unicode="&#x106;" horiz-adv-x="377" 
d="M336 789l-105 -132h-77l82 132h100zM340 430h-92v96q0 18 -5.5 23.5t-23.5 5.5h-51q-18 0 -24 -5.5t-6 -23.5v-427q0 -18 6 -23.5t24 -5.5h51q18 0 23.5 5.5t5.5 23.5v95h92v-106q0 -89 -94 -89h-106q-93 0 -93 89v450q0 88 93 88h106q94 0 94 -88v-108z" />
    <glyph glyph-name="cacute" unicode="&#x107;" horiz-adv-x="351" 
d="M321 651l-105 -132h-77l82 132h100zM131 488h95q94 0 94 -89v-65h-89v52q0 18 -6 23.5t-24 5.5h-43q-18 0 -24 -5.5t-6 -23.5v-284q0 -18 6 -23.5t24 -5.5h43q18 0 24 5.5t6 23.5v52h89v-66q0 -88 -94 -88h-95q-93 0 -93 88v311q0 89 93 89z" />
    <glyph glyph-name="Ccaron" unicode="&#x10c;" horiz-adv-x="377" 
d="M244 657h-101l-96 132h94l52 -81l53 81h93zM340 430h-92v96q0 18 -5.5 23.5t-23.5 5.5h-51q-18 0 -24 -5.5t-6 -23.5v-427q0 -18 6 -23.5t24 -5.5h51q18 0 23.5 5.5t5.5 23.5v95h92v-106q0 -89 -94 -89h-106q-93 0 -93 89v450q0 88 93 88h106q94 0 94 -88v-108z" />
    <glyph glyph-name="ccaron" unicode="&#x10d;" horiz-adv-x="351" 
d="M230 519h-101l-96 132h94l52 -81l53 81h93zM131 488h95q94 0 94 -89v-65h-89v52q0 18 -6 23.5t-24 5.5h-43q-18 0 -24 -5.5t-6 -23.5v-284q0 -18 6 -23.5t24 -5.5h43q18 0 24 5.5t6 23.5v52h89v-66q0 -88 -94 -88h-95q-93 0 -93 88v311q0 89 93 89z" />
    <glyph glyph-name="Dcaron" unicode="&#x10e;" horiz-adv-x="412" 
d="M254 657h-101l-96 132h94l52 -81l53 81h93zM274 100v426q0 18 -6 23.5t-24 5.5h-99v-484h99q18 0 24 5.5t6 23.5zM54 626h218q93 0 93 -88v-450q0 -88 -93 -88h-218v626z" />
    <glyph glyph-name="dcaron" unicode="&#x10f;" horiz-adv-x="389" 
d="M158 73h35q18 0 25.5 8t7.5 27v273q0 19 -7.5 27t-25.5 8h-35q-18 0 -24 -6t-6 -23v-285q0 -18 6 -23.5t24 -5.5zM226 450v219h90v-669h-90v39q-13 -39 -62 -39h-36q-90 0 -90 88v312q0 89 90 89h36q49 0 62 -39zM360 669h73v-47l-44 -124h-29v171z" />
    <glyph glyph-name="Dcroat" unicode="&#x110;" horiz-adv-x="414" 
d="M274 102v422q0 18 -6 23.5t-24 5.5h-99v-202h75v-71h-75v-207h99q18 0 24 5.5t6 23.5zM54 626h218q93 0 93 -88v-450q0 -88 -93 -88h-218v280h-51v71h51v275z" />
    <glyph glyph-name="dcroat" unicode="&#x111;" horiz-adv-x="365" 
d="M163 73h35q18 0 25.5 8t7.5 27v272q0 19 -7.5 27t-25.5 8h-35q-18 0 -24 -5.5t-6 -23.5v-284q0 -18 6 -23.5t24 -5.5zM367 607v-62h-46v-545h-90v39q-13 -39 -62 -39h-36q-90 0 -90 88v311q0 89 90 89h36q49 0 62 -39v96h-80v62h80v62h90v-62h46z" />
    <glyph glyph-name="Emacron" unicode="&#x112;" horiz-adv-x="343" 
d="M317 739v-68h-268v68h268zM143 73h181v-73h-272v626h265v-73h-174v-193h144v-73h-144v-214z" />
    <glyph glyph-name="emacron" unicode="&#x113;" horiz-adv-x="360" 
d="M313 619v-68h-268v68h268zM130 282h108v106q0 17 -5.5 23t-23.5 6h-49q-18 0 -24 -6t-6 -23v-106zM135 488h98q94 0 94 -89v-183h-197v-116q0 -17 6 -23t24 -6h46q18 0 24 6t6 24v40h88v-53q0 -88 -93 -88h-96q-93 0 -93 88v311q0 89 93 89z" />
    <glyph glyph-name="Edotaccent" unicode="&#x116;" horiz-adv-x="343" 
d="M246 753v-96h-107v96h107zM143 73h181v-73h-272v626h265v-73h-174v-193h144v-73h-144v-214z" />
    <glyph glyph-name="edotaccent" unicode="&#x117;" horiz-adv-x="360" 
d="M241 633v-96h-107v96h107zM130 282h108v106q0 17 -5.5 23t-23.5 6h-49q-18 0 -24 -6t-6 -23v-106zM135 488h98q94 0 94 -89v-183h-197v-116q0 -17 6 -23t24 -6h46q18 0 24 6t6 24v40h88v-53q0 -88 -93 -88h-96q-93 0 -93 88v311q0 89 93 89z" />
    <glyph glyph-name="Eogonek" unicode="&#x118;" horiz-adv-x="343" 
d="M261 -162h81v-63h-97q-86 0 -86 84v33q0 85 86 85h8v23h-201v626h265v-73h-174v-193h144v-73h-144v-214h181v-159h-63q-18 0 -23.5 -5t-5.5 -22v-22q0 -17 5.5 -22t23.5 -5z" />
    <glyph glyph-name="eogonek" unicode="&#x119;" horiz-adv-x="360" 
d="M130 282h108v106q0 17 -5.5 23t-23.5 6h-49q-18 0 -24 -6t-6 -23v-106zM135 488h98q94 0 94 -89v-183h-197v-116q0 -17 6 -23t24 -6h46q18 0 24 6t6 24v40h88v-53q0 -88 -93 -88h-5v-86h-63q-18 0 -23.5 -5t-5.5 -22v-22q0 -17 5.5 -22t23.5 -5h81v-63h-97q-86 0 -86 84
v33q0 85 86 85h8v23h-20q-93 0 -93 88v311q0 89 93 89z" />
    <glyph glyph-name="Ecaron" unicode="&#x11a;" horiz-adv-x="343" 
d="M235 657h-101l-96 132h94l52 -81l53 81h93zM143 287v-214h181v-73h-272v626h265v-73h-174v-193h144v-73h-144z" />
    <glyph glyph-name="ecaron" unicode="&#x11b;" horiz-adv-x="360" 
d="M235 519h-101l-96 132h94l52 -81l53 81h93zM130 282h108v106q0 17 -5.5 23t-23.5 6h-49q-18 0 -24 -6t-6 -23v-106zM135 488h98q94 0 94 -89v-183h-197v-116q0 -17 6 -23t24 -6h46q18 0 24 6t6 24v40h88v-53q0 -88 -93 -88h-96q-93 0 -93 88v311q0 89 93 89z" />
    <glyph glyph-name="Gbreve" unicode="&#x11e;" horiz-adv-x="382" 
d="M244 657h-101q-94 0 -94 89v43h84v-38q0 -18 6 -23.5t24 -5.5h61q18 0 24 5.5t6 23.5v38h84v-43q0 -89 -94 -89zM340 443h-91v83q0 18 -6 23.5t-24 5.5h-51q-18 0 -24 -5.5t-6 -23.5v-427q0 -18 6 -23.5t24 -5.5h51q18 0 24 5.5t6 23.5v153h-50v70h141v-234
q0 -89 -93 -89h-107q-93 0 -93 89v450q0 88 93 88h107q93 0 93 -88v-95z" />
    <glyph glyph-name="gbreve" unicode="&#x11f;" horiz-adv-x="360" 
d="M158 79h35q18 0 25.5 8t7.5 27v266q0 19 -7.5 27t-25.5 8h-35q-18 0 -24 -5.5t-6 -23.5v-278q0 -17 6 -23t24 -6zM226 449v39h90v-538q0 -88 -94 -88h-167v71h141q18 0 24 6t6 23v83q-13 -39 -62 -39h-36q-90 0 -90 89v304q0 89 90 89h36q49 0 62 -39zM240 651h84v-43
q0 -89 -94 -89h-101q-94 0 -94 89v43h84v-38q0 -18 6 -23.5t24 -5.5h61q18 0 24 5.5t6 23.5v38z" />
    <glyph glyph-name="uni0122" unicode="&#x122;" horiz-adv-x="382" 
d="M148 -229v179h99v-49l-66 -130h-33zM340 443h-91v83q0 18 -6 23.5t-24 5.5h-51q-18 0 -24 -5.5t-6 -23.5v-427q0 -18 6 -23.5t24 -5.5h51q18 0 24 5.5t6 23.5v153h-50v70h141v-234q0 -89 -93 -89h-107q-93 0 -93 89v450q0 88 93 88h107q93 0 93 -88v-95z" />
    <glyph glyph-name="uni0123" unicode="&#x123;" horiz-adv-x="360" 
d="M236 699v-180h-98v49l66 131h32zM158 79h35q18 0 25.5 8t7.5 27v266q0 19 -7.5 27t-25.5 8h-35q-18 0 -24 -5.5t-6 -23.5v-278q0 -17 6 -23t24 -6zM226 488h90v-538q0 -88 -94 -88h-167v71h141q18 0 24 6t6 23v83q-13 -39 -62 -39h-36q-90 0 -90 89v304q0 89 90 89h36
q49 0 62 -39v39z" />
    <glyph glyph-name="Imacron" unicode="&#x12a;" horiz-adv-x="210" 
d="M60 626h90v-626h-90v626zM-30 671v68h268v-68h-268z" />
    <glyph glyph-name="imacron" unicode="&#x12b;" horiz-adv-x="178" 
d="M134 0h-90v488h90v-488zM-45 551v68h268v-68h-268z" />
    <glyph glyph-name="Iogonek" unicode="&#x12e;" horiz-adv-x="210" 
d="M87 -162h81v-63h-97q-86 0 -86 84v33q0 85 86 85h8v23h-19v626h90v-712h-63q-18 0 -23.5 -5t-5.5 -22v-22q0 -17 5.5 -22t23.5 -5z" />
    <glyph glyph-name="iogonek" unicode="&#x12f;" horiz-adv-x="178" 
d="M136 670v-89h-94v89h94zM71 -162h81v-63h-97q-86 0 -86 84v33q0 85 86 85h8v23h-19v488h90v-574h-63q-18 0 -23.5 -5t-5.5 -22v-22q0 -17 5.5 -22t23.5 -5z" />
    <glyph glyph-name="Idotaccent" unicode="&#x130;" horiz-adv-x="210" 
d="M60 626h90v-626h-90v626zM51 670v96h107v-96h-107z" />
    <glyph glyph-name="dotlessi" unicode="&#x131;" horiz-adv-x="178" 
d="M134 0h-90v488h90v-488z" />
    <glyph glyph-name="uni0136" unicode="&#x136;" horiz-adv-x="384" 
d="M52 0v626h90v-626h-90zM148 -229v179h98v-49l-66 -130h-32zM374 626l-132 -314l131 -312h-98l-127 312l129 314h97z" />
    <glyph glyph-name="uni0137" unicode="&#x137;" horiz-adv-x="357" 
d="M44 0v669h90v-669h-90zM137 -229v179h98v-49l-66 -130h-32zM354 488l-112 -233l112 -255h-96l-108 255l108 233h96z" />
    <glyph glyph-name="Lacute" unicode="&#x139;" horiz-adv-x="301" 
d="M241 789l-105 -132h-77l82 132h100zM142 73h155v-73h-245v626h90v-553z" />
    <glyph glyph-name="lacute" unicode="&#x13a;" horiz-adv-x="178" 
d="M50 700l82 132h100l-105 -132h-77zM134 0h-90v669h90v-669z" />
    <glyph glyph-name="uni013B" unicode="&#x13b;" horiz-adv-x="301" 
d="M124 -229v179h98v-49l-66 -130h-32zM142 73h155v-73h-245v626h90v-553z" />
    <glyph glyph-name="uni013C" unicode="&#x13c;" horiz-adv-x="178" 
d="M134 0h-90v669h90v-669zM40 -50h98v-49l-66 -130h-32v179z" />
    <glyph glyph-name="Lcaron" unicode="&#x13d;" horiz-adv-x="301" 
d="M251 578l-43 -124h-30v171h73v-47zM142 73h155v-73h-245v626h90v-553z" />
    <glyph glyph-name="lcaron" unicode="&#x13e;" horiz-adv-x="210" 
d="M178 669h73v-47l-43 -124h-30v171zM134 0h-90v669h90v-669z" />
    <glyph glyph-name="Lslash" unicode="&#x141;" horiz-adv-x="309" 
d="M144 73h155v-73h-245v253l-76 -36v71l76 35v303h90v-261l100 47v-70l-100 -47v-222z" />
    <glyph glyph-name="lslash" unicode="&#x142;" horiz-adv-x="188" 
d="M233 460v-70l-94 -44v-346h-90v304l-83 -39v71l83 39v294h90v-253z" />
    <glyph glyph-name="Nacute" unicode="&#x143;" horiz-adv-x="410" 
d="M167 657l82 132h100l-105 -132h-77zM275 626h83v-626h-91l-132 452v-452h-83v626h95l128 -439v439z" />
    <glyph glyph-name="nacute" unicode="&#x144;" horiz-adv-x="365" 
d="M323 651l-105 -132h-77l82 132h100zM196 488h35q91 0 91 -89v-399h-90v386q0 18 -6 23.5t-24 5.5h-35q-18 0 -25.5 -8t-7.5 -27v-380h-90v488h90v-39q13 39 62 39z" />
    <glyph glyph-name="uni0145" unicode="&#x145;" horiz-adv-x="410" 
d="M275 626h83v-626h-91l-132 452v-452h-83v626h95l128 -439v439zM147 -50h98v-49l-66 -130h-32v179z" />
    <glyph glyph-name="uni0146" unicode="&#x146;" horiz-adv-x="365" 
d="M130 -229v179h99v-49l-66 -130h-33zM196 488h35q91 0 91 -89v-399h-90v386q0 18 -6 23.5t-24 5.5h-35q-18 0 -25.5 -8t-7.5 -27v-380h-90v488h90v-39q13 39 62 39z" />
    <glyph glyph-name="Ncaron" unicode="&#x147;" horiz-adv-x="410" 
d="M157 657l-96 132h94l52 -81l53 81h93l-95 -132h-101zM275 626h83v-626h-91l-132 452v-452h-83v626h95l128 -439v439z" />
    <glyph glyph-name="ncaron" unicode="&#x148;" horiz-adv-x="365" 
d="M226 519h-101l-96 132h94l52 -81l53 81h93zM196 488h35q91 0 91 -89v-399h-90v386q0 18 -6 23.5t-24 5.5h-35q-18 0 -25.5 -8t-7.5 -27v-380h-90v488h90v-39q13 39 62 39z" />
    <glyph glyph-name="Omacron" unicode="&#x14c;" horiz-adv-x="393" 
d="M330 726v-68h-268v68h268zM255 102v422q0 18 -6 23.5t-24 5.5h-58q-18 0 -23.5 -5.5t-5.5 -23.5v-422q0 -18 5.5 -23.5t23.5 -5.5h58q18 0 24 5.5t6 23.5zM141 626h111q93 0 93 -88v-450q0 -88 -93 -88h-111q-94 0 -94 88v450q0 88 94 88z" />
    <glyph glyph-name="omacron" unicode="&#x14d;" horiz-adv-x="370" 
d="M316 619v-68h-268v68h268zM242 101v286q0 18 -6 24t-24 6h-55q-18 0 -23.5 -6t-5.5 -24v-286q0 -18 5.5 -24t23.5 -6h55q18 0 24 6t6 24zM131 488h107q93 0 93 -89v-311q0 -88 -93 -88h-107q-92 0 -92 88v311q0 89 92 89z" />
    <glyph glyph-name="Ohungarumlaut" unicode="&#x150;" horiz-adv-x="389" 
d="M288 657h-66l82 132h90zM275 789l-106 -132h-66l82 132h90zM255 102v422q0 18 -6 23.5t-24 5.5h-58q-18 0 -23.5 -5.5t-5.5 -23.5v-422q0 -18 5.5 -23.5t23.5 -5.5h58q18 0 24 5.5t6 23.5zM141 626h111q93 0 93 -88v-450q0 -88 -93 -88h-111q-94 0 -94 88v450q0 88 94 88
z" />
    <glyph glyph-name="ohungarumlaut" unicode="&#x151;" horiz-adv-x="370" 
d="M276 519h-66l82 132h90zM263 651l-106 -132h-66l82 132h90zM242 101v286q0 18 -6 24t-24 6h-55q-18 0 -23.5 -6t-5.5 -24v-286q0 -18 5.5 -24t23.5 -6h55q18 0 24 6t6 24zM131 488h107q93 0 93 -89v-311q0 -88 -93 -88h-107q-92 0 -92 88v311q0 89 92 89z" />
    <glyph glyph-name="OE" unicode="&#x152;" horiz-adv-x="564" 
d="M261 100v426q0 18 -6 23.5t-24 5.5h-58q-18 0 -23.5 -5.5t-5.5 -23.5v-426q0 -18 5.5 -23.5t23.5 -5.5h58q18 0 24 5.5t6 23.5zM356 71h181v-71h-254v19q-21 -19 -59 -19h-78q-93 0 -93 88v450q0 88 93 88h77q38 0 60 -19v19h247v-71h-174v-196h144v-71h-144v-217z" />
    <glyph glyph-name="oe" unicode="&#x153;" horiz-adv-x="584" 
d="M320 283h106v104q0 18 -5.5 23.5t-23.5 5.5h-48q-18 0 -23.5 -5.5t-5.5 -23.5v-104zM231 103v282q-3 30 -33 30h-35q-18 0 -24 -5.5t-6 -23.5v-284q0 -18 6 -23.5t24 -5.5h35q16 0 24 6.5t9 23.5zM344 488h78q93 0 93 -89v-184h-195v-114q0 -18 5.5 -23.5t23.5 -5.5h45
q18 0 24 5.5t6 23.5v40h89v-53q0 -88 -93 -88h-77q-26 0 -45 12t-26 30q-6 -18 -24.5 -30t-44.5 -12h-70q-90 0 -90 88v311q0 89 90 89h71q25 0 44 -12.5t25 -29.5q6 18 25 30t46 12z" />
    <glyph glyph-name="Racute" unicode="&#x154;" horiz-adv-x="396" 
d="M336 789l-105 -132h-77l82 132h100zM142 553v-228h88q18 0 24 5.5t6 23.5v170q0 18 -6 23.5t-24 5.5h-88zM285 0l-94 253h-49v-253h-90v626h205q93 0 93 -88v-196q0 -76 -67 -87l99 -255h-97z" />
    <glyph glyph-name="racute" unicode="&#x155;" horiz-adv-x="238" 
d="M285 651l-105 -132h-77l82 132h100zM134 488v-60q8 26 28.5 43.5t50.5 17.5h20v-78h-36q-63 0 -63 -74v-337h-90v488h90z" />
    <glyph glyph-name="uni0156" unicode="&#x156;" horiz-adv-x="396" 
d="M151 -229v179h99v-49l-66 -130h-33zM142 553v-228h88q18 0 24 5.5t6 23.5v170q0 18 -6 23.5t-24 5.5h-88zM283 255l99 -255h-97l-94 253h-49v-253h-90v626h205q93 0 93 -88v-196q0 -76 -67 -87z" />
    <glyph glyph-name="uni0157" unicode="&#x157;" horiz-adv-x="238" 
d="M42 -229v179h98v-49l-66 -130h-32zM213 489h20v-78h-36q-63 0 -63 -74v-337h-90v488h90v-60q8 26 28.5 43.5t50.5 17.5z" />
    <glyph glyph-name="Rcaron" unicode="&#x158;" horiz-adv-x="396" 
d="M247 657h-101l-96 132h94l52 -81l53 81h93zM142 553v-228h88q18 0 24 5.5t6 23.5v170q0 18 -6 23.5t-24 5.5h-88zM285 0l-94 253h-49v-253h-90v626h205q93 0 93 -88v-196q0 -76 -67 -87l99 -255h-97z" />
    <glyph glyph-name="rcaron" unicode="&#x159;" horiz-adv-x="238" 
d="M189 519h-101l-96 132h94l52 -81l53 81h93zM134 488v-60q8 26 28.5 43.5t50.5 17.5h20v-78h-36q-63 0 -63 -74v-337h-90v488h90z" />
    <glyph glyph-name="Sacute" unicode="&#x15a;" horiz-adv-x="361" 
d="M142 657l82 132h100l-105 -132h-77zM232 102v153q0 18 -5.5 23.5t-23.5 5.5h-74q-91 0 -91 89v165q0 88 93 88h98q93 0 93 -88v-92h-91v78q0 18 -6 23.5t-24 5.5h-42q-18 0 -24 -5.5t-6 -23.5v-139q0 -18 6 -23.5t24 -5.5h73q92 0 92 -88v-180q0 -88 -94 -88h-97
q-93 0 -93 88v92h91v-78q0 -18 6 -23.5t24 -5.5h42q18 0 23.5 5.5t5.5 23.5z" />
    <glyph glyph-name="sacute" unicode="&#x15b;" horiz-adv-x="328" 
d="M133 519l82 132h100l-105 -132h-77zM207 98v81q0 18 -6 23.5t-24 5.5h-51q-93 0 -93 88v103q0 89 93 89h73q94 0 94 -89v-47h-88v38q0 18 -6 23.5t-24 5.5h-24q-18 0 -24 -5.5t-6 -23.5v-84q0 -18 6 -23.5t24 -5.5h52q92 0 92 -89v-100q0 -88 -93 -88h-74q-93 0 -93 88
v48h88v-38q0 -18 6 -23.5t24 -5.5h24q18 0 24 5.5t6 23.5z" />
    <glyph glyph-name="uni015E" unicode="&#x15e;" horiz-adv-x="361" 
d="M232 102v153q0 18 -5.5 23.5t-23.5 5.5h-74q-91 0 -91 89v165q0 88 93 88h98q93 0 93 -88v-92h-91v78q0 18 -6 23.5t-24 5.5h-42q-18 0 -24 -5.5t-6 -23.5v-139q0 -18 6 -23.5t24 -5.5h73q92 0 92 -88v-180q0 -88 -94 -88h-97q-93 0 -93 88v92h91v-78q0 -18 6 -23.5
t24 -5.5h42q18 0 23.5 5.5t5.5 23.5zM133 -50h98v-49l-66 -130h-32v179z" />
    <glyph glyph-name="uni015F" unicode="&#x15f;" horiz-adv-x="328" 
d="M207 98v81q0 18 -6 23.5t-24 5.5h-51q-93 0 -93 88v103q0 89 93 89h73q94 0 94 -89v-47h-88v38q0 18 -6 23.5t-24 5.5h-24q-18 0 -24 -5.5t-6 -23.5v-84q0 -18 6 -23.5t24 -5.5h52q92 0 92 -89v-100q0 -88 -93 -88h-74q-93 0 -93 88v48h88v-38q0 -18 6 -23.5t24 -5.5h24
q18 0 24 5.5t6 23.5zM114 -50h99v-49l-66 -130h-33v179z" />
    <glyph glyph-name="Scaron" unicode="&#x160;" horiz-adv-x="361" 
d="M131 657l-96 132h94l52 -81l53 81h93l-95 -132h-101zM232 102v153q0 18 -5.5 23.5t-23.5 5.5h-74q-91 0 -91 89v165q0 88 93 88h98q93 0 93 -88v-92h-91v78q0 18 -6 23.5t-24 5.5h-42q-18 0 -24 -5.5t-6 -23.5v-139q0 -18 6 -23.5t24 -5.5h73q92 0 92 -88v-180
q0 -88 -94 -88h-97q-93 0 -93 88v92h91v-78q0 -18 6 -23.5t24 -5.5h42q18 0 23.5 5.5t5.5 23.5z" />
    <glyph glyph-name="scaron" unicode="&#x161;" horiz-adv-x="328" 
d="M112 519l-96 132h94l52 -81l53 81h93l-95 -132h-101zM207 98v81q0 18 -6 23.5t-24 5.5h-51q-93 0 -93 88v103q0 89 93 89h73q94 0 94 -89v-47h-88v38q0 18 -6 23.5t-24 5.5h-24q-18 0 -24 -5.5t-6 -23.5v-84q0 -18 6 -23.5t24 -5.5h52q92 0 92 -89v-100q0 -88 -93 -88
h-74q-93 0 -93 88v48h88v-38q0 -18 6 -23.5t24 -5.5h24q18 0 24 5.5t6 23.5z" />
    <glyph glyph-name="uni0162" unicode="&#x162;" horiz-adv-x="310" 
d="M105 -229v179h98v-49l-66 -130h-32zM5 626h300v-73h-105v-553h-90v553h-105v73z" />
    <glyph glyph-name="uni0163" unicode="&#x163;" horiz-adv-x="310" 
d="M107 -229v179h98v-49l-66 -130h-32zM5 626h300v-73h-105v-553h-90v553h-105v73z" />
    <glyph glyph-name="Tcaron" unicode="&#x164;" horiz-adv-x="310" 
d="M206 657h-101l-96 132h94l52 -81l53 81h93zM305 626v-73h-105v-553h-90v553h-105v73h300z" />
    <glyph glyph-name="tcaron" unicode="&#x165;" horiz-adv-x="219" 
d="M142 571v-83h67v-73h-67v-309q0 -18 5.5 -23.5t23.5 -5.5h38v-77h-64q-94 0 -94 88v327h-46v73h46v83h91zM184 669h85v-47l-56 -104h-29v151z" />
    <glyph glyph-name="Umacron" unicode="&#x16a;" horiz-adv-x="397" 
d="M333 726v-68h-268v68h268zM257 626h91v-538q0 -88 -94 -88h-111q-94 0 -94 88v538h91v-524q0 -18 6 -23.5t24 -5.5h57q19 0 24.5 5.5t5.5 23.5v524z" />
    <glyph glyph-name="umacron" unicode="&#x16b;" horiz-adv-x="365" 
d="M314 619v-68h-268v68h268zM231 488h90v-488h-90v39q-13 -39 -62 -39h-36q-90 0 -90 88v400h90v-386q0 -18 6 -23.5t24 -5.5h35q18 0 25.5 8t7.5 27v380z" />
    <glyph glyph-name="Uring" unicode="&#x16e;" horiz-adv-x="397" 
d="M155 740v-7q0 -15 4.5 -20t21.5 -5h33q17 0 21.5 5t4.5 20v7q0 15 -4.5 20t-21.5 5h-33q-17 0 -21.5 -5t-4.5 -20zM230 658h-65q-73 0 -73 70v17q0 70 73 70h65q73 0 73 -70v-17q0 -70 -73 -70zM257 626h91v-538q0 -88 -94 -88h-111q-94 0 -94 88v538h91v-524
q0 -18 6 -23.5t24 -5.5h57q19 0 24.5 5.5t5.5 23.5v524z" />
    <glyph glyph-name="uring" unicode="&#x16f;" horiz-adv-x="365" 
d="M142 608v-7q0 -15 4.5 -20t21.5 -5h33q17 0 21.5 5t4.5 20v7q0 15 -4.5 20t-21.5 5h-33q-17 0 -21.5 -5t-4.5 -20zM217 526h-65q-73 0 -73 70v17q0 70 73 70h65q73 0 73 -70v-17q0 -70 -73 -70zM231 488h90v-488h-90v39q-13 -39 -62 -39h-36q-90 0 -90 88v400h90v-386
q0 -18 6 -23.5t24 -5.5h35q18 0 25.5 8t7.5 27v380z" />
    <glyph glyph-name="Uhungarumlaut" unicode="&#x170;" horiz-adv-x="393" 
d="M286 657h-66l82 132h90zM273 789l-106 -132h-66l82 132h90zM257 102v524h91v-538q0 -88 -94 -88h-111q-94 0 -94 88v538h91v-524q0 -18 6 -23.5t24 -5.5h57q19 0 24.5 5.5t5.5 23.5z" />
    <glyph glyph-name="uhungarumlaut" unicode="&#x171;" horiz-adv-x="365" 
d="M262 519h-66l82 132h90zM249 651l-106 -132h-66l82 132h90zM231 488h90v-488h-90v39q-13 -39 -62 -39h-36q-90 0 -90 88v400h90v-386q0 -18 6 -23.5t24 -5.5h35q18 0 25.5 8t7.5 27v380z" />
    <glyph glyph-name="Uogonek" unicode="&#x172;" horiz-adv-x="397" 
d="M257 626h91v-538q0 -88 -94 -88h-12v-86h-63q-18 0 -23.5 -5t-5.5 -22v-22q0 -17 5.5 -22t23.5 -5h81v-63h-97q-86 0 -86 84v33q0 85 86 85h8v23h-28q-94 0 -94 88v538h91v-524q0 -18 6 -23.5t24 -5.5h57q19 0 24.5 5.5t5.5 23.5v524z" />
    <glyph glyph-name="uogonek" unicode="&#x173;" horiz-adv-x="365" 
d="M258 -162h81v-63h-97q-86 0 -86 84v33q0 85 86 85h8v23h-19v39q-13 -39 -62 -39h-36q-90 0 -90 88v400h90v-386q0 -18 6 -23.5t24 -5.5h35q18 0 25.5 8t7.5 27v380h90v-574h-63q-18 0 -23.5 -5t-5.5 -22v-22q0 -17 5.5 -22t23.5 -5z" />
    <glyph glyph-name="Ydieresis" unicode="&#x178;" horiz-adv-x="357" 
d="M327 755v-94h-101v94h101zM138 755v-94h-102v94h102zM357 626l-128 -428v-198h-91v198l-134 428h92l87 -345l82 345h92z" />
    <glyph glyph-name="Zacute" unicode="&#x179;" horiz-adv-x="313" 
d="M309 789l-105 -132h-77l82 132h100zM19 554v73h286v-73l-205 -481h200v-73h-292v73l205 481h-194z" />
    <glyph glyph-name="zacute" unicode="&#x17a;" horiz-adv-x="292" 
d="M301 651l-105 -132h-77l82 132h100zM276 416l-170 -344h172v-72h-264v72l169 344h-158v72h251v-72z" />
    <glyph glyph-name="Zdotaccent" unicode="&#x17b;" horiz-adv-x="313" 
d="M218 753v-96h-107v96h107zM305 627v-73l-205 -481h200v-73h-292v73l205 481h-194v73h286z" />
    <glyph glyph-name="zdotaccent" unicode="&#x17c;" horiz-adv-x="292" 
d="M207 633v-96h-107v96h107zM106 72h172v-72h-264v72l169 344h-158v72h251v-72z" />
    <glyph glyph-name="Zcaron" unicode="&#x17d;" horiz-adv-x="313" 
d="M213 657h-101l-96 132h94l52 -81l53 81h93zM19 554v73h286v-73l-205 -481h200v-73h-292v73l205 481h-194z" />
    <glyph glyph-name="zcaron" unicode="&#x17e;" horiz-adv-x="292" 
d="M201 519h-101l-96 132h94l52 -81l53 81h93zM276 416l-170 -344h172v-72h-264v72l169 344h-158v72h251v-72z" />
    <glyph glyph-name="florin" unicode="&#x192;" horiz-adv-x="353" 
d="M307 592h-47q-18 0 -23 -5t-7 -24l-10 -75h87v-73h-96l-61 -469q-6 -45 -26.5 -66.5t-66.5 -21.5h-74v77h47q18 0 23 5t7 24l58 451h-65v73h75l12 93q6 45 26.5 66.5t66.5 21.5h74v-77z" />
    <glyph glyph-name="uni0218" unicode="&#x218;" horiz-adv-x="361" 
d="M232 102v153q0 18 -5.5 23.5t-23.5 5.5h-74q-91 0 -91 89v165q0 88 93 88h98q93 0 93 -88v-92h-91v78q0 18 -6 23.5t-24 5.5h-42q-18 0 -24 -5.5t-6 -23.5v-139q0 -18 6 -23.5t24 -5.5h73q92 0 92 -88v-180q0 -88 -94 -88h-97q-93 0 -93 88v92h91v-78q0 -18 6 -23.5
t24 -5.5h42q18 0 23.5 5.5t5.5 23.5zM133 -50h98v-49l-66 -130h-32v179z" />
    <glyph glyph-name="uni0219" unicode="&#x219;" horiz-adv-x="328" 
d="M207 98v81q0 18 -6 23.5t-24 5.5h-51q-93 0 -93 88v103q0 89 93 89h73q94 0 94 -89v-47h-88v38q0 18 -6 23.5t-24 5.5h-24q-18 0 -24 -5.5t-6 -23.5v-84q0 -18 6 -23.5t24 -5.5h52q92 0 92 -89v-100q0 -88 -93 -88h-74q-93 0 -93 88v48h88v-38q0 -18 6 -23.5t24 -5.5h24
q18 0 24 5.5t6 23.5zM126 -50h98v-49l-66 -130h-32v179z" />
    <glyph glyph-name="uni021A" unicode="&#x21a;" horiz-adv-x="310" 
d="M107 -229v179h99v-49l-66 -130h-33zM5 626h300v-73h-105v-553h-90v553h-105v73z" />
    <glyph glyph-name="uni021B" unicode="&#x21b;" horiz-adv-x="219" 
d="M79 -229v179h98v-49l-66 -130h-32zM209 415h-67v-309q0 -18 5.5 -23.5t23.5 -5.5h38v-77h-64q-94 0 -94 88v327h-46v73h46v83h91v-83h67v-73z" />
    <glyph glyph-name="apostrophemod" unicode="&#x2bc;" horiz-adv-x="166" 
d="M32 626h101v-65l-70 -197h-31v262z" />
    <glyph glyph-name="circumflex" unicode="&#x2c6;" horiz-adv-x="421" 
d="M64 519l96 132h101l95 -132h-93l-53 81l-52 -81h-94z" />
    <glyph glyph-name="caron" unicode="&#x2c7;" horiz-adv-x="421" 
d="M160 519l-96 132h94l52 -81l53 81h93l-95 -132h-101z" />
    <glyph glyph-name="uni02C9" unicode="&#x2c9;" horiz-adv-x="421" 
d="M76 551v68h268v-68h-268z" />
    <glyph glyph-name="breve" unicode="&#x2d8;" horiz-adv-x="421" 
d="M271 651h84v-43q0 -89 -94 -89h-101q-94 0 -94 89v43h84v-38q0 -18 6 -23.5t24 -5.5h61q18 0 24 5.5t6 23.5v38z" />
    <glyph glyph-name="dotaccent" unicode="&#x2d9;" horiz-adv-x="421" 
d="M157 537v96h107v-96h-107z" />
    <glyph glyph-name="ring" unicode="&#x2da;" horiz-adv-x="421" 
d="M316 594v-17q0 -70 -73 -70h-65q-73 0 -73 70v17q0 70 73 70h65q73 0 73 -70zM253 582v7q0 15 -4.5 20t-21.5 5h-33q-17 0 -21.5 -5t-4.5 -20v-7q0 -15 4.5 -20t21.5 -5h33q17 0 21.5 5t4.5 20z" />
    <glyph glyph-name="ogonek" unicode="&#x2db;" horiz-adv-x="421" 
d="M222 -162h81v-63h-97q-86 0 -86 84v33q0 85 86 85h8v34h71v-97h-63q-18 0 -23.5 -5t-5.5 -22v-22q0 -17 5.5 -22t23.5 -5z" />
    <glyph glyph-name="tilde" unicode="&#x2dc;" horiz-adv-x="421" 
d="M266 534q-26 0 -59 19t-42 19q-17 0 -17 -23v-15h-78v22q0 40 18 60t60 20h9q25 0 56.5 -19t40.5 -19q11 0 15 4.5t4 19.5v14h77v-23q0 -39 -17 -59t-60 -20h-7z" />
    <glyph glyph-name="hungarumlaut" unicode="&#x2dd;" horiz-adv-x="421" 
d="M184 519l82 132h90l-106 -132h-66zM65 519l82 132h90l-106 -132h-66z" />
    <glyph glyph-name="pi" unicode="&#x3c0;" horiz-adv-x="436" 
d="M434 488v-71h-71v-417h-90v417h-116v-329q0 -88 -93 -88h-62v77h35q19 0 24.5 5.5t5.5 23.5v311h-65v71h432z" />
    <glyph glyph-name="dvCandrabindu" unicode="&#x901;" horiz-adv-x="0" 
d="M-250 811h80v-47q0 -18 5.5 -24t24.5 -6h88q19 0 25 6t6 24v47h79v-56q0 -83 -94 -83h-120q-94 0 -94 83v56zM-136 857h79v-82h-79v82z" />
    <glyph glyph-name="dvAnusvara" unicode="&#x902;" horiz-adv-x="0" 
d="M-141 822h84v-95h-84v95z" />
    <glyph glyph-name="dvVisarga" unicode="&#x903;" horiz-adv-x="176" 
d="M46 157h84v-95h-84v95zM46 496h84v-95h-84v95z" />
    <glyph glyph-name="dvA" unicode="&#x905;" horiz-adv-x="548" 
d="M568 626v-70h-72v-556h-89v282h-98v-117q0 -87 -92 -87h-91q-92 0 -92 87v93h91v-81q0 -18 5.5 -23.5t23.5 -5.5h36q17 0 23 5.5t6 23.5v107q0 18 -7 24.5t-25 6.5h-60v71h60q18 0 25 6.5t7 25.5v110q0 18 -6 23.5t-23 5.5h-36q-18 0 -23.5 -5.5t-5.5 -23.5v-79h-91v91
q0 87 92 87h91q92 0 92 -87v-139q0 -44 -39 -49v-1h137v275h161z" />
    <glyph glyph-name="dvAA" unicode="&#x906;" horiz-adv-x="743" 
d="M762 626v-70h-72v-556h-89v556h-105v-556h-89v282h-98v-117q0 -87 -92 -87h-91q-92 0 -92 87v93h91v-81q0 -18 5.5 -23.5t23.5 -5.5h36q17 0 23 5.5t6 23.5v107q0 18 -7 24.5t-25 6.5h-60v71h60q18 0 25 6.5t7 25.5v110q0 18 -6 23.5t-23 5.5h-36q-18 0 -23.5 -5.5
t-5.5 -23.5v-79h-91v91q0 87 92 87h91q92 0 92 -87v-139q0 -44 -39 -49v-1h137v275h355z" />
    <glyph glyph-name="dvI" unicode="&#x907;" horiz-adv-x="366" 
d="M311 414h-158q-17 0 -23 -5.5t-6 -23.5v-36q0 -18 6 -23.5t23 -5.5h79q48 0 70 -21t22 -64v-88q0 -44 -22 -64.5t-70 -20.5h-98v-75h-90v198h90v-55h70q18 0 24 5.5t6 23.5v64q0 18 -6 23.5t-24 5.5h-78q-48 0 -70 20.5t-22 64.5v60q0 44 22 64.5t70 20.5h95v74h-241v70
h406v-70h-75v-142z" />
    <glyph glyph-name="dvII" unicode="&#x908;" horiz-adv-x="366" 
d="M311 414h-158q-17 0 -23 -5.5t-6 -23.5v-36q0 -18 6 -23.5t23 -5.5h79q48 0 70 -21t22 -64v-88q0 -44 -22 -64.5t-70 -20.5h-98v-75h-90v198h90v-55h70q18 0 24 5.5t6 23.5v64q0 18 -6 23.5t-24 5.5h-78q-48 0 -70 20.5t-22 64.5v60q0 44 22 64.5t70 20.5h95v74h-241v70
h241v71q0 43 22 63.5t70 20.5h66v-68h-38q-18 0 -24 -5t-6 -23v-59h75v-70h-75v-142z" />
    <glyph glyph-name="dvU" unicode="&#x909;" horiz-adv-x="355" 
d="M373 626v-70h-80q8 -10 8 -27v-123q0 -46 -39 -49v-3q39 -3 39 -48v-221q0 -43 -22 -64t-70 -21h-93q-48 0 -70 21t-22 64v125h90v-113q0 -18 5.5 -23.5t22.5 -5.5h40q17 0 23 5.5t6 23.5v192q0 18 -6 23.5t-23 5.5h-77v71h77q17 0 23 5.5t6 23.5v105q0 22 -7 27.5
t-37 5.5h-187v70h393z" />
    <glyph glyph-name="dvUU" unicode="&#x90a;" horiz-adv-x="502" 
d="M522 626v-70h-229q8 -10 8 -27v-123q0 -46 -39 -49v-3h123q90 0 90 -89v-180q0 -85 -92 -85h-48v70h20q18 0 23.5 5.5t5.5 23.5v155q0 19 -5.5 24.5t-23.5 5.5h-54v-199q0 -43 -22 -64t-70 -21h-93q-48 0 -70 21t-22 64v125h90v-113q0 -18 5.5 -23.5t22.5 -5.5h40
q17 0 23 5.5t6 23.5v192q0 18 -6 23.5t-23 5.5h-77v71h77q17 0 23 5.5t6 23.5v105q0 22 -7 27.5t-37 5.5h-187v70h542z" />
    <glyph glyph-name="dvvR" unicode="&#x90b;" horiz-adv-x="706" 
d="M515 385v-89q0 -17 5.5 -23t22.5 -6h9q17 0 22.5 6t5.5 23v89q0 17 -5.5 23t-22.5 6h-9q-17 0 -22.5 -6t-5.5 -23zM358 556v-289h81q-14 15 -14 52v75q0 44 22.5 66t73.5 22h52q51 0 73.5 -22t22.5 -66v-102q0 -44 -22.5 -66t-73.5 -22h-4l64 -48v-66h-84q-12 0 -16 -4.5
t-4 -16.5v-14q0 -12 4 -16.5t16 -4.5h125v-66h-151q-84 0 -84 77v34q0 77 78 77h15l-51 42h-123v-198h-89v198h-23l-135 -198h-102l165 242l-59 113q-16 31 -31 42.5t-45 11.5h-32v72h51q53 0 78 -14t46 -54l78 -146h9v289h-289v70h742v-70h-364z" />
    <glyph glyph-name="dvvL" unicode="&#x90c;" horiz-adv-x="541" 
d="M495 37h-65q-18 0 -23.5 -5.5t-5.5 -23.5v-36q0 -17 5.5 -22.5t23.5 -5.5h110v-71h-138q-92 0 -92 85v62q0 85 90 85h4v307h-60q-19 0 -24.5 -6t-5.5 -24v-189h-90v189q0 18 -5.5 24t-23.5 6h-32q-17 0 -23 -6t-6 -24v-281q0 -17 6 -22.5t23 -5.5h51v-73h-78
q-48 0 -70 21t-22 64v308q0 89 90 89h86q46 0 49 -39h3q3 39 48 39h84v74h-424v70h581v-70h-66v-519z" />
    <glyph glyph-name="dvEcandra" unicode="&#x90d;" horiz-adv-x="405" 
d="M267 668h-120q-94 0 -94 83v56h80v-47q0 -18 5.5 -24t24.5 -6h88q19 0 24.5 6t5.5 24v47h80v-56q0 -83 -94 -83zM425 626v-70h-64v-190q0 -44 -21.5 -64.5t-69.5 -20.5h-69v70h41q18 0 23.5 5.5t5.5 23.5v176h-129v-459q0 -18 6 -23.5t23 -5.5h70q17 0 22.5 5.5t5.5 23.5
v105h90v-117q0 -43 -22 -64t-70 -21h-123q-48 0 -70 21t-22 64v471h-72v70h445z" />
    <glyph glyph-name="dvE" unicode="&#x90f;" horiz-adv-x="405" 
d="M425 626v-70h-64v-190q0 -44 -21.5 -64.5t-69.5 -20.5h-69v70h41q18 0 23.5 5.5t5.5 23.5v176h-129v-459q0 -18 6 -23.5t23 -5.5h70q17 0 22.5 5.5t5.5 23.5v105h90v-117q0 -43 -22 -64t-70 -21h-123q-48 0 -70 21t-22 64v471h-72v70h445z" />
    <glyph glyph-name="dvAI" unicode="&#x910;" horiz-adv-x="405" 
d="M425 626v-70h-64v-190q0 -44 -21.5 -64.5t-69.5 -20.5h-69v70h41q18 0 23.5 5.5t5.5 23.5v176h-129v-459q0 -18 6 -23.5t23 -5.5h70q17 0 22.5 5.5t5.5 23.5v105h90v-117q0 -43 -22 -64t-70 -21h-123q-48 0 -70 21t-22 64v471h-72v70h279q-32 32 -84 102l-66 91h108
l135 -193h73z" />
    <glyph glyph-name="dvOcandra" unicode="&#x911;" horiz-adv-x="743" 
d="M762 626v-70h-72v-556h-89v556h-105v-556h-89v282h-98v-117q0 -87 -92 -87h-91q-92 0 -92 87v93h91v-81q0 -18 5.5 -23.5t23.5 -5.5h36q17 0 23 5.5t6 23.5v107q0 18 -7 24.5t-25 6.5h-60v71h60q18 0 25 6.5t7 25.5v110q0 18 -6 23.5t-23 5.5h-36q-18 0 -23.5 -5.5
t-5.5 -23.5v-79h-91v91q0 87 92 87h91q92 0 92 -87v-139q0 -44 -39 -49v-1h137v275h355zM720 811h80v-56q0 -83 -94 -83h-120q-94 0 -94 83v56h80v-47q0 -18 5.5 -24t24.5 -6h88q19 0 24.5 6t5.5 24v47z" />
    <glyph glyph-name="dvO" unicode="&#x913;" horiz-adv-x="742" 
d="M762 626v-70h-72v-556h-89v556h-105v-556h-89v282h-98v-117q0 -87 -92 -87h-91q-92 0 -92 87v93h91v-81q0 -18 5.5 -23.5t23.5 -5.5h36q17 0 23 5.5t6 23.5v107q0 18 -7 24.5t-25 6.5h-60v71h60q18 0 25 6.5t7 25.5v110q0 18 -6 23.5t-23 5.5h-36q-18 0 -23.5 -5.5
t-5.5 -23.5v-79h-91v91q0 87 92 87h91q92 0 92 -87v-139q0 -44 -39 -49v-1h137v275h190q-32 32 -84 102l-66 91h108l135 -193h72z" />
    <glyph glyph-name="dvAU" unicode="&#x914;" horiz-adv-x="743" 
d="M762 626v-70h-72v-556h-89v556h-105v-556h-89v282h-98v-117q0 -87 -92 -87h-91q-92 0 -92 87v93h91v-81q0 -18 5.5 -23.5t23.5 -5.5h36q17 0 23 5.5t6 23.5v107q0 18 -7 24.5t-25 6.5h-60v71h60q18 0 25 6.5t7 25.5v110q0 18 -6 23.5t-23 5.5h-36q-18 0 -23.5 -5.5
t-5.5 -23.5v-79h-91v91q0 87 92 87h91q92 0 92 -87v-139q0 -44 -39 -49v-1h137v275h183q-41 30 -83 68l-135 125h114l42 -48q73 -81 110 -142h4q-10 18 -19 38t-21 49.5t-21 48.5l-22 54h90l39 -193h74z" />
    <glyph glyph-name="dvKA" unicode="&#x915;" horiz-adv-x="548" 
d="M568 556h-249v-84q11 10 36 10h63q90 0 90 -89v-230q0 -43 -22 -64t-70 -21h-57v68h29q18 0 24 5.5t6 23.5v207q0 19 -6 24.5t-24 5.5h-37q-18 0 -25 -6.5t-7 -25.5v-380h-90v89q-11 -11 -37 -11h-62q-90 0 -90 89v230q0 44 22 64.5t70 20.5h56v-68h-29q-17 0 -23 -5.5
t-6 -23.5v-207q0 -18 6 -24t23 -6h38q18 0 25 7t7 25v376h-249v70h588v-70z" />
    <glyph glyph-name="dvKHA" unicode="&#x916;" horiz-adv-x="657" 
d="M677 626v-70h-72v-556h-87v125q-10 -15 -40 -15h-54q-90 0 -90 89v187q0 44 22 64.5t70 20.5h60v-68h-36q-18 0 -23.5 -5.5t-5.5 -23.5v-164q0 -18 5.5 -23.5t23.5 -5.5h31q20 0 28.5 8t8.5 28v339h-236q8 -8 8 -26v-201q0 -86 -92 -86h-61v-139q0 -20 5.5 -25.5
t25.5 -5.5h221v-73h-242q-52 0 -76.5 21t-24.5 66v384h91v-158h31q20 0 26 6.5t6 25.5v179q0 20 -6 26t-26 6h-188v70h697z" />
    <glyph glyph-name="dvGA" unicode="&#x917;" horiz-adv-x="557" 
d="M153 148h43q18 0 24 5.5t6 24.5v187h-71q-19 0 -25 -5.5t-6 -25.5v-156q0 -18 6 -24t23 -6zM577 626v-70h-72v-556h-90v556h-99v-389q0 -46 -23 -67.5t-73 -21.5h-90q-50 0 -73 21.5t-23 67.5v182q0 87 100 87h92v120h-246v70h597z" />
    <glyph glyph-name="dvGHA" unicode="&#x918;" horiz-adv-x="440" 
d="M298 182v374h-117q-29 0 -36.5 -5t-7.5 -27v-108q0 -18 5.5 -23.5t23.5 -5.5h61v-71h-61q-18 0 -23.5 -5.5t-5.5 -23.5v-109q0 -19 5.5 -24.5t23.5 -5.5h98q20 0 27 7t7 27zM460 626v-70h-71v-556h-91v89q-11 -11 -35 -11h-120q-97 0 -97 89v134q0 45 39 48v3
q-39 3 -39 49v125q0 21 11 30h-77v70h480z" />
    <glyph glyph-name="dvNGA" unicode="&#x919;" horiz-adv-x="394" 
d="M307 303v95h83v-95h-83zM-20 626h434v-70h-107v-142h-133q-18 0 -23.5 -5.5t-5.5 -23.5v-60q0 -17 5.5 -22.5t23.5 -5.5h54q48 0 70 -21t22 -64v-127q0 -43 -22 -64t-70 -21h-92q-48 0 -70 21t-22 64v79h90v-67q0 -18 5.5 -23.5t22.5 -5.5h39q17 0 23 5.5t6 23.5v103
q0 17 -6 22.5t-23 5.5h-55q-47 0 -69 21t-22 64v84q0 44 21.5 64.5t69.5 20.5h71v74h-237v70z" />
    <glyph glyph-name="dvCA" unicode="&#x91a;" horiz-adv-x="410" 
d="M430 626v-70h-72v-556h-90v89q-11 -11 -37 -11h-78q-90 0 -90 89v213q0 22 10 32h-72v70h219v-70h-25q-27 0 -34.5 -5t-7.5 -25v-204q0 -18 5.5 -24t23.5 -6h54q18 0 25 7t7 25v376h-288v70h450z" />
    <glyph glyph-name="dvCHA" unicode="&#x91b;" horiz-adv-x="543" 
d="M335 482v74h-146l7 -1q-37 2 -46 -2.5t-9 -28.5v-149q0 -19 5.5 -24.5t23.5 -5.5h36v-70h-36q-18 0 -23.5 -5.5t-5.5 -24.5v-145q0 -18 5.5 -23.5t23.5 -5.5h211q18 0 23.5 5.5t5.5 23.5v287q0 18 -5.5 23.5t-23.5 5.5h-19q-18 0 -23.5 -5.5t-5.5 -23.5v-112
q0 -18 5.5 -23.5t23.5 -5.5h18v-66h-37q-88 0 -88 85v132q0 79 80 85zM563 556h-144v-75q78 -5 78 -84v-308q0 -89 -97 -89h-253q-96 0 -96 89v171q0 43 39 48v2q-39 5 -39 49v171q0 16 7 26h-78v70h583v-70z" />
    <glyph glyph-name="dvJA" unicode="&#x91c;" horiz-adv-x="540" 
d="M560 626v-70h-72v-556h-90v412h-84v-245q0 -46 -23 -67.5t-73 -21.5h-78q-50 0 -73 21.5t-23 67.5v315h90v-304q0 -19 6 -24.5t24 -5.5h31q17 0 23 6t6 24v304h174v74h-418v70h580z" />
    <glyph glyph-name="dvJHA" unicode="&#x91d;" horiz-adv-x="570" 
d="M428 320v236h-110v-142h-156q-18 0 -23.5 -5.5t-5.5 -23.5v-36q0 -18 5.5 -23.5t23.5 -5.5h266zM590 626v-70h-72v-556h-90v252h-102q2 -14 2 -21v-84q0 -44 -22 -64.5t-70 -20.5h-102v-75h-90v198h90v-55h74q18 0 24 5.5t6 23.5v64q0 18 -6 23.5t-24 5.5h-74
q-48 0 -69.5 20.5t-21.5 64.5v60q0 44 21.5 64.5t69.5 20.5h93v74h-251v70h614z" />
    <glyph glyph-name="dvNYA" unicode="&#x91e;" horiz-adv-x="533" 
d="M553 626v-70h-72v-556h-90v262h-97v-95q0 -46 -23 -67.5t-73 -21.5h-74q-50 0 -73 21.5t-23 67.5v92h90v-81q0 -19 6 -24.5t24 -5.5h27q17 0 23 6t6 24v205q0 18 -5.5 23.5t-23.5 5.5h-89v70h117q91 0 91 -87v-62h97v223h-411v70h573z" />
    <glyph glyph-name="dvTTA" unicode="&#x91f;" horiz-adv-x="366" 
d="M317 412h-145q-18 0 -24 -5.5t-6 -24.5v-282q0 -19 6 -24.5t24 -5.5h30q18 0 24 5.5t6 24.5v103h90v-114q0 -46 -23 -67.5t-73 -21.5h-78q-50 0 -73 21.5t-23 67.5v308q0 44 22 64.5t70 20.5h83v74h-247v70h406v-70h-69v-144z" />
    <glyph glyph-name="dvTTHA" unicode="&#x920;" horiz-adv-x="393" 
d="M257 100v282q0 19 -6 24.5t-24 5.5h-55q-18 0 -24 -5.5t-6 -24.5v-282q0 -19 6 -24.5t24 -5.5h55q18 0 24 5.5t6 24.5zM413 556h-169v-74h7q50 0 73 -21t23 -68v-304q0 -46 -23 -67.5t-73 -21.5h-103q-50 0 -73 21.5t-23 67.5v304q0 47 23 68t73 21h6v74h-174v70h433v-70
z" />
    <glyph glyph-name="dvDDA" unicode="&#x921;" horiz-adv-x="376" 
d="M307 414h-133q-18 0 -23.5 -5.5t-5.5 -23.5v-60q0 -17 5.5 -22.5t23.5 -5.5h54q48 0 70 -21t22 -64v-127q0 -43 -22 -64t-70 -21h-92q-48 0 -70 21t-22 64v79h90v-67q0 -18 5.5 -23.5t22.5 -5.5h39q17 0 23 5.5t6 23.5v103q0 17 -6 22.5t-23 5.5h-55q-47 0 -69 21t-22 64
v84q0 44 21.5 64.5t69.5 20.5h71v74h-237v70h416v-70h-89v-142z" />
    <glyph glyph-name="dvDDHA" unicode="&#x922;" horiz-adv-x="406" 
d="M317 412h-145q-18 0 -24 -5.5t-6 -24.5v-282q0 -19 6 -24.5t24 -5.5h65q17 0 23 6t6 24v88q0 18 -6 23.5t-23 5.5h-42v70h65q51 0 74 -21t23 -68v-109q0 -46 -23 -67.5t-74 -21.5h-112q-50 0 -73 21.5t-23 67.5v308q0 44 22 64.5t70 20.5h83v74h-247v70h446v-70h-109
v-144z" />
    <glyph glyph-name="dvNNA" unicode="&#x923;" horiz-adv-x="542" 
d="M224 178v378h-90v-378q0 -19 6 -24.5t24 -5.5h31q17 0 23 6t6 24zM562 626v-70h-72v-556h-90v556h-86v-389q0 -46 -23 -67.5t-73 -21.5h-78q-50 0 -73 21.5t-23 67.5v389h-64v70h582z" />
    <glyph glyph-name="dvTA" unicode="&#x924;" horiz-adv-x="398" 
d="M418 626v-70h-72v-556h-90v412h-93q-17 0 -23 -5.5t-6 -23.5v-282q0 -17 6 -22.5t23 -5.5h30v-73h-57q-48 0 -70 21t-22 64v312q0 44 22 64.5t70 20.5h120v74h-276v70h438z" />
    <glyph glyph-name="dvTHA" unicode="&#x925;" horiz-adv-x="476" 
d="M496 626v-70h-71v-556h-91v89q-11 -11 -35 -11h-156q-96 0 -96 89v196h102q18 0 24 5.5t6 22.5v141q0 18 -6 23.5t-24 5.5h-5q-18 0 -24 -5.5t-6 -23.5v-43h-60v58q0 84 88 84h37q90 0 90 -84v-168q0 -87 -92 -87h-40v-114q0 -18 5.5 -24t23.5 -6h134q20 0 27 7t7 27v444
h162z" />
    <glyph glyph-name="dvDA" unicode="&#x926;" horiz-adv-x="374" 
d="M322 412h-153q-18 0 -24 -5.5t-6 -24.5v-204q0 -18 5.5 -24t23.5 -6h37q18 0 25 7t7 25v91h90v-271h-90v89q-11 -11 -36 -11h-56q-50 0 -73 21.5t-23 67.5v230q0 44 22 64.5t70 20.5h91v74h-255v70h417v-70h-72v-144z" />
    <glyph glyph-name="dvDHA" unicode="&#x927;" horiz-adv-x="478" 
d="M499 626v-70h-71v-556h-91v89q-11 -11 -35 -11h-145q-90 0 -90 85v131q0 43 39 48v2q-39 5 -39 49v154q0 84 90 84h39q90 0 90 -84v-58h-60v43q0 18 -6 23.5t-24 5.5h-9q-18 0 -23.5 -5.5t-5.5 -23.5v-123q0 -19 5.5 -24.5t23.5 -5.5h68v-70h-68q-18 0 -23.5 -5.5
t-5.5 -24.5v-101q0 -19 5.5 -24.5t23.5 -5.5h116q19 0 26.5 7t7.5 27v444h162z" />
    <glyph glyph-name="dvNA" unicode="&#x928;" horiz-adv-x="525" 
d="M210 178v234h-57q-17 0 -23 -5.5t-6 -23.5v-205q0 -19 6 -24.5t24 -5.5h27q17 0 23 6t6 24zM545 626v-70h-72v-556h-90v412h-82v-245q0 -46 -23.5 -67.5t-73.5 -21.5h-74q-50 0 -73 21.5t-23 67.5v230q0 44 22 64.5t70 20.5h257v74h-403v70h565z" />
    <glyph glyph-name="dvPA" unicode="&#x92a;" horiz-adv-x="383" 
d="M241 180v376h-99v-378q0 -18 6 -24t23 -6h38q18 0 25 7t7 25zM403 626v-70h-72v-556h-90v89q-11 -11 -37 -11h-62q-90 0 -90 89v389h-72v70h423z" />
    <glyph glyph-name="dvPHA" unicode="&#x92b;" horiz-adv-x="554" 
d="M235 180v376h-98v-378q0 -19 5.5 -24.5t23.5 -5.5h38q17 0 24 7t7 25zM574 556h-249v-85q11 11 37 11h62q90 0 90 -89v-230q0 -43 -22 -64t-69 -21h-57v68h29q18 0 23.5 5.5t5.5 23.5v207q0 19 -5.5 24.5t-23.5 5.5h-38q-18 0 -25 -6.5t-7 -25.5v-380h-90v89
q-11 -11 -36 -11h-63q-90 0 -90 89v389h-66v70h594v-70z" />
    <glyph glyph-name="dvBA" unicode="&#x92c;" horiz-adv-x="425" 
d="M165 148h89q9 0 12 1l-77 132q-12 23 -25 48l-19.5 37.5t-8.5 15.5v-204q0 -18 6 -24t23 -6zM445 626v-70h-72v-556h-91v85q-11 -7 -32 -7h-114q-90 0 -90 89v230q0 44 22 64.5t70 20.5h104v-68h-75l69 -121l52 -96q-6 39 -6 128v231h-302v70h465z" />
    <glyph glyph-name="dvBHA" unicode="&#x92d;" horiz-adv-x="572" 
d="M235 178v161h-72q-17 0 -23 -5.5t-6 -23.5v-132q0 -19 6 -24.5t24 -5.5h41q18 0 24 5.5t6 24.5zM592 626v-70h-71v-556h-91v339h-105v-172q0 -46 -23 -67.5t-73 -21.5h-89q-50 0 -73 21.5t-23 67.5v157q0 44 22 64.5t70 20.5h99v119q0 18 -6 23.5t-24 5.5h-33
q-18 0 -24 -5.5t-6 -23.5v-49h-90v61q0 87 92 87h89q92 0 92 -87v-131h105v217h162z" />
    <glyph glyph-name="dvMA" unicode="&#x92e;" horiz-adv-x="562" 
d="M420 432v124h-105v-124h105zM225 202v160h-75q-18 0 -24 -5.5t-6 -23.5v-131q0 -19 6 -24.5t24 -5.5h45q18 0 24 5.5t6 24.5zM582 626v-70h-71v-556h-91v362h-105v-171q0 -47 -23 -68t-73 -21h-89q-50 0 -73 21t-23 68v156q0 43 22 64t70 21h99v124h-245v70h602z" />
    <glyph glyph-name="dvYA" unicode="&#x92f;" horiz-adv-x="470" 
d="M328 182v374h-94q9 -10 9 -31v-131q0 -87 -90 -87h-27v-129q0 -19 6 -24.5t24 -5.5h138q20 0 27 7t7 27zM490 626v-70h-72v-556h-90v89q-11 -11 -36 -11h-160q-96 0 -96 89v211h90q17 0 23 5.5t6 22.5v117q0 22 -7 27.5t-37 5.5h-147v70h526z" />
    <glyph glyph-name="dvRA" unicode="&#x930;" horiz-adv-x="361" 
d="M381 626v-70h-68q8 -8 8 -26v-166q0 -86 -100 -86h-87v-181q0 -18 6 -23.5t23 -5.5h38q17 0 22.5 5.5t5.5 23.5v113h90v-125q0 -43 -22 -64t-70 -21h-91q-48 0 -70 21t-22 64v366h90v-103h65q19 0 25.5 6t6.5 26v144q0 20 -6.5 26t-25.5 6h-219v70h401z" />
    <glyph glyph-name="dvRxA" unicode="&#x931;" horiz-adv-x="361" 
d="M131 -165v95h83v-95h-83zM381 626v-70h-68q8 -8 8 -26v-166q0 -86 -100 -86h-87v-181q0 -18 6 -23.5t23 -5.5h38q17 0 22.5 5.5t5.5 23.5v113h90v-125q0 -43 -22 -64t-70 -21h-91q-48 0 -70 21t-22 64v366h90v-103h65q19 0 25.5 6t6.5 26v144q0 20 -6.5 26t-25.5 6h-219
v70h401z" />
    <glyph glyph-name="dvLA" unicode="&#x932;" horiz-adv-x="543" 
d="M563 626v-70h-67v-556h-90v412h-60q-18 0 -23.5 -6t-5.5 -24v-197h-90v197q0 18 -5.5 24t-23.5 6h-32q-18 0 -23.5 -6t-5.5 -24v-281q0 -17 6 -22.5t23 -5.5h59v-73h-87q-47 0 -69 21t-22 64v308q0 89 90 89h86q46 0 49 -39h3q3 39 48 39h83v74h-426v70h583z" />
    <glyph glyph-name="dvLLA" unicode="&#x933;" horiz-adv-x="566" 
d="M440 178v204q0 19 -5.5 24.5t-23.5 5.5h-54q-19 0 -24.5 -6t-5.5 -24v-204q0 -18 5.5 -24t24.5 -6h54q18 0 23.5 5.5t5.5 24.5zM239 178v204q0 18 -5.5 24t-23.5 6h-54q-18 0 -24 -5.5t-6 -24.5v-204q0 -19 6 -24.5t24 -5.5h54q18 0 23.5 6t5.5 24zM602 556h-168v-74h7
q89 0 89 -89v-226q0 -89 -89 -89h-103q-49 0 -52 39h-3q-3 -39 -53 -39h-104q-90 0 -90 89v226q0 89 90 89h104q50 0 53 -39h3q3 39 52 39h6v74h-380v70h638v-70z" />
    <glyph glyph-name="dvVA" unicode="&#x935;" horiz-adv-x="377" 
d="M397 626v-70h-72v-556h-90v89q-11 -11 -36 -11h-63q-90 0 -90 89v230q0 44 22 64.5t70 20.5h57v-70h-29q-18 0 -23.5 -5.5t-5.5 -23.5v-205q0 -19 5.5 -24.5t23.5 -5.5h38q17 0 24 7t7 25v376h-255v70h417z" />
    <glyph glyph-name="dvSHA" unicode="&#x936;" horiz-adv-x="547" 
d="M142 628h91q92 0 92 -87v-194q0 -86 -100 -86h-87v-164q0 -18 6 -23.5t24 -5.5h37q17 0 22.5 5.5t5.5 23.5v96h90v-108q0 -43 -22 -64t-69 -21h-92q-48 0 -70 21t-22 64v296h90v-50h65q19 0 25.5 6.5t6.5 25.5v166q0 18 -6 23.5t-24 5.5h-37q-17 0 -22.5 -5.5t-5.5 -23.5
v-77h-90v89q0 87 92 87zM405 626h162v-70h-72v-556h-90v626z" />
    <glyph glyph-name="dvSSA" unicode="&#x937;" horiz-adv-x="424" 
d="M141 556l98 -196q14 -29 27 -58.5t18 -44.5l6 -15q-8 56 -8 137v177h-141zM171 148h79q25 0 30 15l-98 198l-49 109q9 -50 9 -121v-171q0 -18 6 -24t23 -6zM444 626v-70h-72v-556h-90v89q-11 -11 -36 -11h-104q-90 0 -90 89v389h-72v70h464z" />
    <glyph glyph-name="dvSA" unicode="&#x938;" horiz-adv-x="550" 
d="M409 348v208h-96q8 -8 8 -26v-129q0 -38 -15 -53h103zM570 626v-70h-72v-556h-89v278h-275v-181q0 -18 6 -23.5t23 -5.5h38q17 0 22.5 5.5t5.5 23.5v113h90v-125q0 -43 -22 -64t-70 -21h-91q-48 0 -70 21t-22 64v366h90v-103h65q19 0 25.5 6t6.5 26v144q0 20 -6.5 26
t-25.5 6h-219v70h590z" />
    <glyph glyph-name="dvHA" unicode="&#x939;" horiz-adv-x="389" 
d="M337 412h-166q-17 0 -23 -5.5t-6 -22.5v-41q0 -17 6 -22.5t23 -5.5h78q50 0 73 -21t23 -68v-55h-90v44q0 19 -6 24.5t-24 5.5h-54q-17 0 -23 -5.5t-6 -24.5v-115q0 -18 6 -24t23 -6h174v-70h-197q-96 0 -96 89v140q0 44 39 49v2q-39 5 -39 49v68q0 44 22 64.5t70 20.5
h103v74h-267v70h437v-70h-80v-144z" />
    <glyph glyph-name="dvNukta" unicode="&#x93c;" horiz-adv-x="0" 
d="M-137 -62h83v-95h-83v95z" />
    <glyph glyph-name="dvAvagraha" unicode="&#x93d;" horiz-adv-x="368" 
d="M304 558h-128q-18 0 -23.5 -5.5t-5.5 -23.5v-126q0 -17 5.5 -22.5t23.5 -5.5h54q48 0 70 -21t22 -64v-205q0 -43 -22 -64t-70 -21h-92q-48 0 -70 21t-22 64v79h90v-67q0 -18 5.5 -23.5t22.5 -5.5h39q17 0 23 5.5t6 23.5v181q0 17 -6 22.5t-23 5.5h-55q-47 0 -69 21
t-22 64v150q0 44 21.5 64.5t69.5 20.5h156v-68z" />
    <glyph glyph-name="dvmAA" unicode="&#x93e;" horiz-adv-x="195" 
d="M214 626v-70h-72v-556h-89v556h-72v70h233z" />
    <glyph glyph-name="dvmI" unicode="&#x93f;" 
d="M140 822h285q88 0 88 -85v-68h-91v51q0 21 -5.5 26.5t-26.5 5.5h-216q-20 0 -26 -6t-6 -26v-94h72v-70h-72v-556h-90v556h-72v70h72v111q0 85 88 85z" />
    <glyph glyph-name="dvmII" unicode="&#x940;" 
d="M214 626v-70h-72v-556h-90v556h-72v70h72v94q0 20 -6 26t-26 6h-46q-21 0 -26.5 -5.5t-5.5 -26.5v-51h-90v68q0 85 88 85h114q88 0 88 -85v-111h72z" />
    <glyph glyph-name="dvmU" unicode="&#x941;" horiz-adv-x="0" 
d="M-48 2q90 0 90 -89v-55q0 -89 -90 -89h-108q-60 0 -89 15t-56 63l-36 61h107l24 -40q18 -29 54 -29h73q19 0 25 5.5t6 25.5v31q0 19 -6 25t-25 6h-63v70h94z" />
    <glyph glyph-name="dvmUU" unicode="&#x942;" horiz-adv-x="0" 
d="M-60 2q55 0 82 -15.5t55 -60.5l97 -156h-107l-81 129q-21 32 -49 32h-47q-20 0 -25.5 -5.5t-5.5 -25.5v-30q0 -20 5.5 -25.5t25.5 -5.5h53v-71h-85q-90 0 -90 90v55q0 89 90 89h82z" />
    <glyph glyph-name="dvmvR" unicode="&#x943;" horiz-adv-x="0" 
d="M-52 2v-71h-52q-20 0 -25.5 -5.5t-5.5 -25.5v-30q0 -20 5.5 -25.5t25.5 -5.5h91v-71h-122q-90 0 -90 90v55q0 89 90 89h83z" />
    <glyph glyph-name="dvmvRR" unicode="&#x944;" horiz-adv-x="0" 
d="M-221 -81q0 83 87 83h82v-71h-50q-18 0 -23.5 -5.5t-5.5 -23.5v-34q0 -18 5.5 -23.5t23.5 -5.5h48v-71h-48q-18 0 -23.5 -5.5t-5.5 -23.5v-34q0 -18 5.5 -23.5t23.5 -5.5h93v-70h-116q-49 0 -72.5 21.5t-23.5 67.5v58q0 45 39 48v3q-39 3 -39 49v66z" />
    <glyph glyph-name="dvmEcandra" unicode="&#x945;" horiz-adv-x="0" 
d="M-251 811h80v-47q0 -18 5.5 -24t24.5 -6h88q19 0 24.5 6t5.5 24v47h80v-56q0 -83 -94 -83h-120q-94 0 -94 83v56z" />
    <glyph glyph-name="dvmE" unicode="&#x947;" horiz-adv-x="0" 
d="M-199 819l143 -204h-89q-36 32 -96 113l-66 91h108z" />
    <glyph glyph-name="dvmAI" unicode="&#x948;" horiz-adv-x="0" 
d="M-373 819h114l42 -48q73 -81 110 -142h4q-10 18 -19 38t-21 49.5t-21 48.5l-22 54h90l41 -201h-87q-35 20 -96 76z" />
    <glyph glyph-name="dvmOcandra" unicode="&#x949;" horiz-adv-x="195" 
d="M-19 556v70h233v-70h-72v-556h-89v556h-72zM171 811h80v-56q0 -83 -94 -83h-120q-94 0 -94 83v56h80v-47q0 -18 5.5 -24t24.5 -6h88q19 0 24.5 6t5.5 24v47z" />
    <glyph glyph-name="dvmO" unicode="&#x94b;" horiz-adv-x="195" 
d="M214 626v-70h-72v-556h-89v556h-72v70h59q-32 32 -84 102l-66 91h108l135 -193h81z" />
    <glyph glyph-name="dvmAU" unicode="&#x94c;" horiz-adv-x="195" 
d="M214 626v-70h-72v-556h-89v556h-72v70h61q-41 30 -83 68l-135 125h114l42 -48q73 -81 110 -142h4q-10 18 -19 38t-21 49.5t-21 48.5l-22 54h90l39 -193h74z" />
    <glyph glyph-name="dvVirama" unicode="&#x94d;" horiz-adv-x="0" 
d="M-62 -61l106 -134h-95l-106 134h95z" />
    <glyph glyph-name="dvOm" unicode="&#x950;" horiz-adv-x="675" 
d="M428 641v-81h-79v81h79zM295 349h241q92 0 92 -87v-175q0 -87 -92 -87h-76q-91 0 -91 87v97h90v-85q0 -18 5.5 -23.5t23.5 -5.5h20q18 0 23.5 5.5t5.5 23.5v151q0 17 -5.5 22.5t-23.5 5.5h-212q13 -11 13 -42v-149q0 -87 -92 -87h-91q-92 0 -92 87v101h90v-89
q0 -18 6 -23.5t24 -5.5h35q18 0 24 5.5t6 23.5v148q0 18 -7 24.5t-25 6.5h-61v71h61q18 0 25 6.5t7 25.5v146q0 18 -6 23.5t-24 5.5h-35q-18 0 -24 -5.5t-6 -23.5v-86h-90v98q0 87 92 87h91q92 0 92 -87v-42h143q18 0 24 5.5t6 24.5v46h86v-59q0 -88 -91 -88h-168v-34
q0 -32 -14 -43z" />
    <glyph glyph-name="dvKxA" unicode="&#x958;" horiz-adv-x="548" 
d="M60 -72v95h83v-95h-83zM568 556h-249v-84q11 10 36 10h63q90 0 90 -89v-230q0 -43 -22 -64t-70 -21h-57v68h29q18 0 24 5.5t6 23.5v207q0 19 -6 24.5t-24 5.5h-37q-18 0 -25 -6.5t-7 -25.5v-380h-90v89q-11 -11 -37 -11h-62q-90 0 -90 89v230q0 44 22 64.5t70 20.5h56
v-68h-29q-17 0 -23 -5.5t-6 -23.5v-207q0 -18 6 -24t23 -6h38q18 0 25 7t7 25v376h-249v70h588v-70z" />
    <glyph glyph-name="dvKHxA" unicode="&#x959;" horiz-adv-x="657" 
d="M134 -154v95h83v-95h-83zM677 626v-70h-72v-556h-87v125q-10 -15 -40 -15h-54q-90 0 -90 89v187q0 44 22 64.5t70 20.5h60v-68h-36q-18 0 -23.5 -5.5t-5.5 -23.5v-164q0 -18 5.5 -23.5t23.5 -5.5h31q20 0 28.5 8t8.5 28v339h-236q8 -8 8 -26v-201q0 -86 -92 -86h-61v-139
q0 -20 5.5 -25.5t25.5 -5.5h221v-73h-242q-52 0 -76.5 21t-24.5 66v384h91v-158h31q20 0 26 6.5t6 25.5v179q0 20 -6 26t-26 6h-188v70h697z" />
    <glyph glyph-name="dvGxA" unicode="&#x95a;" horiz-adv-x="557" 
d="M130 -94v95h83v-95h-83zM153 148h43q18 0 24 5.5t6 24.5v187h-71q-19 0 -25 -5.5t-6 -25.5v-156q0 -18 6 -24t23 -6zM577 626v-70h-72v-556h-90v556h-99v-389q0 -46 -23 -67.5t-73 -21.5h-90q-50 0 -73 21.5t-23 67.5v182q0 87 100 87h92v120h-246v70h597z" />
    <glyph glyph-name="dvJxA" unicode="&#x95b;" horiz-adv-x="540" 
d="M136 -93v95h83v-95h-83zM560 626v-70h-72v-556h-90v412h-84v-245q0 -46 -23 -67.5t-73 -21.5h-78q-50 0 -73 21.5t-23 67.5v315h90v-304q0 -19 6 -24.5t24 -5.5h31q17 0 23 6t6 24v304h174v74h-418v70h580z" />
    <glyph glyph-name="dvDDxA" unicode="&#x95c;" horiz-adv-x="376" 
d="M138 -151v95h83v-95h-83zM307 414h-133q-18 0 -23.5 -5.5t-5.5 -23.5v-60q0 -17 5.5 -22.5t23.5 -5.5h54q48 0 70 -21t22 -64v-127q0 -43 -22 -64t-70 -21h-92q-48 0 -70 21t-22 64v79h90v-67q0 -18 5.5 -23.5t22.5 -5.5h39q17 0 23 5.5t6 23.5v103q0 17 -6 22.5t-23 5.5
h-55q-47 0 -69 21t-22 64v84q0 44 21.5 64.5t69.5 20.5h71v74h-237v70h416v-70h-89v-142z" />
    <glyph glyph-name="dvDDHxA" unicode="&#x95d;" horiz-adv-x="406" 
d="M164 -148v95h83v-95h-83zM317 412h-145q-18 0 -24 -5.5t-6 -24.5v-282q0 -19 6 -24.5t24 -5.5h65q17 0 23 6t6 24v88q0 18 -6 23.5t-23 5.5h-42v70h65q51 0 74 -21t23 -68v-109q0 -46 -23 -67.5t-74 -21.5h-112q-50 0 -73 21.5t-23 67.5v308q0 44 22 64.5t70 20.5h83v74
h-247v70h446v-70h-109v-144z" />
    <glyph glyph-name="dvPHxA" unicode="&#x95e;" horiz-adv-x="554" 
d="M95 -95v95h83v-95h-83zM235 180v376h-98v-378q0 -19 5.5 -24.5t23.5 -5.5h38q17 0 24 7t7 25zM574 556h-249v-85q11 11 37 11h62q90 0 90 -89v-230q0 -43 -22 -64t-69 -21h-57v68h29q18 0 23.5 5.5t5.5 23.5v207q0 19 -5.5 24.5t-23.5 5.5h-38q-18 0 -25 -6.5t-7 -25.5
v-380h-90v89q-11 -11 -36 -11h-63q-90 0 -90 89v389h-66v70h594v-70z" />
    <glyph glyph-name="dvvRR" unicode="&#x960;" horiz-adv-x="706" 
d="M522 385v-89q0 -17 5.5 -23t22.5 -6h10q17 0 22 6t5 23v89q0 17 -5 23t-22 6h-10q-17 0 -22.5 -6t-5.5 -23zM364 556v-289h82q-14 15 -14 52v75q0 88 96 88h53q96 0 96 -88v-107q0 -45 -22.5 -67t-73.5 -22h-33q-15 0 -20.5 -6t-5.5 -23v-34q0 -18 6 -23.5t24 -5.5h43
v-70h-43q-18 0 -24 -5.5t-6 -24.5v-34q0 -18 6 -23.5t24 -5.5h89v-70h-113q-49 0 -72.5 21.5t-23.5 67.5v58q0 45 39 48v3q-39 3 -39 49v49q0 20 11 29h-79v-198h-90v198h-23l-135 -198h-102l165 242l-58 113q-17 31 -32 42.5t-44 11.5h-33v72h51q53 0 77.5 -14t46.5 -54
l78 -146h9v289h-294v70h749v-70h-365z" />
    <glyph glyph-name="dvvLL" unicode="&#x961;" horiz-adv-x="541" 
d="M495 168h-50q-18 0 -24 -5.5t-6 -24.5v-33q0 -19 6 -24.5t24 -5.5h47v-70h-47q-18 0 -24 -5.5t-6 -24.5v-33q0 -19 6 -24.5t24 -5.5h93v-70h-117q-96 0 -96 89v58q0 45 39 48v3q-39 5 -39 49v66q0 78 79 83v174h-60q-19 0 -24.5 -6t-5.5 -24v-134h-90v134q0 18 -5.5 24
t-23.5 6h-32q-17 0 -23 -6t-6 -24v-281q0 -17 6 -22.5t23 -5.5h51v-73h-78q-48 0 -70 21t-22 64v308q0 89 90 89h86q46 0 49 -39h3q3 39 48 39h84v74h-424v70h581v-70h-66v-388z" />
    <glyph glyph-name="dvmvL" unicode="&#x962;" horiz-adv-x="0" 
d="M-87 -259h51v-41h-73q-48 0 -48 43v32q0 44 47 44h2v149h-27q-9 0 -11.5 -2.5t-2.5 -11.5v-91h-57v91q0 9 -2.5 11.5t-11.5 2.5h-8q-9 0 -12 -2.5t-3 -11.5v-133q0 -9 3 -11.5t12 -2.5h20v-43h-43q-48 0 -48 44v156q0 46 47 46h49q23 0 26 -20h1q3 20 25 20h99v-230h-35
q-8 0 -11 -3t-3 -12v-10q0 -9 3 -11.5t11 -2.5z" />
    <glyph glyph-name="dvmvLL" unicode="&#x963;" horiz-adv-x="0" 
d="M-22 -277v-42h-76q-50 0 -50 47v27q0 23 20 25v1q-20 3 -20 25v34q0 41 39 41h1v88h-30q-9 0 -12 -3t-3 -12v-74h-56v74q0 9 -2.5 12t-12.5 3h-11q-10 0 -12.5 -3t-2.5 -12v-132q0 -9 2.5 -12t12.5 -3h20v-42h-43q-48 0 -48 44v154q0 47 47 47h53q23 0 25 -20h1
q3 20 25 20h103v-169h-25q-16 0 -16 -15v-9q0 -15 16 -15h24v-41h-24q-16 0 -16 -15v-9q0 -9 3.5 -11.5t12.5 -2.5h55z" />
    <glyph glyph-name="danda" unicode="&#x964;" horiz-adv-x="342" 
d="M214 657v-688h-86v688h86z" />
    <glyph glyph-name="doubledanda" unicode="&#x965;" horiz-adv-x="523" 
d="M214 657v-688h-86v688h86zM395 657v-688h-86v688h86z" />
    <glyph glyph-name="dvZero" unicode="&#x966;" horiz-adv-x="390" 
d="M343 538v-450q0 -88 -93 -88h-109q-94 0 -94 88v450q0 88 94 88h109q93 0 93 -88zM252 102v422q0 18 -6 23.5t-24 5.5h-54q-18 0 -23.5 -5.5t-5.5 -23.5v-422q0 -18 5.5 -23.5t23.5 -5.5h54q18 0 24 5.5t6 23.5z" />
    <glyph glyph-name="dvOne" unicode="&#x967;" horiz-adv-x="235" 
d="M183 626v-626h-91v553h-72v73h163z" />
    <glyph glyph-name="dvTwo" unicode="&#x968;" horiz-adv-x="328" 
d="M115 524v-102h-90v116q0 88 93 88h86q94 0 94 -88v-63q0 -70 -35 -137l-135 -265h174v-73h-276v70l153 288q28 53 28 120v46q0 18 -5.5 23.5t-24.5 5.5h-32q-18 0 -24 -5.5t-6 -23.5z" />
    <glyph glyph-name="dvThree" unicode="&#x969;" horiz-adv-x="355" 
d="M119 524v-94h-90v108q0 88 93 88h92q94 0 94 -88v-158q0 -53 -40 -62q40 -9 40 -58v-172q0 -88 -94 -88h-92q-93 0 -93 88v107h90v-93q0 -18 6 -23.5t24 -5.5h39q18 0 24 5.5t6 23.5v150q0 18 -6 23.5t-24 5.5h-75v72h75q18 0 24 5.5t6 23.5v142q0 18 -6 23.5t-24 5.5
h-39q-18 0 -24 -5.5t-6 -23.5z" />
    <glyph glyph-name="dvFour" unicode="&#x96a;" horiz-adv-x="363" 
d="M363 198v-74h-56v-124h-87v124h-214v75l180 427h90l-184 -428h128v120h87v-120h56z" />
    <glyph glyph-name="dvFive" unicode="&#x96b;" horiz-adv-x="358" 
d="M132 391h97q94 0 94 -88v-215q0 -88 -94 -88h-96q-93 0 -93 88v111h91v-97q0 -18 6 -23.5t24 -5.5h41q18 0 24 5.5t6 23.5v187q0 18 -6 24t-24 6h-160v307h279v-73h-189v-162z" />
    <glyph glyph-name="dvSix" unicode="&#x96c;" horiz-adv-x="382" 
d="M250 102v157q0 17 -6 23t-24 6h-83v-186q0 -18 6 -23.5t24 -5.5h53q18 0 24 5.5t6 23.5zM137 360h110q93 0 93 -89v-183q0 -88 -93 -88h-106q-94 0 -94 88v450q0 88 94 88h103q93 0 93 -88v-108h-89v94q0 18 -6 23.5t-24 5.5h-51q-18 0 -24 -5.5t-6 -23.5v-164z" />
    <glyph glyph-name="dvSeven" unicode="&#x96d;" horiz-adv-x="291" 
d="M286 626v-56l-168 -570h-92l163 551h-183v75h280z" />
    <glyph glyph-name="dvEight" unicode="&#x96e;" horiz-adv-x="389" 
d="M253 379v146q0 17 -5.5 23t-23.5 6h-59q-18 0 -23.5 -6t-5.5 -23v-146q0 -17 5.5 -23t23.5 -6h59q18 0 23.5 6t5.5 23zM253 102v150q0 17 -5.5 23t-23.5 6h-59q-18 0 -23.5 -6t-5.5 -23v-150q0 -18 5.5 -24t23.5 -6h59q18 0 23.5 6t5.5 24zM342 538v-161q0 -53 -39 -62
q39 -11 39 -59v-168q0 -88 -93 -88h-109q-93 0 -93 88v168q0 48 39 59q-39 9 -39 62v161q0 88 93 88h109q93 0 93 -88z" />
    <glyph glyph-name="dvNine" unicode="&#x96f;" horiz-adv-x="378" 
d="M158 327h82v197q0 18 -5.5 23.5t-23.5 5.5h-53q-18 0 -24 -5.5t-6 -23.5v-168q0 -17 6 -23t24 -6zM131 626h106q94 0 94 -88v-450q0 -88 -94 -88h-103q-94 0 -94 88v107h90v-93q0 -18 5.5 -23.5t24.5 -5.5h51q18 0 23.5 5.5t5.5 23.5v154h-109q-93 0 -93 89v193
q0 88 93 88z" />
    <glyph glyph-name="dvAbbreviationsign" unicode="&#x970;" horiz-adv-x="362" 
d="M58 308q0 62 33 96.5t90 34.5q56 0 89.5 -34.5t33.5 -96.5t-33.5 -96.5t-89.5 -34.5q-57 0 -90 34.5t-33 96.5zM132 308q0 -66 49 -66t49 66t-49 66t-49 -66z" />
    <glyph glyph-name="dvAcandra" unicode="&#x972;" horiz-adv-x="489" 
d="M568 626v-70h-72v-556h-89v282h-98v-117q0 -87 -92 -87h-91q-92 0 -92 87v93h91v-81q0 -18 5.5 -23.5t23.5 -5.5h36q17 0 23 5.5t6 23.5v107q0 18 -7 24.5t-25 6.5h-60v71h60q18 0 25 6.5t7 25.5v110q0 18 -6 23.5t-23 5.5h-36q-18 0 -23.5 -5.5t-5.5 -23.5v-79h-91v91
q0 87 92 87h91q92 0 92 -87v-139q0 -44 -39 -49v-1h137v275h161zM532 811h80v-56q0 -83 -94 -83h-120q-94 0 -94 83v56h80v-47q0 -18 5.5 -24t24.5 -6h88q19 0 24.5 6t5.5 24v47z" />
    <glyph glyph-name="zerowidthspace" unicode="&#x200b;" horiz-adv-x="0" 
 />
    <glyph glyph-name="zerowidthnonjoiner" unicode="&#x200c;" horiz-adv-x="0" 
d="M24 -230h-47v1041h47v-1041z" />
    <glyph glyph-name="zerowidthjoiner" unicode="&#x200d;" horiz-adv-x="0" 
d="M129 593l-33 -33l-72 75v-865h-47v865l-69 -73l-33 33l93 93l-95 95l33 33l95 -95l96 95l32 -32l-96 -96z" />
    <glyph glyph-name="endash" unicode="&#x2013;" horiz-adv-x="420" 
d="M25 259v70h347v-70h-347z" />
    <glyph glyph-name="emdash" unicode="&#x2014;" horiz-adv-x="536" 
d="M10 259v70h514v-70h-514z" />
    <glyph glyph-name="quoteleft" unicode="&#x2018;" horiz-adv-x="166" 
d="M133 364h-101v64l70 198h31v-262z" />
    <glyph glyph-name="quoteright" unicode="&#x2019;" horiz-adv-x="166" 
d="M32 626h101v-65l-70 -197h-31v262z" />
    <glyph glyph-name="quotesinglbase" unicode="&#x201a;" horiz-adv-x="165" 
d="M32 123h101v-65l-69 -198h-32v263z" />
    <glyph glyph-name="quotedblleft" unicode="&#x201c;" horiz-adv-x="314" 
d="M282 364h-101v64l70 198h31v-262zM133 364h-101v64l70 198h31v-262z" />
    <glyph glyph-name="quotedblright" unicode="&#x201d;" horiz-adv-x="314" 
d="M32 626h101v-65l-70 -197h-31v262zM181 626h101v-65l-70 -197h-31v262z" />
    <glyph glyph-name="quotedblbase" unicode="&#x201e;" horiz-adv-x="314" 
d="M32 123h101v-65l-70 -198h-31v263zM181 123h101v-65l-70 -198h-31v263z" />
    <glyph glyph-name="dagger" unicode="&#x2020;" horiz-adv-x="362" 
d="M356 465v-71h-130v-504h-90v504h-130v71h130v161h90v-161h130z" />
    <glyph glyph-name="daggerdbl" unicode="&#x2021;" horiz-adv-x="384" 
d="M367 394h-130v-315h130v-70h-130v-162h-90v162h-130v70h130v315h-130v71h130v161h90v-161h130v-71z" />
    <glyph glyph-name="bullet" unicode="&#x2022;" horiz-adv-x="396" 
d="M67 321q0 54 38.5 92.5t92.5 38.5t92.5 -38.5t38.5 -92.5t-38.5 -92.5t-92.5 -38.5t-92.5 38.5t-38.5 92.5z" />
    <glyph glyph-name="ellipsis" unicode="&#x2026;" horiz-adv-x="555" 
d="M52 0v119h109v-119h-109zM247 0v119h108v-119h-108zM441 0v119h109v-119h-109z" />
    <glyph glyph-name="perthousand" unicode="&#x2030;" horiz-adv-x="915" 
d="M251 549v-184q0 -77 -78 -77h-66q-78 0 -78 77v184q0 39 18.5 58t59.5 19h66q41 0 59.5 -19t18.5 -58zM612 261v-184q0 -77 -77 -77h-67q-78 0 -78 77v184q0 77 78 77h67q77 0 77 -77zM177 377v161q0 17 -5 22t-21 5h-22q-17 0 -21.5 -5t-4.5 -22v-161q0 -18 4.5 -23
t21.5 -5h22q16 0 21 5.5t5 22.5zM538 88v162q0 17 -4.5 22t-21.5 5h-21q-17 0 -22 -5t-5 -22v-162q0 -17 5 -22t22 -5h21q17 0 21.5 5t4.5 22zM429 626h75l-292 -626h-74zM886 261v-184q0 -77 -78 -77h-67q-77 0 -77 77v184q0 77 77 77h67q78 0 78 -77zM812 88v162
q0 17 -5 22t-22 5h-21q-17 0 -21.5 -5t-4.5 -22v-162q0 -17 4.5 -22t21.5 -5h21q17 0 22 5t5 22z" />
    <glyph glyph-name="guilsinglleft" unicode="&#x2039;" horiz-adv-x="290" 
d="M156 104l-119 155l119 155h96l-120 -156l120 -154h-96z" />
    <glyph glyph-name="guilsinglright" unicode="&#x203a;" horiz-adv-x="291" 
d="M252 259l-119 -155h-96l121 154l-121 156h96z" />
    <glyph glyph-name="fraction" unicode="&#x2044;" horiz-adv-x="390" 
d="M275 700h84l-273 -820h-84z" />
    <glyph glyph-name="rupee" unicode="&#x20a8;" horiz-adv-x="716" 
d="M142 553v-228h88q18 0 24 5.5t6 23.5v170q0 18 -6 23.5t-24 5.5h-88zM350 538v-196q0 -76 -67 -87l99 -255h-97l-94 253h-49v-253h-90v626h205q93 0 93 -88zM535 277h51q93 0 93 -89v-100q0 -88 -93 -88h-74q-93 0 -93 88v48h88v-38q0 -18 6 -23.5t24 -5.5h24
q18 0 23.5 5.5t5.5 23.5v81q0 18 -5.5 23.5t-23.5 5.5h-52q-92 0 -92 88v103q0 89 93 89h73q93 0 93 -89v-47h-87v38q0 18 -6 23.5t-24 5.5h-24q-18 0 -24 -5.5t-6 -23.5v-84q0 -18 6 -23.5t24 -5.5z" />
    <glyph glyph-name="Euro" unicode="&#x20ac;" horiz-adv-x="399" 
d="M362 430h-91v96q0 18 -6 23.5t-24 5.5h-51q-18 0 -23.5 -5.5t-5.5 -23.5v-121h87v-66h-87v-51h87v-67h-87v-122q0 -18 5.5 -23.5t23.5 -5.5h51q18 0 24 5.5t6 23.5v95h91v-106q0 -89 -93 -89h-106q-94 0 -94 89v133h-46v67h46v51h-46v66h46v133q0 88 94 88h106
q93 0 93 -88v-108z" />
    <glyph glyph-name="indianrupee" unicode="&#x20b9;" horiz-adv-x="367" 
d="M319 626v-67h-67q10 -14 10 -43v-42h57v-68h-57v-66q0 -46 -23.5 -67.5t-74.5 -21.5h-30l148 -251h-96l-146 251v70h102q18 0 23.5 5.5t5.5 24.5v55h-131v68h131v56q0 17 -5.5 23t-23.5 6h-102v67h279z" />
    <glyph glyph-name="uni20BA" unicode="&#x20ba;" horiz-adv-x="265" 
d="M232 303h90v-215q0 -88 -91 -88h-187v317l-79 -37v71l79 37v58l-79 -37v70l79 37v153h90v-111l89 42v-71l-89 -41v-58l89 41v-70l-89 -42v-286h68q18 0 24 5.5t6 23.5v201z" />
    <glyph glyph-name="uni20BD" unicode="&#x20bd;" horiz-adv-x="291" 
d="M269 352v174q0 18 -6 23.5t-24 5.5h-88v-232h88q18 0 24 5.5t6 23.5zM61 626h205q93 0 93 -88v-197q0 -89 -93 -89h-115v-56h94v-71h-94v-125h-90v125h-53v71h53v56h-53v71h53v303z" />
    <glyph glyph-name="uni2113" unicode="&#x2113;" horiz-adv-x="488" 
d="M282 486v-94l24 26q37 39 37 71q0 27 -25 27h-6q-18 0 -24 -5.5t-6 -24.5zM282 289v-189q0 -19 6 -24.5t24 -5.5h98v-70h-122q-50 0 -73 21.5t-23 67.5v105l-118 -125v96l118 129v203q0 46 23 67.5t73 21.5h51q45 0 66.5 -23t21.5 -59q0 -62 -50 -115z" />
    <glyph glyph-name="trademark" unicode="&#x2122;" horiz-adv-x="626" 
d="M6 560v66h242v-66h-82v-258h-79v258h-81zM501 626h95v-324h-72v209l-49 -154h-69l-51 154v-209h-71v324h94l62 -185z" />
    <glyph glyph-name="uni2126" unicode="&#x2126;" horiz-adv-x="404" 
d="M327 73h66v-73h-172v73h12q17 0 22.5 6.5t5.5 24.5v420q0 18 -6 23.5t-24 5.5h-58q-18 0 -24 -5.5t-6 -23.5v-420q0 -18 5.5 -24.5t22.5 -6.5h12v-73h-172v73h66q-24 15 -24 58v407q0 88 93 88h112q93 0 93 -88v-407q0 -43 -24 -58z" />
    <glyph glyph-name="estimated" unicode="&#x212e;" horiz-adv-x="602" 
d="M481 252v135q0 10 -6 16q-72 70 -167 70q-93 0 -167 -72q-6 -7 -6 -17v-132q0 -5 3 -5h340q3 0 3 5zM582 234h-444q-3 0 -3 -2v-135q0 -8 5 -15q71 -73 168 -73q106 0 177 81h39q-37 -44 -94 -69.5t-123 -25.5q-113 0 -193 72t-80 173q0 103 80 175.5t193 72.5
q114 0 194.5 -72.5t80.5 -175.5v-6z" />
    <glyph glyph-name="partialdiff" unicode="&#x2202;" horiz-adv-x="420" 
d="M270 272q-6 19 -20 32.5t-33 13.5q-28 0 -46 -41t-18 -98q0 -97 46 -97q30 0 49.5 58t21.5 132zM108 506l-23 80q50 42 113 42q75 0 120.5 -72.5t45.5 -219.5q0 -163 -45 -249.5t-129 -86.5q-59 0 -92.5 52t-33.5 130q0 99 42 157t99 58q43 0 68 -36q0 87 -24 135.5
t-63 48.5q-41 0 -78 -39z" />
    <glyph glyph-name="uni2206" unicode="&#x2206;" horiz-adv-x="505" 
d="M250 525h-1q-20 -107 -60 -239l-65 -215h239l-55 213q-45 171 -58 241zM28 0v76l165 550h119l156 -547v-79h-440z" />
    <glyph glyph-name="product" unicode="&#x220f;" horiz-adv-x="436" 
d="M383 590h1v-590h-91v555h-135v-467q0 -88 -94 -88h-56v77h30q18 0 23.5 5.5t5.5 23.5v520h316v-36z" />
    <glyph glyph-name="summation" unicode="&#x2211;" horiz-adv-x="439" 
d="M318 269l-176 -304h261v-71h-381v48l191 324l-188 307v48h367v-71h-242z" />
    <glyph glyph-name="minus" unicode="&#x2212;" horiz-adv-x="440" 
d="M23 276v74h362v-74h-362z" />
    <glyph glyph-name="uni2215" unicode="&#x2215;" horiz-adv-x="390" 
d="M275 700h84l-273 -820h-84z" />
    <glyph glyph-name="uni2219" unicode="&#x2219;" horiz-adv-x="165" 
d="M32 252v123h101v-123h-101z" />
    <glyph glyph-name="radical" unicode="&#x221a;" horiz-adv-x="684" 
d="M534 700h84l-274 -820h-83l-104 308h-80v71h140l86 -287z" />
    <glyph glyph-name="infinity" unicode="&#x221e;" horiz-adv-x="590" 
d="M477 301v95q0 20 -5.5 27t-25.5 7h-42q-12 0 -18.5 -5.5t-17.5 -20.5l-37 -60l41 -54q17 -23 42 -23h32q20 0 25.5 6.5t5.5 27.5zM144 267h31q30 0 49 29l31 47l-36 52q-14 19 -24 26.5t-29 7.5h-22q-20 0 -25.5 -7t-5.5 -27v-94q0 -21 5.5 -27.5t25.5 -6.5zM414 494h47
q92 0 92 -85v-121q0 -86 -92 -86h-38q-43 0 -64 11t-47 47l-17 25l-5 -8q-29 -47 -53 -61t-77 -14h-32q-91 0 -91 86v121q0 85 91 85h37q40 0 59.5 -12.5t46.5 -48.5l22 -31l17 26q27 42 44 54t60 12z" />
    <glyph glyph-name="integral" unicode="&#x222b;" horiz-adv-x="293" 
d="M194 619v-653q0 -89 -93 -89h-75v77h48q17 0 22.5 5.5t7.5 23.5v653q0 89 93 89h74v-77h-47q-18 0 -24 -6t-6 -23z" />
    <glyph glyph-name="approxequal" unicode="&#x2248;" horiz-adv-x="491" 
d="M326 375q-30 0 -54.5 12t-38.5 26.5t-33.5 26.5t-41.5 12q-17 0 -23 -8t-6 -26v-42h-83v61q0 81 84 81h37q27 0 50.5 -12t38 -26.5t35.5 -26.5t44 -12q17 0 22 8t5 27v41h84v-61q0 -81 -85 -81h-35zM326 200q-30 0 -54.5 12t-38.5 26.5t-33.5 26.5t-41.5 12
q-29 0 -29 -34v-42h-83v61q0 81 84 81h37q35 0 62 -19.5t52 -38.5t54 -19q17 0 22 7.5t5 26.5v42h84v-61q0 -81 -85 -81h-35z" />
    <glyph glyph-name="notequal" unicode="&#x2260;" horiz-adv-x="486" 
d="M442 363h-142l-45 -94h187v-73h-222l-45 -92h-66l44 92h-108v73h144l45 94h-189v73h224l42 87h67l-42 -87h106v-73z" />
    <glyph glyph-name="lessequal" unicode="&#x2264;" horiz-adv-x="455" 
d="M402 447l-276 -76l276 -77v-79l-365 123v71l365 115v-77zM402 184v-69h-365v69h365z" />
    <glyph glyph-name="greaterequal" unicode="&#x2265;" horiz-adv-x="455" 
d="M320 371l-275 76v77l365 -115v-71l-365 -123v79zM45 115v69h365v-69h-365z" />
    <glyph glyph-name="lozenge" unicode="&#x25ca;" horiz-adv-x="499" 
d="M254 82l110 232l-110 231l-110 -231zM294 626l162 -312l-162 -314h-81l-161 314l161 312h81z" />
    <glyph glyph-name="dottedcircle" unicode="&#x25cc;" horiz-adv-x="660" 
d="M139 517q0 19 12.5 31.5t31.5 12.5t31.5 -12.5t12.5 -31.5q0 -20 -12.5 -32.5t-31.5 -12.5t-31.5 12.5t-12.5 32.5zM57 407q0 19 13 31.5t33 12.5q18 0 31 -12.5t13 -31.5t-13 -31.5t-31 -12.5q-20 0 -33 12.5t-13 31.5zM44 281q0 19 12.5 32t31.5 13t31.5 -12.5
t12.5 -32.5q0 -19 -12.5 -31t-31.5 -12t-31.5 12t-12.5 31zM96 165q0 19 12.5 31.5t31.5 12.5t31.5 -12.5t12.5 -31.5t-12.5 -31.5t-31.5 -12.5q-20 0 -32 12.5t-12 31.5zM197 90q0 18 13 31t32 13t31.5 -13t12.5 -31q0 -20 -12.5 -33t-31.5 -13t-32 13t-13 33zM324 74
q0 20 12 32t32 12t32.5 -12.5t12.5 -31.5t-12.5 -31.5t-32.5 -12.5t-32 12t-12 32zM445 127q0 19 12.5 31.5t31.5 12.5t32 -12.5t13 -31.5t-13 -31.5t-32 -12.5t-31.5 12.5t-12.5 31.5zM518 225q0 19 13 32t32 13q18 0 30.5 -13t12.5 -32t-12.5 -31.5t-30.5 -12.5
q-19 0 -32 12.5t-13 31.5zM528 359q0 19 12 31.5t32 12.5q19 0 31.5 -12.5t12.5 -31.5t-12.5 -31.5t-31.5 -12.5q-20 0 -32 12.5t-12 31.5zM478 477q0 19 12.5 32t31.5 13t31.5 -12.5t12.5 -32.5q0 -19 -12.5 -31.5t-31.5 -12.5t-31.5 12.5t-12.5 31.5zM383 545
q0 19 12.5 32t32.5 13q19 0 31 -12.5t12 -32.5q0 -18 -12.5 -31t-30.5 -13q-19 0 -32 13t-13 31zM257 560q0 20 12.5 32t31.5 12t31.5 -12t12.5 -32t-12.5 -32t-31.5 -12t-31.5 12t-12.5 32z" />
    <glyph glyph-name="dvK_SSA" horiz-adv-x="591" 
d="M265 392v139q0 19 -6 24.5t-24 5.5h-35q-18 0 -24 -5.5t-6 -24.5v-139q0 -18 6 -23.5t24 -5.5h35q18 0 24 5.5t6 23.5zM611 626v-70h-72v-556h-91v294h-299q-18 0 -24 -5.5t-6 -24.5v-103q0 -18 6 -23.5t24 -5.5h75q20 0 28.5 8t8.5 28v48h91v-229h-91v89
q-11 -14 -40 -14h-107q-85 0 -85 85v128q0 76 61 86q-10 10 -10 32v149q0 47 23 68t73 21h83q50 0 73 -21t23 -68v-154q0 -15 -8 -25h101v263h163z" />
    <glyph glyph-name="dvJ_NYA" horiz-adv-x="539" 
d="M559 626v-70h-73v-556h-90v406h-91q8 -8 8 -26v-233q0 -44 -22 -64.5t-70 -20.5h-84v-75h-91v221h91v-78h57q17 0 23 5.5t6 23.5v218q0 18 -6 23.5t-23 5.5h-126v70h328v80h-416v70h579z" />
    <glyph glyph-name="dvK" horiz-adv-x="381" 
d="M469 556h-150v-114q11 10 36 10h114v-70h-118q-18 0 -25 -6.5t-7 -25.5v-350h-90v89q-11 -11 -37 -11h-62q-90 0 -90 89v230q0 44 22 64.5t70 20.5h56v-68h-29q-17 0 -23 -5.5t-6 -23.5v-207q0 -18 6 -24t23 -6h38q18 0 25 7t7 25v376h-249v70h489v-70z" />
    <glyph glyph-name="dvKH" horiz-adv-x="469" 
d="M421 374v-164q0 -18 5.5 -23.5t23.5 -5.5h106v-71h-132q-90 0 -90 89v187q0 44 22 64.5t70 20.5h60v-68h-36q-18 0 -23.5 -5.5t-5.5 -23.5zM-20 626h576v-70h-274q8 -8 8 -26v-213q0 -86 -92 -86h-61v-127q0 -20 5.5 -25.5t25.5 -5.5h192v-73h-213q-52 0 -76.5 21
t-24.5 66v384h91v-170h31q20 0 26 6.5t6 25.5v191q0 20 -6 26t-26 6h-188v70z" />
    <glyph glyph-name="dvG" horiz-adv-x="363" 
d="M153 148h43q18 0 24 5.5t6 24.5v187h-71q-19 0 -25 -5.5t-6 -25.5v-156q0 -18 6 -24t23 -6zM384 626v-70h-68v-389q0 -46 -23 -67.5t-73 -21.5h-90q-50 0 -73 21.5t-23 67.5v182q0 87 100 87h92v120h-246v70h404z" />
    <glyph glyph-name="dvGH" horiz-adv-x="246" 
d="M342 556h-174q-19 0 -25 -6t-6 -26v-108q0 -18 5.5 -23.5t23.5 -5.5h61v-71h-61q-18 0 -23.5 -5.5t-5.5 -23.5v-109q0 -19 5.5 -24.5t23.5 -5.5h176v-70h-199q-97 0 -97 89v134q0 45 39 48v3q-39 3 -39 49v129q0 18 8 26h-74v70h362v-70z" />
    <glyph glyph-name="dvNG" horiz-adv-x="394" 
d="M134 -61h95l106 -134h-95zM307 303v95h83v-95h-83zM-20 626h434v-70h-107v-142h-133q-18 0 -23.5 -5.5t-5.5 -23.5v-60q0 -17 5.5 -22.5t23.5 -5.5h54q48 0 70 -21t22 -64v-127q0 -43 -22 -64t-70 -21h-92q-48 0 -70 21t-22 64v79h90v-67q0 -18 5.5 -23.5t22.5 -5.5h39
q17 0 23 5.5t6 23.5v103q0 17 -6 22.5t-23 5.5h-55q-47 0 -69 21t-22 64v84q0 44 21.5 64.5t69.5 20.5h71v74h-237v70z" />
    <glyph glyph-name="dvC" horiz-adv-x="216" 
d="M153 382v-204q0 -18 5.5 -24t23.5 -6h129v-70h-158q-90 0 -90 89v213q0 23 11 32h-73v70h219v-70h-38q-18 0 -23.5 -6t-5.5 -24zM-20 626h331v-70h-331v70z" />
    <glyph glyph-name="dvCH" horiz-adv-x="543" 
d="M563 626v-70h-374l7 -1q-37 2 -46 -2.5t-9 -28.5v-149q0 -19 5.5 -24.5t23.5 -5.5h36v-70h-36q-18 0 -23.5 -5.5t-5.5 -24.5v-145q0 -18 5.5 -23.5t23.5 -5.5h211q18 0 23.5 5.5t5.5 23.5v287q0 18 -5.5 23.5t-23.5 5.5h-19q-18 0 -23.5 -5.5t-5.5 -23.5v-112
q0 -18 5.5 -23.5t23.5 -5.5h18v-66h-37q-88 0 -88 85v132q0 85 92 85h57q93 0 93 -85v-308q0 -89 -97 -89h-253q-96 0 -96 89v171q0 43 39 48v2q-39 5 -39 49v171q0 16 7 26h-78v70h583z" />
    <glyph glyph-name="dvJ" horiz-adv-x="346" 
d="M433 626v-70h-453v70h453zM134 482v-304q0 -19 6 -24.5t24 -5.5h31q17 0 23 6t6 24v304h209v-70h-119v-245q0 -46 -23 -67.5t-73 -21.5h-78q-50 0 -73 21.5t-23 67.5v315h90z" />
    <glyph glyph-name="dvJH" horiz-adv-x="376" 
d="M318 414h-156q-18 0 -23.5 -5.5t-5.5 -23.5v-36q0 -18 5.5 -23.5t23.5 -5.5h300v-68h-136q2 -14 2 -21v-84q0 -44 -22 -64.5t-70 -20.5h-102v-75h-90v198h90v-55h74q18 0 24 5.5t6 23.5v64q0 18 -6 23.5t-24 5.5h-74q-48 0 -69.5 20.5t-21.5 64.5v60q0 44 21.5 64.5
t69.5 20.5h93v74h-247v70h482v-70h-144v-142z" />
    <glyph glyph-name="dvNY" horiz-adv-x="339" 
d="M294 395v-62h139v-71h-139v-95q0 -46 -23 -67.5t-73 -21.5h-74q-50 0 -73 21.5t-23 67.5v92h90v-81q0 -19 6 -24.5t24 -5.5h27q17 0 23 6t6 24v205q0 18 -5.5 23.5t-23.5 5.5h-89v70h117q91 0 91 -87zM-20 626h453v-70h-453v70z" />
    <glyph glyph-name="dvTT" horiz-adv-x="366" 
d="M143 -61h95l106 -134h-95zM-20 626h406v-70h-69v-144h-145q-18 0 -24 -5.5t-6 -24.5v-282q0 -19 6 -24.5t24 -5.5h30q18 0 24 5.5t6 24.5v103h90v-114q0 -46 -23 -67.5t-73 -21.5h-78q-50 0 -73 21.5t-23 67.5v308q0 44 22 64.5t70 20.5h83v74h-247v70z" />
    <glyph glyph-name="dvTTH" horiz-adv-x="393" 
d="M134 -61h95l106 -134h-95zM257 100v282q0 19 -6 24.5t-24 5.5h-55q-18 0 -24 -5.5t-6 -24.5v-282q0 -19 6 -24.5t24 -5.5h55q18 0 24 5.5t6 24.5zM413 556h-169v-74h7q50 0 73 -21t23 -68v-304q0 -46 -23 -67.5t-73 -21.5h-103q-50 0 -73 21.5t-23 67.5v304q0 47 23 68
t73 21h6v74h-174v70h433v-70z" />
    <glyph glyph-name="dvDD" horiz-adv-x="376" 
d="M134 -61h95l106 -134h-95zM-20 626h416v-70h-89v-142h-133q-18 0 -23.5 -5.5t-5.5 -23.5v-60q0 -17 5.5 -22.5t23.5 -5.5h54q48 0 70 -21t22 -64v-127q0 -43 -22 -64t-70 -21h-92q-48 0 -70 21t-22 64v79h90v-67q0 -18 5.5 -23.5t22.5 -5.5h39q17 0 23 5.5t6 23.5v103
q0 17 -6 22.5t-23 5.5h-55q-47 0 -69 21t-22 64v84q0 44 21.5 64.5t69.5 20.5h71v74h-237v70z" />
    <glyph glyph-name="dvDDH" horiz-adv-x="406" 
d="M143 -61h95l106 -134h-95zM317 412h-145q-18 0 -24 -5.5t-6 -24.5v-282q0 -19 6 -24.5t24 -5.5h65q17 0 23 6t6 24v88q0 18 -6 23.5t-23 5.5h-42v70h65q51 0 74 -21t23 -68v-109q0 -46 -23 -67.5t-74 -21.5h-112q-50 0 -73 21.5t-23 67.5v308q0 44 22 64.5t70 20.5h83v74
h-247v70h446v-70h-109v-144z" />
    <glyph glyph-name="dvNN" horiz-adv-x="348" 
d="M224 178v378h-90v-378q0 -19 6 -24.5t24 -5.5h31q17 0 23 6t6 24zM378 626v-70h-64v-389q0 -46 -23 -67.5t-73 -21.5h-78q-50 0 -73 21.5t-23 67.5v389h-64v70h398z" />
    <glyph glyph-name="dvT" horiz-adv-x="204" 
d="M276 626v-70h-296v70h296zM276 482v-70h-113q-17 0 -23 -5.5t-6 -23.5v-282q0 -17 6 -22.5t23 -5.5h30v-73h-57q-48 0 -70 21t-22 64v312q0 44 22 64.5t70 20.5h140z" />
    <glyph glyph-name="dvTH" horiz-adv-x="328" 
d="M430 78h-287q-96 0 -96 89v196h102q18 0 24 5.5t6 22.5v141q0 18 -6 23.5t-24 5.5h-5q-18 0 -24 -5.5t-6 -23.5v-43h-60v58q0 84 88 84h37q90 0 90 -84v-168q0 -87 -92 -87h-40v-114q0 -18 5.5 -24t23.5 -6h264v-70z" />
    <glyph glyph-name="dvD" horiz-adv-x="397" 
d="M237 0v89q-11 -11 -36 -11h-56q-50 0 -73 21.5t-23 67.5v230q0 44 22 64.5t70 20.5h91v74h-255v70h417v-70h-72v-144h-153q-18 0 -24 -5.5t-6 -24.5v-204q0 -18 5.5 -24t23.5 -6h37q18 0 25 7t7 25v91h90v-271h-90zM323 -61l106 -134h-95l-106 134h95z" />
    <glyph glyph-name="dvDH" horiz-adv-x="349" 
d="M158 409q0 -19 5.5 -24.5t23.5 -5.5h68v-70h-68q-18 0 -23.5 -5.5t-5.5 -24.5v-101q0 -19 5.5 -24.5t23.5 -5.5h262v-70h-292q-90 0 -90 85v131q0 43 39 48v2q-39 5 -39 49v154q0 84 90 84h39q90 0 90 -84v-58h-60v43q0 18 -6 23.5t-24 5.5h-9q-18 0 -23.5 -5.5
t-5.5 -23.5v-123z" />
    <glyph glyph-name="dvN" horiz-adv-x="331" 
d="M210 412h-57q-17 0 -23 -5.5t-6 -23.5v-205q0 -19 6 -24.5t24 -5.5h27q17 0 23 6t6 24v234zM34 167v230q0 44 22 64.5t70 20.5h298v-70h-123v-245q0 -46 -23.5 -67.5t-73.5 -21.5h-74q-50 0 -73 21.5t-23 67.5zM-20 626h444v-70h-444v70z" />
    <glyph glyph-name="dvP" horiz-adv-x="183" 
d="M282 556h-145v-378q0 -19 5.5 -24.5t23.5 -5.5h116v-70h-146q-90 0 -90 89v389h-66v70h302v-70z" />
    <glyph glyph-name="dvPH" horiz-adv-x="372" 
d="M235 180v376h-98v-378q0 -19 5.5 -24.5t23.5 -5.5h38q17 0 24 7t7 25zM464 556h-139v-117q11 11 37 11h102v-70h-107q-18 0 -25 -7t-7 -25v-348h-90v89q-11 -11 -36 -11h-63q-90 0 -90 89v389h-66v70h484v-70z" />
    <glyph glyph-name="dvB" horiz-adv-x="231" 
d="M316 626v-70h-336v70h336zM136 78q-90 0 -90 89v230q0 44 22 64.5t70 20.5h104v-68h-75l69 -121q12 -20 32 -59t34 -68l14 -29v-59h-180zM136 178q0 -18 6 -24t23 -6h99l-75 133q-12 23 -25 48l-19.5 37.5t-8.5 15.5v-204z" />
    <glyph glyph-name="dvBH" horiz-adv-x="387" 
d="M235 178v161h-72q-17 0 -23 -5.5t-6 -23.5v-132q0 -19 6 -24.5t24 -5.5h41q18 0 24 5.5t6 24.5zM483 409v-70h-158v-172q0 -46 -23 -67.5t-73 -21.5h-89q-50 0 -73 21.5t-23 67.5v157q0 44 22 64.5t70 20.5h99v119q0 18 -6 23.5t-24 5.5h-33q-18 0 -24 -5.5t-6 -23.5v-49
h-90v61q0 87 92 87h89q92 0 92 -87v-131h158z" />
    <glyph glyph-name="dvM" horiz-adv-x="369" 
d="M225 202v160h-75q-18 0 -24 -5.5t-6 -23.5v-131q0 -19 6 -24.5t24 -5.5h45q18 0 24 5.5t6 24.5zM457 556h-142v-124h142v-70h-142v-171q0 -47 -23 -68t-73 -21h-89q-50 0 -73 21t-23 68v156q0 43 22 64t70 21h99v124h-247v70h479v-70z" />
    <glyph glyph-name="dvY" horiz-adv-x="276" 
d="M372 626v-70h-138q9 -10 9 -31v-131q0 -87 -90 -87h-27v-129q0 -19 6 -24.5t24 -5.5h216v-70h-240q-96 0 -96 89v211h90q17 0 23 5.5t6 22.5v117q0 22 -7 27.5t-37 5.5h-147v70h408z" />
    <glyph glyph-name="dvR" horiz-adv-x="361" 
d="M319 210v-125q0 -43 -22 -64t-70 -21h-91q-48 0 -70 21t-22 64v366h90v-103h65q19 0 25.5 6t6.5 26v144q0 20 -6.5 26t-25.5 6h-219v70h401v-70h-68q8 -8 8 -26v-166q0 -86 -100 -86h-87v-181q0 -18 6 -23.5t23 -5.5h38q17 0 22.5 5.5t5.5 23.5v113h90zM310 -61l106 -134
h-95l-106 134h95z" />
    <glyph glyph-name="dvL" horiz-adv-x="354" 
d="M436 626v-70h-456v70h456zM223 482q46 0 49 -39h3q3 39 48 39h113v-70h-90q-18 0 -23.5 -6t-5.5 -24v-197h-90v197q0 18 -5.5 24t-23.5 6h-32q-18 0 -23.5 -6t-5.5 -24v-281q0 -17 6 -22.5t23 -5.5h59v-73h-87q-47 0 -69 21t-22 64v308q0 89 90 89h86z" />
    <glyph glyph-name="dvV" horiz-adv-x="183" 
d="M282 626v-70h-302v70h302zM195 482v-68h-29q-18 0 -23.5 -5.5t-5.5 -23.5v-207q0 -19 5.5 -24.5t23.5 -5.5h116v-70h-146q-90 0 -90 89v230q0 44 22 64.5t70 20.5h57z" />
    <glyph glyph-name="dvSH" horiz-adv-x="377" 
d="M225 261h-87v-164q0 -18 6 -23.5t24 -5.5h37q17 0 22.5 5.5t5.5 23.5v96h90v-108q0 -43 -22 -64t-69 -21h-92q-48 0 -70 21t-22 64v296h90v-50h65q19 0 25.5 6.5t6.5 25.5v166q0 18 -6 23.5t-24 5.5h-37q-17 0 -22.5 -5.5t-5.5 -23.5v-77h-90v89q0 87 92 87h91
q92 0 92 -87v-194q0 -86 -100 -86z" />
    <glyph glyph-name="dvSS" horiz-adv-x="230" 
d="M279 163l-97 198l-49 109q9 -50 9 -121v-171q0 -18 6 -24t23 -6h79q25 0 29 15zM321 626v-70h-180l98 -196q24 -48 73 -174l2 -56q-9 -52 -68 -52h-104q-90 0 -90 89v389h-72v70h341z" />
    <glyph glyph-name="dvS" horiz-adv-x="357" 
d="M430 626v-70h-117q8 -8 8 -26v-129q0 -38 -15 -53h124v-70h-296v-181q0 -18 6 -23.5t23 -5.5h38q17 0 22.5 5.5t5.5 23.5v113h90v-125q0 -43 -22 -64t-70 -21h-91q-48 0 -70 21t-22 64v366h90v-103h65q19 0 25.5 6t6.5 26v144q0 20 -6.5 26t-25.5 6h-219v70h450z" />
    <glyph glyph-name="dvH" horiz-adv-x="389" 
d="M164 -61h95l106 -134h-94zM-20 626h437v-70h-80v-144h-166q-17 0 -23 -5.5t-6 -22.5v-41q0 -17 6 -22.5t23 -5.5h78q50 0 73 -21t23 -68v-55h-90v44q0 19 -6 24.5t-24 5.5h-54q-17 0 -23 -5.5t-6 -24.5v-115q0 -18 6 -24t23 -6h174v-70h-197q-96 0 -96 89v140q0 44 39 49
v2q-39 5 -39 49v68q0 44 22 64.5t70 20.5h103v74h-267v70z" />
    <glyph glyph-name="dvLL" horiz-adv-x="566" 
d="M602 626v-70h-638v70h638zM441 482q89 0 89 -89v-226q0 -89 -89 -89h-103q-49 0 -52 39h-3q-3 -39 -53 -39h-104q-90 0 -90 89v226q0 89 90 89h104q50 0 53 -39h3q3 39 52 39h103zM440 382q0 19 -5.5 24.5t-23.5 5.5h-54q-19 0 -24.5 -6t-5.5 -24v-204q0 -18 5.5 -24
t24.5 -6h54q18 0 23.5 5.5t5.5 24.5v204zM239 382q0 18 -5.5 24t-23.5 6h-54q-18 0 -24 -5.5t-6 -24.5v-204q0 -19 6 -24.5t24 -5.5h54q18 0 23.5 6t5.5 24v204z" />
    <glyph glyph-name="dvK_SS" horiz-adv-x="448" 
d="M170 531v-139q0 -18 6 -23.5t24 -5.5h35q18 0 24 5.5t6 23.5v139q0 19 -6 24.5t-24 5.5h-35q-18 0 -24 -5.5t-6 -24.5zM481 294h-332q-18 0 -24 -5.5t-6 -24.5v-103q0 -18 6 -23.5t24 -5.5h75q20 0 28.5 8t8.5 28v48h91v-229h-91v89q-11 -14 -40 -14h-107q-85 0 -85 85
v128q0 76 61 86q-10 10 -10 32v149q0 47 23 68t73 21h83q50 0 73 -21t23 -68v-154q0 -15 -8 -25h134v-69z" />
    <glyph glyph-name="dvJ_NY" horiz-adv-x="344" 
d="M68 406v70h370v-70h-133q8 -8 8 -26v-233q0 -44 -22 -64.5t-70 -20.5h-84v-75h-91v221h91v-78h57q17 0 23 5.5t6 23.5v218q0 18 -6 23.5t-23 5.5h-126zM-20 626h458v-70h-458v70z" />
    <glyph glyph-name="dvKx" horiz-adv-x="381" 
d="M60 -72v95h83v-95h-83zM469 556h-150v-114q11 10 36 10h114v-70h-118q-18 0 -25 -6.5t-7 -25.5v-350h-90v89q-11 -11 -37 -11h-62q-90 0 -90 89v230q0 44 22 64.5t70 20.5h56v-68h-29q-17 0 -23 -5.5t-6 -23.5v-207q0 -18 6 -24t23 -6h38q18 0 25 7t7 25v376h-249v70h489
v-70z" />
    <glyph glyph-name="dvKHx" horiz-adv-x="469" 
d="M134 -154v95h83v-95h-83zM421 374v-164q0 -18 5.5 -23.5t23.5 -5.5h106v-71h-132q-90 0 -90 89v187q0 44 22 64.5t70 20.5h60v-68h-36q-18 0 -23.5 -5.5t-5.5 -23.5zM-20 626h576v-70h-274q8 -8 8 -26v-213q0 -86 -92 -86h-61v-127q0 -20 5.5 -25.5t25.5 -5.5h192v-73
h-213q-52 0 -76.5 21t-24.5 66v384h91v-170h31q20 0 26 6.5t6 25.5v191q0 20 -6 26t-26 6h-188v70z" />
    <glyph glyph-name="dvGx" horiz-adv-x="363" 
d="M130 -96v95h83v-95h-83zM153 148h43q18 0 24 5.5t6 24.5v187h-71q-19 0 -25 -5.5t-6 -25.5v-156q0 -18 6 -24t23 -6zM384 626v-70h-68v-389q0 -46 -23 -67.5t-73 -21.5h-90q-50 0 -73 21.5t-23 67.5v182q0 87 100 87h92v120h-246v70h404z" />
    <glyph glyph-name="dvJx" horiz-adv-x="346" 
d="M134 0h83v-95h-83v95zM433 626v-70h-453v70h453zM134 482v-304q0 -19 6 -24.5t24 -5.5h31q17 0 23 6t6 24v304h209v-70h-119v-245q0 -46 -23 -67.5t-73 -21.5h-78q-50 0 -73 21.5t-23 67.5v315h90z" />
    <glyph glyph-name="dvPHx" horiz-adv-x="427" 
d="M83 -96v95h83v-95h-83zM235 180v376h-98v-378q0 -19 5.5 -24.5t23.5 -5.5h38q17 0 24 7t7 25zM464 556h-139v-117q11 11 37 11h102v-70h-107q-18 0 -25 -7t-7 -25v-348h-90v89q-11 -11 -36 -11h-63q-90 0 -90 89v389h-66v70h484v-70z" />
    <glyph glyph-name="itfLogo" horiz-adv-x="1648" 
d="M147 0v634h196v-634h-196zM383 449v185h196v-185h-196zM619 0v634h196v-634h-196zM855 449v185h196v-185h-196zM1091 0v634h196v-634h-196zM1327 449v185h196v-185h-196zM1327 224v185h196v-185h-196z" />
    <glyph glyph-name="dvReph" horiz-adv-x="0" 
d="M16 705h-38q-18 0 -23.5 -5t-5.5 -23v-71h-90v83q0 43 21.5 63.5t69.5 20.5h66v-68z" />
    <glyph glyph-name="dvEyelash" horiz-adv-x="302" 
d="M322 378v-71h-124q-90 0 -90 87v70h88v-58q0 -17 6 -22.5t23 -5.5h97zM-20 626h342v-70h-342v70z" />
    <glyph glyph-name="dvRashtrasign" horiz-adv-x="0" 
d="M-152 26h112l92 -167h-86l-62 124l-63 -124h-86z" />
    <glyph glyph-name="dvK_RA" horiz-adv-x="548" 
d="M568 556h-249v-84q11 10 36 10h63q90 0 90 -89v-202q0 -43 -22 -64t-70 -21h-57v68h29q18 0 24 5.5t6 23.5v179q0 19 -6 24.5t-24 5.5h-37q-18 0 -25 -6.5t-7 -25.5v-380h-90v114l-108 -166h-97l105 158q-89 0 -89 89v202q0 44 22 64.5t70 20.5h56v-68h-29
q-17 0 -23 -5.5t-6 -23.5v-179q0 -18 6 -24t23 -6h38q18 0 25 7t7 25v348h-249v70h588v-70z" />
    <glyph glyph-name="dvKH_RA" horiz-adv-x="657" 
d="M677 626v-70h-72v-556h-87v124l-121 -176h-96l112 160q-79 6 -79 89v189q0 44 22 64.5t70 20.5h60v-68h-36q-18 0 -23.5 -5.5t-5.5 -23.5v-166q0 -18 5.5 -23.5t23.5 -5.5h31q20 0 28.5 8t8.5 27v342h-236q8 -8 8 -26v-201q0 -86 -92 -86h-61v-139q0 -20 5.5 -25.5
t25.5 -5.5h132v-73h-153q-52 0 -76.5 21t-24.5 66v384h91v-158h31q20 0 26 6.5t6 25.5v179q0 20 -6 26t-26 6h-188v70h697z" />
    <glyph glyph-name="dvG_RA" horiz-adv-x="557" 
d="M153 220h43q18 0 24 5.5t6 24.5v162h-71q-19 0 -25 -6t-6 -25v-131q0 -18 6 -24t23 -6zM577 626v-70h-72v-556h-90v135l-176 -191h-100l276 298v314h-99v-317q0 -46 -23 -67.5t-73 -21.5h-90q-50 0 -73 21.5t-23 67.5v157q0 44 24 65t76 21h92v74h-246v70h597z" />
    <glyph glyph-name="dvGH_RA" horiz-adv-x="441" 
d="M299 208v348h-118q-29 0 -36.5 -5t-7.5 -27v-95q0 -19 5.5 -24.5t23.5 -5.5h61v-70h-61q-18 0 -23.5 -5.5t-5.5 -23.5v-94q0 -19 5.5 -24.5t23.5 -5.5h101q18 0 25 7t7 25zM461 626v-70h-72v-556h-90v114l-107 -166h-98l112 169l-16 -11h-58q-86 0 -86 85v123q0 43 39 48
v2q-39 5 -39 49v113q0 21 11 30h-77v70h481z" />
    <glyph glyph-name="dvNG_RA" horiz-adv-x="394" 
d="M307 303v95h83v-95h-83zM-20 626h434v-70h-107v-142h-133q-18 0 -23.5 -5.5t-5.5 -23.5v-60q0 -17 5.5 -22.5t23.5 -5.5h54q48 0 70 -21t22 -64v-127q0 -73 -65 -83l79 -143h-86l-62 124l-63 -124h-86l79 142q-72 7 -72 84v79h90v-67q0 -18 5.5 -23.5t22.5 -5.5h39
q17 0 23 5.5t6 23.5v103q0 17 -6 22.5t-23 5.5h-55q-47 0 -69 21t-22 64v84q0 44 21.5 64.5t69.5 20.5h71v74h-237v70z" />
    <glyph glyph-name="dvC_RA" horiz-adv-x="414" 
d="M430 626v-70h-72v-556h-90v114l-108 -166h-97l105 158h-19q-86 0 -86 85v189q0 22 10 32h-72v70h219v-70h-25q-27 0 -34.5 -5t-7.5 -25v-176q0 -18 5.5 -24t23.5 -6h54q18 0 25 7t7 25v348h-288v70h450z" />
    <glyph glyph-name="dvCH_RA" horiz-adv-x="543" 
d="M335 482v74h-146l7 -1q-37 2 -46 -2.5t-9 -28.5v-149q0 -19 5.5 -24.5t23.5 -5.5h36v-70h-36q-18 0 -23.5 -5.5t-5.5 -24.5v-145q0 -18 5.5 -23.5t23.5 -5.5h211q18 0 23.5 5.5t5.5 23.5v287q0 18 -5.5 23.5t-23.5 5.5h-19q-18 0 -23.5 -5.5t-5.5 -23.5v-112
q0 -18 5.5 -23.5t23.5 -5.5h18v-66h-37q-88 0 -88 85v132q0 79 80 85zM563 556h-144v-75q78 -5 78 -84v-308q0 -89 -97 -89h-53l78 -141h-86l-62 124l-63 -124h-86l79 141h-60q-96 0 -96 89v171q0 43 39 48v2q-39 5 -39 49v171q0 16 7 26h-78v70h583v-70z" />
    <glyph glyph-name="dvJ_RA" horiz-adv-x="540" 
d="M560 626v-70h-72v-556h-90v97l-139 -149h-102l241 252v212h-84v-205q0 -46 -23 -67.5t-73 -21.5h-78q-50 0 -73 21.5t-23 67.5v275h90v-264q0 -19 6 -24.5t24 -5.5h31q17 0 23 6t6 24v264h174v74h-418v70h580z" />
    <glyph glyph-name="dvJH_RA" horiz-adv-x="570" 
d="M428 330v226h-110v-135h-156q-18 0 -23.5 -5.5t-5.5 -23.5v-34q0 -17 5.5 -22.5t23.5 -5.5h266zM590 626v-70h-72v-556h-90v94l-138 -146h-96l234 237v79h-101q1 -6 1 -19v-78q0 -42 -22 -62t-70 -20h-102v-85h-90v199h90v-49h74q18 0 24 5.5t6 22.5v58q0 18 -6 23t-24 5
h-74q-47 0 -69 20t-22 62v58q0 42 22 62t69 20h93v70h-251v70h614z" />
    <glyph glyph-name="dvNY_RA" horiz-adv-x="533" 
d="M553 626v-70h-72v-556h-90v135l-176 -191h-101l277 298v20h-97v-23q0 -46 -23 -67.5t-73 -21.5h-74q-50 0 -73 21.5t-23 67.5v29h90v-18q0 -19 6 -24.5t24 -5.5h27q17 0 23 6t6 24v133q0 18 -5.5 23.5t-23.5 5.5h-89v70h117q91 0 91 -87v-62h97v223h-411v70h573z" />
    <glyph glyph-name="dvTT_RA" horiz-adv-x="366" 
d="M317 412h-145q-18 0 -24 -5.5t-6 -24.5v-282q0 -19 6 -24.5t24 -5.5h30q18 0 24 5.5t6 24.5v103h90v-114q0 -73 -61 -86l80 -144h-86l-62 124l-63 -124h-86l79 142q-71 10 -71 88v308q0 44 22 64.5t70 20.5h83v74h-247v70h406v-70h-69v-144z" />
    <glyph glyph-name="dvTTH_RA" horiz-adv-x="393" 
d="M257 100v282q0 19 -6 24.5t-24 5.5h-55q-18 0 -24 -5.5t-6 -24.5v-282q0 -19 6 -24.5t24 -5.5h55q18 0 24 5.5t6 24.5zM413 556h-169v-74h7q50 0 73 -21t23 -68v-304q0 -81 -76 -88l78 -142h-86l-62 124l-63 -124h-86l79 142q-41 3 -60 24.5t-19 63.5v304q0 47 23 68
t73 21h6v74h-174v70h433v-70z" />
    <glyph glyph-name="dvDD_RA" horiz-adv-x="376" 
d="M307 414h-133q-18 0 -23.5 -5.5t-5.5 -23.5v-60q0 -17 5.5 -22.5t23.5 -5.5h54q48 0 70 -21t22 -64v-127q0 -73 -65 -83l79 -143h-86l-62 124l-63 -124h-86l79 142q-72 7 -72 84v79h90v-67q0 -18 5.5 -23.5t22.5 -5.5h39q17 0 23 5.5t6 23.5v103q0 17 -6 22.5t-23 5.5
h-55q-47 0 -69 21t-22 64v84q0 44 21.5 64.5t69.5 20.5h71v74h-237v70h416v-70h-89v-142z" />
    <glyph glyph-name="dvDDH_RA" horiz-adv-x="406" 
d="M317 412h-145q-18 0 -24 -5.5t-6 -24.5v-282q0 -19 6 -24.5t24 -5.5h65q17 0 23 6t6 24v88q0 18 -6 23.5t-23 5.5h-42v70h65q51 0 74 -21t23 -68v-109q0 -42 -19.5 -63.5t-61.5 -24.5l78 -142h-86l-62 124l-63 -124h-86l79 141q-44 3 -64 24.5t-20 64.5v308q0 44 22 64.5
t70 20.5h83v74h-247v70h446v-70h-109v-144z" />
    <glyph glyph-name="dvNN_RA" horiz-adv-x="553" 
d="M224 252v304h-90v-304q0 -18 6 -23.5t24 -5.5h31q17 0 23 5.5t6 23.5zM573 626v-70h-72v-556h-90v135l-176 -191h-100l276 298v314h-97v-315q0 -46 -23 -67.5t-73 -21.5h-78q-50 0 -73 21.5t-23 67.5v315h-64v70h593z" />
    <glyph glyph-name="dvT_RA" horiz-adv-x="410" 
d="M430 626v-70h-72v-556h-89v198h-23l-135 -198h-102l165 242l-59 113q-16 31 -31 42.5t-45 11.5h-32v72h51q53 0 78 -14t46 -54l78 -146h9v289h-289v70h450z" />
    <glyph glyph-name="dvTH_RA" horiz-adv-x="476" 
d="M496 626v-70h-71v-556h-91v114l-107 -166h-97l105 158h-102q-86 0 -86 85v172h102q18 0 24 5.5t6 22.5v141q0 18 -6 23.5t-24 5.5h-5q-18 0 -24 -5.5t-6 -23.5v-43h-60v58q0 84 88 84h37q90 0 90 -84v-168q0 -87 -92 -87h-40v-86q0 -18 5.5 -24t23.5 -6h137q17 0 24 7
t7 25v418h162z" />
    <glyph glyph-name="dvD_RA" horiz-adv-x="374" 
d="M322 412h-153q-18 0 -24 -5.5t-6 -24.5v-176q0 -18 5.5 -24t23.5 -6h37q18 0 25 7t7 25v63h90v-271h-90v114l-107 -166h-98l105 158h-2q-86 0 -86 85v206q0 44 22 64.5t70 20.5h91v74h-255v70h417v-70h-72v-144z" />
    <glyph glyph-name="dvDH_RA" horiz-adv-x="478" 
d="M499 626v-70h-71v-556h-91v114l-107 -166h-97l112 169l-45 -11h-47q-86 0 -86 85v120q0 43 39 48v2q-39 5 -39 49v137q0 84 90 84h39q90 0 90 -84v-58h-60v43q0 18 -6 23.5t-24 5.5h-9q-18 0 -23.5 -5.5t-5.5 -23.5v-106q0 -19 5.5 -24.5t23.5 -5.5h68v-70h-68
q-18 0 -23.5 -5.5t-5.5 -24.5v-90q0 -19 5.5 -24.5t23.5 -5.5h119q17 0 24 7t7 25v418h162z" />
    <glyph glyph-name="dvN_RA" horiz-adv-x="529" 
d="M210 264v148h-57q-17 0 -23 -5.5t-6 -23.5v-119q0 -19 6 -24.5t24 -5.5h27q17 0 23 6t6 24zM545 626v-70h-72v-556h-90v135l-176 -191h-101l277 298v170h-82v-159q0 -46 -23.5 -67.5t-73.5 -21.5h-74q-50 0 -73 21t-23 68v144q0 44 22 64.5t70 20.5h257v74h-403v70h565z
" />
    <glyph glyph-name="dvP_RA" horiz-adv-x="383" 
d="M241 208v348h-99v-350q0 -18 6 -24t23 -6h38q18 0 25 7t7 25zM403 626v-70h-72v-556h-90v114l-107 -166h-98l105 158q-89 0 -89 89v361h-72v70h423z" />
    <glyph glyph-name="dvPH_RA" horiz-adv-x="554" 
d="M235 208v348h-98v-350q0 -19 5.5 -24.5t23.5 -5.5h38q17 0 24 7t7 25zM574 556h-249v-85q11 11 37 11h62q90 0 90 -89v-230q0 -43 -22 -64t-69 -21h-57v68h29q18 0 23.5 5.5t5.5 23.5v207q0 19 -5.5 24.5t-23.5 5.5h-38q-18 0 -25 -6.5t-7 -25.5v-380h-90v114l-107 -166
h-98l106 158h-4q-86 0 -86 85v365h-66v70h594v-70z" />
    <glyph glyph-name="dvB_RA" horiz-adv-x="425" 
d="M165 172h77q12 0 19 3l-72 117q-50 84 -53 87v-177q0 -18 6 -24t23 -6zM445 626v-70h-72v-556h-91v112l-106 -164h-98l103 154h-45q-90 0 -90 89v206q0 44 22 64.5t70 20.5h104v-68h-75l69 -109l52 -88q-6 40 -6 129v210h-302v70h465z" />
    <glyph glyph-name="dvBH_RA" horiz-adv-x="572" 
d="M235 233v107h-72q-17 0 -23 -5.5t-6 -22.5v-79q0 -18 6 -23.5t24 -5.5h41q18 0 24 5.5t6 23.5zM592 626v-70h-71v-556h-91v135l-175 -191h-101l276 298v98h-105v-118q0 -46 -23 -67.5t-73 -21.5h-89q-50 0 -73 21.5t-23 67.5v104q0 43 22 64t70 21h99v117q0 18 -6 23.5
t-24 5.5h-33q-18 0 -24 -5.5t-6 -23.5v-49h-90v61q0 87 92 87h89q92 0 92 -87v-129h105v215h162z" />
    <glyph glyph-name="dvM_RA" horiz-adv-x="562" 
d="M420 435v121h-105v-121h105zM225 233v132h-75q-18 0 -24 -5.5t-6 -23.5v-103q0 -18 6 -23.5t24 -5.5h45q18 0 24 5.5t6 23.5zM582 626v-70h-71v-556h-91v135l-175 -191h-101l276 298v123h-105v-143q0 -46 -23 -67.5t-73 -21.5h-89q-50 0 -73 21.5t-23 67.5v128
q0 43 22 64t70 21h99v121h-245v70h602z" />
    <glyph glyph-name="dvY_RA" horiz-adv-x="470" 
d="M328 208v348h-94q9 -10 9 -31v-131q0 -87 -90 -87h-27v-101q0 -19 6 -24.5t24 -5.5h140q18 0 25 7t7 25zM490 626v-70h-72v-556h-90v114l-107 -166h-98l105 158h-106q-86 0 -86 85v187h90q17 0 23 5.5t6 22.5v117q0 22 -7 27.5t-37 5.5h-147v70h526z" />
    <glyph glyph-name="dvL_RA" horiz-adv-x="543" 
d="M563 626v-70h-67v-556h-90v108l-148 -164h-100l248 270v198h-60q-18 0 -23.5 -6t-5.5 -24v-193h-90v193q0 18 -5.5 24t-23.5 6h-32q-18 0 -23.5 -6t-5.5 -24v-281q0 -17 6 -22.5t23 -5.5h13v-73h-41q-47 0 -69 21t-22 64v308q0 89 90 89h86q46 0 49 -39h3q3 39 48 39h83
v74h-426v70h583z" />
    <glyph glyph-name="dvV_RA" horiz-adv-x="377" 
d="M397 626v-70h-72v-556h-90v114l-107 -166h-98l106 158h-4q-86 0 -86 85v206q0 44 22 64.5t70 20.5h57v-70h-29q-18 0 -23.5 -5.5t-5.5 -23.5v-177q0 -19 5.5 -24.5t23.5 -5.5h40q18 0 23.5 5.5t5.5 24.5v350h-255v70h417z" />
    <glyph glyph-name="dvSH_RA" horiz-adv-x="533" 
d="M141 529v-146q0 -17 5.5 -23t22.5 -6h24q17 0 22.5 6t5.5 23v146q0 17 -5.5 23t-22.5 6h-24q-17 0 -22.5 -6t-5.5 -23zM392 626h161v-70h-71v-556h-90v187l-141 -143h-105l241 241h-137l-144 -137h-108l144 137q-48 1 -69 23.5t-21 65.5v164q0 88 96 88h67q96 0 96 -88
v-131q0 -38 -15 -53h96v272z" />
    <glyph glyph-name="dvSS_RA" horiz-adv-x="424" 
d="M141 556l98 -196l51 -110q-8 56 -8 137v169h-141zM171 156h80q23 0 29 13l-98 192q-14 27 -26.5 54.5t-17.5 40.5l-5 14q9 -50 9 -121v-163q0 -18 6 -24t23 -6zM444 626v-70h-72v-556h-90v91l-107 -171h-97l105 166h-41q-90 0 -90 89v381h-72v70h464z" />
    <glyph glyph-name="dvS_RA" horiz-adv-x="550" 
d="M409 348v208h-96q8 -8 8 -26v-129q0 -38 -15 -53h103zM570 626v-70h-72v-556h-89v256l-122 -131h-96l152 155h-209v-183q0 -18 6 -23.5t23 -5.5h158v-68h-185q-48 0 -70 21t-22 64v366h90v-103h65q19 0 25.5 6t6.5 26v144q0 20 -6.5 26t-25.5 6h-219v70h590z" />
    <glyph glyph-name="dvH_RA" horiz-adv-x="443" 
d="M334 414h-163q-17 0 -23 -5.5t-6 -22.5v-40q0 -17 6 -23t23 -6h151q84 0 84 -80v-70h-69v59q0 16 -4 22.5t-16 7.5l-69 -141h-71l69 141h-75q-17 0 -23 -6t-6 -24v-130q0 -18 6 -24t23 -6h171v-66h-194q-96 0 -96 89v140q0 44 39 49v2q-39 5 -39 49v68q0 44 22 64.5
t70 20.5h100v74h-264v70h483v-70h-129v-142z" />
    <glyph glyph-name="dvLL_RA" horiz-adv-x="566" 
d="M440 178v204q0 19 -5.5 24.5t-23.5 5.5h-54q-19 0 -24.5 -6t-5.5 -24v-204q0 -18 5.5 -24t24.5 -6h54q18 0 23.5 5.5t5.5 24.5zM239 178v204q0 18 -5.5 24t-23.5 6h-54q-18 0 -24 -5.5t-6 -24.5v-204q0 -19 6 -24.5t24 -5.5h54q18 0 23.5 6t5.5 24zM602 556h-168v-74h7
q89 0 89 -89v-226q0 -77 -64 -87l79 -143h-86l-61 124l-64 -124h-86l79 142q-38 4 -41 38h-3q-3 -39 -53 -39h-104q-90 0 -90 89v226q0 89 90 89h104q50 0 53 -39h3q3 39 52 39h6v74h-380v70h638v-70z" />
    <glyph glyph-name="dvKx_RA" horiz-adv-x="548" 
d="M172 -143v95h83v-95h-83zM568 556h-249v-84q11 10 36 10h63q90 0 90 -89v-202q0 -43 -22 -64t-70 -21h-57v68h29q18 0 24 5.5t6 23.5v179q0 19 -6 24.5t-24 5.5h-37q-18 0 -25 -6.5t-7 -25.5v-380h-90v114l-108 -166h-97l105 158q-89 0 -89 89v202q0 44 22 64.5t70 20.5
h56v-68h-29q-17 0 -23 -5.5t-6 -23.5v-179q0 -18 6 -24t23 -6h38q18 0 25 7t7 25v348h-249v70h588v-70z" />
    <glyph glyph-name="dvKHx_RA" horiz-adv-x="657" 
d="M453 -140v95h83v-95h-83zM677 626v-70h-72v-556h-87v124l-121 -176h-96l112 160q-79 6 -79 89v189q0 44 22 64.5t70 20.5h60v-68h-36q-18 0 -23.5 -5.5t-5.5 -23.5v-166q0 -18 5.5 -23.5t23.5 -5.5h31q20 0 28.5 8t8.5 27v342h-236q8 -8 8 -26v-201q0 -86 -92 -86h-61
v-139q0 -20 5.5 -25.5t25.5 -5.5h132v-73h-153q-52 0 -76.5 21t-24.5 66v384h91v-158h31q20 0 26 6.5t6 25.5v179q0 20 -6 26t-26 6h-188v70h697z" />
    <glyph glyph-name="dvGx_RA" horiz-adv-x="557" 
d="M321 -140v95h83v-95h-83zM153 220h43q18 0 24 5.5t6 24.5v162h-71q-19 0 -25 -6t-6 -25v-131q0 -18 6 -24t23 -6zM577 626v-70h-72v-556h-90v135l-176 -191h-100l276 298v314h-99v-317q0 -46 -23 -67.5t-73 -21.5h-90q-50 0 -73 21.5t-23 67.5v157q0 44 24 65t76 21h92
v74h-246v70h597z" />
    <glyph glyph-name="dvJx_RA" horiz-adv-x="540" 
d="M322 -132v95h83v-95h-83zM560 626v-70h-72v-556h-90v97l-139 -149h-102l241 252v212h-84v-205q0 -46 -23 -67.5t-73 -21.5h-78q-50 0 -73 21.5t-23 67.5v275h90v-264q0 -19 6 -24.5t24 -5.5h31q17 0 23 6t6 24v264h174v74h-418v70h580z" />
    <glyph glyph-name="dvPHx_RA" horiz-adv-x="554" 
d="M184 -140v95h83v-95h-83zM235 208v348h-98v-350q0 -19 5.5 -24.5t23.5 -5.5h38q17 0 24 7t7 25zM574 556h-249v-85q11 11 37 11h62q90 0 90 -89v-230q0 -43 -22 -64t-69 -21h-57v68h29q18 0 23.5 5.5t5.5 23.5v207q0 19 -5.5 24.5t-23.5 5.5h-38q-18 0 -25 -6.5t-7 -25.5
v-380h-90v114l-107 -166h-98l106 158h-4q-86 0 -86 85v365h-66v70h594v-70z" />
    <glyph glyph-name="dvK_R" horiz-adv-x="446" 
d="M494 556h-175v-114q11 10 36 10h139v-70h-143q-18 0 -25 -6.5t-7 -25.5v-350h-90v114l-108 -166h-97l105 158q-89 0 -89 89v202q0 44 22 64.5t70 20.5h56v-68h-29q-17 0 -23 -5.5t-6 -23.5v-179q0 -18 6 -24t23 -6h38q18 0 25 7t7 25v348h-249v70h514v-70z" />
    <glyph glyph-name="dvKH_R" horiz-adv-x="485" 
d="M137 243v-139q0 -20 5.5 -25.5t25.5 -5.5h132v-73h-153q-52 0 -76.5 21t-24.5 66v384h91v-158h31q20 0 26 6.5t6 25.5v179q0 20 -6 26t-26 6h-188v70h527v-70h-225q8 -8 8 -26v-201q0 -86 -92 -86h-61zM450 179h80v-38l-133 -193h-96l112 160q-79 6 -79 89v189
q0 44 22 64.5t70 20.5h60v-68h-36q-18 0 -23.5 -5.5t-5.5 -23.5v-166q0 -18 5.5 -23.5t23.5 -5.5z" />
    <glyph glyph-name="dvG_R" horiz-adv-x="399" 
d="M239 -56h-100l312 337v-108zM153 220h43q18 0 24 5.5t6 24.5v162h-71q-19 0 -25 -6t-6 -25v-131q0 -18 6 -24t23 -6zM-20 626h471v-70h-135v-317q0 -46 -23 -67.5t-73 -21.5h-90q-50 0 -73 21.5t-23 67.5v157q0 44 24 65t76 21h92v74h-246v70z" />
    <glyph glyph-name="dvGH_R" horiz-adv-x="307" 
d="M333 556h-152q-29 0 -36.5 -5t-7.5 -27v-94q0 -19 5.5 -24.5t23.5 -5.5h61v-70h-61q-18 0 -23.5 -5.5t-5.5 -24.5v-94q0 -19 5.5 -24.5t23.5 -5.5h167v-47l-118 -181h-97l105 158h-91q-86 0 -86 85v123q0 44 39 49v2q-39 5 -39 49v112q0 21 11 30h-77v70h353v-70z" />
    <glyph glyph-name="dvNG_R" horiz-adv-x="394" 
d="M137 -156h94l107 -134h-95zM307 303v95h83v-95h-83zM-20 626h434v-70h-107v-142h-133q-18 0 -23.5 -5.5t-5.5 -23.5v-60q0 -17 5.5 -22.5t23.5 -5.5h54q48 0 70 -21t22 -64v-127q0 -73 -65 -83l79 -143h-86l-62 124l-64 -124h-86l80 142q-72 8 -72 84v79h90v-67
q0 -18 5.5 -23.5t22.5 -5.5h39q17 0 23 5.5t6 23.5v103q0 17 -6 22.5t-23 5.5h-55q-47 0 -69 21t-22 64v84q0 44 21.5 64.5t69.5 20.5h71v74h-237v70z" />
    <glyph glyph-name="dvC_R" horiz-adv-x="257" 
d="M153 382v-176q0 -18 5.5 -24t23.5 -6h95v-47l-117 -181h-97l105 158h-19q-86 0 -86 85v189q0 22 10 32h-72v70h219v-70h-25q-27 0 -34.5 -5t-7.5 -25zM-20 626h297v-70h-297v70z" />
    <glyph glyph-name="dvCH_R" horiz-adv-x="543" 
d="M563 626v-70h-374l7 -1q-37 2 -46 -2.5t-9 -28.5v-149q0 -19 5.5 -24.5t23.5 -5.5h36v-70h-36q-18 0 -23.5 -5.5t-5.5 -24.5v-145q0 -18 5.5 -23.5t23.5 -5.5h211q18 0 23.5 5.5t5.5 23.5v287q0 18 -5.5 23.5t-23.5 5.5h-19q-18 0 -23.5 -5.5t-5.5 -23.5v-112
q0 -18 5.5 -23.5t23.5 -5.5h18v-66h-37q-88 0 -88 85v132q0 85 92 85h57q93 0 93 -85v-308q0 -89 -97 -89h-53l78 -141h-86l-62 124l-63 -124h-86l79 141h-60q-96 0 -96 89v171q0 43 39 48v2q-39 5 -39 49v171q0 16 7 26h-78v70h583z" />
    <glyph glyph-name="dvJ_R" horiz-adv-x="423" 
d="M-20 626h463v-70h-463v70zM44 482h90v-264q0 -19 6 -24.5t24 -5.5h31q17 0 23 6t6 24v264h219v-70h-129v-205q0 -46 -23 -67.5t-73 -21.5h-78q-50 0 -73 21.5t-23 67.5v275zM443 247v-101l-184 -198h-102z" />
    <glyph glyph-name="dvJH_R" horiz-adv-x="477" 
d="M309 -70h-103l301 300v-95zM318 414h-156q-18 0 -23.5 -5.5t-5.5 -23.5v-36q0 -18 5.5 -23.5t23.5 -5.5h345v-68h-181q2 -14 2 -21v-84q0 -44 -22 -64.5t-70 -20.5h-102v-75h-90v198h90v-55h74q18 0 24 5.5t6 23.5v64q0 18 -6 23.5t-24 5.5h-74q-48 0 -69.5 20.5
t-21.5 64.5v60q0 44 21.5 64.5t69.5 20.5h93v74h-247v70h527v-70h-189v-142z" />
    <glyph glyph-name="dvNY_R" horiz-adv-x="411" 
d="M281 -70h-104l264 262v-97zM294 395v-62h147v-71h-147v-95q0 -46 -23 -67.5t-73 -21.5h-74q-50 0 -73 21.5t-23 67.5v92h90v-81q0 -19 6 -24.5t24 -5.5h27q17 0 23 6t6 24v205q0 18 -5.5 23.5t-23.5 5.5h-89v70h117q91 0 91 -87zM-20 626h461v-70h-461v70z" />
    <glyph glyph-name="dvTT_R" horiz-adv-x="366" 
d="M134 -156h95l106 -134h-95zM317 412h-145q-18 0 -24 -5.5t-6 -24.5v-282q0 -19 6 -24.5t24 -5.5h30q18 0 24 5.5t6 24.5v103h90v-114q0 -73 -61 -86l80 -144h-86l-62 124l-63 -124h-86l79 142q-71 10 -71 88v308q0 44 22 64.5t70 20.5h83v74h-247v70h406v-70h-69v-144z
" />
    <glyph glyph-name="dvTTH_R" horiz-adv-x="393" 
d="M145 -156h95l106 -134h-95zM257 100v282q0 19 -6 24.5t-24 5.5h-55q-18 0 -24 -5.5t-6 -24.5v-282q0 -19 6 -24.5t24 -5.5h55q18 0 24 5.5t6 24.5zM413 556h-169v-74h7q50 0 73 -21t23 -68v-304q0 -81 -76 -88l78 -142h-86l-62 124l-63 -124h-86l79 142q-41 3 -60 24.5
t-19 63.5v304q0 47 23 68t73 21h6v74h-174v70h433v-70z" />
    <glyph glyph-name="dvDD_R" horiz-adv-x="376" 
d="M134 -156h95l106 -134h-95zM-20 626h416v-70h-89v-142h-133q-18 0 -23.5 -5.5t-5.5 -23.5v-60q0 -17 5.5 -22.5t23.5 -5.5h54q48 0 70 -21t22 -64v-127q0 -73 -65 -83l79 -143h-86l-62 124l-63 -124h-86l79 142q-72 7 -72 84v79h90v-67q0 -18 5.5 -23.5t22.5 -5.5h39
q17 0 23 5.5t6 23.5v103q0 17 -6 22.5t-23 5.5h-55q-47 0 -69 21t-22 64v84q0 44 21.5 64.5t69.5 20.5h71v74h-237v70z" />
    <glyph glyph-name="dvDDH_R" horiz-adv-x="406" 
d="M154 -156h95l106 -134h-95zM317 412h-145q-18 0 -24 -5.5t-6 -24.5v-282q0 -19 6 -24.5t24 -5.5h65q17 0 23 6t6 24v88q0 18 -6 23.5t-23 5.5h-42v70h65q51 0 74 -21t23 -68v-109q0 -42 -19.5 -63.5t-61.5 -24.5l78 -142h-86l-62 124l-63 -124h-86l79 141q-44 3 -64 24.5
t-20 64.5v308q0 44 22 64.5t70 20.5h83v74h-247v70h446v-70h-109v-144z" />
    <glyph glyph-name="dvNN_R" horiz-adv-x="375" 
d="M245 -70h-105l265 260v-97zM224 209v347h-90v-347q0 -18 6 -23.5t24 -5.5h31q17 0 23 5.5t6 23.5zM-20 626h425v-70h-91v-357q0 -47 -23 -68t-73 -21h-78q-50 0 -73 21t-23 68v357h-64v70z" />
    <glyph glyph-name="dvT_R" horiz-adv-x="305" 
d="M182 413l78 -146h65v-69h-79l-135 -198h-102l165 242l-59 113q-16 31 -31 42.5t-45 11.5h-32v72h51q53 0 78 -14t46 -54zM-20 626h345v-70h-345v70z" />
    <glyph glyph-name="dvTH_R" horiz-adv-x="324" 
d="M166 176h178v-47l-117 -181h-97l105 158h-102q-86 0 -86 85v172h102q18 0 24 5.5t6 22.5v141q0 18 -6 23.5t-24 5.5h-5q-18 0 -24 -5.5t-6 -23.5v-43h-60v58q0 84 88 84h37q90 0 90 -84v-168q0 -87 -92 -87h-40v-86q0 -18 5.5 -24t23.5 -6z" />
    <glyph glyph-name="dvD_R" horiz-adv-x="374" 
d="M237 0v114l-107 -166h-98l105 158h-2q-86 0 -86 85v206q0 44 22 64.5t70 20.5h91v74h-255v70h417v-70h-72v-144h-153q-18 0 -24 -5.5t-6 -24.5v-176q0 -18 5.5 -24t23.5 -6h37q18 0 25 7t7 25v63h90v-271h-90zM323 -61l106 -134h-95l-106 134h95z" />
    <glyph glyph-name="dvDH_R" horiz-adv-x="317" 
d="M67 311q0 43 39 48v2q-39 5 -39 49v137q0 84 90 84h39q90 0 90 -84v-58h-60v43q0 18 -6 23.5t-24 5.5h-9q-18 0 -23.5 -5.5t-5.5 -23.5v-106q0 -19 5.5 -24.5t23.5 -5.5h68v-70h-68q-18 0 -23.5 -5.5t-5.5 -24.5v-90q0 -19 5.5 -24.5t23.5 -5.5h160v-47l-117 -181h-97
l112 169l-59 -11h-33q-86 0 -86 85v120z" />
    <glyph glyph-name="dvN_R" horiz-adv-x="409" 
d="M207 -56h-101l323 347v-106zM210 412h-57q-17 0 -23 -5.5t-6 -23.5v-119q0 -19 6 -24.5t24 -5.5h27q17 0 23 6t6 24v148zM34 253v144q0 44 22 64.5t70 20.5h303v-70h-128v-159q0 -46 -23.5 -67.5t-73.5 -21.5h-74q-50 0 -73 21t-23 68zM-20 626h449v-70h-449v70z" />
    <glyph glyph-name="dvP_R" horiz-adv-x="231" 
d="M251 556h-109v-350q0 -18 6 -24t23 -6h80v-47l-117 -181h-98l105 158q-89 0 -89 89v361h-72v70h271v-70z" />
    <glyph glyph-name="dvPH_R" horiz-adv-x="444" 
d="M235 208v348h-98v-350q0 -19 5.5 -24.5t23.5 -5.5h38q17 0 24 7t7 25zM464 556h-139v-85q11 11 37 11h102v-70h-107q-18 0 -25 -6.5t-7 -25.5v-380h-90v114l-107 -166h-98l106 158h-4q-86 0 -86 85v365h-66v70h484v-70z" />
    <glyph glyph-name="dvB_R" horiz-adv-x="294" 
d="M-20 626h332v-70h-332v70zM136 178q0 -18 6 -24t23 -6h99l-75 133q-12 23 -25 48l-19.5 37.5t-8.5 15.5v-204zM46 397q0 44 22 64.5t70 20.5h104v-68h-75l69 -121q11 -19 29 -56t31 -64.5t16 -29.5v-64l-99 -131h-99l102 130h-80q-90 0 -90 89v230z" />
    <glyph glyph-name="dvBH_R" horiz-adv-x="440" 
d="M255 -56h-101l306 329v-106zM235 233v107h-72q-17 0 -23 -5.5t-6 -22.5v-79q0 -18 6 -23.5t24 -5.5h41q18 0 24 5.5t6 23.5zM325 411h135v-71h-135v-118q0 -46 -23 -67.5t-73 -21.5h-89q-50 0 -73 21.5t-23 67.5v104q0 43 22 64t70 21h99v117q0 18 -6 23.5t-24 5.5h-33
q-18 0 -24 -5.5t-6 -23.5v-49h-90v61q0 87 92 87h89q92 0 92 -87v-129z" />
    <glyph glyph-name="dvM_R" horiz-adv-x="430" 
d="M245 -56h-101l305 328v-107zM225 233v132h-75q-18 0 -24 -5.5t-6 -23.5v-103q0 -18 6 -23.5t24 -5.5h45q18 0 24 5.5t6 23.5zM315 435h135v-70h-135v-143q0 -46 -23 -67.5t-73 -21.5h-89q-50 0 -73 21.5t-23 67.5v128q0 43 22 64t70 21h99v121h-245v70h469v-70h-134v-121
z" />
    <glyph glyph-name="dvY_R" horiz-adv-x="318" 
d="M338 626v-70h-104q9 -10 9 -31v-131q0 -87 -90 -87h-27v-101q0 -19 6 -24.5t24 -5.5h182v-47l-117 -181h-98l105 158h-106q-86 0 -86 85v187h90q17 0 23 5.5t6 22.5v117q0 22 -7 27.5t-37 5.5h-131v70h358z" />
    <glyph glyph-name="dvL_R" horiz-adv-x="391" 
d="M491 303v-100l-233 -259h-100zM419 626v-70h-439v70h439zM223 482q46 0 49 -39h3q3 39 48 39h188v-70h-165q-18 0 -23.5 -6t-5.5 -24v-197h-90v197q0 18 -5.5 24t-23.5 6h-32q-18 0 -23.5 -6t-5.5 -24v-281q0 -17 6 -22.5t23 -5.5h19v-73h-47q-47 0 -69 21t-22 64v308
q0 89 90 89h86z" />
    <glyph glyph-name="dvV_R" horiz-adv-x="235" 
d="M137 383v-177q0 -19 5.5 -24.5t23.5 -5.5h79v-47l-117 -181h-98l106 158h-4q-86 0 -86 85v206q0 44 22 64.5t70 20.5h57v-70h-29q-18 0 -23.5 -5.5t-5.5 -23.5zM-20 626h265v-70h-265v70z" />
    <glyph glyph-name="dvSH_R" horiz-adv-x="354" 
d="M141 529v-146q0 -17 5.5 -23t22.5 -6h24q17 0 22.5 6t5.5 23v146q0 17 -5.5 23t-22.5 6h-24q-17 0 -22.5 -6t-5.5 -23zM296 354h147v-115l-192 -195h-105l241 241h-137l-144 -137h-108l144 137q-48 1 -69 23.5t-21 65.5v164q0 88 96 88h67q96 0 96 -88v-131
q0 -38 -15 -53z" />
    <glyph glyph-name="dvSS_R" horiz-adv-x="235" 
d="M171 156h80q23 0 29 13l-98 192q-14 27 -26.5 54.5t-17.5 40.5l-5 14q9 -50 9 -121v-163q0 -18 6 -24t23 -6zM141 556l98 -196q57 -115 67 -142v-87l-131 -211h-97l105 166h-41q-90 0 -90 89v381h-72v70h275v-70h-114z" />
    <glyph glyph-name="dvS_R" horiz-adv-x="421" 
d="M441 626v-70h-128q8 -8 8 -26v-129q0 -38 -15 -53h135v-58l-154 -165h-96l151 155h-208v-183q0 -18 6 -23.5t23 -5.5h158v-68h-185q-48 0 -70 21t-22 64v366h90v-103h65q19 0 25.5 6t6.5 26v144q0 20 -6.5 26t-25.5 6h-219v70h461z" />
    <glyph glyph-name="dvH_R" horiz-adv-x="443" 
d="M180 -61h95l106 -134h-95zM334 414h-163q-17 0 -23 -5.5t-6 -22.5v-40q0 -17 6 -23t23 -6h151q84 0 84 -80v-70h-69v59q0 16 -4 22.5t-16 7.5l-69 -141h-71l69 141h-75q-17 0 -23 -6t-6 -24v-130q0 -18 6 -24t23 -6h171v-66h-194q-96 0 -96 89v140q0 44 39 49v2
q-39 5 -39 49v68q0 44 22 64.5t70 20.5h100v74h-264v70h483v-70h-129v-142z" />
    <glyph glyph-name="dvLL_R" horiz-adv-x="566" 
d="M327 382v-204q0 -18 5.5 -24t24.5 -6h54q18 0 23.5 5.5t5.5 24.5v204q0 19 -5.5 24.5t-23.5 5.5h-54q-19 0 -24.5 -6t-5.5 -24zM239 178v204q0 18 -5.5 24t-23.5 6h-54q-18 0 -24 -5.5t-6 -24.5v-204q0 -19 6 -24.5t24 -5.5h54q18 0 23.5 6t5.5 24zM530 393v-226
q0 -77 -64 -87l79 -143h-86l-61 124l-64 -124h-86l79 142q-38 4 -41 38h-3q-3 -39 -53 -39h-104q-90 0 -90 89v226q0 89 90 89h104q50 0 53 -39h3q3 39 52 39h103q89 0 89 -89zM-36 626h638v-70h-638v70z" />
    <glyph glyph-name="dvKx_R" horiz-adv-x="446" 
d="M177 -139v95h83v-95h-83zM494 556h-175v-114q11 10 36 10h139v-70h-143q-18 0 -25 -6.5t-7 -25.5v-350h-90v114l-108 -166h-97l105 158q-89 0 -89 89v202q0 44 22 64.5t70 20.5h56v-68h-29q-17 0 -23 -5.5t-6 -23.5v-179q0 -18 6 -24t23 -6h38q18 0 25 7t7 25v348h-249
v70h514v-70z" />
    <glyph glyph-name="dvKHx_R" horiz-adv-x="485" 
d="M183 -143v95h83v-95h-83zM137 243v-139q0 -20 5.5 -25.5t25.5 -5.5h132v-73h-153q-52 0 -76.5 21t-24.5 66v384h91v-158h31q20 0 26 6.5t6 25.5v179q0 20 -6 26t-26 6h-188v70h527v-70h-225q8 -8 8 -26v-201q0 -86 -92 -86h-61zM450 179h80v-38l-133 -193h-96l112 160
q-79 6 -79 89v189q0 44 22 64.5t70 20.5h60v-68h-36q-18 0 -23.5 -5.5t-5.5 -23.5v-166q0 -18 5.5 -23.5t23.5 -5.5z" />
    <glyph glyph-name="dvGx_R" horiz-adv-x="399" 
d="M348 -114v95h83v-95h-83zM239 -56h-100l312 337v-108zM153 220h43q18 0 24 5.5t6 24.5v162h-71q-19 0 -25 -6t-6 -25v-131q0 -18 6 -24t23 -6zM-20 626h471v-70h-135v-317q0 -46 -23 -67.5t-73 -21.5h-90q-50 0 -73 21.5t-23 67.5v157q0 44 24 65t76 21h92v74h-246v70z
" />
    <glyph glyph-name="dvJx_R" horiz-adv-x="423" 
d="M-20 626h463v-70h-463v70zM44 482h90v-264q0 -19 6 -24.5t24 -5.5h31q17 0 23 6t6 24v264h219v-70h-129v-205q0 -46 -23 -67.5t-73 -21.5h-78q-50 0 -73 21.5t-23 67.5v275zM443 247v-101l-184 -198h-102zM315 -38h83v-95h-83v95z" />
    <glyph glyph-name="dvPHx_R" horiz-adv-x="444" 
d="M192 -141v95h83v-95h-83zM235 208v348h-98v-350q0 -19 5.5 -24.5t23.5 -5.5h38q17 0 24 7t7 25zM464 556h-139v-85q11 11 37 11h102v-70h-107q-18 0 -25 -6.5t-7 -25.5v-380h-90v114l-107 -166h-98l106 158h-4q-86 0 -86 85v365h-66v70h484v-70z" />
    <glyph glyph-name="dvK_KA" horiz-adv-x="914" 
d="M595 180v376h-276v-84q11 10 36 10h199v-68h-29q-17 0 -23 -5.5t-6 -23.5v-207q0 -18 6 -24t23 -6h38q18 0 25 7t7 25zM934 556h-249v-84q11 10 36 10h63q90 0 90 -89v-230q0 -43 -22 -64t-70 -21h-57v68h29q18 0 24 5.5t6 23.5v207q0 19 -6 24.5t-24 5.5h-37
q-18 0 -25 -6.5t-7 -25.5v-380h-90v89q-11 -11 -37 -11h-62q-90 0 -90 89v213q0 15 5 32h-60q-18 0 -25 -6.5t-7 -25.5v-380h-90v89q-11 -11 -37 -11h-62q-90 0 -90 89v230q0 44 22 64.5t70 20.5h56v-68h-29q-17 0 -23 -5.5t-6 -23.5v-207q0 -18 6 -24t23 -6h38q18 0 25 7
t7 25v376h-249v70h954v-70z" />
    <glyph glyph-name="dvKx_KxA" horiz-adv-x="914" 
d="M85 -96v95h83v-95h-83zM455 -96v95h83v-95h-83zM595 180v376h-276v-84q11 10 36 10h199v-68h-29q-17 0 -23 -5.5t-6 -23.5v-207q0 -18 6 -24t23 -6h38q18 0 25 7t7 25zM934 556h-249v-84q11 10 36 10h63q90 0 90 -89v-230q0 -43 -22 -64t-70 -21h-57v68h29q18 0 24 5.5
t6 23.5v207q0 19 -6 24.5t-24 5.5h-37q-18 0 -25 -6.5t-7 -25.5v-380h-90v89q-11 -11 -37 -11h-62q-90 0 -90 89v213q0 15 5 32h-60q-18 0 -25 -6.5t-7 -25.5v-380h-90v89q-11 -11 -37 -11h-62q-90 0 -90 89v230q0 44 22 64.5t70 20.5h56v-68h-29q-17 0 -23 -5.5t-6 -23.5
v-207q0 -18 6 -24t23 -6h38q18 0 25 7t7 25v376h-249v70h954v-70z" />
    <glyph glyph-name="dvK_KHA" horiz-adv-x="1028" 
d="M571 345v179q0 20 -6.5 26t-25.5 6h-220v-114q11 10 36 10h153v-139h31q19 0 25.5 6.5t6.5 25.5zM1048 626v-70h-72v-556h-87v124q-11 -14 -40 -14h-54q-90 0 -90 89v187q0 44 22 64.5t70 20.5h60v-68h-36q-17 0 -23 -5.5t-6 -23.5v-164q0 -18 6 -23.5t23 -5.5h31
q20 0 28.5 8t8.5 28v339h-236q8 -8 8 -26v-201q0 -44 -22 -65t-70 -21h-61v-139q0 -19 6 -25t25 -6h221v-73h-242q-52 0 -76 21t-24 66v295h-67q-18 0 -25 -6.5t-7 -25.5v-350h-90v89q-11 -11 -37 -11h-62q-90 0 -90 89v230q0 44 22 64.5t70 20.5h56v-68h-29q-17 0 -23 -5.5
t-6 -23.5v-207q0 -18 6 -24t23 -6h38q18 0 25 7t7 25v376h-249v70h1068z" />
    <glyph glyph-name="dvK_CA" horiz-adv-x="762" 
d="M620 180v376h-301v-114q11 10 36 10h217v-70h-24q-27 0 -34.5 -5t-7.5 -25v-174q0 -19 5.5 -24.5t23.5 -5.5h53q18 0 25 7t7 25zM782 626v-70h-72v-556h-90v89q-11 -11 -36 -11h-79q-90 0 -90 89v183q0 22 10 32h-74q-18 0 -25 -6.5t-7 -25.5v-350h-90v89
q-11 -11 -37 -11h-62q-90 0 -90 89v230q0 44 22 64.5t70 20.5h56v-68h-29q-17 0 -23 -5.5t-6 -23.5v-207q0 -18 6 -24t23 -6h38q18 0 25 7t7 25v376h-249v70h802z" />
    <glyph glyph-name="dvK_JA" horiz-adv-x="914" 
d="M772 482v74h-453v-84q11 10 36 10h153v-304q0 -19 6 -24.5t24 -5.5h30q18 0 24 5.5t6 24.5v304h174zM934 626v-70h-72v-556h-90v412h-84v-245q0 -46 -23 -67.5t-73 -21.5h-78q-50 0 -73 21.5t-23 67.5v245h-67q-18 0 -25 -6.5t-7 -25.5v-380h-90v89q-11 -11 -37 -11h-62
q-90 0 -90 89v230q0 44 22 64.5t70 20.5h56v-68h-29q-17 0 -23 -5.5t-6 -23.5v-207q0 -18 6 -24t23 -6h38q18 0 25 7t7 25v376h-249v70h954z" />
    <glyph glyph-name="dvK_TTA" horiz-adv-x="740" 
d="M319 556v-84q11 10 36 10h237v74h-273zM683 412h-145q-18 0 -24 -5.5t-6 -24.5v-282q0 -19 6 -24.5t24 -5.5h30q18 0 24 5.5t6 24.5v103h90v-114q0 -46 -23 -67.5t-73 -21.5h-78q-50 0 -73 21.5t-23 67.5v308q0 10 1 15h-68q-18 0 -25 -6.5t-7 -25.5v-380h-90v89
q-11 -11 -37 -11h-62q-90 0 -90 89v230q0 44 22 64.5t70 20.5h56v-68h-29q-17 0 -23 -5.5t-6 -23.5v-207q0 -18 6 -24t23 -6h38q18 0 25 7t7 25v376h-249v70h780v-70h-77v-144z" />
    <glyph glyph-name="dvK_NNA" horiz-adv-x="918" 
d="M600 178v378h-90v-378q0 -19 6 -24.5t24 -5.5h30q18 0 24 5.5t6 24.5zM355 452h65v104h-101v-114q11 10 36 10zM938 626v-70h-72v-556h-90v556h-86v-389q0 -46 -23 -67.5t-73 -21.5h-78q-50 0 -73 21.5t-23 67.5v215h-69q-18 0 -25 -6.5t-7 -25.5v-350h-90v89
q-11 -11 -37 -11h-62q-90 0 -90 89v230q0 44 22 64.5t70 20.5h56v-68h-29q-17 0 -23 -5.5t-6 -23.5v-207q0 -18 6 -24t23 -6h38q18 0 25 7t7 25v376h-249v70h958z" />
    <glyph glyph-name="dvK_TA" horiz-adv-x="573" 
d="M593 556h-249v-84q11 10 36 10h63q90 0 90 -89v-230q0 -43 -22 -64t-70 -21h-57v68h29q18 0 24 5.5t6 23.5v207q0 19 -6 24.5t-24 5.5h-37q-18 0 -25 -6.5t-7 -25.5v-380h-90v380q0 19 -7 25.5t-25 6.5h-38q-18 0 -23.5 -6t-5.5 -24v-207q0 -18 6 -23.5t23 -5.5h29v-68
h-56q-48 0 -70 21t-22 64v212q0 25 12 37h-72v70h212q26 0 37 -11v85h-274v70h613v-70z" />
    <glyph glyph-name="dvKx_TA" horiz-adv-x="777" 
d="M94 -95v95h83v-95h-83zM630 452v104h-311v-114q11 10 36 10h275zM792 626v-70h-72v-556h-90v382h-93q-18 0 -23.5 -5.5t-5.5 -23.5v-252q0 -17 5.5 -22.5t23.5 -5.5h29v-73h-57q-47 0 -69 21t-22 64v282q0 10 1 15h-68q-18 0 -25 -6.5t-7 -25.5v-350h-90v89
q-11 -11 -37 -11h-62q-90 0 -90 89v230q0 44 22 64.5t70 20.5h56v-68h-29q-17 0 -23 -5.5t-6 -23.5v-207q0 -18 6 -24t23 -6h38q18 0 25 7t7 25v376h-249v70h812z" />
    <glyph glyph-name="dvK_T_YA" horiz-adv-x="1082" 
d="M940 182v374h-94q10 -10 10 -31v-102q0 -87 -91 -87h-26v-158q0 -19 5.5 -24.5t23.5 -5.5h138q20 0 27 7t7 27zM355 407h383q18 0 23.5 5.5t5.5 22.5v88q0 22 -7 27.5t-36 5.5h-405v-160q11 11 36 11zM1102 626v-70h-71v-556h-91v89q-11 -11 -35 -11h-160q-97 0 -97 89
v169h-92q-18 0 -24 -5.5t-6 -22.5v-207q0 -17 6 -22.5t24 -5.5h29v-73h-57q-48 0 -70 21t-22 64v237q0 10 1 14h-86q-18 0 -25 -6.5t-7 -24.5v-305h-90v89q-11 -11 -37 -11h-62q-90 0 -90 89v230q0 44 22 64.5t70 20.5h56v-68h-29q-17 0 -23 -5.5t-6 -23.5v-207q0 -18 6 -24
t23 -6h38q18 0 25 7t7 25v376h-249v70h1122z" />
    <glyph glyph-name="dvK_T_RA" horiz-adv-x="758" 
d="M616 267v289h-297v-86q11 11 36 11h66q43 0 65.5 -15t42.5 -53l78 -146h9zM778 626v-70h-72v-556h-90v198h-23l-135 -198h-102l165 242l-66 128q-13 24 -25 32.5t-35 8.5h-44q-18 0 -25 -6.5t-7 -25.5v-379h-90v89q-11 -11 -37 -11h-62q-90 0 -90 89v230q0 44 22 64.5
t70 20.5h56v-68h-29q-17 0 -23 -5.5t-6 -23.5v-207q0 -18 6 -24t23 -6h38q18 0 25 7t7 25v376h-249v70h798z" />
    <glyph glyph-name="dvK_T_VA" horiz-adv-x="937" 
d="M795 180v376h-476v-114q11 10 36 10h400v-68h-29q-18 0 -23.5 -5.5t-5.5 -23.5v-177q0 -19 5.5 -24.5t23.5 -5.5h38q17 0 24 7t7 25zM957 626v-70h-71v-556h-91v88q-11 -10 -36 -10h-63q-90 0 -90 89v194q0 12 3 21h-72q-18 0 -23.5 -5.5t-5.5 -23.5v-252
q0 -17 5.5 -22.5t23.5 -5.5h29v-73h-57q-47 0 -69 21t-22 64v276q0 15 2 21h-69q-18 0 -25 -6.5t-7 -25.5v-350h-90v89q-11 -11 -37 -11h-62q-90 0 -90 89v230q0 44 22 64.5t70 20.5h56v-68h-29q-17 0 -23 -5.5t-6 -23.5v-207q0 -18 6 -24t23 -6h38q18 0 25 7t7 25v376h-249
v70h977z" />
    <glyph glyph-name="dvK_THA" horiz-adv-x="856" 
d="M876 626v-70h-71v-556h-91v89q-11 -11 -35 -11h-163q-96 0 -96 89v125h-69q-18 0 -25 -6.5t-7 -25.5v-260h-90v89q-11 -11 -37 -11h-62q-90 0 -90 89v230q0 44 22 64.5t70 20.5h56v-68h-29q-17 0 -23 -5.5t-6 -23.5v-207q0 -18 6 -24t23 -6h38q18 0 25 7t7 25v376h-249
v70h393v-70h-54v-204q11 11 36 11h155q18 0 23.5 5.5t5.5 22.5v141q0 18 -5.5 23.5t-23.5 5.5h-5q-18 0 -24 -5.5t-6 -23.5v-43h-60v58q0 84 88 84h37q90 0 90 -84v-168q0 -87 -92 -87h-28v-114q0 -18 6 -24t23 -6h141q20 0 27 7t7 27v444h162z" />
    <glyph glyph-name="dvK_DA" horiz-adv-x="742" 
d="M319 556v-111q11 11 36 11h245v100h-281zM690 386h-152q-18 0 -24 -5.5t-6 -24.5v-178q0 -19 5.5 -24.5t23.5 -5.5h37q18 0 25 7t7 25v89h90v-269h-90v89q-11 -11 -37 -11h-55q-50 0 -73 21.5t-23 67.5v204q0 10 1 15h-68q-18 0 -25 -7t-7 -25v-354h-90v89
q-11 -11 -37 -11h-62q-90 0 -90 89v230q0 44 22 64.5t70 20.5h56v-68h-29q-17 0 -23 -5.5t-6 -23.5v-207q0 -18 6 -24t23 -6h38q18 0 25 7t7 25v376h-249v70h788v-70h-78v-170z" />
    <glyph glyph-name="dvK_NA" horiz-adv-x="908" 
d="M766 452v104h-447v-114q11 10 36 10h411zM594 178v204h-57q-18 0 -23.5 -5.5t-5.5 -23.5v-175q0 -19 6 -24.5t24 -5.5h26q18 0 24 5.5t6 24.5zM928 626v-70h-72v-556h-90v382h-82v-215q0 -46 -23 -67.5t-73 -21.5h-74q-50 0 -73 21.5t-23 67.5v200q0 10 1 15h-68
q-18 0 -25 -6.5t-7 -25.5v-350h-90v89q-11 -11 -37 -11h-62q-90 0 -90 89v230q0 44 22 64.5t70 20.5h56v-68h-29q-17 0 -23 -5.5t-6 -23.5v-207q0 -18 6 -24t23 -6h38q18 0 25 7t7 25v376h-249v70h948z" />
    <glyph glyph-name="dvK_PA" horiz-adv-x="750" 
d="M614 180v376h-99v-378q0 -18 5.5 -24t23.5 -6h38q18 0 25 7t7 25zM355 452h70v104h-106v-114q11 10 36 10zM776 626v-70h-72v-556h-90v89q-11 -11 -37 -11h-62q-90 0 -90 89v215h-74q-18 0 -25 -6.5t-7 -25.5v-350h-90v89q-11 -11 -37 -11h-62q-90 0 -90 89v230
q0 44 22 64.5t70 20.5h56v-68h-29q-17 0 -23 -5.5t-6 -23.5v-207q0 -18 6 -24t23 -6h38q18 0 25 7t7 25v376h-249v70h796z" />
    <glyph glyph-name="dvK_P_RA" horiz-adv-x="750" 
d="M609 208v348h-99v-350q0 -18 6 -24t23 -6h38q18 0 25 7t7 25zM355 452h65v104h-101v-114q11 10 36 10zM771 626v-70h-72v-556h-90v114l-107 -166h-98l105 158q-89 0 -89 89v187h-69q-18 0 -25 -6.5t-7 -25.5v-350h-90v89q-11 -11 -37 -11h-62q-90 0 -90 89v230
q0 44 22 64.5t70 20.5h56v-68h-29q-17 0 -23 -5.5t-6 -23.5v-207q0 -18 6 -24t23 -6h38q18 0 25 7t7 25v376h-249v70h791z" />
    <glyph glyph-name="dvK_PHA" horiz-adv-x="927" 
d="M608 180v376h-98v-378q0 -19 5.5 -24.5t23.5 -5.5h38q17 0 24 7t7 25zM355 452h64v104h-100v-114q11 10 36 10zM947 556h-249v-85q11 11 37 11h62q90 0 90 -89v-230q0 -43 -22 -64t-69 -21h-57v68h29q18 0 23.5 5.5t5.5 23.5v207q0 19 -5.5 24.5t-23.5 5.5h-38
q-18 0 -25 -6.5t-7 -25.5v-380h-90v89q-11 -11 -36 -11h-63q-90 0 -90 89v215h-68q-18 0 -25 -6.5t-7 -25.5v-350h-90v89q-11 -11 -37 -11h-62q-90 0 -90 89v230q0 44 22 64.5t70 20.5h56v-68h-29q-17 0 -23 -5.5t-6 -23.5v-207q0 -18 6 -24t23 -6h38q18 0 25 7t7 25v376
h-249v70h967v-70z" />
    <glyph glyph-name="dvKx_PHA" horiz-adv-x="927" 
d="M94 -95v95h83v-95h-83zM608 180v376h-98v-378q0 -19 5.5 -24.5t23.5 -5.5h38q17 0 24 7t7 25zM355 452h64v104h-100v-114q11 10 36 10zM947 556h-249v-85q11 11 37 11h62q90 0 90 -89v-230q0 -43 -22 -64t-69 -21h-57v68h29q18 0 23.5 5.5t5.5 23.5v207q0 19 -5.5 24.5
t-23.5 5.5h-38q-18 0 -25 -6.5t-7 -25.5v-380h-90v89q-11 -11 -36 -11h-63q-90 0 -90 89v215h-68q-18 0 -25 -6.5t-7 -25.5v-350h-90v89q-11 -11 -37 -11h-62q-90 0 -90 89v230q0 44 22 64.5t70 20.5h56v-68h-29q-17 0 -23 -5.5t-6 -23.5v-207q0 -18 6 -24t23 -6h38
q18 0 25 7t7 25v376h-249v70h967v-70z" />
    <glyph glyph-name="dvKx_PHxA" horiz-adv-x="927" 
d="M97 -95v95h83v-95h-83zM480 -95v95h83v-95h-83zM608 180v376h-98v-378q0 -19 5.5 -24.5t23.5 -5.5h38q17 0 24 7t7 25zM355 452h64v104h-100v-114q11 10 36 10zM947 556h-249v-85q11 11 37 11h62q90 0 90 -89v-230q0 -43 -22 -64t-69 -21h-57v68h29q18 0 23.5 5.5
t5.5 23.5v207q0 19 -5.5 24.5t-23.5 5.5h-38q-18 0 -25 -6.5t-7 -25.5v-380h-90v89q-11 -11 -36 -11h-63q-90 0 -90 89v215h-68q-18 0 -25 -6.5t-7 -25.5v-350h-90v89q-11 -11 -37 -11h-62q-90 0 -90 89v230q0 44 22 64.5t70 20.5h56v-68h-29q-17 0 -23 -5.5t-6 -23.5v-207
q0 -18 6 -24t23 -6h38q18 0 25 7t7 25v376h-249v70h967v-70z" />
    <glyph glyph-name="dvKx_BA" horiz-adv-x="795" 
d="M94 -95v95h83v-95h-83zM538 414l68 -121l53 -96q-6 39 -6 128v231h-334v-84q11 10 36 10h258v-68h-75zM536 148h89q8 0 12 1l-77 132q-12 23 -25 48l-19.5 37.5t-8.5 15.5v-204q0 -19 5.5 -24.5t23.5 -5.5zM815 626v-70h-72v-556h-90v86q-11 -8 -33 -8h-114q-89 0 -89 89
v230q0 10 1 15h-67q-18 0 -25 -6.5t-7 -25.5v-380h-90v89q-11 -11 -37 -11h-62q-90 0 -90 89v230q0 44 22 64.5t70 20.5h56v-68h-29q-17 0 -23 -5.5t-6 -23.5v-207q0 -18 6 -24t23 -6h38q18 0 25 7t7 25v376h-249v70h835z" />
    <glyph glyph-name="dvK_MA" horiz-adv-x="946" 
d="M804 432v124h-106v-124h106zM608 202v160h-75q-17 0 -23 -5.5t-6 -23.5v-131q0 -19 6 -24.5t24 -5.5h44q18 0 24 5.5t6 24.5zM319 556v-135q11 11 36 11h253v124h-289zM966 626v-70h-72v-556h-90v362h-106v-171q0 -47 -23 -68t-73 -21h-88q-50 0 -73 21t-23 68v156
q0 10 1 15h-68q-18 0 -25 -7t-7 -25v-330h-90v89q-11 -11 -37 -11h-62q-90 0 -90 89v230q0 44 22 64.5t70 20.5h56v-68h-29q-17 0 -23 -5.5t-6 -23.5v-207q0 -18 6 -24t23 -6h38q18 0 25 7t7 25v376h-249v70h986z" />
    <glyph glyph-name="dvKx_MA" horiz-adv-x="946" 
d="M94 -95v95h83v-95h-83zM804 432v124h-106v-124h106zM608 202v160h-75q-17 0 -23 -5.5t-6 -23.5v-131q0 -19 6 -24.5t24 -5.5h44q18 0 24 5.5t6 24.5zM319 556v-135q11 11 36 11h253v124h-289zM966 626v-70h-72v-556h-90v362h-106v-171q0 -47 -23 -68t-73 -21h-88
q-50 0 -73 21t-23 68v156q0 10 1 15h-68q-18 0 -25 -7t-7 -25v-330h-90v89q-11 -11 -37 -11h-62q-90 0 -90 89v230q0 44 22 64.5t70 20.5h56v-68h-29q-17 0 -23 -5.5t-6 -23.5v-207q0 -18 6 -24t23 -6h38q18 0 25 7t7 25v376h-249v70h986z" />
    <glyph glyph-name="dvK_YA" horiz-adv-x="848" 
d="M706 182v374h-95q10 -10 10 -31v-131q0 -87 -91 -87h-26v-129q0 -19 5.5 -24.5t23.5 -5.5h139q20 0 27 7t7 27zM355 378h148q18 0 23.5 5.5t5.5 22.5v117q0 22 -7 27.5t-36 5.5h-170v-189q11 11 36 11zM868 626v-70h-72v-556h-90v89q-11 -11 -36 -11h-160q-96 0 -96 89
v140h-63q-18 0 -25 -6.5t-7 -24.5v-276h-90v89q-11 -11 -37 -11h-62q-90 0 -90 89v230q0 44 22 64.5t70 20.5h56v-68h-29q-17 0 -23 -5.5t-6 -23.5v-207q0 -18 6 -24t23 -6h38q18 0 25 7t7 25v376h-249v70h888z" />
    <glyph glyph-name="dvK_LA" horiz-adv-x="913" 
d="M777 452v104h-458v-114q11 10 36 10h239q44 0 49 -39h3q3 39 48 39h83zM933 626v-70h-66v-556h-90v382h-60q-18 0 -23.5 -6t-5.5 -24v-167h-90v167q0 18 -5.5 24t-24.5 6h-31q-18 0 -23.5 -5.5t-5.5 -24.5v-251q0 -17 5.5 -22.5t23.5 -5.5h59v-73h-87q-47 0 -69 21
t-22 64v278q0 13 1 19h-68q-18 0 -25 -6.5t-7 -25.5v-350h-90v89q-11 -11 -37 -11h-62q-90 0 -90 89v230q0 44 22 64.5t70 20.5h56v-68h-29q-17 0 -23 -5.5t-6 -23.5v-207q0 -18 6 -24t23 -6h38q18 0 25 7t7 25v376h-249v70h953z" />
    <glyph glyph-name="dvK_VA" horiz-adv-x="749" 
d="M606 180v376h-287v-114q11 10 36 10h211v-68h-29q-18 0 -23.5 -5.5t-5.5 -23.5v-177q0 -19 5.5 -24.5t23.5 -5.5h38q17 0 24 7t7 25zM769 626v-70h-72v-556h-91v88q-11 -10 -36 -10h-63q-89 0 -89 89v200q0 10 1 15h-68q-18 0 -25 -6.5t-7 -25.5v-350h-90v89
q-11 -11 -37 -11h-62q-90 0 -90 89v230q0 44 22 64.5t70 20.5h56v-68h-29q-17 0 -23 -5.5t-6 -23.5v-207q0 -18 6 -24t23 -6h38q18 0 25 7t7 25v376h-249v70h789z" />
    <glyph glyph-name="dvK_V_YA" horiz-adv-x="1040" 
d="M898 182v374h-94q10 -10 10 -31v-131q0 -87 -91 -87h-26v-129q0 -19 5.5 -24.5t23.5 -5.5h138q20 0 27 7t7 27zM606 378h90q18 0 23.5 5.5t5.5 22.5v117q0 22 -7 27.5t-36 5.5h-363v-84q11 10 36 10h211v-68h-29q-18 0 -23.5 -5.5t-5.5 -23.5v-207q0 -19 5.5 -24.5
t23.5 -5.5h38q17 0 24 7t7 25v198zM1060 626v-70h-71v-556h-91v89q-11 -11 -35 -11h-160q-50 0 -73 22q-14 -22 -54 -22h-69q-89 0 -89 89v218q0 15 3 27h-70q-18 0 -25 -6.5t-7 -25.5v-380h-90v89q-11 -11 -37 -11h-62q-90 0 -90 89v230q0 44 22 64.5t70 20.5h56v-68h-29
q-17 0 -23 -5.5t-6 -23.5v-207q0 -18 6 -24t23 -6h38q18 0 25 7t7 25v376h-249v70h1080z" />
    <glyph glyph-name="dvK_SHA" horiz-adv-x="920" 
d="M514 628h92q91 0 91 -87v-194q0 -44 -24 -65t-76 -21h-86v-164q0 -18 5.5 -23.5t23.5 -5.5h38q17 0 22.5 5.5t5.5 23.5v96h90v-108q0 -43 -22 -64t-70 -21h-92q-47 0 -69 21t-22 64v225h-70q-18 0 -25 -6.5t-7 -25.5v-278h-90v89q-11 -11 -37 -11h-62q-90 0 -90 89v230
q0 44 22 64.5t70 20.5h56v-68h-29q-17 0 -23 -5.5t-6 -23.5v-207q0 -18 6 -24t23 -6h38q18 0 25 7t7 25v376h-249v70h397v-70h-58v-186q11 11 36 11h156v-50h65q19 0 25 6.5t6 25.5v166q0 18 -5.5 23.5t-23.5 5.5h-38q-17 0 -22.5 -5.5t-5.5 -23.5v-77h-90v89q0 87 92 87z
M778 626h161v-70h-72v-556h-89v626z" />
    <glyph glyph-name="dvK_SS_MA" horiz-adv-x="982" 
d="M839 432v124h-105v-124h105zM644 202v160h-75q-18 0 -24 -5.5t-6 -23.5v-131q0 -19 6 -24.5t24 -5.5h45q18 0 24 5.5t6 24.5zM265 392v139q0 19 -6 24.5t-24 5.5h-35q-18 0 -24 -5.5t-6 -24.5v-139q0 -18 6 -23.5t24 -5.5h35q18 0 24 5.5t6 23.5zM1001 626v-70h-71v-556
h-91v362h-105v-171q0 -47 -23 -68t-73 -21h-89q-50 0 -73 21t-23 68v103h-304q-18 0 -24 -5.5t-6 -24.5v-103q0 -18 6 -23.5t24 -5.5h75q20 0 28.5 8t8.5 28v48h91v-229h-91v89q-11 -14 -40 -14h-107q-85 0 -85 85v128q0 76 61 86q-10 10 -10 32v149q0 47 23 68t73 21h83
q50 0 73 -21t23 -68v-154q0 -15 -8 -25h107q7 69 91 69h99v124h-245v70h602z" />
    <glyph glyph-name="dvK_SS_M_YA" horiz-adv-x="1240" 
d="M1098 182v374h-94q9 -11 9 -31v-79q0 -87 -90 -87h-27v-181q0 -19 6 -24.5t24 -5.5h138q20 0 27 7t7 27zM720 429h176q17 0 23 5.5t6 23.5v65q0 22 -7 27.5t-37 5.5h-161v-127zM629 178v181h-57q-17 0 -23 -5.5t-6 -23.5v-152q0 -19 6 -24.5t24 -5.5h27q18 0 23.5 6
t5.5 24zM265 392v139q0 19 -6 24.5t-24 5.5h-35q-18 0 -24 -5.5t-6 -24.5v-139q0 -18 6 -23.5t24 -5.5h35q18 0 24 5.5t6 23.5zM1260 626v-70h-72v-556h-90v89q-11 -11 -36 -11h-160q-96 0 -96 89v192h-86v-192q0 -46 -23.5 -67.5t-73.5 -21.5h-74q-50 0 -73 21.5t-23 67.5
v127h-304q-18 0 -24 -5.5t-6 -24.5v-103q0 -18 6 -23.5t24 -5.5h75q20 0 28.5 8t8.5 28v48h91v-229h-91v89q-11 -14 -40 -14h-107q-85 0 -85 85v128q0 76 61 86q-10 10 -10 32v149q0 47 23 68t73 21h83q50 0 73 -21t23 -68v-154q0 -15 -8 -25h107q9 66 91 66h84v127h-230v70
h861z" />
    <glyph glyph-name="dvK_SS_YA" horiz-adv-x="884" 
d="M742 182v374h-94q10 -10 10 -31v-132q0 -87 -91 -87h-26v-128q0 -19 5.5 -24.5t23.5 -5.5h138q20 0 27 7t7 27zM265 406v125q0 19 -6 24.5t-24 5.5h-35q-18 0 -24 -5.5t-6 -24.5v-125q0 -18 6 -24t24 -6h35q18 0 24 5.5t6 24.5zM904 626v-70h-71v-556h-91v89
q-11 -11 -35 -11h-160q-97 0 -97 89v141h-301q-18 0 -24 -7t-6 -32v-108q0 -18 6 -23.5t24 -5.5h75q20 0 28.5 8t8.5 28v48h91v-229h-91v89q-11 -14 -40 -14h-107q-85 0 -85 85v134q0 83 62 93q-11 11 -11 33v135q0 47 23 68t73 21h83q50 0 73 -21t23 -68v-140q0 -16 -8 -26
h193q18 0 23.5 5.5t5.5 23.5v118q0 22 -7 27.5t-36 5.5h-103v70h481z" />
    <glyph glyph-name="dvK_SS_VA" horiz-adv-x="785" 
d="M265 392v139q0 19 -6 24.5t-24 5.5h-35q-18 0 -24 -5.5t-6 -24.5v-139q0 -18 6 -23.5t24 -5.5h35q18 0 24 5.5t6 23.5zM801 626v-70h-71v-556h-91v88q-11 -10 -36 -10h-63q-90 0 -90 89v127h-301q-18 0 -24 -5.5t-6 -24.5v-103q0 -18 6 -23.5t24 -5.5h75q20 0 28.5 8
t8.5 28v48h91v-229h-91v89q-11 -14 -40 -14h-107q-85 0 -85 85v128q0 76 61 86q-10 10 -10 32v149q0 47 23 68t73 21h83q50 0 73 -21t23 -68v-154q0 -15 -8 -25h103v34q0 44 22 64.5t70 20.5h57v-68h-29q-18 0 -23.5 -5.5t-5.5 -23.5v-207q0 -19 5.5 -24.5t23.5 -5.5h38
q17 0 24 7t7 25v376h-215v70h377z" />
    <glyph glyph-name="dvK_SA" horiz-adv-x="923" 
d="M782 348v208h-96q8 -8 8 -26v-129q0 -38 -15 -53h103zM604 380v144q0 20 -6 26t-25 6h-254v-114q11 10 36 10h153v-104h65q19 0 25 6.5t6 25.5zM943 626v-70h-71v-556h-90v278h-274v-181q0 -18 5.5 -23.5t23.5 -5.5h38q17 0 22.5 5.5t5.5 23.5v113h90v-125q0 -43 -22 -64
t-70 -21h-92q-47 0 -69 21t-22 64v297h-67q-18 0 -25 -6.5t-7 -25.5v-350h-90v89q-11 -11 -37 -11h-62q-90 0 -90 89v230q0 44 22 64.5t70 20.5h56v-68h-29q-17 0 -23 -5.5t-6 -23.5v-207q0 -18 6 -24t23 -6h38q18 0 25 7t7 25v376h-249v70h963z" />
    <glyph glyph-name="dvK_S_TTA" horiz-adv-x="1097" 
d="M783 348v49q0 44 22 64.5t70 20.5h83v74h-272q8 -8 8 -26v-129q0 -38 -15 -53h104zM604 380v144q0 20 -6 26t-25 6h-254v-114q11 10 36 10h153v-104h65q19 0 25 6.5t6 25.5zM1048 412h-145q-18 0 -24 -5.5t-6 -24.5v-282q0 -19 6 -24.5t24 -5.5h31q18 0 23.5 6t5.5 24
v103h91v-114q0 -46 -23.5 -67.5t-73.5 -21.5h-78q-50 0 -73 21.5t-23 67.5v189h-275v-181q0 -18 5.5 -23.5t23.5 -5.5h38q17 0 22.5 5.5t5.5 23.5v113h90v-125q0 -43 -22 -64t-70 -21h-92q-47 0 -69 21t-22 64v297h-67q-18 0 -25 -6.5t-7 -25.5v-350h-90v89q-11 -11 -37 -11
h-62q-90 0 -90 89v230q0 44 22 64.5t70 20.5h56v-68h-29q-17 0 -23 -5.5t-6 -23.5v-207q0 -18 6 -24t23 -6h38q18 0 25 7t7 25v376h-249v70h1137v-70h-69v-144z" />
    <glyph glyph-name="dvK_S_DDA" horiz-adv-x="1104" 
d="M783 348v49q0 44 22 64.5t70 20.5h71v74h-260q8 -8 8 -26v-129q0 -38 -15 -53h104zM604 380v144q0 20 -6 26t-25 6h-254v-114q11 10 36 10h153v-104h65q19 0 25 6.5t6 25.5zM1036 414h-133q-18 0 -24 -5.5t-6 -23.5v-60q0 -17 6 -22.5t24 -5.5h54q48 0 70 -21t22 -64
v-127q0 -43 -22 -64t-70 -21h-93q-48 0 -70 21t-22 64v79h90v-67q0 -18 6 -23.5t23 -5.5h38q18 0 23.5 5.5t5.5 23.5v103q0 17 -5.5 22.5t-23.5 5.5h-54q-71 0 -88 50h-279v-181q0 -18 5.5 -23.5t23.5 -5.5h38q17 0 22.5 5.5t5.5 23.5v113h90v-125q0 -43 -22 -64t-70 -21
h-92q-47 0 -69 21t-22 64v297h-67q-18 0 -25 -6.5t-7 -25.5v-350h-90v89q-11 -11 -37 -11h-62q-90 0 -90 89v230q0 44 22 64.5t70 20.5h56v-68h-29q-17 0 -23 -5.5t-6 -23.5v-207q0 -18 6 -24t23 -6h38q18 0 25 7t7 25v376h-249v70h1144v-70h-88v-142z" />
    <glyph glyph-name="dvK_S_TA" horiz-adv-x="1142" 
d="M1000 482v74h-314q8 -8 8 -26v-129q0 -38 -15 -53h109v49q0 44 22 64.5t70 20.5h120zM604 380v144q0 20 -6 26t-25 6h-254v-114q11 10 36 10h153v-104h65q19 0 25 6.5t6 25.5zM1162 626v-70h-72v-556h-90v412h-93q-17 0 -23 -5.5t-6 -23.5v-282q0 -17 6 -22.5t23 -5.5h29
v-73h-56q-48 0 -70 21t-22 64v193h-280v-181q0 -18 5.5 -23.5t23.5 -5.5h38q17 0 22.5 5.5t5.5 23.5v113h90v-125q0 -43 -22 -64t-70 -21h-92q-47 0 -69 21t-22 64v297h-67q-18 0 -25 -6.5t-7 -25.5v-350h-90v89q-11 -11 -37 -11h-62q-90 0 -90 89v230q0 44 22 64.5t70 20.5
h56v-68h-29q-17 0 -23 -5.5t-6 -23.5v-207q0 -18 6 -24t23 -6h38q18 0 25 7t7 25v376h-249v70h1182z" />
    <glyph glyph-name="dvK_S_P_RA" horiz-adv-x="1126" 
d="M984 204v352h-99v-354q0 -19 6 -24.5t24 -5.5h37q18 0 25 6.5t7 25.5zM682 348h113v208h-106q8 -8 8 -26v-129q0 -38 -15 -53zM606 380v144q0 20 -6 26t-25 6h-256v-114q11 10 36 10h155v-104h65q19 0 25 6.5t6 25.5zM1146 626v-70h-72v-556h-90v110l-106 -162h-99
l105 154q-89 0 -89 89v87h-285v-181q0 -18 6 -23.5t23 -5.5h38q17 0 22.5 5.5t5.5 23.5v113h90v-125q0 -43 -22 -64t-70 -21h-92q-47 0 -69 21t-22 64v297h-69q-18 0 -25 -6.5t-7 -25.5v-350h-90v89q-11 -11 -37 -11h-62q-90 0 -90 89v230q0 44 22 64.5t70 20.5h56v-68h-29
q-17 0 -23 -5.5t-6 -23.5v-207q0 -18 6 -24t23 -6h38q18 0 25 7t7 25v376h-249v70h1166z" />
    <glyph glyph-name="dvK_S_P_LA" horiz-adv-x="1478" 
d="M1342 482v74h-458v-378q0 -18 6 -24t23 -6h38q18 0 25 7t7 25v213q0 89 89 89h87q44 0 49 -39h3q3 39 48 39h83zM682 348h112v208h-105q8 -8 8 -26v-129q0 -38 -15 -53zM606 380v144q0 20 -6 26t-25 6h-256v-114q11 10 36 10h155v-104h65q19 0 25 6.5t6 25.5zM1498 626
v-70h-66v-556h-90v412h-60q-18 0 -23.5 -6t-5.5 -24v-197h-90v197q0 18 -5.5 24t-24.5 6h-31q-18 0 -23.5 -5.5t-5.5 -24.5v-281q0 -17 5.5 -22.5t23.5 -5.5h59v-73h-87q-47 0 -69 21t-22 64v4q-11 -11 -37 -11h-62q-90 0 -90 89v111h-284v-181q0 -18 6 -23.5t23 -5.5h38
q17 0 22.5 5.5t5.5 23.5v113h90v-125q0 -43 -22 -64t-70 -21h-92q-47 0 -69 21t-22 64v297h-69q-18 0 -25 -6.5t-7 -25.5v-350h-90v89q-11 -11 -37 -11h-62q-90 0 -90 89v230q0 44 22 64.5t70 20.5h56v-68h-29q-17 0 -23 -5.5t-6 -23.5v-207q0 -18 6 -24t23 -6h38q18 0 25 7
t7 25v376h-249v70h1518z" />
    <glyph glyph-name="dvKH_KHA" horiz-adv-x="1129" 
d="M1149 626v-70h-72v-556h-87v126q-10 -16 -41 -16h-54q-90 0 -90 89v187q0 44 22 64.5t70 20.5h60v-68h-35q-18 0 -23.5 -5.5t-5.5 -23.5v-164q0 -18 5.5 -23.5t23.5 -5.5h30q21 0 29.5 8t8.5 28v339h-236q8 -8 8 -26v-201q0 -44 -22.5 -65t-70.5 -21h-61v-139
q0 -19 6 -25t26 -6h220v-73h-242q-100 0 -100 87v38q-10 -15 -40 -15h-54q-90 0 -90 89v187q0 44 22 64.5t70 20.5h60v-68h-36q-18 0 -23.5 -5.5t-5.5 -23.5v-164q0 -18 5.5 -23.5t23.5 -5.5h31q20 0 28.5 8t8.5 28v254h90v-158h32q19 0 25 6t6 26v179q0 20 -6 26t-25 6
h-358q8 -8 8 -26v-201q0 -86 -92 -86h-61v-139q0 -20 5.5 -25.5t25.5 -5.5h221v-73h-242q-52 0 -76.5 21t-24.5 66v384h91v-158h31q20 0 26 6.5t6 25.5v179q0 20 -6 26t-26 6h-188v70h1169z" />
    <glyph glyph-name="dvKH_TA" horiz-adv-x="872" 
d="M892 626v-70h-72v-556h-90v412h-92q-18 0 -24 -5.5t-6 -23.5v-282q0 -17 6 -22.5t24 -5.5h29v-73h-57q-48 0 -70 21t-22 64v40q-10 -15 -40 -15h-54q-90 0 -90 89v187q0 44 22 64.5t70 20.5h60v-68h-36q-18 0 -23.5 -5.5t-5.5 -23.5v-164q0 -18 5.5 -23.5t23.5 -5.5h31
q20 0 28.5 8t8.5 28v180q0 44 22 64.5t70 20.5h120v74h-448q8 -8 8 -26v-213q0 -86 -92 -86h-61v-127q0 -20 5.5 -25.5t25.5 -5.5h192v-73h-213q-52 0 -76.5 21t-24.5 66v384h91v-170h31q20 0 26 6.5t6 25.5v191q0 20 -6 26t-26 6h-188v70h912z" />
    <glyph glyph-name="dvKHx_TA" horiz-adv-x="872" 
d="M134 -154v95h83v-95h-83zM892 626v-70h-72v-556h-90v412h-92q-18 0 -24 -5.5t-6 -23.5v-282q0 -17 6 -22.5t24 -5.5h29v-73h-57q-48 0 -70 21t-22 64v40q-10 -15 -40 -15h-54q-90 0 -90 89v187q0 44 22 64.5t70 20.5h60v-68h-36q-18 0 -23.5 -5.5t-5.5 -23.5v-164
q0 -18 5.5 -23.5t23.5 -5.5h31q20 0 28.5 8t8.5 28v180q0 44 22 64.5t70 20.5h120v74h-448q8 -8 8 -26v-213q0 -86 -92 -86h-61v-127q0 -20 5.5 -25.5t25.5 -5.5h192v-73h-213q-52 0 -76.5 21t-24.5 66v384h91v-170h31q20 0 26 6.5t6 25.5v191q0 20 -6 26t-26 6h-188v70h912
z" />
    <glyph glyph-name="dvKH_NA" horiz-adv-x="1009" 
d="M694 178v234h-56q-18 0 -24 -5.5t-6 -23.5v-205q0 -19 6 -24.5t24 -5.5h27q17 0 23 6t6 24zM1029 626v-70h-72v-556h-90v412h-82v-245q0 -46 -23.5 -67.5t-73.5 -21.5h-74q-72 0 -90 47q-12 -15 -42 -15h-58q-90 0 -90 89v198q0 44 22 64.5t70 20.5h60v-68h-36
q-18 0 -23.5 -5.5t-5.5 -23.5v-175q0 -18 5.5 -23.5t23.5 -5.5h31q20 0 28.5 8t8.5 28v180q0 44 22 64.5t70 20.5h257v74h-585q8 -8 8 -26v-201q0 -86 -92 -86h-61v-139q0 -20 5.5 -25.5t25.5 -5.5h221v-73h-242q-52 0 -76.5 21t-24.5 66v384h91v-158h31q20 0 26 6.5t6 25.5
v179q0 20 -6 26t-26 6h-188v70h1049z" />
    <glyph glyph-name="dvKH_MA" horiz-adv-x="1013" 
d="M885 432v124h-86v-124h86zM709 202v160h-75q-18 0 -24 -5.5t-6 -23.5v-131q0 -19 6 -24.5t24 -5.5h45q18 0 24 5.5t6 24.5zM1047 626v-70h-72v-556h-90v362h-86v-171q0 -47 -23 -68t-73 -21h-89q-55 0 -77 25q-13 -25 -55 -25h-58q-90 0 -90 89v206q0 44 22 64.5t70 20.5
h60v-68h-36q-18 0 -23.5 -5.5t-5.5 -23.5v-183q0 -19 5.5 -24.5t23.5 -5.5h31q20 0 28.5 8t8.5 28v139q0 43 22 64t70 21h99v124h-427q8 -8 8 -26v-201q0 -86 -92 -86h-61v-139q0 -20 5.5 -25.5t25.5 -5.5h221v-73h-242q-52 0 -76.5 21t-24.5 66v384h91v-158h31q20 0 26 6.5
t6 25.5v179q0 20 -6 26t-26 6h-188v70h1067z" />
    <glyph glyph-name="dvKHx_MA" horiz-adv-x="1013" 
d="M134 -154v95h83v-95h-83zM885 432v124h-86v-124h86zM709 202v160h-75q-18 0 -24 -5.5t-6 -23.5v-131q0 -19 6 -24.5t24 -5.5h45q18 0 24 5.5t6 24.5zM1047 626v-70h-72v-556h-90v362h-86v-171q0 -47 -23 -68t-73 -21h-89q-55 0 -77 25q-13 -25 -55 -25h-58q-90 0 -90 89
v206q0 44 22 64.5t70 20.5h60v-68h-36q-18 0 -23.5 -5.5t-5.5 -23.5v-183q0 -19 5.5 -24.5t23.5 -5.5h31q20 0 28.5 8t8.5 28v139q0 43 22 64t70 21h99v124h-427q8 -8 8 -26v-201q0 -86 -92 -86h-61v-139q0 -20 5.5 -25.5t25.5 -5.5h221v-73h-242q-52 0 -76.5 21t-24.5 66
v384h91v-158h31q20 0 26 6.5t6 25.5v179q0 20 -6 26t-26 6h-188v70h1067z" />
    <glyph glyph-name="dvKH_YA" horiz-adv-x="952" 
d="M810 182v374h-94q9 -11 9 -31v-131q0 -87 -90 -87h-27v-129q0 -19 6 -24.5t24 -5.5h138q20 0 27 7t7 27zM972 626v-70h-72v-556h-90v89q-11 -11 -36 -11h-160q-65 0 -85 38q-15 -14 -47 -14h-58q-90 0 -90 89v206q0 44 22 64.5t70 20.5h60v-68h-36q-18 0 -23.5 -5.5
t-5.5 -23.5v-183q0 -19 5.5 -24.5t23.5 -5.5h31q20 0 28.5 8t8.5 28v170h89q18 0 24 5.5t6 22.5v117q0 21 -7.5 27t-36.5 6h-311q8 -8 8 -26v-201q0 -86 -92 -86h-61v-139q0 -20 5.5 -25.5t25.5 -5.5h221v-73h-242q-52 0 -76.5 21t-24.5 66v384h91v-158h31q20 0 26 6.5
t6 25.5v179q0 20 -6 26t-26 6h-188v70h992z" />
    <glyph glyph-name="dvKHx_YA" horiz-adv-x="952" 
d="M134 -154v95h83v-95h-83zM810 182v374h-94q9 -11 9 -31v-131q0 -87 -90 -87h-27v-129q0 -19 6 -24.5t24 -5.5h138q20 0 27 7t7 27zM972 626v-70h-72v-556h-90v89q-11 -11 -36 -11h-160q-65 0 -85 38q-15 -14 -47 -14h-58q-90 0 -90 89v206q0 44 22 64.5t70 20.5h60v-68
h-36q-18 0 -23.5 -5.5t-5.5 -23.5v-183q0 -19 5.5 -24.5t23.5 -5.5h31q20 0 28.5 8t8.5 28v170h89q18 0 24 5.5t6 22.5v117q0 21 -7.5 27t-36.5 6h-311q8 -8 8 -26v-201q0 -86 -92 -86h-61v-139q0 -20 5.5 -25.5t25.5 -5.5h221v-73h-242q-52 0 -76.5 21t-24.5 66v384h91
v-158h31q20 0 26 6.5t6 25.5v179q0 20 -6 26t-26 6h-188v70h992z" />
    <glyph glyph-name="dvKH_VA" horiz-adv-x="836" 
d="M856 626v-70h-59v-556h-90v89q-11 -11 -37 -11h-62q-74 0 -87 58q-12 -13 -41 -13h-56q-90 0 -90 89v185q0 44 22 64.5t70 20.5h60v-68h-36q-18 0 -23.5 -5.5t-5.5 -23.5v-162q0 -19 5.5 -24.5t23.5 -5.5h31q20 0 28.5 8t8.5 28v168q0 44 22 64.5t70 20.5h57v-68h-29
q-18 0 -24 -5.5t-6 -23.5v-207q0 -19 6 -24.5t24 -5.5h37q18 0 25 7t7 25v376h-425q8 -8 8 -26v-201q0 -86 -92 -86h-61v-139q0 -20 5.5 -25.5t25.5 -5.5h235v-73h-256q-52 0 -76.5 21t-24.5 66v384h91v-158h31q20 0 26 6.5t6 25.5v179q0 20 -6 26t-26 6h-188v70h876z" />
    <glyph glyph-name="dvKHx_VA" horiz-adv-x="836" 
d="M134 -154v95h83v-95h-83zM856 626v-70h-59v-556h-90v89q-11 -11 -37 -11h-62q-74 0 -87 58q-12 -13 -41 -13h-56q-90 0 -90 89v185q0 44 22 64.5t70 20.5h60v-68h-36q-18 0 -23.5 -5.5t-5.5 -23.5v-162q0 -19 5.5 -24.5t23.5 -5.5h31q20 0 28.5 8t8.5 28v168
q0 44 22 64.5t70 20.5h57v-68h-29q-18 0 -24 -5.5t-6 -23.5v-207q0 -19 6 -24.5t24 -5.5h37q18 0 25 7t7 25v376h-425q8 -8 8 -26v-201q0 -86 -92 -86h-61v-139q0 -20 5.5 -25.5t25.5 -5.5h235v-73h-256q-52 0 -76.5 21t-24.5 66v384h91v-158h31q20 0 26 6.5t6 25.5v179
q0 20 -6 26t-26 6h-188v70h876z" />
    <glyph glyph-name="dvKH_SHA" horiz-adv-x="1017" 
d="M137 243v-139q0 -20 5.5 -25.5t25.5 -5.5h221v-73h-242q-52 0 -76.5 21t-24.5 66v384h91v-158h31q20 0 26 6.5t6 25.5v179q0 20 -6 26t-26 6h-188v70h498v-70h-196q8 -8 8 -26v-201q0 -86 -92 -86h-61zM611 628h92q92 0 92 -87v-194q0 -86 -100 -86h-87v-164
q0 -18 6 -23.5t24 -5.5h37q17 0 22.5 5.5t5.5 23.5v96h90v-108q0 -43 -22 -64t-70 -21h-91q-48 0 -70 21t-22 64v40q-10 -15 -40 -15h-54q-90 0 -90 89v187q0 44 22 64.5t70 20.5h52v-68h-28q-18 0 -23.5 -5.5t-5.5 -23.5v-164q0 -18 5.5 -23.5t23.5 -5.5h31q20 0 28.5 8
t8.5 28v164h90v-50h65q19 0 25.5 6.5t6.5 25.5v166q0 18 -6 23.5t-24 5.5h-37q-17 0 -22.5 -5.5t-5.5 -23.5v-77h-90v89q0 87 91 87zM875 626h162v-70h-73v-556h-89v626z" />
    <glyph glyph-name="dvKHx_SHA" horiz-adv-x="1017" 
d="M134 -154v95h83v-95h-83zM137 243v-139q0 -20 5.5 -25.5t25.5 -5.5h221v-73h-242q-52 0 -76.5 21t-24.5 66v384h91v-158h31q20 0 26 6.5t6 25.5v179q0 20 -6 26t-26 6h-188v70h498v-70h-196q8 -8 8 -26v-201q0 -86 -92 -86h-61zM611 628h92q92 0 92 -87v-194
q0 -86 -100 -86h-87v-164q0 -18 6 -23.5t24 -5.5h37q17 0 22.5 5.5t5.5 23.5v96h90v-108q0 -43 -22 -64t-70 -21h-91q-48 0 -70 21t-22 64v40q-10 -15 -40 -15h-54q-90 0 -90 89v187q0 44 22 64.5t70 20.5h52v-68h-28q-18 0 -23.5 -5.5t-5.5 -23.5v-164q0 -18 5.5 -23.5
t23.5 -5.5h31q20 0 28.5 8t8.5 28v164h90v-50h65q19 0 25.5 6.5t6.5 25.5v166q0 18 -6 23.5t-24 5.5h-37q-17 0 -22.5 -5.5t-5.5 -23.5v-77h-90v89q0 87 91 87zM875 626h162v-70h-73v-556h-89v626z" />
    <glyph glyph-name="dvKHx_SA" horiz-adv-x="1027" 
d="M134 -154v95h83v-95h-83zM883 348v208h-96q8 -8 8 -26v-129q0 -38 -15 -53h103zM1044 626v-70h-72v-556h-89v278h-275v-181q0 -18 6 -23.5t24 -5.5h37q17 0 22.5 5.5t5.5 23.5v113h90v-125q0 -43 -22 -64t-70 -21h-91q-48 0 -70 21t-22 64v40q-10 -15 -40 -15h-54
q-90 0 -90 89v187q0 44 22 64.5t70 20.5h52v-68h-28q-18 0 -23.5 -5.5t-5.5 -23.5v-164q0 -18 5.5 -23.5t23.5 -5.5h31q20 0 28.5 8t8.5 28v234h90v-103h65q19 0 25.5 6t6.5 26v144q0 20 -6.5 26t-25.5 6h-391q8 -8 8 -26v-201q0 -86 -92 -86h-61v-139q0 -20 5.5 -25.5
t25.5 -5.5h221v-73h-242q-52 0 -76.5 21t-24.5 66v384h91v-158h31q20 0 26 6.5t6 25.5v179q0 20 -6 26t-26 6h-188v70h1064z" />
    <glyph glyph-name="dvG_GA" horiz-adv-x="916" 
d="M512 148h43q18 0 24 5.5t6 24.5v187h-71q-20 0 -25.5 -5.5t-5.5 -25.5v-156q0 -18 5.5 -24t23.5 -6zM153 148h43q18 0 24 5.5t6 24.5v187h-71q-19 0 -25 -5.5t-6 -25.5v-156q0 -18 6 -24t23 -6zM936 626v-70h-72v-556h-90v556h-99v-389q0 -46 -23 -67.5t-73 -21.5h-90
q-50 0 -73 21.5t-23 67.5v182q0 87 100 87h92v120h-269v-389q0 -46 -23 -67.5t-73 -21.5h-90q-50 0 -73 21.5t-23 67.5v182q0 87 100 87h92v120h-246v70h956z" />
    <glyph glyph-name="dvG_GHA" horiz-adv-x="804" 
d="M665 182v374h-117q-29 0 -36.5 -5t-7.5 -27v-108q0 -18 5.5 -23.5t23.5 -5.5h61v-71h-61q-18 0 -23.5 -5.5t-5.5 -23.5v-109q0 -19 5.5 -24.5t23.5 -5.5h98q19 0 26.5 7t7.5 27zM153 148h43q18 0 24 5.5t6 24.5v187h-71q-19 0 -25 -5.5t-6 -25.5v-156q0 -18 6 -24t23 -6z
M827 626v-70h-71v-556h-91v89q-11 -11 -35 -11h-120q-97 0 -97 89v134q0 45 39 48v3q-39 3 -39 49v125q0 21 11 30h-108v-389q0 -46 -23 -67.5t-73 -21.5h-90q-50 0 -73 21.5t-23 67.5v182q0 87 100 87h92v120h-246v70h847z" />
    <glyph glyph-name="dvG_JA" horiz-adv-x="902" 
d="M153 148h43q18 0 24 5.5t6 24.5v187h-71q-19 0 -25 -5.5t-6 -25.5v-156q0 -18 6 -24t23 -6zM924 626v-70h-72v-556h-90v412h-84v-245q0 -46 -23 -67.5t-73 -21.5h-78q-50 0 -73 21.5t-23 67.5v315h90v-304q0 -19 6 -24.5t24 -5.5h31q17 0 23 6t6 24v304h174v74h-446v-389
q0 -46 -23 -67.5t-73 -21.5h-90q-50 0 -73 21.5t-23 67.5v182q0 87 100 87h92v120h-246v70h944z" />
    <glyph glyph-name="dvG_NNA" horiz-adv-x="904" 
d="M586 178v378h-90v-378q0 -19 6 -24.5t24 -5.5h31q17 0 23 6t6 24zM153 148h43q18 0 24 5.5t6 24.5v187h-71q-19 0 -25 -5.5t-6 -25.5v-156q0 -18 6 -24t23 -6zM924 626v-70h-72v-556h-90v556h-86v-389q0 -46 -23 -67.5t-73 -21.5h-78q-50 0 -73 21.5t-23 67.5v389h-90
v-389q0 -46 -23 -67.5t-73 -21.5h-90q-50 0 -73 21.5t-23 67.5v182q0 87 100 87h92v120h-246v70h944z" />
    <glyph glyph-name="dvG_DA" horiz-adv-x="736" 
d="M153 148h43q18 0 24 5.5t6 24.5v187h-71q-19 0 -25 -5.5t-6 -25.5v-156q0 -18 6 -24t23 -6zM679 412h-153q-18 0 -24 -5.5t-6 -24.5v-204q0 -18 6 -24t23 -6h37q18 0 25 7t7 25v91h90v-271h-90v89q-11 -11 -36 -11h-56q-50 0 -73 21.5t-23 67.5v230q0 44 22 64.5t70 20.5
h91v74h-273v-389q0 -46 -23 -67.5t-73 -21.5h-90q-50 0 -73 21.5t-23 67.5v182q0 87 100 87h92v120h-246v70h771v-70h-72v-144z" />
    <glyph glyph-name="dvG_DHA" horiz-adv-x="819" 
d="M153 148h43q18 0 24 5.5t6 24.5v187h-71q-19 0 -25 -5.5t-6 -25.5v-156q0 -18 6 -24t23 -6zM-20 556v70h398v-70h-62v-389q0 -46 -23 -67.5t-73 -21.5h-90q-50 0 -73 21.5t-23 67.5v182q0 87 100 87h92v120h-246zM840 626v-70h-71v-556h-91v89q-11 -11 -35 -11h-145
q-90 0 -90 85v131q0 43 39 48v2q-39 5 -39 49v154q0 84 90 84h39q90 0 90 -84v-58h-60v43q0 18 -6 23.5t-24 5.5h-9q-18 0 -23.5 -5.5t-5.5 -23.5v-123q0 -19 5.5 -24.5t23.5 -5.5h68v-70h-68q-18 0 -23.5 -5.5t-5.5 -24.5v-101q0 -19 5.5 -24.5t23.5 -5.5h116q20 0 27 7
t7 27v444h162z" />
    <glyph glyph-name="dvG_DH_YA" horiz-adv-x="1113" 
d="M153 148h43q18 0 24 5.5t6 24.5v187h-71q-19 0 -25 -5.5t-6 -25.5v-156q0 -18 6 -24t23 -6zM-20 556v70h398v-70h-62v-389q0 -46 -23 -67.5t-73 -21.5h-90q-50 0 -73 21.5t-23 67.5v182q0 87 100 87h92v120h-246zM971 182v374h-95q10 -10 10 -31v-131q0 -87 -91 -87h-26
v-129q0 -19 5.5 -24.5t23.5 -5.5h139q19 0 26.5 7t7.5 27zM1133 626v-70h-72v-556h-90v89q-11 -11 -36 -11h-160q-48 0 -72 21q-10 -21 -46 -21h-159q-89 0 -89 85v131q0 43 39 48v2q-39 5 -39 49v154q0 84 89 84h39q90 0 90 -84v-58h-60v43q0 18 -6 23.5t-24 5.5h-9
q-18 0 -23.5 -5.5t-5.5 -23.5v-123q0 -19 5.5 -24.5t23.5 -5.5h68v-70h-68q-18 0 -23.5 -5.5t-5.5 -24.5v-101q0 -19 5.5 -24.5t23.5 -5.5h117q19 0 26.5 7t7.5 27v196h89q18 0 23.5 5.5t5.5 22.5v117q0 22 -7 27.5t-36 5.5h-75v70h454z" />
    <glyph glyph-name="dvG_DH_VA" horiz-adv-x="1010" 
d="M153 148h43q18 0 24 5.5t6 24.5v187h-71q-19 0 -25 -5.5t-6 -25.5v-156q0 -18 6 -24t23 -6zM-20 556v70h398v-70h-62v-389q0 -46 -23 -67.5t-73 -21.5h-90q-50 0 -73 21.5t-23 67.5v182q0 87 100 87h92v120h-246zM1030 626v-70h-72v-556h-90v89q-11 -11 -37 -11h-62
q-45 0 -67 21q-10 -21 -45 -21h-159q-89 0 -89 85v131q0 43 39 48v2q-39 5 -39 49v154q0 84 89 84h39q90 0 90 -84v-58h-60v43q0 18 -6 23.5t-24 5.5h-9q-18 0 -23.5 -5.5t-5.5 -23.5v-123q0 -19 5.5 -24.5t23.5 -5.5h68v-70h-68q-18 0 -23.5 -5.5t-5.5 -24.5v-101
q0 -19 5.5 -24.5t23.5 -5.5h117q19 0 26.5 7t7.5 27v215q0 44 21.5 64.5t69.5 20.5h57v-68h-29q-18 0 -23.5 -5.5t-5.5 -23.5v-207q0 -19 5.5 -24.5t23.5 -5.5h38q18 0 25 7t7 25v376h-189v70h351z" />
    <glyph glyph-name="dvG_NA" horiz-adv-x="894" 
d="M580 178v234h-57q-17 0 -23 -5.5t-6 -23.5v-205q0 -19 6 -24.5t24 -5.5h27q17 0 23 6t6 24zM153 148h43q18 0 24 5.5t6 24.5v187h-71q-19 0 -25 -5.5t-6 -25.5v-156q0 -18 6 -24t23 -6zM915 626v-70h-72v-556h-90v412h-82v-245q0 -46 -23.5 -67.5t-73.5 -21.5h-74
q-50 0 -73 21.5t-23 67.5v230q0 44 22 64.5t70 20.5h257v74h-437v-389q0 -46 -23 -67.5t-73 -21.5h-90q-50 0 -73 21.5t-23 67.5v182q0 87 100 87h92v120h-246v70h935z" />
    <glyph glyph-name="dvG_N_YA" horiz-adv-x="1190" 
d="M1048 182v374h-94q9 -11 9 -31v-79q0 -87 -90 -87h-27v-181q0 -19 6 -24.5t24 -5.5h138q20 0 27 7t7 27zM579 178v181h-57q-17 0 -23 -5.5t-6 -23.5v-152q0 -19 6 -24.5t24 -5.5h27q18 0 23.5 6t5.5 24zM153 148h43q18 0 24 5.5t6 24.5v187h-71q-19 0 -25 -5.5t-6 -25.5
v-156q0 -18 6 -24t23 -6zM1210 626v-70h-72v-556h-90v89q-11 -11 -36 -11h-160q-96 0 -96 89v192h-86v-192q0 -46 -23.5 -67.5t-73.5 -21.5h-74q-50 0 -73 21.5t-23 67.5v177q0 44 22 64.5t70 20.5h351q17 0 23 5.5t6 23.5v65q0 22 -7 27.5t-37 5.5h-515v-389
q0 -46 -23 -67.5t-73 -21.5h-90q-50 0 -73 21.5t-23 67.5v182q0 87 100 87h92v120h-246v70h1230z" />
    <glyph glyph-name="dvG_BA" horiz-adv-x="782" 
d="M529 148h89q9 0 12 1l-77 132q-12 23 -25 48l-19.5 37.5t-8.5 15.5v-204q0 -18 6 -24t23 -6zM153 148h43q18 0 24 5.5t6 24.5v187h-71q-19 0 -25 -5.5t-6 -25.5v-156q0 -18 6 -24t23 -6zM809 626v-70h-72v-556h-91v85q-11 -7 -32 -7h-114q-90 0 -90 89v230q0 44 22 64.5
t70 20.5h104v-68h-75l69 -121l52 -96q-6 39 -6 128v231h-330v-389q0 -46 -23 -67.5t-73 -21.5h-90q-50 0 -73 21.5t-23 67.5v182q0 87 100 87h92v120h-246v70h829z" />
    <glyph glyph-name="dvG_BHA" horiz-adv-x="932" 
d="M153 148h43q18 0 24 5.5t6 24.5v187h-71q-19 0 -25 -5.5t-6 -25.5v-156q0 -18 6 -24t23 -6zM-20 556v70h397v-70h-61v-389q0 -46 -23 -67.5t-73 -21.5h-90q-50 0 -73 21.5t-23 67.5v182q0 87 100 87h92v120h-246zM595 178v161h-72q-17 0 -23 -5.5t-6 -23.5v-132
q0 -19 6 -24.5t24 -5.5h41q18 0 24 5.5t6 24.5zM952 626v-70h-71v-556h-91v339h-105v-172q0 -46 -23 -67.5t-73 -21.5h-89q-50 0 -73 21.5t-23 67.5v157q0 44 22 64.5t70 20.5h99v119q0 18 -6 23.5t-24 5.5h-33q-18 0 -24 -5.5t-6 -23.5v-49h-90v61q0 87 92 87h89
q92 0 92 -87v-131h105v217h162z" />
    <glyph glyph-name="dvG_BH_YA" horiz-adv-x="1224" 
d="M153 148h43q18 0 24 5.5t6 24.5v187h-71q-19 0 -25 -5.5t-6 -25.5v-156q0 -18 6 -24t23 -6zM-20 556v70h397v-70h-61v-389q0 -46 -23 -67.5t-73 -21.5h-90q-50 0 -73 21.5t-23 67.5v182q0 87 100 87h92v120h-246zM1060 182v374h-94q10 -10 10 -31v-102q0 -87 -91 -87h-26
v-158q0 -19 5.5 -24.5t23.5 -5.5h138q20 0 27 7t7 27zM595 178v158h-72q-17 0 -23 -5.5t-6 -22.5v-130q0 -19 6 -24.5t24 -5.5h41q18 0 24 5.5t6 24.5zM1223 626v-70h-72v-556h-91v89q-11 -11 -35 -11h-160q-96 0 -96 89v169h-84v-169q0 -46 -23 -67.5t-73 -21.5h-89
q-50 0 -73 21.5t-23 67.5v155q0 43 22 64t70 21h99v121q0 18 -6 23.5t-24 5.5h-33q-18 0 -24 -5.5t-6 -23.5v-49h-90v61q0 87 92 87h89q92 0 92 -87v-133h173q18 0 23.5 5.5t5.5 22.5v88q0 22 -7 27.5t-36 5.5h-75v70h454z" />
    <glyph glyph-name="dvG_MA" horiz-adv-x="932" 
d="M790 432v124h-105v-124h105zM595 202v160h-75q-18 0 -24 -5.5t-6 -23.5v-131q0 -19 6 -24.5t24 -5.5h45q18 0 24 5.5t6 24.5zM153 148h43q18 0 24 5.5t6 24.5v187h-71q-19 0 -25 -5.5t-6 -25.5v-156q0 -18 6 -24t23 -6zM952 626v-70h-71v-556h-91v362h-105v-171
q0 -47 -23 -68t-73 -21h-89q-50 0 -73 21t-23 68v156q0 43 22 64t70 21h99v124h-279v-389q0 -46 -23 -67.5t-73 -21.5h-90q-50 0 -73 21.5t-23 67.5v182q0 87 100 87h92v120h-246v70h972z" />
    <glyph glyph-name="dvG_YA" horiz-adv-x="838" 
d="M696 182v374h-94q9 -11 9 -31v-131q0 -87 -90 -87h-27v-129q0 -19 6 -24.5t24 -5.5h138q20 0 27 7t7 27zM153 148h43q18 0 24 5.5t6 24.5v187h-71q-19 0 -25 -5.5t-6 -25.5v-156q0 -18 6 -24t23 -6zM858 626v-70h-72v-556h-90v89q-11 -11 -36 -11h-160q-96 0 -96 89v211
h90q17 0 23 5.5t6 22.5v117q0 22 -7 27.5t-37 5.5h-163v-389q0 -46 -23 -67.5t-73 -21.5h-90q-50 0 -73 21.5t-23 67.5v182q0 87 100 87h92v120h-246v70h878z" />
    <glyph glyph-name="dvG_R_YA" horiz-adv-x="833" 
d="M691 182v374h-94q9 -11 9 -31v-131q0 -87 -90 -87h-27v-129q0 -19 6 -24.5t24 -5.5h138q19 0 26.5 7t7.5 27zM153 220h43q18 0 24 5.5t6 24.5v162h-71q-19 0 -25 -6t-6 -25v-131q0 -18 6 -24t23 -6zM853 626v-70h-72v-556h-90v89q-11 -11 -36 -11h-160q-71 0 -89 46
l-167 -180h-100l260 281v153h90q17 0 23 5.5t6 22.5v117q0 22 -7 27.5t-37 5.5h-158v-317q0 -46 -23 -67.5t-73 -21.5h-90q-50 0 -73 21.5t-23 67.5v157q0 44 24 65t76 21h92v74h-246v70h873z" />
    <glyph glyph-name="dvG_LA" horiz-adv-x="899" 
d="M153 148h43q18 0 24 5.5t6 24.5v187h-71q-19 0 -25 -5.5t-6 -25.5v-156q0 -18 6 -24t23 -6zM920 626v-70h-67v-556h-90v412h-60q-18 0 -23.5 -6t-5.5 -24v-197h-90v197q0 18 -5.5 24t-23.5 6h-32q-17 0 -23 -6t-6 -24v-281q0 -17 6 -22.5t23 -5.5h59v-73h-87
q-47 0 -69 21t-22 64v308q0 89 90 89h86q46 0 49 -39h3q3 39 48 39h83v74h-447v-389q0 -46 -23 -67.5t-73 -21.5h-90q-50 0 -73 21.5t-23 67.5v182q0 87 100 87h92v120h-246v70h940z" />
    <glyph glyph-name="dvG_VA" horiz-adv-x="735" 
d="M153 148h43q18 0 24 5.5t6 24.5v187h-71q-19 0 -25 -5.5t-6 -25.5v-156q0 -18 6 -24t23 -6zM754 626v-70h-72v-556h-90v89q-11 -11 -36 -11h-63q-90 0 -90 89v230q0 44 22 64.5t70 20.5h57v-70h-29q-18 0 -23.5 -5.5t-5.5 -23.5v-205q0 -19 5.5 -24.5t23.5 -5.5h38
q17 0 24 7t7 25v376h-276v-389q0 -46 -23 -67.5t-73 -21.5h-90q-50 0 -73 21.5t-23 67.5v182q0 87 100 87h92v120h-246v70h774z" />
    <glyph glyph-name="dvG_SA" horiz-adv-x="909" 
d="M769 348v208h-96q8 -8 8 -26v-129q0 -38 -15 -53h103zM153 148h43q18 0 24 5.5t6 24.5v187h-71q-19 0 -25 -5.5t-6 -25.5v-156q0 -18 6 -24t23 -6zM930 626v-70h-72v-556h-89v278h-275v-181q0 -18 6 -23.5t23 -5.5h38q17 0 22.5 5.5t5.5 23.5v113h90v-125q0 -43 -22 -64
t-70 -21h-91q-48 0 -70 21t-22 64v366h90v-103h65q19 0 25.5 6t6.5 26v144q0 20 -6.5 26t-25.5 6h-243v-389q0 -46 -23 -67.5t-73 -21.5h-90q-50 0 -73 21.5t-23 67.5v182q0 87 100 87h92v120h-246v70h950z" />
    <glyph glyph-name="dvGH_NA" horiz-adv-x="782" 
d="M634 482v74h-466q-19 0 -25 -6t-6 -26v-108q0 -18 5.5 -23.5t23.5 -5.5h61v-71h-61q-18 0 -23.5 -5.5t-5.5 -23.5v-109q0 -19 5.5 -24.5t23.5 -5.5h86q19 0 26.5 7.5t7.5 26.5v215q0 44 21.5 64.5t69.5 20.5h257zM462 178v234h-57q-17 0 -23 -5.5t-6 -23.5v-205
q0 -19 6 -24.5t24 -5.5h26q18 0 24 5.5t6 24.5zM796 626v-70h-71v-556h-91v412h-82v-245q0 -46 -23 -67.5t-73 -21.5h-74q-50 0 -71 20q-17 -20 -57 -20h-111q-97 0 -97 89v134q0 45 39 48v3q-39 3 -39 49v129q0 18 8 26h-74v70h816z" />
    <glyph glyph-name="dvGH_MA" horiz-adv-x="813" 
d="M672 432v124h-106v-124h106zM476 178v184h-75q-17 0 -23 -5.5t-6 -23.5v-155q0 -19 6 -24.5t24 -5.5h45q17 0 23 6t6 24zM166 148h86q19 0 26.5 7.5t7.5 26.5v165q0 43 22 64t69 21h99v124h-308q-19 0 -25 -6t-6 -26v-108q0 -18 5.5 -23.5t23.5 -5.5h61v-71h-61
q-18 0 -23.5 -5.5t-5.5 -23.5v-109q0 -19 5.5 -24.5t23.5 -5.5zM833 626v-70h-71v-556h-90v362h-106v-195q0 -46 -23 -67.5t-73 -21.5h-88q-50 0 -71 20q-17 -20 -57 -20h-111q-97 0 -97 89v134q0 45 39 48v3q-39 3 -39 49v129q0 18 8 26h-74v70h853z" />
    <glyph glyph-name="dvGH_YA" horiz-adv-x="704" 
d="M578 182v374h-95q10 -10 10 -31v-131q0 -87 -91 -87h-26v-129q0 -18 6 -24t23 -6h139q20 0 27 7t7 27zM286 378h89q18 0 23.5 5.5t5.5 22.5v117q0 22 -7 27.5t-36 5.5h-193q-19 0 -25 -6t-6 -26v-108q0 -18 5.5 -23.5t23.5 -5.5h61v-71h-61q-18 0 -23.5 -5.5t-5.5 -23.5
v-109q0 -19 5.5 -24.5t23.5 -5.5h86q19 0 26.5 7.5t7.5 26.5v196zM724 626v-70h-56v-556h-90v89q-11 -11 -36 -11h-160q-46 0 -71 20q-17 -20 -57 -20h-111q-97 0 -97 89v134q0 45 39 48v3q-39 3 -39 49v129q0 18 8 26h-74v70h744z" />
    <glyph glyph-name="dvC_CA" horiz-adv-x="615" 
d="M635 626v-70h-71v-556h-91v88q-11 -10 -36 -10h-78q-43 0 -65 19q-16 -19 -57 -19h-84q-90 0 -90 89v213q0 22 10 32h-72v70h191v-70h-8q-18 0 -24.5 -7t-6.5 -23v-204q0 -18 5.5 -24t23.5 -6h53q19 0 26.5 7.5t7.5 26.5v198q0 22 10 32h-39v70h185v-70h-35
q-18 0 -24.5 -7t-6.5 -23v-204q0 -18 5.5 -24t23.5 -6h54q17 0 24 7t7 25v376h-493v70h655z" />
    <glyph glyph-name="dvC_CHA" horiz-adv-x="761" 
d="M553 482v74h-146l7 -1q-37 2 -46 -2.5t-9 -28.5v-149q0 -19 5.5 -24.5t23.5 -5.5h36v-70h-36q-18 0 -23.5 -5.5t-5.5 -24.5v-145q0 -18 6 -23.5t23 -5.5h211q18 0 24 5.5t6 23.5v287q0 18 -6 23.5t-24 5.5h-19q-18 0 -23.5 -5.5t-5.5 -23.5v-112q0 -18 5.5 -23.5
t23.5 -5.5h18v-66h-37q-88 0 -88 85v132q0 79 80 85zM781 556h-144v-75q78 -5 78 -84v-308q0 -89 -96 -89h-254q-95 0 -96 86q-18 -8 -42 -8h-74q-90 0 -90 89v213q0 23 11 32h-73v70h215v-70h-34q-18 0 -23.5 -6t-5.5 -24v-204q0 -18 5.5 -24t23.5 -6h53q19 0 26.5 7.5
t7.5 26.5v78q0 43 39 48v2q-39 5 -39 49v171q0 16 8 26h-297v70h801v-70z" />
    <glyph glyph-name="dvC_CH_VA" horiz-adv-x="759" 
d="M551 482v74h-146l7 -1q-37 2 -46 -2.5t-9 -28.5v-149q0 -19 5.5 -24.5t23.5 -5.5h36v-70h-36q-18 0 -23.5 -5.5t-5.5 -24.5v-145q0 -18 5.5 -23.5t23.5 -5.5h211q18 0 23.5 5.5t5.5 23.5v287q0 18 -5.5 23.5t-23.5 5.5h-19q-18 0 -23.5 -5.5t-5.5 -23.5v-112
q0 -18 5.5 -23.5t23.5 -5.5h18v-66h-37q-88 0 -88 85v132q0 79 80 85zM454 -99h70q16 0 22.5 6.5t6.5 23.5v69h-106q-20 -2 -20 -31v-41q0 -16 5.5 -21.5t21.5 -5.5zM779 556h-144v-75q78 -5 78 -84v-308q0 -82 -81 -88v-232h-79v75q-10 -11 -34 -11h-86q-86 0 -86 84v56
q0 17 8 27q-87 4 -88 86q-18 -8 -42 -8h-74q-90 0 -90 89v213q0 22 10 32h-71v70h214v-70h-34q-18 0 -23.5 -6t-5.5 -24v-204q0 -18 5.5 -24t23.5 -6h53q19 0 26.5 7.5t7.5 26.5v78q0 43 39 48v2q-39 5 -39 49v171q0 16 7 26h-294v70h799v-70z" />
    <glyph glyph-name="dvC_NA" horiz-adv-x="759" 
d="M445 178v234h-57q-17 0 -23 -5.5t-6 -23.5v-205q0 -19 6 -24.5t24 -5.5h26q18 0 24 5.5t6 24.5zM779 626v-70h-71v-556h-91v412h-82v-245q0 -46 -23 -67.5t-73 -21.5h-74q-53 0 -77 25q-15 -25 -61 -25h-74q-90 0 -90 89v213q0 23 11 32h-73v70h219v-70h-38
q-18 0 -23.5 -6t-5.5 -24v-204q0 -18 5.5 -24t23.5 -6h53q19 0 26.5 7.5t7.5 26.5v215q0 44 22 64.5t70 20.5h256v74h-637v70h799z" />
    <glyph glyph-name="dvC_MA" horiz-adv-x="797" 
d="M655 432v124h-105v-124h105zM459 178v184h-75q-17 0 -23 -5.5t-6 -23.5v-155q0 -19 6 -24.5t24 -5.5h45q18 0 23.5 6t5.5 24zM817 626v-70h-72v-556h-90v362h-105v-195q0 -46 -23.5 -67.5t-73.5 -21.5h-88q-53 0 -77 25q-15 -25 -61 -25h-74q-90 0 -90 89v213q0 23 11 32
h-73v70h219v-70h-38q-18 0 -23.5 -6t-5.5 -24v-204q0 -18 5.5 -24t23.5 -6h53q19 0 26.5 7.5t7.5 26.5v165q0 43 22 64t70 21h98v124h-479v70h837z" />
    <glyph glyph-name="dvC_YA" horiz-adv-x="703" 
d="M561 182v374h-94q9 -10 9 -31v-131q0 -87 -91 -87h-26v-129q0 -18 5.5 -24t23.5 -6h139q19 0 26.5 7t7.5 27zM723 626v-70h-72v-556h-90v89q-11 -11 -36 -11h-160q-54 0 -76 26q-17 -26 -62 -26h-74q-90 0 -90 89v213q0 23 11 32h-73v70h219v-70h-38q-18 0 -23.5 -6
t-5.5 -24v-204q0 -18 5.5 -24t23.5 -6h53q19 0 26.5 7.5t7.5 26.5v196h89q18 0 23.5 5.5t5.5 22.5v117q0 22 -7 27.5t-36 5.5h-364v70h743z" />
    <glyph glyph-name="dvCH_YA" horiz-adv-x="1010" 
d="M868 182v374h-679l7 -1q-37 2 -46 -2.5t-9 -28.5v-149q0 -19 5.5 -24.5t23.5 -5.5h36v-70h-36q-18 0 -23.5 -5.5t-5.5 -24.5v-145q0 -18 5.5 -23.5t23.5 -5.5h211q18 0 23.5 5.5t5.5 23.5v287q0 18 -5.5 23.5t-23.5 5.5h-19q-18 0 -23.5 -5.5t-5.5 -23.5v-112
q0 -18 5.5 -23.5t23.5 -5.5h18v-66h-37q-88 0 -88 85v135q0 85 92 85h345q91 0 91 -87v-85q0 -87 -91 -87h-26v-48q0 -18 6 -24t23 -6h139q20 0 27 7t7 27zM1030 626v-70h-72v-556h-90v89q-11 -11 -36 -11h-160q-96 0 -96 89v126h89q18 0 24 5.5t6 22.5v66q0 18 -6 23.5
t-24 5.5h-169q1 -5 1 -16v-311q0 -89 -97 -89h-253q-96 0 -96 89v171q0 43 39 48v2q-39 5 -39 49v171q0 16 7 26h-78v70h1050z" />
    <glyph glyph-name="dvCH_R_YA" horiz-adv-x="1010" 
d="M868 182v374h-679l7 -1q-37 2 -46 -2.5t-9 -28.5v-149q0 -19 5.5 -24.5t23.5 -5.5h36v-70h-36q-18 0 -23.5 -5.5t-5.5 -24.5v-145q0 -18 5.5 -23.5t23.5 -5.5h211q18 0 23.5 5.5t5.5 23.5v287q0 18 -5.5 23.5t-23.5 5.5h-19q-18 0 -23.5 -5.5t-5.5 -23.5v-112
q0 -18 5.5 -23.5t23.5 -5.5h18v-66h-37q-88 0 -88 85v135q0 85 92 85h345q91 0 91 -87v-85q0 -87 -91 -87h-26v-48q0 -18 6 -24t23 -6h139q20 0 27 7t7 27zM1030 626v-70h-72v-556h-90v89q-11 -11 -36 -11h-160q-96 0 -96 89v126h89q18 0 24 5.5t6 22.5v66q0 18 -6 23.5
t-24 5.5h-169q1 -5 1 -16v-311q0 -89 -97 -89h-56l78 -141h-86l-62 124l-63 -124h-86l79 141h-57q-96 0 -96 89v171q0 43 39 48v2q-39 5 -39 49v171q0 16 7 26h-78v70h1050z" />
    <glyph glyph-name="dvJ_KA" horiz-adv-x="915" 
d="M932 556h-248v-84q11 10 36 10h63q90 0 90 -89v-230q0 -43 -22 -64t-70 -21h-57v68h29q18 0 23.5 5.5t5.5 23.5v207q0 19 -5.5 24.5t-23.5 5.5h-38q-17 0 -24 -7t-7 -25v-380h-90v89q-11 -11 -37 -11h-62q-90 0 -90 89v230q0 10 1 15h-92v-245q0 -46 -23 -67.5t-73 -21.5
h-78q-50 0 -73 21.5t-23 67.5v315h90v-304q0 -19 6 -24.5t24 -5.5h31q17 0 23 6t6 24v304h329v-68h-29q-18 0 -23.5 -5.5t-5.5 -23.5v-207q0 -19 5.5 -24.5t23.5 -5.5h38q18 0 25 7t7 25v376h-614v70h952v-70z" />
    <glyph glyph-name="dvJ_JA" horiz-adv-x="901" 
d="M921 626v-70h-72v-556h-90v412h-84v-245q0 -46 -23 -67.5t-73 -21.5h-78q-50 0 -73 21.5t-23 67.5v245h-91v-245q0 -46 -23 -67.5t-73 -21.5h-78q-50 0 -73 21.5t-23 67.5v315h90v-304q0 -19 6 -24.5t24 -5.5h31q17 0 23 6t6 24v304h271v-304q0 -19 6 -24.5t24 -5.5h31
q18 0 23.5 6t5.5 24v304h174v74h-779v70h941z" />
    <glyph glyph-name="dvJx_JxA" horiz-adv-x="901" 
d="M137 -87v95h83v-95h-83zM503 -87v95h83v-95h-83zM921 626v-70h-72v-556h-90v412h-84v-245q0 -46 -23 -67.5t-73 -21.5h-78q-50 0 -73 21.5t-23 67.5v245h-91v-245q0 -46 -23 -67.5t-73 -21.5h-78q-50 0 -73 21.5t-23 67.5v315h90v-304q0 -19 6 -24.5t24 -5.5h31
q17 0 23 6t6 24v304h271v-304q0 -19 6 -24.5t24 -5.5h31q18 0 23.5 6t5.5 24v304h174v74h-779v70h941z" />
    <glyph glyph-name="dvJ_J_NYA" horiz-adv-x="884" 
d="M897 626v-70h-72v-556h-91v406h-91q8 -8 8 -26v-233q0 -44 -21.5 -64.5t-69.5 -20.5h-85v-75h-91v221h91v-78h57q17 0 23 5.5t6 23.5v218q0 18 -6 23.5t-23 5.5h-218v-239q0 -46 -23 -67.5t-73 -21.5h-78q-50 0 -73 21.5t-23 67.5v309h90v-298q0 -19 6 -24.5t24 -5.5h31
q17 0 23 6t6 24v298h510v80h-754v70h917z" />
    <glyph glyph-name="dvJ_J_YA" horiz-adv-x="1185" 
d="M1043 182v374h-92q8 -11 8 -29v-58q0 -87 -91 -87h-26v-204q0 -19 5.5 -24.5t23.5 -5.5h138q19 0 26.5 7t7.5 27zM1205 626v-70h-71v-556h-91v89q-11 -11 -35 -11h-160q-97 0 -97 89v215h-83v-215q0 -46 -23 -67.5t-73 -21.5h-78q-50 0 -73 21.5t-23 67.5v215h-84v-215
q0 -46 -23 -67.5t-73 -21.5h-78q-50 0 -73 21.5t-23 67.5v285h90v-274q0 -19 6 -24.5t24 -5.5h31q17 0 23 6t6 24v274h264v-274q0 -18 6 -24t23 -6h31q18 0 24 5.5t6 24.5v274h263q18 0 23.5 5.5t5.5 23.5v45q0 20 -6.5 25t-34.5 5h-849v70h1225z" />
    <glyph glyph-name="dvJ_J_VA" horiz-adv-x="1089" 
d="M1109 626v-70h-72v-556h-90v89q-11 -11 -36 -11h-63q-90 0 -90 89v221q0 17 2 24h-85v-245q0 -46 -23 -67.5t-73 -21.5h-78q-50 0 -73 21.5t-23 67.5v245h-91v-245q0 -46 -23 -67.5t-73 -21.5h-78q-50 0 -73 21.5t-23 67.5v315h90v-304q0 -19 6 -24.5t24 -5.5h31
q17 0 23 6t6 24v304h271v-304q0 -19 6 -24.5t24 -5.5h30q18 0 24 5.5t6 24.5v304h322v-70h-29q-18 0 -24 -5.5t-6 -23.5v-205q0 -19 6 -24.5t24 -5.5h37q18 0 25 7t7 25v376h-967v70h1129z" />
    <glyph glyph-name="dvJ_JHA" horiz-adv-x="932" 
d="M790 320v236h-110v-142h-156q-18 0 -23.5 -5.5t-5.5 -23.5v-36q0 -18 5.5 -23.5t23.5 -5.5h266zM952 626v-70h-72v-556h-90v252h-102q2 -14 2 -21v-84q0 -44 -22 -64.5t-70 -20.5h-102v-75h-90v198h90v-55h74q18 0 23.5 5.5t5.5 23.5v64q0 18 -5.5 23.5t-23.5 5.5h-74
q-48 0 -69.5 20.5t-21.5 64.5v60q0 10 1 15h-92v-245q0 -46 -23 -67.5t-73 -21.5h-78q-50 0 -73 21.5t-23 67.5v315h90v-304q0 -19 6 -24.5t24 -5.5h31q17 0 23 6t6 24v304h365v74h-609v70h972z" />
    <glyph glyph-name="dvJ_NY_YA" horiz-adv-x="828" 
d="M686 182v374h-94q10 -10 10 -31v-88q0 -87 -91 -87h-26v-172q0 -19 5.5 -24.5t23.5 -5.5h138q20 0 27 7t7 27zM848 626v-70h-72v-556h-90v89q-11 -11 -35 -11h-160q-97 0 -97 89v183h-88q7 -9 7 -25v-178q0 -44 -22 -64.5t-70 -20.5h-84v-75h-91v221h91v-78h57
q17 0 23 5.5t6 23.5v163q0 17 -6 22.5t-23 5.5h-126v71h416q17 0 23 5.5t6 22.5v74q0 22 -7 27.5t-36 5.5h-490v70h868z" />
    <glyph glyph-name="dvJ_TTA" horiz-adv-x="719" 
d="M670 412h-145q-18 0 -24 -5.5t-6 -24.5v-282q0 -19 6 -24.5t24 -5.5h30q18 0 24 5.5t6 24.5v103h90v-114q0 -46 -23 -67.5t-73 -21.5h-78q-50 0 -73 21.5t-23 67.5v308q0 10 1 15h-92v-245q0 -46 -23 -67.5t-73 -21.5h-78q-50 0 -73 21.5t-23 67.5v315h90v-304
q0 -19 6 -24.5t24 -5.5h31q17 0 23 6t6 24v304h355v74h-599v70h759v-70h-69v-144z" />
    <glyph glyph-name="dvJ_DDA" horiz-adv-x="726" 
d="M658 414h-134q-18 0 -23.5 -5.5t-5.5 -23.5v-60q0 -17 5.5 -22.5t23.5 -5.5h54q48 0 70 -21t22 -64v-127q0 -43 -22 -64t-70 -21h-92q-48 0 -70 21t-22 64v79h90v-67q0 -18 5.5 -23.5t22.5 -5.5h39q17 0 23 5.5t6 23.5v103q0 17 -6 22.5t-23 5.5h-55q-47 0 -69 21t-22 64
v84q0 10 1 15h-92v-245q0 -46 -23 -67.5t-73 -21.5h-78q-50 0 -73 21.5t-23 67.5v315h90v-304q0 -19 6 -24.5t24 -5.5h31q17 0 23 6t6 24v304h343v74h-587v70h766v-70h-88v-142z" />
    <glyph glyph-name="dvJ_TA" horiz-adv-x="759" 
d="M779 626v-70h-72v-556h-90v412h-93q-18 0 -23.5 -5.5t-5.5 -23.5v-282q0 -17 5.5 -22.5t23.5 -5.5h29v-73h-57q-47 0 -69 21t-22 64v312q0 10 1 15h-92v-245q0 -46 -23 -67.5t-73 -21.5h-78q-50 0 -73 21.5t-23 67.5v315h90v-304q0 -19 6 -24.5t24 -5.5h31q17 0 23 6
t6 24v304h393v74h-637v70h799z" />
    <glyph glyph-name="dvJ_DA" horiz-adv-x="729" 
d="M678 412h-153q-18 0 -24 -5.5t-6 -24.5v-204q0 -19 5.5 -24.5t23.5 -5.5h37q18 0 25 7t7 25v91h90v-271h-90v89q-11 -11 -37 -11h-55q-50 0 -73 21.5t-23 67.5v230q0 10 1 15h-92v-245q0 -46 -23 -67.5t-73 -21.5h-78q-50 0 -73 21.5t-23 67.5v315h90v-304q0 -19 6 -24.5
t24 -5.5h31q17 0 23 6t6 24v304h363v74h-607v70h775v-70h-77v-144z" />
    <glyph glyph-name="dvJ_NA" horiz-adv-x="895" 
d="M581 178v234h-57q-18 0 -23.5 -5.5t-5.5 -23.5v-205q0 -19 6 -24.5t24 -5.5h26q18 0 24 5.5t6 24.5zM915 626v-70h-71v-556h-91v412h-82v-245q0 -46 -23 -67.5t-73 -21.5h-74q-50 0 -73 21.5t-23 67.5v230q0 10 1 15h-92v-245q0 -46 -23 -67.5t-73 -21.5h-78
q-50 0 -73 21.5t-23 67.5v315h90v-304q0 -19 6 -24.5t24 -5.5h31q17 0 23 6t6 24v304h529v74h-773v70h935z" />
    <glyph glyph-name="dvJ_BA" horiz-adv-x="783" 
d="M524 148h89q8 0 12 1l-77 132q-12 23 -25 48l-19.5 37.5t-8.5 15.5v-204q0 -19 5.5 -24.5t23.5 -5.5zM803 626v-70h-72v-556h-90v86q-11 -8 -33 -8h-113q-90 0 -90 89v230q0 10 1 15h-92v-245q0 -46 -23 -67.5t-73 -21.5h-78q-50 0 -73 21.5t-23 67.5v315h90v-304
q0 -19 6 -24.5t24 -5.5h31q17 0 23 6t6 24v304h377v-68h-75l68 -121l53 -96q-6 39 -6 128v231h-661v70h823z" />
    <glyph glyph-name="dvJ_MA" horiz-adv-x="933" 
d="M791 432v124h-106v-124h106zM595 202v160h-75q-17 0 -23 -5.5t-6 -23.5v-131q0 -19 6 -24.5t24 -5.5h44q18 0 24 5.5t6 24.5zM953 626v-70h-72v-556h-90v362h-106v-171q0 -47 -23 -68t-73 -21h-88q-50 0 -73 21t-23 68v156q0 10 1 15h-92v-195q0 -46 -23 -67.5t-73 -21.5
h-78q-50 0 -73 21.5t-23 67.5v265h90v-254q0 -19 6 -24.5t24 -5.5h31q17 0 23 6t6 24v254h371v124h-615v70h973z" />
    <glyph glyph-name="dvJ_YA" horiz-adv-x="832" 
d="M690 182v374h-93q8 -11 8 -29v-58q0 -87 -91 -87h-26v-204q0 -18 6 -24t23 -6h139q20 0 27 7t7 27zM852 626v-70h-72v-556h-90v89q-11 -11 -36 -11h-160q-96 0 -96 89v215h-84v-215q0 -46 -23 -67.5t-73 -21.5h-78q-50 0 -73 21.5t-23 67.5v285h90v-274q0 -19 6 -24.5
t24 -5.5h31q17 0 23 6t6 24v274h263q18 0 24 5.5t6 23.5v45q0 20 -7 25t-34 5h-496v70h872z" />
    <glyph glyph-name="dvJx_YA" horiz-adv-x="832" 
d="M135 -93v95h83v-95h-83zM690 182v374h-93q8 -11 8 -29v-58q0 -87 -91 -87h-26v-204q0 -18 6 -24t23 -6h139q20 0 27 7t7 27zM852 626v-70h-72v-556h-90v89q-11 -11 -36 -11h-160q-96 0 -96 89v215h-84v-215q0 -46 -23 -67.5t-73 -21.5h-78q-50 0 -73 21.5t-23 67.5v285
h90v-274q0 -19 6 -24.5t24 -5.5h31q17 0 23 6t6 24v274h263q18 0 24 5.5t6 23.5v45q0 20 -7 25t-34 5h-496v70h872z" />
    <glyph glyph-name="dvJ_VA" horiz-adv-x="736" 
d="M756 626v-70h-72v-556h-90v89q-11 -11 -37 -11h-62q-90 0 -90 89v230q0 10 1 15h-92v-245q0 -46 -23 -67.5t-73 -21.5h-78q-50 0 -73 21.5t-23 67.5v315h90v-304q0 -19 6 -24.5t24 -5.5h31q17 0 23 6t6 24v304h329v-70h-29q-18 0 -23.5 -5.5t-5.5 -23.5v-205
q0 -19 5.5 -24.5t23.5 -5.5h38q18 0 25 7t7 25v376h-614v70h776z" />
    <glyph glyph-name="dvJH_NA" horiz-adv-x="905" 
d="M763 482v74h-445v-142h-156q-18 0 -23.5 -5.5t-5.5 -23.5v-36q0 -18 5.5 -23.5t23.5 -5.5h252v77q0 44 22 64.5t70 20.5h257zM590 178v234h-57q-17 0 -23 -5.5t-6 -23.5v-205q0 -19 6 -24.5t24 -5.5h27q17 0 23 6t6 24zM925 626v-70h-72v-556h-90v412h-82v-245
q0 -46 -23.5 -67.5t-73.5 -21.5h-74q-50 0 -73 21.5t-23 67.5v85h-88q2 -14 2 -21v-84q0 -44 -22 -64.5t-70 -20.5h-102v-75h-90v198h90v-55h74q18 0 24 5.5t6 23.5v64q0 18 -6 23.5t-24 5.5h-74q-48 0 -69.5 20.5t-21.5 64.5v60q0 44 21.5 64.5t69.5 20.5h93v74h-247v70
h945z" />
    </font>
</defs>
</svg>
